G04*
G04 #@! TF.GenerationSoftware,Altium Limited,Altium Designer,21.6.4 (81)*
G04*
G04 Layer_Color=16711935*
%FSLAX43Y43*%
%MOMM*%
G71*
G04*
G04 #@! TF.SameCoordinates,B8146748-6EAE-4540-ADCA-D378D2E1ADA8*
G04*
G04*
G04 #@! TF.FilePolarity,Negative*
G04*
G01*
G75*
%ADD11R,0.800X0.800*%
%ADD36C,1.600*%
%ADD39C,1.500*%
%ADD51C,1.700*%
%ADD81C,2.500*%
%ADD82R,2.500X2.500*%
%ADD83C,1.100*%
G04:AMPARAMS|DCode=84|XSize=1.1mm|YSize=1.3mm|CornerRadius=0mm|HoleSize=0mm|Usage=FLASHONLY|Rotation=0.000|XOffset=0mm|YOffset=0mm|HoleType=Round|Shape=Octagon|*
%AMOCTAGOND84*
4,1,8,-0.275,0.650,0.275,0.650,0.550,0.375,0.550,-0.375,0.275,-0.650,-0.275,-0.650,-0.550,-0.375,-0.550,0.375,-0.275,0.650,0.0*
%
%ADD84OCTAGOND84*%

G04:AMPARAMS|DCode=85|XSize=1.1mm|YSize=1.3mm|CornerRadius=0.3mm|HoleSize=0mm|Usage=FLASHONLY|Rotation=0.000|XOffset=0mm|YOffset=0mm|HoleType=Round|Shape=RoundedRectangle|*
%AMROUNDEDRECTD85*
21,1,1.100,0.700,0,0,0.0*
21,1,0.500,1.300,0,0,0.0*
1,1,0.600,0.250,-0.350*
1,1,0.600,-0.250,-0.350*
1,1,0.600,-0.250,0.350*
1,1,0.600,0.250,0.350*
%
%ADD85ROUNDEDRECTD85*%
G04:AMPARAMS|DCode=89|XSize=0.85mm|YSize=0.85mm|CornerRadius=0.125mm|HoleSize=0mm|Usage=FLASHONLY|Rotation=270.000|XOffset=0mm|YOffset=0mm|HoleType=Round|Shape=RoundedRectangle|*
%AMROUNDEDRECTD89*
21,1,0.850,0.600,0,0,270.0*
21,1,0.600,0.850,0,0,270.0*
1,1,0.250,-0.300,-0.300*
1,1,0.250,-0.300,0.300*
1,1,0.250,0.300,0.300*
1,1,0.250,0.300,-0.300*
%
%ADD89ROUNDEDRECTD89*%
%ADD90R,0.650X0.650*%
G04:AMPARAMS|DCode=94|XSize=0.65mm|YSize=0.65mm|CornerRadius=0.105mm|HoleSize=0mm|Usage=FLASHONLY|Rotation=90.000|XOffset=0mm|YOffset=0mm|HoleType=Round|Shape=RoundedRectangle|*
%AMROUNDEDRECTD94*
21,1,0.650,0.440,0,0,90.0*
21,1,0.440,0.650,0,0,90.0*
1,1,0.210,0.220,0.220*
1,1,0.210,0.220,-0.220*
1,1,0.210,-0.220,-0.220*
1,1,0.210,-0.220,0.220*
%
%ADD94ROUNDEDRECTD94*%
%ADD95R,0.850X0.900*%
%ADD100O,1.600X1.100*%
%ADD101O,0.700X1.100*%
%ADD102C,0.900*%
%ADD103C,1.300*%
%ADD104C,0.100*%
%ADD105C,0.650*%
%ADD106C,0.700*%
%ADD107R,0.950X0.370*%
%ADD108R,1.250X0.800*%
%ADD109R,0.800X1.250*%
%ADD110R,0.800X0.800*%
%ADD111R,0.650X0.650*%
G04:AMPARAMS|DCode=112|XSize=0.65mm|YSize=0.65mm|CornerRadius=0.105mm|HoleSize=0mm|Usage=FLASHONLY|Rotation=0.000|XOffset=0mm|YOffset=0mm|HoleType=Round|Shape=RoundedRectangle|*
%AMROUNDEDRECTD112*
21,1,0.650,0.440,0,0,0.0*
21,1,0.440,0.650,0,0,0.0*
1,1,0.210,0.220,-0.220*
1,1,0.210,-0.220,-0.220*
1,1,0.210,-0.220,0.220*
1,1,0.210,0.220,0.220*
%
%ADD112ROUNDEDRECTD112*%
G04:AMPARAMS|DCode=113|XSize=1.1mm|YSize=1.3mm|CornerRadius=0.3mm|HoleSize=0mm|Usage=FLASHONLY|Rotation=360.000|XOffset=0mm|YOffset=0mm|HoleType=Round|Shape=RoundedRectangle|*
%AMROUNDEDRECTD113*
21,1,1.100,0.700,0,0,360.0*
21,1,0.500,1.300,0,0,360.0*
1,1,0.600,0.250,-0.350*
1,1,0.600,-0.250,-0.350*
1,1,0.600,-0.250,0.350*
1,1,0.600,0.250,0.350*
%
%ADD113ROUNDEDRECTD113*%
G04:AMPARAMS|DCode=114|XSize=1.1mm|YSize=1.3mm|CornerRadius=0mm|HoleSize=0mm|Usage=FLASHONLY|Rotation=360.000|XOffset=0mm|YOffset=0mm|HoleType=Round|Shape=Octagon|*
%AMOCTAGOND114*
4,1,8,-0.275,0.650,0.275,0.650,0.550,0.375,0.550,-0.375,0.275,-0.650,-0.275,-0.650,-0.550,-0.375,-0.550,0.375,-0.275,0.650,0.0*
%
%ADD114OCTAGOND114*%

G04:AMPARAMS|DCode=115|XSize=0.65mm|YSize=0.65mm|CornerRadius=0.105mm|HoleSize=0mm|Usage=FLASHONLY|Rotation=360.000|XOffset=0mm|YOffset=0mm|HoleType=Round|Shape=RoundedRectangle|*
%AMROUNDEDRECTD115*
21,1,0.650,0.440,0,0,360.0*
21,1,0.440,0.650,0,0,360.0*
1,1,0.210,0.220,-0.220*
1,1,0.210,-0.220,-0.220*
1,1,0.210,-0.220,0.220*
1,1,0.210,0.220,0.220*
%
%ADD115ROUNDEDRECTD115*%
D11*
X51275Y31300D02*
D03*
X52425D02*
D03*
X53575D02*
D03*
X54725D02*
D03*
Y29000D02*
D03*
X53575Y30150D02*
D03*
X52425D02*
D03*
Y27850D02*
D03*
X51275Y29000D02*
D03*
X52425D02*
D03*
X53575D02*
D03*
Y27850D02*
D03*
X51275Y61300D02*
D03*
X52425D02*
D03*
X53575D02*
D03*
X54725D02*
D03*
Y59000D02*
D03*
X53575Y60150D02*
D03*
X52425D02*
D03*
Y57850D02*
D03*
X51275Y59000D02*
D03*
X52425D02*
D03*
X53575D02*
D03*
Y57850D02*
D03*
X68725Y138700D02*
D03*
X67575D02*
D03*
X66425D02*
D03*
X65275D02*
D03*
Y141000D02*
D03*
X66425Y139850D02*
D03*
X67575D02*
D03*
Y142150D02*
D03*
X68725Y141000D02*
D03*
X67575D02*
D03*
X66425D02*
D03*
Y142150D02*
D03*
X68725Y108700D02*
D03*
X67575D02*
D03*
X66425D02*
D03*
X65275D02*
D03*
Y111000D02*
D03*
X66425Y109850D02*
D03*
X67575D02*
D03*
Y112150D02*
D03*
X68725Y111000D02*
D03*
X67575D02*
D03*
X66425D02*
D03*
Y112150D02*
D03*
X68725Y78700D02*
D03*
X67575D02*
D03*
X66425D02*
D03*
X65275D02*
D03*
Y81000D02*
D03*
X66425Y79850D02*
D03*
X67575D02*
D03*
Y82150D02*
D03*
X68725Y81000D02*
D03*
X67575D02*
D03*
X66425D02*
D03*
Y82150D02*
D03*
X68725Y48700D02*
D03*
X67575D02*
D03*
X66425D02*
D03*
X65275D02*
D03*
Y51000D02*
D03*
X66425Y49850D02*
D03*
X67575D02*
D03*
Y52150D02*
D03*
X68725Y51000D02*
D03*
X67575D02*
D03*
X66425D02*
D03*
Y52150D02*
D03*
X68725Y18700D02*
D03*
X67575D02*
D03*
X66425D02*
D03*
X65275D02*
D03*
Y21000D02*
D03*
X66425Y19850D02*
D03*
X67575D02*
D03*
Y22150D02*
D03*
X68725Y21000D02*
D03*
X67575D02*
D03*
X66425D02*
D03*
Y22150D02*
D03*
X51275Y151300D02*
D03*
X52425D02*
D03*
X53575D02*
D03*
X54725D02*
D03*
Y149000D02*
D03*
X53575Y150150D02*
D03*
X52425D02*
D03*
Y147850D02*
D03*
X51275Y149000D02*
D03*
X52425D02*
D03*
X53575D02*
D03*
Y147850D02*
D03*
X51275Y121300D02*
D03*
X52425D02*
D03*
X53575D02*
D03*
X54725D02*
D03*
Y119000D02*
D03*
X53575Y120150D02*
D03*
X52425D02*
D03*
Y117850D02*
D03*
X51275Y119000D02*
D03*
X52425D02*
D03*
X53575D02*
D03*
Y117850D02*
D03*
X51275Y91300D02*
D03*
X52425D02*
D03*
X53575D02*
D03*
X54725D02*
D03*
Y89000D02*
D03*
X53575Y90150D02*
D03*
X52425D02*
D03*
Y87850D02*
D03*
X51275Y89000D02*
D03*
X52425D02*
D03*
X53575D02*
D03*
Y87850D02*
D03*
D36*
X12500Y17300D02*
D03*
X16000D02*
D03*
X16600Y34100D02*
D03*
X45000Y13000D02*
D03*
X26200Y19400D02*
D03*
X20000Y19000D02*
D03*
X12500Y47300D02*
D03*
X16000D02*
D03*
X16600Y64100D02*
D03*
X45000Y43000D02*
D03*
X26200Y49400D02*
D03*
X20000Y49000D02*
D03*
X107500Y152700D02*
D03*
X104000D02*
D03*
X103400Y135900D02*
D03*
X75000Y157000D02*
D03*
X93800Y150600D02*
D03*
X100000Y151000D02*
D03*
X107500Y122700D02*
D03*
X104000D02*
D03*
X103400Y105900D02*
D03*
X75000Y127000D02*
D03*
X93800Y120600D02*
D03*
X100000Y121000D02*
D03*
X107500Y92700D02*
D03*
X104000D02*
D03*
X103400Y75900D02*
D03*
X75000Y97000D02*
D03*
X93800Y90600D02*
D03*
X100000Y91000D02*
D03*
X107500Y62700D02*
D03*
X104000D02*
D03*
X103400Y45900D02*
D03*
X75000Y67000D02*
D03*
X93800Y60600D02*
D03*
X100000Y61000D02*
D03*
X107500Y32700D02*
D03*
X104000D02*
D03*
X103400Y15900D02*
D03*
X75000Y37000D02*
D03*
X93800Y30600D02*
D03*
X100000Y31000D02*
D03*
X12500Y137300D02*
D03*
X16000D02*
D03*
X16600Y154100D02*
D03*
X45000Y133000D02*
D03*
X26200Y139400D02*
D03*
X20000Y139000D02*
D03*
X12500Y107300D02*
D03*
X16000D02*
D03*
X16600Y124100D02*
D03*
X45000Y103000D02*
D03*
X26200Y109400D02*
D03*
X20000Y109000D02*
D03*
X12500Y77300D02*
D03*
X16000D02*
D03*
X16600Y94100D02*
D03*
X45000Y73000D02*
D03*
X26200Y79400D02*
D03*
X20000Y79000D02*
D03*
D39*
X18000Y23000D02*
D03*
Y21000D02*
D03*
Y53000D02*
D03*
Y51000D02*
D03*
X102000Y147000D02*
D03*
Y149000D02*
D03*
Y117000D02*
D03*
Y119000D02*
D03*
Y87000D02*
D03*
Y89000D02*
D03*
Y57000D02*
D03*
Y59000D02*
D03*
Y27000D02*
D03*
Y29000D02*
D03*
X18000Y143000D02*
D03*
Y141000D02*
D03*
Y113000D02*
D03*
Y111000D02*
D03*
Y83000D02*
D03*
Y81000D02*
D03*
D51*
X34730Y37000D02*
D03*
X37270D02*
D03*
X34730Y67000D02*
D03*
X37270D02*
D03*
X85270Y133000D02*
D03*
X82730D02*
D03*
X85270Y103000D02*
D03*
X82730D02*
D03*
X85270Y73000D02*
D03*
X82730D02*
D03*
X85270Y43000D02*
D03*
X82730D02*
D03*
X85270Y13000D02*
D03*
X82730D02*
D03*
X34730Y157000D02*
D03*
X37270D02*
D03*
X34730Y127000D02*
D03*
X37270D02*
D03*
X34730Y97000D02*
D03*
X37270D02*
D03*
D81*
X5000Y165000D02*
D03*
X115000Y5000D02*
D03*
D82*
Y166000D02*
D03*
X5000Y5000D02*
D03*
D83*
X30500Y26300D02*
D03*
X40500D02*
D03*
X41000Y21300D02*
D03*
X30000D02*
D03*
X30500Y56300D02*
D03*
X40500D02*
D03*
X41000Y51300D02*
D03*
X30000D02*
D03*
X89500Y143700D02*
D03*
X79500D02*
D03*
X79000Y148700D02*
D03*
X90000D02*
D03*
X89500Y113700D02*
D03*
X79500D02*
D03*
X79000Y118700D02*
D03*
X90000D02*
D03*
X89500Y83700D02*
D03*
X79500D02*
D03*
X79000Y88700D02*
D03*
X90000D02*
D03*
X89500Y53700D02*
D03*
X79500D02*
D03*
X79000Y58700D02*
D03*
X90000D02*
D03*
X89500Y23700D02*
D03*
X79500D02*
D03*
X79000Y28700D02*
D03*
X90000D02*
D03*
X30500Y146300D02*
D03*
X40500D02*
D03*
X41000Y141300D02*
D03*
X30000D02*
D03*
X30500Y116300D02*
D03*
X40500D02*
D03*
X41000Y111300D02*
D03*
X30000D02*
D03*
X30500Y86300D02*
D03*
X40500D02*
D03*
X41000Y81300D02*
D03*
X30000D02*
D03*
D84*
X35675Y35000D02*
D03*
Y65000D02*
D03*
Y155000D02*
D03*
Y125000D02*
D03*
Y95000D02*
D03*
D85*
X32525Y35000D02*
D03*
Y65000D02*
D03*
Y155000D02*
D03*
Y125000D02*
D03*
Y95000D02*
D03*
D89*
X46600Y17900D02*
D03*
Y19300D02*
D03*
X48800Y14200D02*
D03*
Y12800D02*
D03*
X46600Y47900D02*
D03*
Y49300D02*
D03*
X48800Y44200D02*
D03*
Y42800D02*
D03*
X73400Y152100D02*
D03*
Y150700D02*
D03*
X71200Y155800D02*
D03*
Y157200D02*
D03*
X73400Y122100D02*
D03*
Y120700D02*
D03*
X71200Y125800D02*
D03*
Y127200D02*
D03*
X73400Y92100D02*
D03*
Y90700D02*
D03*
X71200Y95800D02*
D03*
Y97200D02*
D03*
X73400Y62100D02*
D03*
Y60700D02*
D03*
X71200Y65800D02*
D03*
Y67200D02*
D03*
X73400Y32100D02*
D03*
Y30700D02*
D03*
X71200Y35800D02*
D03*
Y37200D02*
D03*
X46600Y137900D02*
D03*
Y139300D02*
D03*
X48800Y134200D02*
D03*
Y132800D02*
D03*
X46600Y107900D02*
D03*
Y109300D02*
D03*
X48800Y104200D02*
D03*
Y102800D02*
D03*
X46600Y77900D02*
D03*
Y79300D02*
D03*
X48800Y74200D02*
D03*
Y72800D02*
D03*
D90*
X44800Y34175D02*
D03*
Y35025D02*
D03*
X40460Y34175D02*
D03*
Y35025D02*
D03*
X44800Y64175D02*
D03*
Y65025D02*
D03*
X40460Y64175D02*
D03*
Y65025D02*
D03*
X75200Y135825D02*
D03*
Y134975D02*
D03*
X79540Y135825D02*
D03*
Y134975D02*
D03*
X75200Y105825D02*
D03*
Y104975D02*
D03*
X79540Y105825D02*
D03*
Y104975D02*
D03*
X75200Y75825D02*
D03*
Y74975D02*
D03*
X79540Y75825D02*
D03*
Y74975D02*
D03*
X75200Y45825D02*
D03*
Y44975D02*
D03*
X79540Y45825D02*
D03*
Y44975D02*
D03*
X75200Y15825D02*
D03*
Y14975D02*
D03*
X79540Y15825D02*
D03*
Y14975D02*
D03*
X44800Y154175D02*
D03*
Y155025D02*
D03*
X40460Y154175D02*
D03*
Y155025D02*
D03*
X44800Y124175D02*
D03*
Y125025D02*
D03*
X40460Y124175D02*
D03*
Y125025D02*
D03*
X44800Y94175D02*
D03*
Y95025D02*
D03*
X40460Y94175D02*
D03*
Y95025D02*
D03*
D94*
X47200Y36125D02*
D03*
Y35275D02*
D03*
X45900Y35025D02*
D03*
Y34175D02*
D03*
X47200Y66125D02*
D03*
Y65275D02*
D03*
X45900Y65025D02*
D03*
Y64175D02*
D03*
X72800Y133875D02*
D03*
Y134725D02*
D03*
X74100Y134975D02*
D03*
Y135825D02*
D03*
X72800Y103875D02*
D03*
Y104725D02*
D03*
X74100Y104975D02*
D03*
Y105825D02*
D03*
X72800Y73875D02*
D03*
Y74725D02*
D03*
X74100Y74975D02*
D03*
Y75825D02*
D03*
X72800Y43875D02*
D03*
Y44725D02*
D03*
X74100Y44975D02*
D03*
Y45825D02*
D03*
X72800Y13875D02*
D03*
Y14725D02*
D03*
X74100Y14975D02*
D03*
Y15825D02*
D03*
X47200Y156125D02*
D03*
Y155275D02*
D03*
X45900Y155025D02*
D03*
Y154175D02*
D03*
X47200Y126125D02*
D03*
Y125275D02*
D03*
X45900Y125025D02*
D03*
Y124175D02*
D03*
X47200Y96125D02*
D03*
Y95275D02*
D03*
X45900Y95025D02*
D03*
Y94175D02*
D03*
D95*
X51300Y14200D02*
D03*
X52700D02*
D03*
X24000Y17700D02*
D03*
X22600D02*
D03*
X19900Y30905D02*
D03*
X21300D02*
D03*
X19900Y29635D02*
D03*
X21300D02*
D03*
X51300Y44200D02*
D03*
X52700D02*
D03*
X24000Y47700D02*
D03*
X22600D02*
D03*
X19900Y60905D02*
D03*
X21300D02*
D03*
X19900Y59635D02*
D03*
X21300D02*
D03*
X68700Y155800D02*
D03*
X67300D02*
D03*
X96000Y152300D02*
D03*
X97400D02*
D03*
X100100Y139095D02*
D03*
X98700D02*
D03*
X100100Y140365D02*
D03*
X98700D02*
D03*
X68700Y125800D02*
D03*
X67300D02*
D03*
X96000Y122300D02*
D03*
X97400D02*
D03*
X100100Y109095D02*
D03*
X98700D02*
D03*
X100100Y110365D02*
D03*
X98700D02*
D03*
X68700Y95800D02*
D03*
X67300D02*
D03*
X96000Y92300D02*
D03*
X97400D02*
D03*
X100100Y79095D02*
D03*
X98700D02*
D03*
X100100Y80365D02*
D03*
X98700D02*
D03*
X68700Y65800D02*
D03*
X67300D02*
D03*
X96000Y62300D02*
D03*
X97400D02*
D03*
X100100Y49095D02*
D03*
X98700D02*
D03*
X100100Y50365D02*
D03*
X98700D02*
D03*
X68700Y35800D02*
D03*
X67300D02*
D03*
X96000Y32300D02*
D03*
X97400D02*
D03*
X100100Y19095D02*
D03*
X98700D02*
D03*
X100100Y20365D02*
D03*
X98700D02*
D03*
X51300Y134200D02*
D03*
X52700D02*
D03*
X24000Y137700D02*
D03*
X22600D02*
D03*
X19900Y150905D02*
D03*
X21300D02*
D03*
X19900Y149635D02*
D03*
X21300D02*
D03*
X51300Y104200D02*
D03*
X52700D02*
D03*
X24000Y107700D02*
D03*
X22600D02*
D03*
X19900Y120905D02*
D03*
X21300D02*
D03*
X19900Y119635D02*
D03*
X21300D02*
D03*
X51300Y74200D02*
D03*
X52700D02*
D03*
X24000Y77700D02*
D03*
X22600D02*
D03*
X19900Y90905D02*
D03*
X21300D02*
D03*
X19900Y89635D02*
D03*
X21300D02*
D03*
D100*
X11525Y20054D02*
D03*
Y29954D02*
D03*
Y50054D02*
D03*
Y59954D02*
D03*
X108475Y149946D02*
D03*
Y140046D02*
D03*
Y119946D02*
D03*
Y110046D02*
D03*
Y89946D02*
D03*
Y80046D02*
D03*
Y59946D02*
D03*
Y50046D02*
D03*
Y29946D02*
D03*
Y20046D02*
D03*
X11525Y140054D02*
D03*
Y149954D02*
D03*
Y110054D02*
D03*
Y119954D02*
D03*
Y80054D02*
D03*
Y89954D02*
D03*
D101*
X11855Y21004D02*
D03*
Y29004D02*
D03*
Y51004D02*
D03*
Y59004D02*
D03*
X108145Y148996D02*
D03*
Y140996D02*
D03*
Y118996D02*
D03*
Y110996D02*
D03*
Y88996D02*
D03*
Y80996D02*
D03*
Y58996D02*
D03*
Y50996D02*
D03*
Y28996D02*
D03*
Y20996D02*
D03*
X11855Y141004D02*
D03*
Y149004D02*
D03*
Y111004D02*
D03*
Y119004D02*
D03*
Y81004D02*
D03*
Y89004D02*
D03*
D102*
X16300Y19500D02*
D03*
Y49500D02*
D03*
X103700Y150500D02*
D03*
Y120500D02*
D03*
Y90500D02*
D03*
Y60500D02*
D03*
Y30500D02*
D03*
X16300Y139500D02*
D03*
Y109500D02*
D03*
Y79500D02*
D03*
D103*
X40460Y37000D02*
D03*
X43000D02*
D03*
X45540D02*
D03*
X40460Y67000D02*
D03*
X43000D02*
D03*
X45540D02*
D03*
X79540Y133000D02*
D03*
X77000D02*
D03*
X74460D02*
D03*
X79540Y103000D02*
D03*
X77000D02*
D03*
X74460D02*
D03*
X79540Y73000D02*
D03*
X77000D02*
D03*
X74460D02*
D03*
X79540Y43000D02*
D03*
X77000D02*
D03*
X74460D02*
D03*
X79540Y13000D02*
D03*
X77000D02*
D03*
X74460D02*
D03*
X40460Y157000D02*
D03*
X43000D02*
D03*
X45540D02*
D03*
X40460Y127000D02*
D03*
X43000D02*
D03*
X45540D02*
D03*
X40460Y97000D02*
D03*
X43000D02*
D03*
X45540D02*
D03*
D104*
X56000Y14000D02*
D03*
X14000D02*
D03*
Y36000D02*
D03*
X56000Y44000D02*
D03*
X14000D02*
D03*
Y66000D02*
D03*
X64000Y156000D02*
D03*
X106000D02*
D03*
Y134000D02*
D03*
X64000Y126000D02*
D03*
X106000D02*
D03*
Y104000D02*
D03*
X64000Y96000D02*
D03*
X106000D02*
D03*
Y74000D02*
D03*
X64000Y66000D02*
D03*
X106000D02*
D03*
Y44000D02*
D03*
X64000Y36000D02*
D03*
X106000D02*
D03*
Y14000D02*
D03*
X56000Y134000D02*
D03*
X14000D02*
D03*
Y156000D02*
D03*
X56000Y104000D02*
D03*
X14000D02*
D03*
Y126000D02*
D03*
X56000Y74000D02*
D03*
X14000D02*
D03*
Y96000D02*
D03*
D105*
X30300Y30900D02*
D03*
X56000Y34100D02*
D03*
X50100Y34000D02*
D03*
X52000Y35200D02*
D03*
X54000D02*
D03*
X50050Y25150D02*
D03*
X51300Y27800D02*
D03*
X58500Y28800D02*
D03*
X58325Y27075D02*
D03*
X50500Y21100D02*
D03*
X58325Y25075D02*
D03*
X52000Y22750D02*
D03*
X58325Y31075D02*
D03*
X51000Y35200D02*
D03*
X55000D02*
D03*
X54500Y32600D02*
D03*
X51300Y30200D02*
D03*
X30300Y60900D02*
D03*
X56000Y64100D02*
D03*
X50100Y64000D02*
D03*
X52000Y65200D02*
D03*
X54000D02*
D03*
X50050Y55150D02*
D03*
X51300Y57800D02*
D03*
X58500Y58800D02*
D03*
X58325Y57075D02*
D03*
X50500Y51100D02*
D03*
X58325Y55075D02*
D03*
X52000Y52750D02*
D03*
X58325Y61075D02*
D03*
X51000Y65200D02*
D03*
X55000D02*
D03*
X54500Y62600D02*
D03*
X51300Y60200D02*
D03*
X89700Y139100D02*
D03*
X64000Y135900D02*
D03*
X69900Y136000D02*
D03*
X68000Y134800D02*
D03*
X66000D02*
D03*
X69950Y144850D02*
D03*
X68700Y142200D02*
D03*
X61500Y141200D02*
D03*
X61675Y142925D02*
D03*
X69500Y148900D02*
D03*
X61675Y144925D02*
D03*
X68000Y147250D02*
D03*
X61675Y138925D02*
D03*
X69000Y134800D02*
D03*
X65000D02*
D03*
X65500Y137400D02*
D03*
X68700Y139800D02*
D03*
X89700Y109100D02*
D03*
X64000Y105900D02*
D03*
X69900Y106000D02*
D03*
X68000Y104800D02*
D03*
X66000D02*
D03*
X69950Y114850D02*
D03*
X68700Y112200D02*
D03*
X61500Y111200D02*
D03*
X61675Y112925D02*
D03*
X69500Y118900D02*
D03*
X61675Y114925D02*
D03*
X68000Y117250D02*
D03*
X61675Y108925D02*
D03*
X69000Y104800D02*
D03*
X65000D02*
D03*
X65500Y107400D02*
D03*
X68700Y109800D02*
D03*
X89700Y79100D02*
D03*
X64000Y75900D02*
D03*
X69900Y76000D02*
D03*
X68000Y74800D02*
D03*
X66000D02*
D03*
X69950Y84850D02*
D03*
X68700Y82200D02*
D03*
X61500Y81200D02*
D03*
X61675Y82925D02*
D03*
X69500Y88900D02*
D03*
X61675Y84925D02*
D03*
X68000Y87250D02*
D03*
X61675Y78925D02*
D03*
X69000Y74800D02*
D03*
X65000D02*
D03*
X65500Y77400D02*
D03*
X68700Y79800D02*
D03*
X89700Y49100D02*
D03*
X64000Y45900D02*
D03*
X69900Y46000D02*
D03*
X68000Y44800D02*
D03*
X66000D02*
D03*
X69950Y54850D02*
D03*
X68700Y52200D02*
D03*
X61500Y51200D02*
D03*
X61675Y52925D02*
D03*
X69500Y58900D02*
D03*
X61675Y54925D02*
D03*
X68000Y57250D02*
D03*
X61675Y48925D02*
D03*
X69000Y44800D02*
D03*
X65000D02*
D03*
X65500Y47400D02*
D03*
X68700Y49800D02*
D03*
X89700Y19100D02*
D03*
X64000Y15900D02*
D03*
X69900Y16000D02*
D03*
X68000Y14800D02*
D03*
X66000D02*
D03*
X69950Y24850D02*
D03*
X68700Y22200D02*
D03*
X61500Y21200D02*
D03*
X61675Y22925D02*
D03*
X69500Y28900D02*
D03*
X61675Y24925D02*
D03*
X68000Y27250D02*
D03*
X61675Y18925D02*
D03*
X69000Y14800D02*
D03*
X65000D02*
D03*
X65500Y17400D02*
D03*
X68700Y19800D02*
D03*
X30300Y150900D02*
D03*
X56000Y154100D02*
D03*
X50100Y154000D02*
D03*
X52000Y155200D02*
D03*
X54000D02*
D03*
X50050Y145150D02*
D03*
X51300Y147800D02*
D03*
X58500Y148800D02*
D03*
X58325Y147075D02*
D03*
X50500Y141100D02*
D03*
X58325Y145075D02*
D03*
X52000Y142750D02*
D03*
X58325Y151075D02*
D03*
X51000Y155200D02*
D03*
X55000D02*
D03*
X54500Y152600D02*
D03*
X51300Y150200D02*
D03*
X30300Y120900D02*
D03*
X56000Y124100D02*
D03*
X50100Y124000D02*
D03*
X52000Y125200D02*
D03*
X54000D02*
D03*
X50050Y115150D02*
D03*
X51300Y117800D02*
D03*
X58500Y118800D02*
D03*
X58325Y117075D02*
D03*
X50500Y111100D02*
D03*
X58325Y115075D02*
D03*
X52000Y112750D02*
D03*
X58325Y121075D02*
D03*
X51000Y125200D02*
D03*
X55000D02*
D03*
X54500Y122600D02*
D03*
X51300Y120200D02*
D03*
X30300Y90900D02*
D03*
X56000Y94100D02*
D03*
X50100Y94000D02*
D03*
X52000Y95200D02*
D03*
X54000D02*
D03*
X50050Y85150D02*
D03*
X51300Y87800D02*
D03*
X58500Y88800D02*
D03*
X58325Y87075D02*
D03*
X50500Y81100D02*
D03*
X58325Y85075D02*
D03*
X52000Y82750D02*
D03*
X58325Y91075D02*
D03*
X51000Y95200D02*
D03*
X55000D02*
D03*
X54500Y92600D02*
D03*
X51300Y90200D02*
D03*
D106*
X22500Y37600D02*
D03*
X24019Y37369D02*
D03*
X24000Y13000D02*
D03*
Y15200D02*
D03*
X35400Y33700D02*
D03*
X33800Y33000D02*
D03*
X34100Y28685D02*
D03*
X39000Y27735D02*
D03*
X32400Y31800D02*
D03*
X50000Y18800D02*
D03*
X29100Y17900D02*
D03*
X29700Y37000D02*
D03*
X35900Y21800D02*
D03*
X47200Y37200D02*
D03*
X54600Y22200D02*
D03*
X50050Y14200D02*
D03*
X50287Y12900D02*
D03*
X58500Y19600D02*
D03*
X22800Y31600D02*
D03*
X23800Y25425D02*
D03*
X16600Y31100D02*
D03*
X14800Y32000D02*
D03*
X16600Y25200D02*
D03*
X14700Y24379D02*
D03*
Y27879D02*
D03*
Y22379D02*
D03*
X18550Y29000D02*
D03*
X56100Y22000D02*
D03*
X54600Y20300D02*
D03*
X35500Y23300D02*
D03*
X34900Y27250D02*
D03*
X27700Y34095D02*
D03*
X24000Y36000D02*
D03*
X46300Y25150D02*
D03*
X57050Y16750D02*
D03*
X55150D02*
D03*
X35130Y20170D02*
D03*
X31320D02*
D03*
X41500Y33100D02*
D03*
X46275Y33125D02*
D03*
X45290Y19000D02*
D03*
X44020D02*
D03*
X38940Y20170D02*
D03*
X42750D02*
D03*
X45700Y30075D02*
D03*
X47175Y34075D02*
D03*
X39900Y28685D02*
D03*
X40800Y29635D02*
D03*
X41700Y30585D02*
D03*
X27700Y13365D02*
D03*
X36800Y26400D02*
D03*
X48200Y16200D02*
D03*
X18900Y27095D02*
D03*
X29275Y12695D02*
D03*
X24200Y27730D02*
D03*
X24300Y30905D02*
D03*
X31320Y11500D02*
D03*
X33860D02*
D03*
X36400D02*
D03*
X40210D02*
D03*
X42750D02*
D03*
X52700Y16200D02*
D03*
X32900Y28365D02*
D03*
X24250Y20900D02*
D03*
X18625Y30905D02*
D03*
X24000Y14000D02*
D03*
X18900Y14635D02*
D03*
Y12095D02*
D03*
X27700D02*
D03*
Y14635D02*
D03*
X18900Y34095D02*
D03*
Y36635D02*
D03*
X27700D02*
D03*
X22500Y67600D02*
D03*
X24019Y67369D02*
D03*
X24000Y43000D02*
D03*
Y45200D02*
D03*
X35400Y63700D02*
D03*
X33800Y63000D02*
D03*
X34100Y58685D02*
D03*
X39000Y57735D02*
D03*
X32400Y61800D02*
D03*
X50000Y48800D02*
D03*
X29100Y47900D02*
D03*
X29700Y67000D02*
D03*
X35900Y51800D02*
D03*
X47200Y67200D02*
D03*
X54600Y52200D02*
D03*
X50050Y44200D02*
D03*
X50287Y42900D02*
D03*
X58500Y49600D02*
D03*
X22800Y61600D02*
D03*
X23800Y55425D02*
D03*
X16600Y61100D02*
D03*
X14800Y62000D02*
D03*
X16600Y55200D02*
D03*
X14700Y54379D02*
D03*
Y57879D02*
D03*
Y52379D02*
D03*
X18550Y59000D02*
D03*
X56100Y52000D02*
D03*
X54600Y50300D02*
D03*
X35500Y53300D02*
D03*
X34900Y57250D02*
D03*
X27700Y64095D02*
D03*
X24000Y66000D02*
D03*
X46300Y55150D02*
D03*
X57050Y46750D02*
D03*
X55150D02*
D03*
X35130Y50170D02*
D03*
X31320D02*
D03*
X41500Y63100D02*
D03*
X46275Y63125D02*
D03*
X45290Y49000D02*
D03*
X44020D02*
D03*
X38940Y50170D02*
D03*
X42750D02*
D03*
X45700Y60075D02*
D03*
X47175Y64075D02*
D03*
X39900Y58685D02*
D03*
X40800Y59635D02*
D03*
X41700Y60585D02*
D03*
X27700Y43365D02*
D03*
X36800Y56400D02*
D03*
X48200Y46200D02*
D03*
X18900Y57095D02*
D03*
X29275Y42695D02*
D03*
X24200Y57730D02*
D03*
X24300Y60905D02*
D03*
X31320Y41500D02*
D03*
X33860D02*
D03*
X36400D02*
D03*
X40210D02*
D03*
X42750D02*
D03*
X52700Y46200D02*
D03*
X32900Y58365D02*
D03*
X24250Y50900D02*
D03*
X18625Y60905D02*
D03*
X24000Y44000D02*
D03*
X18900Y44635D02*
D03*
Y42095D02*
D03*
X27700D02*
D03*
Y44635D02*
D03*
X18900Y64095D02*
D03*
Y66635D02*
D03*
X27700D02*
D03*
X97500Y132400D02*
D03*
X95981Y132631D02*
D03*
X96000Y157000D02*
D03*
Y154800D02*
D03*
X84600Y136300D02*
D03*
X86200Y137000D02*
D03*
X85900Y141315D02*
D03*
X81000Y142265D02*
D03*
X87600Y138200D02*
D03*
X70000Y151200D02*
D03*
X90900Y152100D02*
D03*
X90300Y133000D02*
D03*
X84100Y148200D02*
D03*
X72800Y132800D02*
D03*
X65400Y147800D02*
D03*
X69950Y155800D02*
D03*
X69713Y157100D02*
D03*
X61500Y150400D02*
D03*
X97200Y138400D02*
D03*
X96200Y144575D02*
D03*
X103400Y138900D02*
D03*
X105200Y138000D02*
D03*
X103400Y144800D02*
D03*
X105300Y145621D02*
D03*
Y142121D02*
D03*
Y147621D02*
D03*
X101450Y141000D02*
D03*
X63900Y148000D02*
D03*
X65400Y149700D02*
D03*
X84500Y146700D02*
D03*
X85100Y142750D02*
D03*
X92300Y135905D02*
D03*
X96000Y134000D02*
D03*
X73700Y144850D02*
D03*
X62950Y153250D02*
D03*
X64850D02*
D03*
X84870Y149830D02*
D03*
X88680D02*
D03*
X78500Y136900D02*
D03*
X73725Y136875D02*
D03*
X74710Y151000D02*
D03*
X75980D02*
D03*
X81060Y149830D02*
D03*
X77250D02*
D03*
X74300Y139925D02*
D03*
X72825Y135925D02*
D03*
X80100Y141315D02*
D03*
X79200Y140365D02*
D03*
X78300Y139415D02*
D03*
X92300Y156635D02*
D03*
X83200Y143600D02*
D03*
X71800Y153800D02*
D03*
X101100Y142905D02*
D03*
X90725Y157305D02*
D03*
X95800Y142270D02*
D03*
X95700Y139095D02*
D03*
X88680Y158500D02*
D03*
X86140D02*
D03*
X83600D02*
D03*
X79790D02*
D03*
X77250D02*
D03*
X67300Y153800D02*
D03*
X87100Y141635D02*
D03*
X95750Y149100D02*
D03*
X101375Y139095D02*
D03*
X96000Y156000D02*
D03*
X101100Y155365D02*
D03*
Y157905D02*
D03*
X92300D02*
D03*
Y155365D02*
D03*
X101100Y135905D02*
D03*
Y133365D02*
D03*
X92300D02*
D03*
X97500Y102400D02*
D03*
X95981Y102631D02*
D03*
X96000Y127000D02*
D03*
Y124800D02*
D03*
X84600Y106300D02*
D03*
X86200Y107000D02*
D03*
X85900Y111315D02*
D03*
X81000Y112265D02*
D03*
X87600Y108200D02*
D03*
X70000Y121200D02*
D03*
X90900Y122100D02*
D03*
X90300Y103000D02*
D03*
X84100Y118200D02*
D03*
X72800Y102800D02*
D03*
X65400Y117800D02*
D03*
X69950Y125800D02*
D03*
X69713Y127100D02*
D03*
X61500Y120400D02*
D03*
X97200Y108400D02*
D03*
X96200Y114575D02*
D03*
X103400Y108900D02*
D03*
X105200Y108000D02*
D03*
X103400Y114800D02*
D03*
X105300Y115621D02*
D03*
Y112121D02*
D03*
Y117621D02*
D03*
X101450Y111000D02*
D03*
X63900Y118000D02*
D03*
X65400Y119700D02*
D03*
X84500Y116700D02*
D03*
X85100Y112750D02*
D03*
X92300Y105905D02*
D03*
X96000Y104000D02*
D03*
X73700Y114850D02*
D03*
X62950Y123250D02*
D03*
X64850D02*
D03*
X84870Y119830D02*
D03*
X88680D02*
D03*
X78500Y106900D02*
D03*
X73725Y106875D02*
D03*
X74710Y121000D02*
D03*
X75980D02*
D03*
X81060Y119830D02*
D03*
X77250D02*
D03*
X74300Y109925D02*
D03*
X72825Y105925D02*
D03*
X80100Y111315D02*
D03*
X79200Y110365D02*
D03*
X78300Y109415D02*
D03*
X92300Y126635D02*
D03*
X83200Y113600D02*
D03*
X71800Y123800D02*
D03*
X101100Y112905D02*
D03*
X90725Y127305D02*
D03*
X95800Y112270D02*
D03*
X95700Y109095D02*
D03*
X88680Y128500D02*
D03*
X86140D02*
D03*
X83600D02*
D03*
X79790D02*
D03*
X77250D02*
D03*
X67300Y123800D02*
D03*
X87100Y111635D02*
D03*
X95750Y119100D02*
D03*
X101375Y109095D02*
D03*
X96000Y126000D02*
D03*
X101100Y125365D02*
D03*
Y127905D02*
D03*
X92300D02*
D03*
Y125365D02*
D03*
X101100Y105905D02*
D03*
Y103365D02*
D03*
X92300D02*
D03*
X97500Y72400D02*
D03*
X95981Y72631D02*
D03*
X96000Y97000D02*
D03*
Y94800D02*
D03*
X84600Y76300D02*
D03*
X86200Y77000D02*
D03*
X85900Y81315D02*
D03*
X81000Y82265D02*
D03*
X87600Y78200D02*
D03*
X70000Y91200D02*
D03*
X90900Y92100D02*
D03*
X90300Y73000D02*
D03*
X84100Y88200D02*
D03*
X72800Y72800D02*
D03*
X65400Y87800D02*
D03*
X69950Y95800D02*
D03*
X69713Y97100D02*
D03*
X61500Y90400D02*
D03*
X97200Y78400D02*
D03*
X96200Y84575D02*
D03*
X103400Y78900D02*
D03*
X105200Y78000D02*
D03*
X103400Y84800D02*
D03*
X105300Y85621D02*
D03*
Y82121D02*
D03*
Y87621D02*
D03*
X101450Y81000D02*
D03*
X63900Y88000D02*
D03*
X65400Y89700D02*
D03*
X84500Y86700D02*
D03*
X85100Y82750D02*
D03*
X92300Y75905D02*
D03*
X96000Y74000D02*
D03*
X73700Y84850D02*
D03*
X62950Y93250D02*
D03*
X64850D02*
D03*
X84870Y89830D02*
D03*
X88680D02*
D03*
X78500Y76900D02*
D03*
X73725Y76875D02*
D03*
X74710Y91000D02*
D03*
X75980D02*
D03*
X81060Y89830D02*
D03*
X77250D02*
D03*
X74300Y79925D02*
D03*
X72825Y75925D02*
D03*
X80100Y81315D02*
D03*
X79200Y80365D02*
D03*
X78300Y79415D02*
D03*
X92300Y96635D02*
D03*
X83200Y83600D02*
D03*
X71800Y93800D02*
D03*
X101100Y82905D02*
D03*
X90725Y97305D02*
D03*
X95800Y82270D02*
D03*
X95700Y79095D02*
D03*
X88680Y98500D02*
D03*
X86140D02*
D03*
X83600D02*
D03*
X79790D02*
D03*
X77250D02*
D03*
X67300Y93800D02*
D03*
X87100Y81635D02*
D03*
X95750Y89100D02*
D03*
X101375Y79095D02*
D03*
X96000Y96000D02*
D03*
X101100Y95365D02*
D03*
Y97905D02*
D03*
X92300D02*
D03*
Y95365D02*
D03*
X101100Y75905D02*
D03*
Y73365D02*
D03*
X92300D02*
D03*
X97500Y42400D02*
D03*
X95981Y42631D02*
D03*
X96000Y67000D02*
D03*
Y64800D02*
D03*
X84600Y46300D02*
D03*
X86200Y47000D02*
D03*
X85900Y51315D02*
D03*
X81000Y52265D02*
D03*
X87600Y48200D02*
D03*
X70000Y61200D02*
D03*
X90900Y62100D02*
D03*
X90300Y43000D02*
D03*
X84100Y58200D02*
D03*
X72800Y42800D02*
D03*
X65400Y57800D02*
D03*
X69950Y65800D02*
D03*
X69713Y67100D02*
D03*
X61500Y60400D02*
D03*
X97200Y48400D02*
D03*
X96200Y54575D02*
D03*
X103400Y48900D02*
D03*
X105200Y48000D02*
D03*
X103400Y54800D02*
D03*
X105300Y55621D02*
D03*
Y52121D02*
D03*
Y57621D02*
D03*
X101450Y51000D02*
D03*
X63900Y58000D02*
D03*
X65400Y59700D02*
D03*
X84500Y56700D02*
D03*
X85100Y52750D02*
D03*
X92300Y45905D02*
D03*
X96000Y44000D02*
D03*
X73700Y54850D02*
D03*
X62950Y63250D02*
D03*
X64850D02*
D03*
X84870Y59830D02*
D03*
X88680D02*
D03*
X78500Y46900D02*
D03*
X73725Y46875D02*
D03*
X74710Y61000D02*
D03*
X75980D02*
D03*
X81060Y59830D02*
D03*
X77250D02*
D03*
X74300Y49925D02*
D03*
X72825Y45925D02*
D03*
X80100Y51315D02*
D03*
X79200Y50365D02*
D03*
X78300Y49415D02*
D03*
X92300Y66635D02*
D03*
X83200Y53600D02*
D03*
X71800Y63800D02*
D03*
X101100Y52905D02*
D03*
X90725Y67305D02*
D03*
X95800Y52270D02*
D03*
X95700Y49095D02*
D03*
X88680Y68500D02*
D03*
X86140D02*
D03*
X83600D02*
D03*
X79790D02*
D03*
X77250D02*
D03*
X67300Y63800D02*
D03*
X87100Y51635D02*
D03*
X95750Y59100D02*
D03*
X101375Y49095D02*
D03*
X96000Y66000D02*
D03*
X101100Y65365D02*
D03*
Y67905D02*
D03*
X92300D02*
D03*
Y65365D02*
D03*
X101100Y45905D02*
D03*
Y43365D02*
D03*
X92300D02*
D03*
X97500Y12400D02*
D03*
X95981Y12631D02*
D03*
X96000Y37000D02*
D03*
Y34800D02*
D03*
X84600Y16300D02*
D03*
X86200Y17000D02*
D03*
X85900Y21315D02*
D03*
X81000Y22265D02*
D03*
X87600Y18200D02*
D03*
X70000Y31200D02*
D03*
X90900Y32100D02*
D03*
X90300Y13000D02*
D03*
X84100Y28200D02*
D03*
X72800Y12800D02*
D03*
X65400Y27800D02*
D03*
X69950Y35800D02*
D03*
X69713Y37100D02*
D03*
X61500Y30400D02*
D03*
X97200Y18400D02*
D03*
X96200Y24575D02*
D03*
X103400Y18900D02*
D03*
X105200Y18000D02*
D03*
X103400Y24800D02*
D03*
X105300Y25621D02*
D03*
Y22121D02*
D03*
Y27621D02*
D03*
X101450Y21000D02*
D03*
X63900Y28000D02*
D03*
X65400Y29700D02*
D03*
X84500Y26700D02*
D03*
X85100Y22750D02*
D03*
X92300Y15905D02*
D03*
X96000Y14000D02*
D03*
X73700Y24850D02*
D03*
X62950Y33250D02*
D03*
X64850D02*
D03*
X84870Y29830D02*
D03*
X88680D02*
D03*
X78500Y16900D02*
D03*
X73725Y16875D02*
D03*
X74710Y31000D02*
D03*
X75980D02*
D03*
X81060Y29830D02*
D03*
X77250D02*
D03*
X74300Y19925D02*
D03*
X72825Y15925D02*
D03*
X80100Y21315D02*
D03*
X79200Y20365D02*
D03*
X78300Y19415D02*
D03*
X92300Y36635D02*
D03*
X83200Y23600D02*
D03*
X71800Y33800D02*
D03*
X101100Y22905D02*
D03*
X90725Y37305D02*
D03*
X95800Y22270D02*
D03*
X95700Y19095D02*
D03*
X88680Y38500D02*
D03*
X86140D02*
D03*
X83600D02*
D03*
X79790D02*
D03*
X77250D02*
D03*
X67300Y33800D02*
D03*
X87100Y21635D02*
D03*
X95750Y29100D02*
D03*
X101375Y19095D02*
D03*
X96000Y36000D02*
D03*
X101100Y35365D02*
D03*
Y37905D02*
D03*
X92300D02*
D03*
Y35365D02*
D03*
X101100Y15905D02*
D03*
Y13365D02*
D03*
X92300D02*
D03*
X22500Y157600D02*
D03*
X24019Y157369D02*
D03*
X24000Y133000D02*
D03*
Y135200D02*
D03*
X35400Y153700D02*
D03*
X33800Y153000D02*
D03*
X34100Y148685D02*
D03*
X39000Y147735D02*
D03*
X32400Y151800D02*
D03*
X50000Y138800D02*
D03*
X29100Y137900D02*
D03*
X29700Y157000D02*
D03*
X35900Y141800D02*
D03*
X47200Y157200D02*
D03*
X54600Y142200D02*
D03*
X50050Y134200D02*
D03*
X50287Y132900D02*
D03*
X58500Y139600D02*
D03*
X22800Y151600D02*
D03*
X23800Y145425D02*
D03*
X16600Y151100D02*
D03*
X14800Y152000D02*
D03*
X16600Y145200D02*
D03*
X14700Y144379D02*
D03*
Y147879D02*
D03*
Y142379D02*
D03*
X18550Y149000D02*
D03*
X56100Y142000D02*
D03*
X54600Y140300D02*
D03*
X35500Y143300D02*
D03*
X34900Y147250D02*
D03*
X27700Y154095D02*
D03*
X24000Y156000D02*
D03*
X46300Y145150D02*
D03*
X57050Y136750D02*
D03*
X55150D02*
D03*
X35130Y140170D02*
D03*
X31320D02*
D03*
X41500Y153100D02*
D03*
X46275Y153125D02*
D03*
X45290Y139000D02*
D03*
X44020D02*
D03*
X38940Y140170D02*
D03*
X42750D02*
D03*
X45700Y150075D02*
D03*
X47175Y154075D02*
D03*
X39900Y148685D02*
D03*
X40800Y149635D02*
D03*
X41700Y150585D02*
D03*
X27700Y133365D02*
D03*
X36800Y146400D02*
D03*
X48200Y136200D02*
D03*
X18900Y147095D02*
D03*
X29275Y132695D02*
D03*
X24200Y147730D02*
D03*
X24300Y150905D02*
D03*
X31320Y131500D02*
D03*
X33860D02*
D03*
X36400D02*
D03*
X40210D02*
D03*
X42750D02*
D03*
X52700Y136200D02*
D03*
X32900Y148365D02*
D03*
X24250Y140900D02*
D03*
X18625Y150905D02*
D03*
X24000Y134000D02*
D03*
X18900Y134635D02*
D03*
Y132095D02*
D03*
X27700D02*
D03*
Y134635D02*
D03*
X18900Y154095D02*
D03*
Y156635D02*
D03*
X27700D02*
D03*
X22500Y127600D02*
D03*
X24019Y127369D02*
D03*
X24000Y103000D02*
D03*
Y105200D02*
D03*
X35400Y123700D02*
D03*
X33800Y123000D02*
D03*
X34100Y118685D02*
D03*
X39000Y117735D02*
D03*
X32400Y121800D02*
D03*
X50000Y108800D02*
D03*
X29100Y107900D02*
D03*
X29700Y127000D02*
D03*
X35900Y111800D02*
D03*
X47200Y127200D02*
D03*
X54600Y112200D02*
D03*
X50050Y104200D02*
D03*
X50287Y102900D02*
D03*
X58500Y109600D02*
D03*
X22800Y121600D02*
D03*
X23800Y115425D02*
D03*
X16600Y121100D02*
D03*
X14800Y122000D02*
D03*
X16600Y115200D02*
D03*
X14700Y114379D02*
D03*
Y117879D02*
D03*
Y112379D02*
D03*
X18550Y119000D02*
D03*
X56100Y112000D02*
D03*
X54600Y110300D02*
D03*
X35500Y113300D02*
D03*
X34900Y117250D02*
D03*
X27700Y124095D02*
D03*
X24000Y126000D02*
D03*
X46300Y115150D02*
D03*
X57050Y106750D02*
D03*
X55150D02*
D03*
X35130Y110170D02*
D03*
X31320D02*
D03*
X41500Y123100D02*
D03*
X46275Y123125D02*
D03*
X45290Y109000D02*
D03*
X44020D02*
D03*
X38940Y110170D02*
D03*
X42750D02*
D03*
X45700Y120075D02*
D03*
X47175Y124075D02*
D03*
X39900Y118685D02*
D03*
X40800Y119635D02*
D03*
X41700Y120585D02*
D03*
X27700Y103365D02*
D03*
X36800Y116400D02*
D03*
X48200Y106200D02*
D03*
X18900Y117095D02*
D03*
X29275Y102695D02*
D03*
X24200Y117730D02*
D03*
X24300Y120905D02*
D03*
X31320Y101500D02*
D03*
X33860D02*
D03*
X36400D02*
D03*
X40210D02*
D03*
X42750D02*
D03*
X52700Y106200D02*
D03*
X32900Y118365D02*
D03*
X24250Y110900D02*
D03*
X18625Y120905D02*
D03*
X24000Y104000D02*
D03*
X18900Y104635D02*
D03*
Y102095D02*
D03*
X27700D02*
D03*
Y104635D02*
D03*
X18900Y124095D02*
D03*
Y126635D02*
D03*
X27700D02*
D03*
X22500Y97600D02*
D03*
X24019Y97369D02*
D03*
X24000Y73000D02*
D03*
Y75200D02*
D03*
X35400Y93700D02*
D03*
X33800Y93000D02*
D03*
X34100Y88685D02*
D03*
X39000Y87735D02*
D03*
X32400Y91800D02*
D03*
X50000Y78800D02*
D03*
X29100Y77900D02*
D03*
X29700Y97000D02*
D03*
X35900Y81800D02*
D03*
X47200Y97200D02*
D03*
X54600Y82200D02*
D03*
X50050Y74200D02*
D03*
X50287Y72900D02*
D03*
X58500Y79600D02*
D03*
X22800Y91600D02*
D03*
X23800Y85425D02*
D03*
X16600Y91100D02*
D03*
X14800Y92000D02*
D03*
X16600Y85200D02*
D03*
X14700Y84379D02*
D03*
Y87879D02*
D03*
Y82379D02*
D03*
X18550Y89000D02*
D03*
X56100Y82000D02*
D03*
X54600Y80300D02*
D03*
X35500Y83300D02*
D03*
X34900Y87250D02*
D03*
X27700Y94095D02*
D03*
X24000Y96000D02*
D03*
X46300Y85150D02*
D03*
X57050Y76750D02*
D03*
X55150D02*
D03*
X35130Y80170D02*
D03*
X31320D02*
D03*
X41500Y93100D02*
D03*
X46275Y93125D02*
D03*
X45290Y79000D02*
D03*
X44020D02*
D03*
X38940Y80170D02*
D03*
X42750D02*
D03*
X45700Y90075D02*
D03*
X47175Y94075D02*
D03*
X39900Y88685D02*
D03*
X40800Y89635D02*
D03*
X41700Y90585D02*
D03*
X27700Y73365D02*
D03*
X36800Y86400D02*
D03*
X48200Y76200D02*
D03*
X18900Y87095D02*
D03*
X29275Y72695D02*
D03*
X24200Y87730D02*
D03*
X24300Y90905D02*
D03*
X31320Y71500D02*
D03*
X33860D02*
D03*
X36400D02*
D03*
X40210D02*
D03*
X42750D02*
D03*
X52700Y76200D02*
D03*
X32900Y88365D02*
D03*
X24250Y80900D02*
D03*
X18625Y90905D02*
D03*
X24000Y74000D02*
D03*
X18900Y74635D02*
D03*
Y72095D02*
D03*
X27700D02*
D03*
Y74635D02*
D03*
X18900Y94095D02*
D03*
Y96635D02*
D03*
X27700D02*
D03*
D107*
X12100Y23879D02*
D03*
Y22379D02*
D03*
Y22879D02*
D03*
Y23379D02*
D03*
Y27879D02*
D03*
Y25379D02*
D03*
Y27379D02*
D03*
Y24379D02*
D03*
Y24879D02*
D03*
Y25879D02*
D03*
Y26379D02*
D03*
Y26879D02*
D03*
X11050Y27629D02*
D03*
Y22129D02*
D03*
Y22629D02*
D03*
Y23129D02*
D03*
Y23629D02*
D03*
Y24129D02*
D03*
Y24629D02*
D03*
Y25129D02*
D03*
Y25629D02*
D03*
Y26129D02*
D03*
Y26629D02*
D03*
Y27129D02*
D03*
X12100Y53879D02*
D03*
Y52379D02*
D03*
Y52879D02*
D03*
Y53379D02*
D03*
Y57879D02*
D03*
Y55379D02*
D03*
Y57379D02*
D03*
Y54379D02*
D03*
Y54879D02*
D03*
Y55879D02*
D03*
Y56379D02*
D03*
Y56879D02*
D03*
X11050Y57629D02*
D03*
Y52129D02*
D03*
Y52629D02*
D03*
Y53129D02*
D03*
Y53629D02*
D03*
Y54129D02*
D03*
Y54629D02*
D03*
Y55129D02*
D03*
Y55629D02*
D03*
Y56129D02*
D03*
Y56629D02*
D03*
Y57129D02*
D03*
X107900Y146121D02*
D03*
Y147621D02*
D03*
Y147121D02*
D03*
Y146621D02*
D03*
Y142121D02*
D03*
Y144621D02*
D03*
Y142621D02*
D03*
Y145621D02*
D03*
Y145121D02*
D03*
Y144121D02*
D03*
Y143621D02*
D03*
Y143121D02*
D03*
X108950Y142371D02*
D03*
Y147871D02*
D03*
Y147371D02*
D03*
Y146871D02*
D03*
Y146371D02*
D03*
Y145871D02*
D03*
Y145371D02*
D03*
Y144871D02*
D03*
Y144371D02*
D03*
Y143871D02*
D03*
Y143371D02*
D03*
Y142871D02*
D03*
X107900Y116121D02*
D03*
Y117621D02*
D03*
Y117121D02*
D03*
Y116621D02*
D03*
Y112121D02*
D03*
Y114621D02*
D03*
Y112621D02*
D03*
Y115621D02*
D03*
Y115121D02*
D03*
Y114121D02*
D03*
Y113621D02*
D03*
Y113121D02*
D03*
X108950Y112371D02*
D03*
Y117871D02*
D03*
Y117371D02*
D03*
Y116871D02*
D03*
Y116371D02*
D03*
Y115871D02*
D03*
Y115371D02*
D03*
Y114871D02*
D03*
Y114371D02*
D03*
Y113871D02*
D03*
Y113371D02*
D03*
Y112871D02*
D03*
X107900Y86121D02*
D03*
Y87621D02*
D03*
Y87121D02*
D03*
Y86621D02*
D03*
Y82121D02*
D03*
Y84621D02*
D03*
Y82621D02*
D03*
Y85621D02*
D03*
Y85121D02*
D03*
Y84121D02*
D03*
Y83621D02*
D03*
Y83121D02*
D03*
X108950Y82371D02*
D03*
Y87871D02*
D03*
Y87371D02*
D03*
Y86871D02*
D03*
Y86371D02*
D03*
Y85871D02*
D03*
Y85371D02*
D03*
Y84871D02*
D03*
Y84371D02*
D03*
Y83871D02*
D03*
Y83371D02*
D03*
Y82871D02*
D03*
X107900Y56121D02*
D03*
Y57621D02*
D03*
Y57121D02*
D03*
Y56621D02*
D03*
Y52121D02*
D03*
Y54621D02*
D03*
Y52621D02*
D03*
Y55621D02*
D03*
Y55121D02*
D03*
Y54121D02*
D03*
Y53621D02*
D03*
Y53121D02*
D03*
X108950Y52371D02*
D03*
Y57871D02*
D03*
Y57371D02*
D03*
Y56871D02*
D03*
Y56371D02*
D03*
Y55871D02*
D03*
Y55371D02*
D03*
Y54871D02*
D03*
Y54371D02*
D03*
Y53871D02*
D03*
Y53371D02*
D03*
Y52871D02*
D03*
X107900Y26121D02*
D03*
Y27621D02*
D03*
Y27121D02*
D03*
Y26621D02*
D03*
Y22121D02*
D03*
Y24621D02*
D03*
Y22621D02*
D03*
Y25621D02*
D03*
Y25121D02*
D03*
Y24121D02*
D03*
Y23621D02*
D03*
Y23121D02*
D03*
X108950Y22371D02*
D03*
Y27871D02*
D03*
Y27371D02*
D03*
Y26871D02*
D03*
Y26371D02*
D03*
Y25871D02*
D03*
Y25371D02*
D03*
Y24871D02*
D03*
Y24371D02*
D03*
Y23871D02*
D03*
Y23371D02*
D03*
Y22871D02*
D03*
X12100Y143879D02*
D03*
Y142379D02*
D03*
Y142879D02*
D03*
Y143379D02*
D03*
Y147879D02*
D03*
Y145379D02*
D03*
Y147379D02*
D03*
Y144379D02*
D03*
Y144879D02*
D03*
Y145879D02*
D03*
Y146379D02*
D03*
Y146879D02*
D03*
X11050Y147629D02*
D03*
Y142129D02*
D03*
Y142629D02*
D03*
Y143129D02*
D03*
Y143629D02*
D03*
Y144129D02*
D03*
Y144629D02*
D03*
Y145129D02*
D03*
Y145629D02*
D03*
Y146129D02*
D03*
Y146629D02*
D03*
Y147129D02*
D03*
X12100Y113879D02*
D03*
Y112379D02*
D03*
Y112879D02*
D03*
Y113379D02*
D03*
Y117879D02*
D03*
Y115379D02*
D03*
Y117379D02*
D03*
Y114379D02*
D03*
Y114879D02*
D03*
Y115879D02*
D03*
Y116379D02*
D03*
Y116879D02*
D03*
X11050Y117629D02*
D03*
Y112129D02*
D03*
Y112629D02*
D03*
Y113129D02*
D03*
Y113629D02*
D03*
Y114129D02*
D03*
Y114629D02*
D03*
Y115129D02*
D03*
Y115629D02*
D03*
Y116129D02*
D03*
Y116629D02*
D03*
Y117129D02*
D03*
X12100Y83879D02*
D03*
Y82379D02*
D03*
Y82879D02*
D03*
Y83379D02*
D03*
Y87879D02*
D03*
Y85379D02*
D03*
Y87379D02*
D03*
Y84379D02*
D03*
Y84879D02*
D03*
Y85879D02*
D03*
Y86379D02*
D03*
Y86879D02*
D03*
X11050Y87629D02*
D03*
Y82129D02*
D03*
Y82629D02*
D03*
Y83129D02*
D03*
Y83629D02*
D03*
Y84129D02*
D03*
Y84629D02*
D03*
Y85129D02*
D03*
Y85629D02*
D03*
Y86129D02*
D03*
Y86629D02*
D03*
Y87129D02*
D03*
D108*
X48875Y25075D02*
D03*
Y26075D02*
D03*
Y27075D02*
D03*
Y28075D02*
D03*
Y29075D02*
D03*
Y30075D02*
D03*
Y31075D02*
D03*
Y32075D02*
D03*
Y33075D02*
D03*
Y34075D02*
D03*
X57125D02*
D03*
Y33075D02*
D03*
Y32075D02*
D03*
Y31075D02*
D03*
Y30075D02*
D03*
Y29075D02*
D03*
Y28075D02*
D03*
Y27075D02*
D03*
Y26075D02*
D03*
Y25075D02*
D03*
X48875Y55075D02*
D03*
Y56075D02*
D03*
Y57075D02*
D03*
Y58075D02*
D03*
Y59075D02*
D03*
Y60075D02*
D03*
Y61075D02*
D03*
Y62075D02*
D03*
Y63075D02*
D03*
Y64075D02*
D03*
X57125D02*
D03*
Y63075D02*
D03*
Y62075D02*
D03*
Y61075D02*
D03*
Y60075D02*
D03*
Y59075D02*
D03*
Y58075D02*
D03*
Y57075D02*
D03*
Y56075D02*
D03*
Y55075D02*
D03*
X71125Y144925D02*
D03*
Y143925D02*
D03*
Y142925D02*
D03*
Y141925D02*
D03*
Y140925D02*
D03*
Y139925D02*
D03*
Y138925D02*
D03*
Y137925D02*
D03*
Y136925D02*
D03*
Y135925D02*
D03*
X62875D02*
D03*
Y136925D02*
D03*
Y137925D02*
D03*
Y138925D02*
D03*
Y139925D02*
D03*
Y140925D02*
D03*
Y141925D02*
D03*
Y142925D02*
D03*
Y143925D02*
D03*
Y144925D02*
D03*
X71125Y114925D02*
D03*
Y113925D02*
D03*
Y112925D02*
D03*
Y111925D02*
D03*
Y110925D02*
D03*
Y109925D02*
D03*
Y108925D02*
D03*
Y107925D02*
D03*
Y106925D02*
D03*
Y105925D02*
D03*
X62875D02*
D03*
Y106925D02*
D03*
Y107925D02*
D03*
Y108925D02*
D03*
Y109925D02*
D03*
Y110925D02*
D03*
Y111925D02*
D03*
Y112925D02*
D03*
Y113925D02*
D03*
Y114925D02*
D03*
X71125Y84925D02*
D03*
Y83925D02*
D03*
Y82925D02*
D03*
Y81925D02*
D03*
Y80925D02*
D03*
Y79925D02*
D03*
Y78925D02*
D03*
Y77925D02*
D03*
Y76925D02*
D03*
Y75925D02*
D03*
X62875D02*
D03*
Y76925D02*
D03*
Y77925D02*
D03*
Y78925D02*
D03*
Y79925D02*
D03*
Y80925D02*
D03*
Y81925D02*
D03*
Y82925D02*
D03*
Y83925D02*
D03*
Y84925D02*
D03*
X71125Y54925D02*
D03*
Y53925D02*
D03*
Y52925D02*
D03*
Y51925D02*
D03*
Y50925D02*
D03*
Y49925D02*
D03*
Y48925D02*
D03*
Y47925D02*
D03*
Y46925D02*
D03*
Y45925D02*
D03*
X62875D02*
D03*
Y46925D02*
D03*
Y47925D02*
D03*
Y48925D02*
D03*
Y49925D02*
D03*
Y50925D02*
D03*
Y51925D02*
D03*
Y52925D02*
D03*
Y53925D02*
D03*
Y54925D02*
D03*
X71125Y24925D02*
D03*
Y23925D02*
D03*
Y22925D02*
D03*
Y21925D02*
D03*
Y20925D02*
D03*
Y19925D02*
D03*
Y18925D02*
D03*
Y17925D02*
D03*
Y16925D02*
D03*
Y15925D02*
D03*
X62875D02*
D03*
Y16925D02*
D03*
Y17925D02*
D03*
Y18925D02*
D03*
Y19925D02*
D03*
Y20925D02*
D03*
Y21925D02*
D03*
Y22925D02*
D03*
Y23925D02*
D03*
Y24925D02*
D03*
X48875Y145075D02*
D03*
Y146075D02*
D03*
Y147075D02*
D03*
Y148075D02*
D03*
Y149075D02*
D03*
Y150075D02*
D03*
Y151075D02*
D03*
Y152075D02*
D03*
Y153075D02*
D03*
Y154075D02*
D03*
X57125D02*
D03*
Y153075D02*
D03*
Y152075D02*
D03*
Y151075D02*
D03*
Y150075D02*
D03*
Y149075D02*
D03*
Y148075D02*
D03*
Y147075D02*
D03*
Y146075D02*
D03*
Y145075D02*
D03*
X48875Y115075D02*
D03*
Y116075D02*
D03*
Y117075D02*
D03*
Y118075D02*
D03*
Y119075D02*
D03*
Y120075D02*
D03*
Y121075D02*
D03*
Y122075D02*
D03*
Y123075D02*
D03*
Y124075D02*
D03*
X57125D02*
D03*
Y123075D02*
D03*
Y122075D02*
D03*
Y121075D02*
D03*
Y120075D02*
D03*
Y119075D02*
D03*
Y118075D02*
D03*
Y117075D02*
D03*
Y116075D02*
D03*
Y115075D02*
D03*
X48875Y85075D02*
D03*
Y86075D02*
D03*
Y87075D02*
D03*
Y88075D02*
D03*
Y89075D02*
D03*
Y90075D02*
D03*
Y91075D02*
D03*
Y92075D02*
D03*
Y93075D02*
D03*
Y94075D02*
D03*
X57125D02*
D03*
Y93075D02*
D03*
Y92075D02*
D03*
Y91075D02*
D03*
Y90075D02*
D03*
Y89075D02*
D03*
Y88075D02*
D03*
Y87075D02*
D03*
Y86075D02*
D03*
Y85075D02*
D03*
D109*
X55000Y34000D02*
D03*
X54000D02*
D03*
X53000D02*
D03*
X52000D02*
D03*
X51000D02*
D03*
Y25150D02*
D03*
X52000D02*
D03*
X53000D02*
D03*
X54000D02*
D03*
X55000D02*
D03*
Y64000D02*
D03*
X54000D02*
D03*
X53000D02*
D03*
X52000D02*
D03*
X51000D02*
D03*
Y55150D02*
D03*
X52000D02*
D03*
X53000D02*
D03*
X54000D02*
D03*
X55000D02*
D03*
X65000Y136000D02*
D03*
X66000D02*
D03*
X67000D02*
D03*
X68000D02*
D03*
X69000D02*
D03*
Y144850D02*
D03*
X68000D02*
D03*
X67000D02*
D03*
X66000D02*
D03*
X65000D02*
D03*
Y106000D02*
D03*
X66000D02*
D03*
X67000D02*
D03*
X68000D02*
D03*
X69000D02*
D03*
Y114850D02*
D03*
X68000D02*
D03*
X67000D02*
D03*
X66000D02*
D03*
X65000D02*
D03*
Y76000D02*
D03*
X66000D02*
D03*
X67000D02*
D03*
X68000D02*
D03*
X69000D02*
D03*
Y84850D02*
D03*
X68000D02*
D03*
X67000D02*
D03*
X66000D02*
D03*
X65000D02*
D03*
Y46000D02*
D03*
X66000D02*
D03*
X67000D02*
D03*
X68000D02*
D03*
X69000D02*
D03*
Y54850D02*
D03*
X68000D02*
D03*
X67000D02*
D03*
X66000D02*
D03*
X65000D02*
D03*
Y16000D02*
D03*
X66000D02*
D03*
X67000D02*
D03*
X68000D02*
D03*
X69000D02*
D03*
Y24850D02*
D03*
X68000D02*
D03*
X67000D02*
D03*
X66000D02*
D03*
X65000D02*
D03*
X55000Y154000D02*
D03*
X54000D02*
D03*
X53000D02*
D03*
X52000D02*
D03*
X51000D02*
D03*
Y145150D02*
D03*
X52000D02*
D03*
X53000D02*
D03*
X54000D02*
D03*
X55000D02*
D03*
Y124000D02*
D03*
X54000D02*
D03*
X53000D02*
D03*
X52000D02*
D03*
X51000D02*
D03*
Y115150D02*
D03*
X52000D02*
D03*
X53000D02*
D03*
X54000D02*
D03*
X55000D02*
D03*
Y94000D02*
D03*
X54000D02*
D03*
X53000D02*
D03*
X52000D02*
D03*
X51000D02*
D03*
Y85150D02*
D03*
X52000D02*
D03*
X53000D02*
D03*
X54000D02*
D03*
X55000D02*
D03*
D110*
X50250Y26525D02*
D03*
Y27625D02*
D03*
Y28725D02*
D03*
Y30925D02*
D03*
Y32025D02*
D03*
X55750D02*
D03*
Y30925D02*
D03*
Y29825D02*
D03*
Y28725D02*
D03*
Y27625D02*
D03*
Y26525D02*
D03*
X54650D02*
D03*
X53550D02*
D03*
X52450D02*
D03*
X51350D02*
D03*
X57000Y23925D02*
D03*
X56000D02*
D03*
X55000D02*
D03*
X54000D02*
D03*
X53000D02*
D03*
X52000D02*
D03*
X51000D02*
D03*
X50000D02*
D03*
X49000D02*
D03*
X50250Y29825D02*
D03*
Y56525D02*
D03*
Y57625D02*
D03*
Y58725D02*
D03*
Y60925D02*
D03*
Y62025D02*
D03*
X55750D02*
D03*
Y60925D02*
D03*
Y59825D02*
D03*
Y58725D02*
D03*
Y57625D02*
D03*
Y56525D02*
D03*
X54650D02*
D03*
X53550D02*
D03*
X52450D02*
D03*
X51350D02*
D03*
X57000Y53925D02*
D03*
X56000D02*
D03*
X55000D02*
D03*
X54000D02*
D03*
X53000D02*
D03*
X52000D02*
D03*
X51000D02*
D03*
X50000D02*
D03*
X49000D02*
D03*
X50250Y59825D02*
D03*
X69750Y143475D02*
D03*
Y142375D02*
D03*
Y141275D02*
D03*
Y139075D02*
D03*
Y137975D02*
D03*
X64250D02*
D03*
Y139075D02*
D03*
Y140175D02*
D03*
Y141275D02*
D03*
Y142375D02*
D03*
Y143475D02*
D03*
X65350D02*
D03*
X66450D02*
D03*
X67550D02*
D03*
X68650D02*
D03*
X63000Y146075D02*
D03*
X64000D02*
D03*
X65000D02*
D03*
X66000D02*
D03*
X67000D02*
D03*
X68000D02*
D03*
X69000D02*
D03*
X70000D02*
D03*
X71000D02*
D03*
X69750Y140175D02*
D03*
Y113475D02*
D03*
Y112375D02*
D03*
Y111275D02*
D03*
Y109075D02*
D03*
Y107975D02*
D03*
X64250D02*
D03*
Y109075D02*
D03*
Y110175D02*
D03*
Y111275D02*
D03*
Y112375D02*
D03*
Y113475D02*
D03*
X65350D02*
D03*
X66450D02*
D03*
X67550D02*
D03*
X68650D02*
D03*
X63000Y116075D02*
D03*
X64000D02*
D03*
X65000D02*
D03*
X66000D02*
D03*
X67000D02*
D03*
X68000D02*
D03*
X69000D02*
D03*
X70000D02*
D03*
X71000D02*
D03*
X69750Y110175D02*
D03*
Y83475D02*
D03*
Y82375D02*
D03*
Y81275D02*
D03*
Y79075D02*
D03*
Y77975D02*
D03*
X64250D02*
D03*
Y79075D02*
D03*
Y80175D02*
D03*
Y81275D02*
D03*
Y82375D02*
D03*
Y83475D02*
D03*
X65350D02*
D03*
X66450D02*
D03*
X67550D02*
D03*
X68650D02*
D03*
X63000Y86075D02*
D03*
X64000D02*
D03*
X65000D02*
D03*
X66000D02*
D03*
X67000D02*
D03*
X68000D02*
D03*
X69000D02*
D03*
X70000D02*
D03*
X71000D02*
D03*
X69750Y80175D02*
D03*
Y53475D02*
D03*
Y52375D02*
D03*
Y51275D02*
D03*
Y49075D02*
D03*
Y47975D02*
D03*
X64250D02*
D03*
Y49075D02*
D03*
Y50175D02*
D03*
Y51275D02*
D03*
Y52375D02*
D03*
Y53475D02*
D03*
X65350D02*
D03*
X66450D02*
D03*
X67550D02*
D03*
X68650D02*
D03*
X63000Y56075D02*
D03*
X64000D02*
D03*
X65000D02*
D03*
X66000D02*
D03*
X67000D02*
D03*
X68000D02*
D03*
X69000D02*
D03*
X70000D02*
D03*
X71000D02*
D03*
X69750Y50175D02*
D03*
Y23475D02*
D03*
Y22375D02*
D03*
Y21275D02*
D03*
Y19075D02*
D03*
Y17975D02*
D03*
X64250D02*
D03*
Y19075D02*
D03*
Y20175D02*
D03*
Y21275D02*
D03*
Y22375D02*
D03*
Y23475D02*
D03*
X65350D02*
D03*
X66450D02*
D03*
X67550D02*
D03*
X68650D02*
D03*
X63000Y26075D02*
D03*
X64000D02*
D03*
X65000D02*
D03*
X66000D02*
D03*
X67000D02*
D03*
X68000D02*
D03*
X69000D02*
D03*
X70000D02*
D03*
X71000D02*
D03*
X69750Y20175D02*
D03*
X50250Y146525D02*
D03*
Y147625D02*
D03*
Y148725D02*
D03*
Y150925D02*
D03*
Y152025D02*
D03*
X55750D02*
D03*
Y150925D02*
D03*
Y149825D02*
D03*
Y148725D02*
D03*
Y147625D02*
D03*
Y146525D02*
D03*
X54650D02*
D03*
X53550D02*
D03*
X52450D02*
D03*
X51350D02*
D03*
X57000Y143925D02*
D03*
X56000D02*
D03*
X55000D02*
D03*
X54000D02*
D03*
X53000D02*
D03*
X52000D02*
D03*
X51000D02*
D03*
X50000D02*
D03*
X49000D02*
D03*
X50250Y149825D02*
D03*
Y116525D02*
D03*
Y117625D02*
D03*
Y118725D02*
D03*
Y120925D02*
D03*
Y122025D02*
D03*
X55750D02*
D03*
Y120925D02*
D03*
Y119825D02*
D03*
Y118725D02*
D03*
Y117625D02*
D03*
Y116525D02*
D03*
X54650D02*
D03*
X53550D02*
D03*
X52450D02*
D03*
X51350D02*
D03*
X57000Y113925D02*
D03*
X56000D02*
D03*
X55000D02*
D03*
X54000D02*
D03*
X53000D02*
D03*
X52000D02*
D03*
X51000D02*
D03*
X50000D02*
D03*
X49000D02*
D03*
X50250Y119825D02*
D03*
Y86525D02*
D03*
Y87625D02*
D03*
Y88725D02*
D03*
Y90925D02*
D03*
Y92025D02*
D03*
X55750D02*
D03*
Y90925D02*
D03*
Y89825D02*
D03*
Y88725D02*
D03*
Y87625D02*
D03*
Y86525D02*
D03*
X54650D02*
D03*
X53550D02*
D03*
X52450D02*
D03*
X51350D02*
D03*
X57000Y83925D02*
D03*
X56000D02*
D03*
X55000D02*
D03*
X54000D02*
D03*
X53000D02*
D03*
X52000D02*
D03*
X51000D02*
D03*
X50000D02*
D03*
X49000D02*
D03*
X50250Y89825D02*
D03*
D111*
X52625Y13000D02*
D03*
X51775D02*
D03*
X26425Y13365D02*
D03*
X25575D02*
D03*
X12575Y32000D02*
D03*
X13425D02*
D03*
X52625Y43000D02*
D03*
X51775D02*
D03*
X26425Y43365D02*
D03*
X25575D02*
D03*
X12575Y62000D02*
D03*
X13425D02*
D03*
X67375Y157000D02*
D03*
X68225D02*
D03*
X93575Y156635D02*
D03*
X94425D02*
D03*
X107425Y138000D02*
D03*
X106575D02*
D03*
X67375Y127000D02*
D03*
X68225D02*
D03*
X93575Y126635D02*
D03*
X94425D02*
D03*
X107425Y108000D02*
D03*
X106575D02*
D03*
X67375Y97000D02*
D03*
X68225D02*
D03*
X93575Y96635D02*
D03*
X94425D02*
D03*
X107425Y78000D02*
D03*
X106575D02*
D03*
X67375Y67000D02*
D03*
X68225D02*
D03*
X93575Y66635D02*
D03*
X94425D02*
D03*
X107425Y48000D02*
D03*
X106575D02*
D03*
X67375Y37000D02*
D03*
X68225D02*
D03*
X93575Y36635D02*
D03*
X94425D02*
D03*
X107425Y18000D02*
D03*
X106575D02*
D03*
X52625Y133000D02*
D03*
X51775D02*
D03*
X26425Y133365D02*
D03*
X25575D02*
D03*
X12575Y152000D02*
D03*
X13425D02*
D03*
X52625Y103000D02*
D03*
X51775D02*
D03*
X26425Y103365D02*
D03*
X25575D02*
D03*
X12575Y122000D02*
D03*
X13425D02*
D03*
X52625Y73000D02*
D03*
X51775D02*
D03*
X26425Y73365D02*
D03*
X25575D02*
D03*
X12575Y92000D02*
D03*
X13425D02*
D03*
D112*
X30125Y11500D02*
D03*
X29275D02*
D03*
X26425Y12095D02*
D03*
X25575D02*
D03*
Y14635D02*
D03*
X26425D02*
D03*
X21025Y15905D02*
D03*
X20175D02*
D03*
X21025Y12095D02*
D03*
X20175D02*
D03*
X21025Y13365D02*
D03*
X20175D02*
D03*
X21025Y14635D02*
D03*
X20175D02*
D03*
X25575Y34095D02*
D03*
X26425D02*
D03*
Y36635D02*
D03*
X25575D02*
D03*
X20175Y37905D02*
D03*
X21025D02*
D03*
X20175Y36635D02*
D03*
X21025D02*
D03*
X20175Y35365D02*
D03*
X21025D02*
D03*
X20175Y34095D02*
D03*
X21025D02*
D03*
X20175Y27095D02*
D03*
X21025D02*
D03*
X30125Y41500D02*
D03*
X29275D02*
D03*
X26425Y42095D02*
D03*
X25575D02*
D03*
Y44635D02*
D03*
X26425D02*
D03*
X21025Y45905D02*
D03*
X20175D02*
D03*
X21025Y42095D02*
D03*
X20175D02*
D03*
X21025Y43365D02*
D03*
X20175D02*
D03*
X21025Y44635D02*
D03*
X20175D02*
D03*
X25575Y64095D02*
D03*
X26425D02*
D03*
Y66635D02*
D03*
X25575D02*
D03*
X20175Y67905D02*
D03*
X21025D02*
D03*
X20175Y66635D02*
D03*
X21025D02*
D03*
X20175Y65365D02*
D03*
X21025D02*
D03*
X20175Y64095D02*
D03*
X21025D02*
D03*
X20175Y57095D02*
D03*
X21025D02*
D03*
X89875Y158500D02*
D03*
X90725D02*
D03*
X94425Y155365D02*
D03*
X93575D02*
D03*
Y133365D02*
D03*
X94425D02*
D03*
X89875Y128500D02*
D03*
X90725D02*
D03*
X94425Y125365D02*
D03*
X93575D02*
D03*
Y103365D02*
D03*
X94425D02*
D03*
X89875Y98500D02*
D03*
X90725D02*
D03*
X94425Y95365D02*
D03*
X93575D02*
D03*
Y73365D02*
D03*
X94425D02*
D03*
X89875Y68500D02*
D03*
X90725D02*
D03*
X94425Y65365D02*
D03*
X93575D02*
D03*
Y43365D02*
D03*
X94425D02*
D03*
X89875Y38500D02*
D03*
X90725D02*
D03*
X94425Y35365D02*
D03*
X93575D02*
D03*
Y13365D02*
D03*
X94425D02*
D03*
X30125Y131500D02*
D03*
X29275D02*
D03*
X26425Y132095D02*
D03*
X25575D02*
D03*
Y134635D02*
D03*
X26425D02*
D03*
X21025Y135905D02*
D03*
X20175D02*
D03*
X21025Y132095D02*
D03*
X20175D02*
D03*
X21025Y133365D02*
D03*
X20175D02*
D03*
X21025Y134635D02*
D03*
X20175D02*
D03*
X25575Y154095D02*
D03*
X26425D02*
D03*
Y156635D02*
D03*
X25575D02*
D03*
X20175Y157905D02*
D03*
X21025D02*
D03*
X20175Y156635D02*
D03*
X21025D02*
D03*
X20175Y155365D02*
D03*
X21025D02*
D03*
X20175Y154095D02*
D03*
X21025D02*
D03*
X20175Y147095D02*
D03*
X21025D02*
D03*
X30125Y101500D02*
D03*
X29275D02*
D03*
X26425Y102095D02*
D03*
X25575D02*
D03*
Y104635D02*
D03*
X26425D02*
D03*
X21025Y105905D02*
D03*
X20175D02*
D03*
X21025Y102095D02*
D03*
X20175D02*
D03*
X21025Y103365D02*
D03*
X20175D02*
D03*
X21025Y104635D02*
D03*
X20175D02*
D03*
X25575Y124095D02*
D03*
X26425D02*
D03*
Y126635D02*
D03*
X25575D02*
D03*
X20175Y127905D02*
D03*
X21025D02*
D03*
X20175Y126635D02*
D03*
X21025D02*
D03*
X20175Y125365D02*
D03*
X21025D02*
D03*
X20175Y124095D02*
D03*
X21025D02*
D03*
X20175Y117095D02*
D03*
X21025D02*
D03*
X30125Y71500D02*
D03*
X29275D02*
D03*
X26425Y72095D02*
D03*
X25575D02*
D03*
Y74635D02*
D03*
X26425D02*
D03*
X21025Y75905D02*
D03*
X20175D02*
D03*
X21025Y72095D02*
D03*
X20175D02*
D03*
X21025Y73365D02*
D03*
X20175D02*
D03*
X21025Y74635D02*
D03*
X20175D02*
D03*
X25575Y94095D02*
D03*
X26425D02*
D03*
Y96635D02*
D03*
X25575D02*
D03*
X20175Y97905D02*
D03*
X21025D02*
D03*
X20175Y96635D02*
D03*
X21025D02*
D03*
X20175Y95365D02*
D03*
X21025D02*
D03*
X20175Y94095D02*
D03*
X21025D02*
D03*
X20175Y87095D02*
D03*
X21025D02*
D03*
D113*
X87475Y135000D02*
D03*
Y105000D02*
D03*
Y75000D02*
D03*
Y45000D02*
D03*
Y15000D02*
D03*
D114*
X84325Y135000D02*
D03*
Y105000D02*
D03*
Y75000D02*
D03*
Y45000D02*
D03*
Y15000D02*
D03*
D115*
X93575Y157905D02*
D03*
X94425D02*
D03*
X98975Y154095D02*
D03*
X99825D02*
D03*
X98975Y157905D02*
D03*
X99825D02*
D03*
X98975Y156635D02*
D03*
X99825D02*
D03*
X98975Y155365D02*
D03*
X99825D02*
D03*
X94425Y135905D02*
D03*
X93575D02*
D03*
X99825Y132095D02*
D03*
X98975D02*
D03*
X99825Y133365D02*
D03*
X98975D02*
D03*
X99825Y134635D02*
D03*
X98975D02*
D03*
X99825Y135905D02*
D03*
X98975D02*
D03*
X99825Y142905D02*
D03*
X98975D02*
D03*
X93575Y127905D02*
D03*
X94425D02*
D03*
X98975Y124095D02*
D03*
X99825D02*
D03*
X98975Y127905D02*
D03*
X99825D02*
D03*
X98975Y126635D02*
D03*
X99825D02*
D03*
X98975Y125365D02*
D03*
X99825D02*
D03*
X94425Y105905D02*
D03*
X93575D02*
D03*
X99825Y102095D02*
D03*
X98975D02*
D03*
X99825Y103365D02*
D03*
X98975D02*
D03*
X99825Y104635D02*
D03*
X98975D02*
D03*
X99825Y105905D02*
D03*
X98975D02*
D03*
X99825Y112905D02*
D03*
X98975D02*
D03*
X93575Y97905D02*
D03*
X94425D02*
D03*
X98975Y94095D02*
D03*
X99825D02*
D03*
X98975Y97905D02*
D03*
X99825D02*
D03*
X98975Y96635D02*
D03*
X99825D02*
D03*
X98975Y95365D02*
D03*
X99825D02*
D03*
X94425Y75905D02*
D03*
X93575D02*
D03*
X99825Y72095D02*
D03*
X98975D02*
D03*
X99825Y73365D02*
D03*
X98975D02*
D03*
X99825Y74635D02*
D03*
X98975D02*
D03*
X99825Y75905D02*
D03*
X98975D02*
D03*
X99825Y82905D02*
D03*
X98975D02*
D03*
X93575Y67905D02*
D03*
X94425D02*
D03*
X98975Y64095D02*
D03*
X99825D02*
D03*
X98975Y67905D02*
D03*
X99825D02*
D03*
X98975Y66635D02*
D03*
X99825D02*
D03*
X98975Y65365D02*
D03*
X99825D02*
D03*
X94425Y45905D02*
D03*
X93575D02*
D03*
X99825Y42095D02*
D03*
X98975D02*
D03*
X99825Y43365D02*
D03*
X98975D02*
D03*
X99825Y44635D02*
D03*
X98975D02*
D03*
X99825Y45905D02*
D03*
X98975D02*
D03*
X99825Y52905D02*
D03*
X98975D02*
D03*
X93575Y37905D02*
D03*
X94425D02*
D03*
X98975Y34095D02*
D03*
X99825D02*
D03*
X98975Y37905D02*
D03*
X99825D02*
D03*
X98975Y36635D02*
D03*
X99825D02*
D03*
X98975Y35365D02*
D03*
X99825D02*
D03*
X94425Y15905D02*
D03*
X93575D02*
D03*
X99825Y12095D02*
D03*
X98975D02*
D03*
X99825Y13365D02*
D03*
X98975D02*
D03*
X99825Y14635D02*
D03*
X98975D02*
D03*
X99825Y15905D02*
D03*
X98975D02*
D03*
X99825Y22905D02*
D03*
X98975D02*
D03*
M02*
