G04*
G04 #@! TF.GenerationSoftware,Altium Limited,Altium Designer,21.6.4 (81)*
G04*
G04 Layer_Color=8388736*
%FSLAX43Y43*%
%MOMM*%
G71*
G04*
G04 #@! TF.SameCoordinates,07C235E3-D0D3-4C9F-B76D-DFC27EE1DA73*
G04*
G04*
G04 #@! TF.FilePolarity,Positive*
G04*
G01*
G75*
%ADD64C,0.200*%
%ADD116C,0.254*%
%ADD117C,0.152*%
D64*
X8500Y8500D02*
X11500Y11500D01*
X8500D02*
X11500Y8500D01*
X8500Y38500D02*
X11500Y41500D01*
X8500D02*
X11500Y38500D01*
X111500Y161500D02*
X108500Y158500D01*
X111500D02*
X108500Y161500D01*
X111500Y131500D02*
X108500Y128500D01*
X111500D02*
X108500Y131500D01*
X111500Y101500D02*
X108500Y98500D01*
X111500D02*
X108500Y101500D01*
X111500Y71500D02*
X108500Y68500D01*
X111500D02*
X108500Y71500D01*
X111500Y41500D02*
X108500Y38500D01*
X111500D02*
X108500Y41500D01*
X8500Y128500D02*
X11500Y131500D01*
X8500D02*
X11500Y128500D01*
X8500Y98500D02*
X11500Y101500D01*
X8500D02*
X11500Y98500D01*
X8500Y68500D02*
X11500Y71500D01*
X8500D02*
X11500Y68500D01*
D116*
X11414Y10000D02*
G03*
X11414Y10000I-1414J0D01*
G01*
X2892Y11524D02*
X3400Y10000D01*
X3908Y11524D01*
X3400Y40000D02*
X3908Y38476D01*
X2892D02*
X3400Y40000D01*
Y10000D02*
Y19998D01*
Y29190D02*
Y40000D01*
X3146Y10000D02*
X9746D01*
X3146Y40000D02*
X9746D01*
X10000Y4500D02*
X11524Y5008D01*
X10000Y4500D02*
X11524Y3992D01*
X58476D02*
X60000Y4500D01*
X58476Y5008D02*
X60000Y4500D01*
X10000D02*
X29998D01*
X39190D02*
X60000D01*
X10000Y4246D02*
Y9746D01*
X60000Y4246D02*
Y9746D01*
X11008Y6500D02*
X10500Y7008D01*
Y7516D01*
X11008Y8024D01*
X11770Y7770D02*
X12024Y8024D01*
X12531D01*
X12785Y7770D01*
Y6754D01*
X12531Y6500D01*
X12024D01*
X11770Y6754D01*
Y7770D01*
X13547Y6246D02*
X13801Y6500D01*
Y6754D01*
X13547D01*
Y6500D01*
X13801D01*
X13547Y6246D01*
X13293Y5992D01*
X14817Y7770D02*
X15071Y8024D01*
X15578D01*
X15832Y7770D01*
Y6754D01*
X15578Y6500D01*
X15071D01*
X14817Y6754D01*
Y7770D01*
X16340Y6500D02*
X16848Y7008D01*
Y7516D01*
X16340Y8024D01*
X11414Y40000D02*
G03*
X11414Y40000I-1414J0D01*
G01*
X2892Y41524D02*
X3400Y40000D01*
X3908Y41524D01*
X3400Y70000D02*
X3908Y68476D01*
X2892D02*
X3400Y70000D01*
Y40000D02*
Y49998D01*
Y59190D02*
Y70000D01*
X3146Y40000D02*
X9746D01*
X3146Y70000D02*
X9746D01*
X10000Y34500D02*
X11524Y35008D01*
X10000Y34500D02*
X11524Y33992D01*
X58476D02*
X60000Y34500D01*
X58476Y35008D02*
X60000Y34500D01*
X10000D02*
X29998D01*
X39190D02*
X60000D01*
X10000Y34246D02*
Y39746D01*
X60000Y34246D02*
Y39746D01*
X11008Y36500D02*
X10500Y37008D01*
Y37516D01*
X11008Y38024D01*
X11770Y37770D02*
X12024Y38024D01*
X12531D01*
X12785Y37770D01*
Y36754D01*
X12531Y36500D01*
X12024D01*
X11770Y36754D01*
Y37770D01*
X13547Y36246D02*
X13801Y36500D01*
Y36754D01*
X13547D01*
Y36500D01*
X13801D01*
X13547Y36246D01*
X13293Y35992D01*
X14817Y37770D02*
X15071Y38024D01*
X15578D01*
X15832Y37770D01*
Y36754D01*
X15578Y36500D01*
X15071D01*
X14817Y36754D01*
Y37770D01*
X16340Y36500D02*
X16848Y37008D01*
Y37516D01*
X16340Y38024D01*
X108586Y160000D02*
G03*
X108586Y160000I1414J0D01*
G01*
X117108Y158476D02*
X116600Y160000D01*
X116092Y158476D01*
X116600Y130000D02*
X116092Y131524D01*
X117108D02*
X116600Y130000D01*
Y160000D02*
Y150002D01*
Y140810D02*
Y130000D01*
X116854Y160000D02*
X110254D01*
X116854Y130000D02*
X110254D01*
X110000Y165500D02*
X108476Y164992D01*
X110000Y165500D02*
X108476Y166008D01*
X61524D02*
X60000Y165500D01*
X61524Y164992D02*
X60000Y165500D01*
X110000D02*
X90002D01*
X80810D02*
X60000D01*
X110000Y165754D02*
Y160254D01*
X60000Y165754D02*
Y160254D01*
X108992Y163500D02*
X109500Y162992D01*
Y162484D01*
X108992Y161976D01*
X108230Y162230D02*
X107976Y161976D01*
X107469D01*
X107215Y162230D01*
Y163246D01*
X107469Y163500D01*
X107976D01*
X108230Y163246D01*
Y162230D01*
X106453Y163754D02*
X106199Y163500D01*
Y163246D01*
X106453D01*
Y163500D01*
X106199D01*
X106453Y163754D01*
X106707Y164008D01*
X105183Y162230D02*
X104929Y161976D01*
X104422D01*
X104168Y162230D01*
Y163246D01*
X104422Y163500D01*
X104929D01*
X105183Y163246D01*
Y162230D01*
X103660Y163500D02*
X103152Y162992D01*
Y162484D01*
X103660Y161976D01*
X108586Y130000D02*
G03*
X108586Y130000I1414J0D01*
G01*
X117108Y128476D02*
X116600Y130000D01*
X116092Y128476D01*
X116600Y100000D02*
X116092Y101524D01*
X117108D02*
X116600Y100000D01*
Y130000D02*
Y120002D01*
Y110810D02*
Y100000D01*
X116854Y130000D02*
X110254D01*
X116854Y100000D02*
X110254D01*
X110000Y135500D02*
X108476Y134992D01*
X110000Y135500D02*
X108476Y136008D01*
X61524D02*
X60000Y135500D01*
X61524Y134992D02*
X60000Y135500D01*
X110000D02*
X90002D01*
X80810D02*
X60000D01*
X110000Y135754D02*
Y130254D01*
X60000Y135754D02*
Y130254D01*
X108992Y133500D02*
X109500Y132992D01*
Y132484D01*
X108992Y131976D01*
X108230Y132230D02*
X107976Y131976D01*
X107469D01*
X107215Y132230D01*
Y133246D01*
X107469Y133500D01*
X107976D01*
X108230Y133246D01*
Y132230D01*
X106453Y133754D02*
X106199Y133500D01*
Y133246D01*
X106453D01*
Y133500D01*
X106199D01*
X106453Y133754D01*
X106707Y134008D01*
X105183Y132230D02*
X104929Y131976D01*
X104422D01*
X104168Y132230D01*
Y133246D01*
X104422Y133500D01*
X104929D01*
X105183Y133246D01*
Y132230D01*
X103660Y133500D02*
X103152Y132992D01*
Y132484D01*
X103660Y131976D01*
X108586Y100000D02*
G03*
X108586Y100000I1414J0D01*
G01*
X117108Y98476D02*
X116600Y100000D01*
X116092Y98476D01*
X116600Y70000D02*
X116092Y71524D01*
X117108D02*
X116600Y70000D01*
Y100000D02*
Y90002D01*
Y80810D02*
Y70000D01*
X116854Y100000D02*
X110254D01*
X116854Y70000D02*
X110254D01*
X110000Y105500D02*
X108476Y104992D01*
X110000Y105500D02*
X108476Y106008D01*
X61524D02*
X60000Y105500D01*
X61524Y104992D02*
X60000Y105500D01*
X110000D02*
X90002D01*
X80810D02*
X60000D01*
X110000Y105754D02*
Y100254D01*
X60000Y105754D02*
Y100254D01*
X108992Y103500D02*
X109500Y102992D01*
Y102484D01*
X108992Y101976D01*
X108230Y102230D02*
X107976Y101976D01*
X107469D01*
X107215Y102230D01*
Y103246D01*
X107469Y103500D01*
X107976D01*
X108230Y103246D01*
Y102230D01*
X106453Y103754D02*
X106199Y103500D01*
Y103246D01*
X106453D01*
Y103500D01*
X106199D01*
X106453Y103754D01*
X106707Y104008D01*
X105183Y102230D02*
X104929Y101976D01*
X104422D01*
X104168Y102230D01*
Y103246D01*
X104422Y103500D01*
X104929D01*
X105183Y103246D01*
Y102230D01*
X103660Y103500D02*
X103152Y102992D01*
Y102484D01*
X103660Y101976D01*
X108586Y70000D02*
G03*
X108586Y70000I1414J0D01*
G01*
X117108Y68476D02*
X116600Y70000D01*
X116092Y68476D01*
X116600Y40000D02*
X116092Y41524D01*
X117108D02*
X116600Y40000D01*
Y70000D02*
Y60002D01*
Y50810D02*
Y40000D01*
X116854Y70000D02*
X110254D01*
X116854Y40000D02*
X110254D01*
X110000Y75500D02*
X108476Y74992D01*
X110000Y75500D02*
X108476Y76008D01*
X61524D02*
X60000Y75500D01*
X61524Y74992D02*
X60000Y75500D01*
X110000D02*
X90002D01*
X80810D02*
X60000D01*
X110000Y75754D02*
Y70254D01*
X60000Y75754D02*
Y70254D01*
X108992Y73500D02*
X109500Y72992D01*
Y72484D01*
X108992Y71976D01*
X108230Y72230D02*
X107976Y71976D01*
X107469D01*
X107215Y72230D01*
Y73246D01*
X107469Y73500D01*
X107976D01*
X108230Y73246D01*
Y72230D01*
X106453Y73754D02*
X106199Y73500D01*
Y73246D01*
X106453D01*
Y73500D01*
X106199D01*
X106453Y73754D01*
X106707Y74008D01*
X105183Y72230D02*
X104929Y71976D01*
X104422D01*
X104168Y72230D01*
Y73246D01*
X104422Y73500D01*
X104929D01*
X105183Y73246D01*
Y72230D01*
X103660Y73500D02*
X103152Y72992D01*
Y72484D01*
X103660Y71976D01*
X108586Y40000D02*
G03*
X108586Y40000I1414J0D01*
G01*
X117108Y38476D02*
X116600Y40000D01*
X116092Y38476D01*
X116600Y10000D02*
X116092Y11524D01*
X117108D02*
X116600Y10000D01*
Y40000D02*
Y30002D01*
Y20810D02*
Y10000D01*
X116854Y40000D02*
X110254D01*
X116854Y10000D02*
X110254D01*
X110000Y45500D02*
X108476Y44992D01*
X110000Y45500D02*
X108476Y46008D01*
X61524D02*
X60000Y45500D01*
X61524Y44992D02*
X60000Y45500D01*
X110000D02*
X90002D01*
X80810D02*
X60000D01*
X110000Y45754D02*
Y40254D01*
X60000Y45754D02*
Y40254D01*
X108992Y43500D02*
X109500Y42992D01*
Y42484D01*
X108992Y41976D01*
X108230Y42230D02*
X107976Y41976D01*
X107469D01*
X107215Y42230D01*
Y43246D01*
X107469Y43500D01*
X107976D01*
X108230Y43246D01*
Y42230D01*
X106453Y43754D02*
X106199Y43500D01*
Y43246D01*
X106453D01*
Y43500D01*
X106199D01*
X106453Y43754D01*
X106707Y44008D01*
X105183Y42230D02*
X104929Y41976D01*
X104422D01*
X104168Y42230D01*
Y43246D01*
X104422Y43500D01*
X104929D01*
X105183Y43246D01*
Y42230D01*
X103660Y43500D02*
X103152Y42992D01*
Y42484D01*
X103660Y41976D01*
X11414Y130000D02*
G03*
X11414Y130000I-1414J0D01*
G01*
X2892Y131524D02*
X3400Y130000D01*
X3908Y131524D01*
X3400Y160000D02*
X3908Y158476D01*
X2892D02*
X3400Y160000D01*
Y130000D02*
Y139998D01*
Y149190D02*
Y160000D01*
X3146Y130000D02*
X9746D01*
X3146Y160000D02*
X9746D01*
X10000Y124500D02*
X11524Y125008D01*
X10000Y124500D02*
X11524Y123992D01*
X58476D02*
X60000Y124500D01*
X58476Y125008D02*
X60000Y124500D01*
X10000D02*
X29998D01*
X39190D02*
X60000D01*
X10000Y124246D02*
Y129746D01*
X60000Y124246D02*
Y129746D01*
X11008Y126500D02*
X10500Y127008D01*
Y127516D01*
X11008Y128024D01*
X11770Y127770D02*
X12024Y128024D01*
X12531D01*
X12785Y127770D01*
Y126754D01*
X12531Y126500D01*
X12024D01*
X11770Y126754D01*
Y127770D01*
X13547Y126246D02*
X13801Y126500D01*
Y126754D01*
X13547D01*
Y126500D01*
X13801D01*
X13547Y126246D01*
X13293Y125992D01*
X14817Y127770D02*
X15071Y128024D01*
X15578D01*
X15832Y127770D01*
Y126754D01*
X15578Y126500D01*
X15071D01*
X14817Y126754D01*
Y127770D01*
X16340Y126500D02*
X16848Y127008D01*
Y127516D01*
X16340Y128024D01*
X11414Y100000D02*
G03*
X11414Y100000I-1414J0D01*
G01*
X2892Y101524D02*
X3400Y100000D01*
X3908Y101524D01*
X3400Y130000D02*
X3908Y128476D01*
X2892D02*
X3400Y130000D01*
Y100000D02*
Y109998D01*
Y119190D02*
Y130000D01*
X3146Y100000D02*
X9746D01*
X3146Y130000D02*
X9746D01*
X10000Y94500D02*
X11524Y95008D01*
X10000Y94500D02*
X11524Y93992D01*
X58476D02*
X60000Y94500D01*
X58476Y95008D02*
X60000Y94500D01*
X10000D02*
X29998D01*
X39190D02*
X60000D01*
X10000Y94246D02*
Y99746D01*
X60000Y94246D02*
Y99746D01*
X11008Y96500D02*
X10500Y97008D01*
Y97516D01*
X11008Y98024D01*
X11770Y97770D02*
X12024Y98024D01*
X12531D01*
X12785Y97770D01*
Y96754D01*
X12531Y96500D01*
X12024D01*
X11770Y96754D01*
Y97770D01*
X13547Y96246D02*
X13801Y96500D01*
Y96754D01*
X13547D01*
Y96500D01*
X13801D01*
X13547Y96246D01*
X13293Y95992D01*
X14817Y97770D02*
X15071Y98024D01*
X15578D01*
X15832Y97770D01*
Y96754D01*
X15578Y96500D01*
X15071D01*
X14817Y96754D01*
Y97770D01*
X16340Y96500D02*
X16848Y97008D01*
Y97516D01*
X16340Y98024D01*
X11414Y70000D02*
G03*
X11414Y70000I-1414J0D01*
G01*
X2892Y71524D02*
X3400Y70000D01*
X3908Y71524D01*
X3400Y100000D02*
X3908Y98476D01*
X2892D02*
X3400Y100000D01*
Y70000D02*
Y79998D01*
Y89190D02*
Y100000D01*
X3146Y70000D02*
X9746D01*
X3146Y100000D02*
X9746D01*
X10000Y64500D02*
X11524Y65008D01*
X10000Y64500D02*
X11524Y63992D01*
X58476D02*
X60000Y64500D01*
X58476Y65008D02*
X60000Y64500D01*
X10000D02*
X29998D01*
X39190D02*
X60000D01*
X10000Y64246D02*
Y69746D01*
X60000Y64246D02*
Y69746D01*
X11008Y66500D02*
X10500Y67008D01*
Y67516D01*
X11008Y68024D01*
X11770Y67770D02*
X12024Y68024D01*
X12531D01*
X12785Y67770D01*
Y66754D01*
X12531Y66500D01*
X12024D01*
X11770Y66754D01*
Y67770D01*
X13547Y66246D02*
X13801Y66500D01*
Y66754D01*
X13547D01*
Y66500D01*
X13801D01*
X13547Y66246D01*
X13293Y65992D01*
X14817Y67770D02*
X15071Y68024D01*
X15578D01*
X15832Y67770D01*
Y66754D01*
X15578Y66500D01*
X15071D01*
X14817Y66754D01*
Y67770D01*
X16340Y66500D02*
X16848Y67008D01*
Y67516D01*
X16340Y68024D01*
D117*
X3045Y20404D02*
X2791Y20658D01*
Y21166D01*
X3045Y21420D01*
X3298D01*
X3552Y21166D01*
Y20912D01*
Y21166D01*
X3806Y21420D01*
X4060D01*
X4314Y21166D01*
Y20658D01*
X4060Y20404D01*
X3045Y21927D02*
X2791Y22181D01*
Y22689D01*
X3045Y22943D01*
X4060D01*
X4314Y22689D01*
Y22181D01*
X4060Y21927D01*
X3045D01*
X4314Y23451D02*
X4060D01*
Y23705D01*
X4314D01*
Y23451D01*
X3045Y24721D02*
X2791Y24974D01*
Y25482D01*
X3045Y25736D01*
X4060D01*
X4314Y25482D01*
Y24974D01*
X4060Y24721D01*
X3045D01*
X4314Y26244D02*
X3298D01*
Y26498D01*
X3552Y26752D01*
X4314D01*
X3552D01*
X3298Y27006D01*
X3552Y27260D01*
X4314D01*
Y27768D02*
X3298D01*
Y28021D01*
X3552Y28275D01*
X4314D01*
X3552D01*
X3298Y28529D01*
X3552Y28783D01*
X4314D01*
X31420Y5109D02*
X30404D01*
Y4348D01*
X30912Y4602D01*
X31166D01*
X31420Y4348D01*
Y3840D01*
X31166Y3586D01*
X30658D01*
X30404Y3840D01*
X31927Y4855D02*
X32181Y5109D01*
X32689D01*
X32943Y4855D01*
Y3840D01*
X32689Y3586D01*
X32181D01*
X31927Y3840D01*
Y4855D01*
X33451Y3586D02*
Y3840D01*
X33705D01*
Y3586D01*
X33451D01*
X34721Y4855D02*
X34974Y5109D01*
X35482D01*
X35736Y4855D01*
Y3840D01*
X35482Y3586D01*
X34974D01*
X34721Y3840D01*
Y4855D01*
X36244Y3586D02*
Y4602D01*
X36498D01*
X36752Y4348D01*
Y3586D01*
Y4348D01*
X37006Y4602D01*
X37260Y4348D01*
Y3586D01*
X37768D02*
Y4602D01*
X38021D01*
X38275Y4348D01*
Y3586D01*
Y4348D01*
X38529Y4602D01*
X38783Y4348D01*
Y3586D01*
X3045Y50404D02*
X2791Y50658D01*
Y51166D01*
X3045Y51420D01*
X3298D01*
X3552Y51166D01*
Y50912D01*
Y51166D01*
X3806Y51420D01*
X4060D01*
X4314Y51166D01*
Y50658D01*
X4060Y50404D01*
X3045Y51927D02*
X2791Y52181D01*
Y52689D01*
X3045Y52943D01*
X4060D01*
X4314Y52689D01*
Y52181D01*
X4060Y51927D01*
X3045D01*
X4314Y53451D02*
X4060D01*
Y53705D01*
X4314D01*
Y53451D01*
X3045Y54721D02*
X2791Y54974D01*
Y55482D01*
X3045Y55736D01*
X4060D01*
X4314Y55482D01*
Y54974D01*
X4060Y54721D01*
X3045D01*
X4314Y56244D02*
X3298D01*
Y56498D01*
X3552Y56752D01*
X4314D01*
X3552D01*
X3298Y57006D01*
X3552Y57260D01*
X4314D01*
Y57768D02*
X3298D01*
Y58021D01*
X3552Y58275D01*
X4314D01*
X3552D01*
X3298Y58529D01*
X3552Y58783D01*
X4314D01*
X31420Y35109D02*
X30404D01*
Y34348D01*
X30912Y34602D01*
X31166D01*
X31420Y34348D01*
Y33840D01*
X31166Y33586D01*
X30658D01*
X30404Y33840D01*
X31927Y34855D02*
X32181Y35109D01*
X32689D01*
X32943Y34855D01*
Y33840D01*
X32689Y33586D01*
X32181D01*
X31927Y33840D01*
Y34855D01*
X33451Y33586D02*
Y33840D01*
X33705D01*
Y33586D01*
X33451D01*
X34721Y34855D02*
X34974Y35109D01*
X35482D01*
X35736Y34855D01*
Y33840D01*
X35482Y33586D01*
X34974D01*
X34721Y33840D01*
Y34855D01*
X36244Y33586D02*
Y34602D01*
X36498D01*
X36752Y34348D01*
Y33586D01*
Y34348D01*
X37006Y34602D01*
X37260Y34348D01*
Y33586D01*
X37768D02*
Y34602D01*
X38021D01*
X38275Y34348D01*
Y33586D01*
Y34348D01*
X38529Y34602D01*
X38783Y34348D01*
Y33586D01*
X116955Y149596D02*
X117209Y149342D01*
Y148834D01*
X116955Y148580D01*
X116702D01*
X116448Y148834D01*
Y149088D01*
Y148834D01*
X116194Y148580D01*
X115940D01*
X115686Y148834D01*
Y149342D01*
X115940Y149596D01*
X116955Y148073D02*
X117209Y147819D01*
Y147311D01*
X116955Y147057D01*
X115940D01*
X115686Y147311D01*
Y147819D01*
X115940Y148073D01*
X116955D01*
X115686Y146549D02*
X115940D01*
Y146295D01*
X115686D01*
Y146549D01*
X116955Y145279D02*
X117209Y145026D01*
Y144518D01*
X116955Y144264D01*
X115940D01*
X115686Y144518D01*
Y145026D01*
X115940Y145279D01*
X116955D01*
X115686Y143756D02*
X116702D01*
Y143502D01*
X116448Y143248D01*
X115686D01*
X116448D01*
X116702Y142994D01*
X116448Y142740D01*
X115686D01*
Y142232D02*
X116702D01*
Y141979D01*
X116448Y141725D01*
X115686D01*
X116448D01*
X116702Y141471D01*
X116448Y141217D01*
X115686D01*
X88580Y164891D02*
X89596D01*
Y165652D01*
X89088Y165398D01*
X88834D01*
X88580Y165652D01*
Y166160D01*
X88834Y166414D01*
X89342D01*
X89596Y166160D01*
X88073Y165145D02*
X87819Y164891D01*
X87311D01*
X87057Y165145D01*
Y166160D01*
X87311Y166414D01*
X87819D01*
X88073Y166160D01*
Y165145D01*
X86549Y166414D02*
Y166160D01*
X86295D01*
Y166414D01*
X86549D01*
X85279Y165145D02*
X85026Y164891D01*
X84518D01*
X84264Y165145D01*
Y166160D01*
X84518Y166414D01*
X85026D01*
X85279Y166160D01*
Y165145D01*
X83756Y166414D02*
Y165398D01*
X83502D01*
X83248Y165652D01*
Y166414D01*
Y165652D01*
X82994Y165398D01*
X82740Y165652D01*
Y166414D01*
X82232D02*
Y165398D01*
X81979D01*
X81725Y165652D01*
Y166414D01*
Y165652D01*
X81471Y165398D01*
X81217Y165652D01*
Y166414D01*
X116955Y119596D02*
X117209Y119342D01*
Y118834D01*
X116955Y118580D01*
X116702D01*
X116448Y118834D01*
Y119088D01*
Y118834D01*
X116194Y118580D01*
X115940D01*
X115686Y118834D01*
Y119342D01*
X115940Y119596D01*
X116955Y118073D02*
X117209Y117819D01*
Y117311D01*
X116955Y117057D01*
X115940D01*
X115686Y117311D01*
Y117819D01*
X115940Y118073D01*
X116955D01*
X115686Y116549D02*
X115940D01*
Y116295D01*
X115686D01*
Y116549D01*
X116955Y115279D02*
X117209Y115026D01*
Y114518D01*
X116955Y114264D01*
X115940D01*
X115686Y114518D01*
Y115026D01*
X115940Y115279D01*
X116955D01*
X115686Y113756D02*
X116702D01*
Y113502D01*
X116448Y113248D01*
X115686D01*
X116448D01*
X116702Y112994D01*
X116448Y112740D01*
X115686D01*
Y112232D02*
X116702D01*
Y111979D01*
X116448Y111725D01*
X115686D01*
X116448D01*
X116702Y111471D01*
X116448Y111217D01*
X115686D01*
X88580Y134891D02*
X89596D01*
Y135652D01*
X89088Y135398D01*
X88834D01*
X88580Y135652D01*
Y136160D01*
X88834Y136414D01*
X89342D01*
X89596Y136160D01*
X88073Y135145D02*
X87819Y134891D01*
X87311D01*
X87057Y135145D01*
Y136160D01*
X87311Y136414D01*
X87819D01*
X88073Y136160D01*
Y135145D01*
X86549Y136414D02*
Y136160D01*
X86295D01*
Y136414D01*
X86549D01*
X85279Y135145D02*
X85026Y134891D01*
X84518D01*
X84264Y135145D01*
Y136160D01*
X84518Y136414D01*
X85026D01*
X85279Y136160D01*
Y135145D01*
X83756Y136414D02*
Y135398D01*
X83502D01*
X83248Y135652D01*
Y136414D01*
Y135652D01*
X82994Y135398D01*
X82740Y135652D01*
Y136414D01*
X82232D02*
Y135398D01*
X81979D01*
X81725Y135652D01*
Y136414D01*
Y135652D01*
X81471Y135398D01*
X81217Y135652D01*
Y136414D01*
X116955Y89596D02*
X117209Y89342D01*
Y88834D01*
X116955Y88580D01*
X116702D01*
X116448Y88834D01*
Y89088D01*
Y88834D01*
X116194Y88580D01*
X115940D01*
X115686Y88834D01*
Y89342D01*
X115940Y89596D01*
X116955Y88073D02*
X117209Y87819D01*
Y87311D01*
X116955Y87057D01*
X115940D01*
X115686Y87311D01*
Y87819D01*
X115940Y88073D01*
X116955D01*
X115686Y86549D02*
X115940D01*
Y86295D01*
X115686D01*
Y86549D01*
X116955Y85279D02*
X117209Y85026D01*
Y84518D01*
X116955Y84264D01*
X115940D01*
X115686Y84518D01*
Y85026D01*
X115940Y85279D01*
X116955D01*
X115686Y83756D02*
X116702D01*
Y83502D01*
X116448Y83248D01*
X115686D01*
X116448D01*
X116702Y82994D01*
X116448Y82740D01*
X115686D01*
Y82232D02*
X116702D01*
Y81979D01*
X116448Y81725D01*
X115686D01*
X116448D01*
X116702Y81471D01*
X116448Y81217D01*
X115686D01*
X88580Y104891D02*
X89596D01*
Y105652D01*
X89088Y105398D01*
X88834D01*
X88580Y105652D01*
Y106160D01*
X88834Y106414D01*
X89342D01*
X89596Y106160D01*
X88073Y105145D02*
X87819Y104891D01*
X87311D01*
X87057Y105145D01*
Y106160D01*
X87311Y106414D01*
X87819D01*
X88073Y106160D01*
Y105145D01*
X86549Y106414D02*
Y106160D01*
X86295D01*
Y106414D01*
X86549D01*
X85279Y105145D02*
X85026Y104891D01*
X84518D01*
X84264Y105145D01*
Y106160D01*
X84518Y106414D01*
X85026D01*
X85279Y106160D01*
Y105145D01*
X83756Y106414D02*
Y105398D01*
X83502D01*
X83248Y105652D01*
Y106414D01*
Y105652D01*
X82994Y105398D01*
X82740Y105652D01*
Y106414D01*
X82232D02*
Y105398D01*
X81979D01*
X81725Y105652D01*
Y106414D01*
Y105652D01*
X81471Y105398D01*
X81217Y105652D01*
Y106414D01*
X116955Y59596D02*
X117209Y59342D01*
Y58834D01*
X116955Y58580D01*
X116702D01*
X116448Y58834D01*
Y59088D01*
Y58834D01*
X116194Y58580D01*
X115940D01*
X115686Y58834D01*
Y59342D01*
X115940Y59596D01*
X116955Y58073D02*
X117209Y57819D01*
Y57311D01*
X116955Y57057D01*
X115940D01*
X115686Y57311D01*
Y57819D01*
X115940Y58073D01*
X116955D01*
X115686Y56549D02*
X115940D01*
Y56295D01*
X115686D01*
Y56549D01*
X116955Y55279D02*
X117209Y55026D01*
Y54518D01*
X116955Y54264D01*
X115940D01*
X115686Y54518D01*
Y55026D01*
X115940Y55279D01*
X116955D01*
X115686Y53756D02*
X116702D01*
Y53502D01*
X116448Y53248D01*
X115686D01*
X116448D01*
X116702Y52994D01*
X116448Y52740D01*
X115686D01*
Y52232D02*
X116702D01*
Y51979D01*
X116448Y51725D01*
X115686D01*
X116448D01*
X116702Y51471D01*
X116448Y51217D01*
X115686D01*
X88580Y74891D02*
X89596D01*
Y75652D01*
X89088Y75398D01*
X88834D01*
X88580Y75652D01*
Y76160D01*
X88834Y76414D01*
X89342D01*
X89596Y76160D01*
X88073Y75145D02*
X87819Y74891D01*
X87311D01*
X87057Y75145D01*
Y76160D01*
X87311Y76414D01*
X87819D01*
X88073Y76160D01*
Y75145D01*
X86549Y76414D02*
Y76160D01*
X86295D01*
Y76414D01*
X86549D01*
X85279Y75145D02*
X85026Y74891D01*
X84518D01*
X84264Y75145D01*
Y76160D01*
X84518Y76414D01*
X85026D01*
X85279Y76160D01*
Y75145D01*
X83756Y76414D02*
Y75398D01*
X83502D01*
X83248Y75652D01*
Y76414D01*
Y75652D01*
X82994Y75398D01*
X82740Y75652D01*
Y76414D01*
X82232D02*
Y75398D01*
X81979D01*
X81725Y75652D01*
Y76414D01*
Y75652D01*
X81471Y75398D01*
X81217Y75652D01*
Y76414D01*
X116955Y29596D02*
X117209Y29342D01*
Y28834D01*
X116955Y28580D01*
X116702D01*
X116448Y28834D01*
Y29088D01*
Y28834D01*
X116194Y28580D01*
X115940D01*
X115686Y28834D01*
Y29342D01*
X115940Y29596D01*
X116955Y28073D02*
X117209Y27819D01*
Y27311D01*
X116955Y27057D01*
X115940D01*
X115686Y27311D01*
Y27819D01*
X115940Y28073D01*
X116955D01*
X115686Y26549D02*
X115940D01*
Y26295D01*
X115686D01*
Y26549D01*
X116955Y25279D02*
X117209Y25026D01*
Y24518D01*
X116955Y24264D01*
X115940D01*
X115686Y24518D01*
Y25026D01*
X115940Y25279D01*
X116955D01*
X115686Y23756D02*
X116702D01*
Y23502D01*
X116448Y23248D01*
X115686D01*
X116448D01*
X116702Y22994D01*
X116448Y22740D01*
X115686D01*
Y22232D02*
X116702D01*
Y21979D01*
X116448Y21725D01*
X115686D01*
X116448D01*
X116702Y21471D01*
X116448Y21217D01*
X115686D01*
X88580Y44891D02*
X89596D01*
Y45652D01*
X89088Y45398D01*
X88834D01*
X88580Y45652D01*
Y46160D01*
X88834Y46414D01*
X89342D01*
X89596Y46160D01*
X88073Y45145D02*
X87819Y44891D01*
X87311D01*
X87057Y45145D01*
Y46160D01*
X87311Y46414D01*
X87819D01*
X88073Y46160D01*
Y45145D01*
X86549Y46414D02*
Y46160D01*
X86295D01*
Y46414D01*
X86549D01*
X85279Y45145D02*
X85026Y44891D01*
X84518D01*
X84264Y45145D01*
Y46160D01*
X84518Y46414D01*
X85026D01*
X85279Y46160D01*
Y45145D01*
X83756Y46414D02*
Y45398D01*
X83502D01*
X83248Y45652D01*
Y46414D01*
Y45652D01*
X82994Y45398D01*
X82740Y45652D01*
Y46414D01*
X82232D02*
Y45398D01*
X81979D01*
X81725Y45652D01*
Y46414D01*
Y45652D01*
X81471Y45398D01*
X81217Y45652D01*
Y46414D01*
X3045Y140404D02*
X2791Y140658D01*
Y141166D01*
X3045Y141420D01*
X3298D01*
X3552Y141166D01*
Y140912D01*
Y141166D01*
X3806Y141420D01*
X4060D01*
X4314Y141166D01*
Y140658D01*
X4060Y140404D01*
X3045Y141927D02*
X2791Y142181D01*
Y142689D01*
X3045Y142943D01*
X4060D01*
X4314Y142689D01*
Y142181D01*
X4060Y141927D01*
X3045D01*
X4314Y143451D02*
X4060D01*
Y143705D01*
X4314D01*
Y143451D01*
X3045Y144721D02*
X2791Y144974D01*
Y145482D01*
X3045Y145736D01*
X4060D01*
X4314Y145482D01*
Y144974D01*
X4060Y144721D01*
X3045D01*
X4314Y146244D02*
X3298D01*
Y146498D01*
X3552Y146752D01*
X4314D01*
X3552D01*
X3298Y147006D01*
X3552Y147260D01*
X4314D01*
Y147768D02*
X3298D01*
Y148021D01*
X3552Y148275D01*
X4314D01*
X3552D01*
X3298Y148529D01*
X3552Y148783D01*
X4314D01*
X31420Y125109D02*
X30404D01*
Y124348D01*
X30912Y124602D01*
X31166D01*
X31420Y124348D01*
Y123840D01*
X31166Y123586D01*
X30658D01*
X30404Y123840D01*
X31927Y124855D02*
X32181Y125109D01*
X32689D01*
X32943Y124855D01*
Y123840D01*
X32689Y123586D01*
X32181D01*
X31927Y123840D01*
Y124855D01*
X33451Y123586D02*
Y123840D01*
X33705D01*
Y123586D01*
X33451D01*
X34721Y124855D02*
X34974Y125109D01*
X35482D01*
X35736Y124855D01*
Y123840D01*
X35482Y123586D01*
X34974D01*
X34721Y123840D01*
Y124855D01*
X36244Y123586D02*
Y124602D01*
X36498D01*
X36752Y124348D01*
Y123586D01*
Y124348D01*
X37006Y124602D01*
X37260Y124348D01*
Y123586D01*
X37768D02*
Y124602D01*
X38021D01*
X38275Y124348D01*
Y123586D01*
Y124348D01*
X38529Y124602D01*
X38783Y124348D01*
Y123586D01*
X3045Y110404D02*
X2791Y110658D01*
Y111166D01*
X3045Y111420D01*
X3298D01*
X3552Y111166D01*
Y110912D01*
Y111166D01*
X3806Y111420D01*
X4060D01*
X4314Y111166D01*
Y110658D01*
X4060Y110404D01*
X3045Y111927D02*
X2791Y112181D01*
Y112689D01*
X3045Y112943D01*
X4060D01*
X4314Y112689D01*
Y112181D01*
X4060Y111927D01*
X3045D01*
X4314Y113451D02*
X4060D01*
Y113705D01*
X4314D01*
Y113451D01*
X3045Y114721D02*
X2791Y114974D01*
Y115482D01*
X3045Y115736D01*
X4060D01*
X4314Y115482D01*
Y114974D01*
X4060Y114721D01*
X3045D01*
X4314Y116244D02*
X3298D01*
Y116498D01*
X3552Y116752D01*
X4314D01*
X3552D01*
X3298Y117006D01*
X3552Y117260D01*
X4314D01*
Y117768D02*
X3298D01*
Y118021D01*
X3552Y118275D01*
X4314D01*
X3552D01*
X3298Y118529D01*
X3552Y118783D01*
X4314D01*
X31420Y95109D02*
X30404D01*
Y94348D01*
X30912Y94602D01*
X31166D01*
X31420Y94348D01*
Y93840D01*
X31166Y93586D01*
X30658D01*
X30404Y93840D01*
X31927Y94855D02*
X32181Y95109D01*
X32689D01*
X32943Y94855D01*
Y93840D01*
X32689Y93586D01*
X32181D01*
X31927Y93840D01*
Y94855D01*
X33451Y93586D02*
Y93840D01*
X33705D01*
Y93586D01*
X33451D01*
X34721Y94855D02*
X34974Y95109D01*
X35482D01*
X35736Y94855D01*
Y93840D01*
X35482Y93586D01*
X34974D01*
X34721Y93840D01*
Y94855D01*
X36244Y93586D02*
Y94602D01*
X36498D01*
X36752Y94348D01*
Y93586D01*
Y94348D01*
X37006Y94602D01*
X37260Y94348D01*
Y93586D01*
X37768D02*
Y94602D01*
X38021D01*
X38275Y94348D01*
Y93586D01*
Y94348D01*
X38529Y94602D01*
X38783Y94348D01*
Y93586D01*
X3045Y80404D02*
X2791Y80658D01*
Y81166D01*
X3045Y81420D01*
X3298D01*
X3552Y81166D01*
Y80912D01*
Y81166D01*
X3806Y81420D01*
X4060D01*
X4314Y81166D01*
Y80658D01*
X4060Y80404D01*
X3045Y81927D02*
X2791Y82181D01*
Y82689D01*
X3045Y82943D01*
X4060D01*
X4314Y82689D01*
Y82181D01*
X4060Y81927D01*
X3045D01*
X4314Y83451D02*
X4060D01*
Y83705D01*
X4314D01*
Y83451D01*
X3045Y84721D02*
X2791Y84974D01*
Y85482D01*
X3045Y85736D01*
X4060D01*
X4314Y85482D01*
Y84974D01*
X4060Y84721D01*
X3045D01*
X4314Y86244D02*
X3298D01*
Y86498D01*
X3552Y86752D01*
X4314D01*
X3552D01*
X3298Y87006D01*
X3552Y87260D01*
X4314D01*
Y87768D02*
X3298D01*
Y88021D01*
X3552Y88275D01*
X4314D01*
X3552D01*
X3298Y88529D01*
X3552Y88783D01*
X4314D01*
X31420Y65109D02*
X30404D01*
Y64348D01*
X30912Y64602D01*
X31166D01*
X31420Y64348D01*
Y63840D01*
X31166Y63586D01*
X30658D01*
X30404Y63840D01*
X31927Y64855D02*
X32181Y65109D01*
X32689D01*
X32943Y64855D01*
Y63840D01*
X32689Y63586D01*
X32181D01*
X31927Y63840D01*
Y64855D01*
X33451Y63586D02*
Y63840D01*
X33705D01*
Y63586D01*
X33451D01*
X34721Y64855D02*
X34974Y65109D01*
X35482D01*
X35736Y64855D01*
Y63840D01*
X35482Y63586D01*
X34974D01*
X34721Y63840D01*
Y64855D01*
X36244Y63586D02*
Y64602D01*
X36498D01*
X36752Y64348D01*
Y63586D01*
Y64348D01*
X37006Y64602D01*
X37260Y64348D01*
Y63586D01*
X37768D02*
Y64602D01*
X38021D01*
X38275Y64348D01*
Y63586D01*
Y64348D01*
X38529Y64602D01*
X38783Y64348D01*
Y63586D01*
M02*
