G04*
G04 #@! TF.GenerationSoftware,Altium Limited,Altium Designer,21.6.4 (81)*
G04*
G04 Layer_Physical_Order=3*
G04 Layer_Color=128*
%FSLAX43Y43*%
%MOMM*%
G71*
G04*
G04 #@! TF.SameCoordinates,07C235E3-D0D3-4C9F-B76D-DFC27EE1DA73*
G04*
G04*
G04 #@! TF.FilePolarity,Negative*
G04*
G01*
G75*
%ADD29C,0.500*%
%ADD42C,1.000*%
%ADD43C,2.000*%
G04:AMPARAMS|DCode=44|XSize=2.2mm|YSize=2.2mm|CornerRadius=0mm|HoleSize=0mm|Usage=FLASHONLY|Rotation=0.000|XOffset=0mm|YOffset=0mm|HoleType=Round|Shape=Relief|Width=0.3mm|Gap=0.3mm|Entries=4|*
%AMTHD44*
7,0,0,2.200,1.600,0.300,45*
%
%ADD44THD44*%
%ADD45O,2.150X1.550*%
%ADD46O,1.300X1.700*%
%ADD47C,1.800*%
%ADD48C,1.600*%
G04:AMPARAMS|DCode=49|XSize=1.8mm|YSize=1.8mm|CornerRadius=0mm|HoleSize=0mm|Usage=FLASHONLY|Rotation=0.000|XOffset=0mm|YOffset=0mm|HoleType=Round|Shape=Relief|Width=0.3mm|Gap=0.3mm|Entries=4|*
%AMTHD49*
7,0,0,1.800,1.200,0.300,45*
%
%ADD49THD49*%
%ADD50C,2.100*%
%ADD52C,1.700*%
%ADD53C,2.000*%
%ADD54C,4.000*%
%ADD55C,1.300*%
%ADD56C,1.250*%
G36*
X113500Y139000D02*
X110000D01*
Y151000D01*
X113500D01*
Y139000D01*
D02*
G37*
G36*
X10000Y139000D02*
X6500D01*
Y151000D01*
X10000D01*
Y139000D01*
D02*
G37*
G36*
X113500Y109000D02*
X110000D01*
Y121000D01*
X113500D01*
Y109000D01*
D02*
G37*
G36*
X10000D02*
X6500D01*
Y121000D01*
X10000D01*
Y109000D01*
D02*
G37*
G36*
X113500Y79000D02*
X110000D01*
Y91000D01*
X113500D01*
Y79000D01*
D02*
G37*
G36*
X10000Y79000D02*
X6500D01*
Y91000D01*
X10000D01*
Y79000D01*
D02*
G37*
G36*
X113500Y49000D02*
X110000D01*
Y61000D01*
X113500D01*
Y49000D01*
D02*
G37*
G36*
X10000D02*
X6500D01*
Y61000D01*
X10000D01*
Y49000D01*
D02*
G37*
G36*
X113500Y19000D02*
X110000D01*
Y31000D01*
X113500D01*
Y19000D01*
D02*
G37*
G36*
X10000D02*
X6500D01*
Y31000D01*
X10000D01*
Y19000D01*
D02*
G37*
D29*
X32000Y21000D02*
X42000D01*
Y27000D01*
X21100Y17000D02*
X30000D01*
X21100Y13900D02*
Y17000D01*
X18000Y13900D02*
X21100D01*
X18000D02*
Y19800D01*
X25600D01*
Y23000D01*
X32000D02*
Y27000D01*
X60000D01*
X20300Y23000D02*
X25600D01*
X20300D02*
Y28200D01*
X18000D02*
X20300D01*
X18000D02*
Y37400D01*
X24700Y30500D02*
X60000D01*
X24700D02*
Y32600D01*
X21200D02*
X24700D01*
X21200D02*
Y37400D01*
X18000D02*
X21200D01*
X30000Y17000D02*
X32000D01*
Y23000D01*
Y51000D02*
X42000D01*
Y57000D01*
X21100Y47000D02*
X30000D01*
X21100Y43900D02*
Y47000D01*
X18000Y43900D02*
X21100D01*
X18000D02*
Y49800D01*
X25600D01*
Y53000D01*
X32000D02*
Y57000D01*
X60000D01*
X20300Y53000D02*
X25600D01*
X20300D02*
Y58200D01*
X18000D02*
X20300D01*
X18000D02*
Y67400D01*
X24700Y60500D02*
X60000D01*
X24700D02*
Y62600D01*
X21200D02*
X24700D01*
X21200D02*
Y67400D01*
X18000D02*
X21200D01*
X30000Y47000D02*
X32000D01*
Y53000D01*
X88000Y149000D02*
X78000D01*
Y143000D01*
X98900Y153000D02*
X90000D01*
X98900Y156100D02*
Y153000D01*
X102000Y156100D02*
X98900D01*
X102000D02*
Y150200D01*
X94400D01*
Y147000D01*
X88000D02*
Y143000D01*
X60000D01*
X99700Y147000D02*
X94400D01*
X99700D02*
Y141800D01*
X102000D02*
X99700D01*
X102000D02*
Y132600D01*
X95300Y139500D02*
X60000D01*
X95300D02*
Y137400D01*
X98800D02*
X95300D01*
X98800D02*
Y132600D01*
X102000D02*
X98800D01*
X90000Y153000D02*
X88000D01*
Y147000D01*
Y119000D02*
X78000D01*
Y113000D01*
X98900Y123000D02*
X90000D01*
X98900Y126100D02*
Y123000D01*
X102000Y126100D02*
X98900D01*
X102000D02*
Y120200D01*
X94400D01*
Y117000D01*
X88000D02*
Y113000D01*
X60000D01*
X99700Y117000D02*
X94400D01*
X99700D02*
Y111800D01*
X102000D02*
X99700D01*
X102000D02*
Y102600D01*
X95300Y109500D02*
X60000D01*
X95300D02*
Y107400D01*
X98800D02*
X95300D01*
X98800D02*
Y102600D01*
X102000D02*
X98800D01*
X90000Y123000D02*
X88000D01*
Y117000D01*
Y89000D02*
X78000D01*
Y83000D01*
X98900Y93000D02*
X90000D01*
X98900Y96100D02*
Y93000D01*
X102000Y96100D02*
X98900D01*
X102000D02*
Y90200D01*
X94400D01*
Y87000D01*
X88000D02*
Y83000D01*
X60000D01*
X99700Y87000D02*
X94400D01*
X99700D02*
Y81800D01*
X102000D02*
X99700D01*
X102000D02*
Y72600D01*
X95300Y79500D02*
X60000D01*
X95300D02*
Y77400D01*
X98800D02*
X95300D01*
X98800D02*
Y72600D01*
X102000D02*
X98800D01*
X90000Y93000D02*
X88000D01*
Y87000D01*
Y59000D02*
X78000D01*
Y53000D01*
X98900Y63000D02*
X90000D01*
X98900Y66100D02*
Y63000D01*
X102000Y66100D02*
X98900D01*
X102000D02*
Y60200D01*
X94400D01*
Y57000D01*
X88000D02*
Y53000D01*
X60000D01*
X99700Y57000D02*
X94400D01*
X99700D02*
Y51800D01*
X102000D02*
X99700D01*
X102000D02*
Y42600D01*
X95300Y49500D02*
X60000D01*
X95300D02*
Y47400D01*
X98800D02*
X95300D01*
X98800D02*
Y42600D01*
X102000D02*
X98800D01*
X90000Y63000D02*
X88000D01*
Y57000D01*
Y29000D02*
X78000D01*
Y23000D01*
X98900Y33000D02*
X90000D01*
X98900Y36100D02*
Y33000D01*
X102000Y36100D02*
X98900D01*
X102000D02*
Y30200D01*
X94400D01*
Y27000D01*
X88000D02*
Y23000D01*
X60000D01*
X99700Y27000D02*
X94400D01*
X99700D02*
Y21800D01*
X102000D02*
X99700D01*
X102000D02*
Y12600D01*
X95300Y19500D02*
X60000D01*
X95300D02*
Y17400D01*
X98800D02*
X95300D01*
X98800D02*
Y12600D01*
X102000D02*
X98800D01*
X90000Y33000D02*
X88000D01*
Y27000D01*
X32000Y141000D02*
X42000D01*
Y147000D01*
X21100Y137000D02*
X30000D01*
X21100Y133900D02*
Y137000D01*
X18000Y133900D02*
X21100D01*
X18000D02*
Y139800D01*
X25600D01*
Y143000D01*
X32000D02*
Y147000D01*
X60000D01*
X20300Y143000D02*
X25600D01*
X20300D02*
Y148200D01*
X18000D02*
X20300D01*
X18000D02*
Y157400D01*
X24700Y150500D02*
X60000D01*
X24700D02*
Y152600D01*
X21200D02*
X24700D01*
X21200D02*
Y157400D01*
X18000D02*
X21200D01*
X30000Y137000D02*
X32000D01*
Y143000D01*
Y111000D02*
X42000D01*
Y117000D01*
X21100Y107000D02*
X30000D01*
X21100Y103900D02*
Y107000D01*
X18000Y103900D02*
X21100D01*
X18000D02*
Y109800D01*
X25600D01*
Y113000D01*
X32000D02*
Y117000D01*
X60000D01*
X20300Y113000D02*
X25600D01*
X20300D02*
Y118200D01*
X18000D02*
X20300D01*
X18000D02*
Y127400D01*
X24700Y120500D02*
X60000D01*
X24700D02*
Y122600D01*
X21200D02*
X24700D01*
X21200D02*
Y127400D01*
X18000D02*
X21200D01*
X30000Y107000D02*
X32000D01*
Y113000D01*
Y81000D02*
X42000D01*
Y87000D01*
X21100Y77000D02*
X30000D01*
X21100Y73900D02*
Y77000D01*
X18000Y73900D02*
X21100D01*
X18000D02*
Y79800D01*
X25600D01*
Y83000D01*
X32000D02*
Y87000D01*
X60000D01*
X20300Y83000D02*
X25600D01*
X20300D02*
Y88200D01*
X18000D02*
X20300D01*
X18000D02*
Y97400D01*
X24700Y90500D02*
X60000D01*
X24700D02*
Y92600D01*
X21200D02*
X24700D01*
X21200D02*
Y97400D01*
X18000D02*
X21200D01*
X30000Y77000D02*
X32000D01*
Y83000D01*
D42*
X113500Y19000D02*
Y31000D01*
X110000Y19000D02*
X113500D01*
X110000D02*
Y31000D01*
X113500D01*
Y49000D02*
Y61000D01*
X110000Y49000D02*
X113500D01*
X110000D02*
Y61000D01*
X113500D01*
Y79000D02*
Y91000D01*
X110000Y79000D02*
X113500D01*
X110000D02*
Y91000D01*
X113500D01*
Y109000D02*
Y121000D01*
X110000Y109000D02*
X113500D01*
X110000D02*
Y121000D01*
X113500D01*
Y139000D02*
Y151000D01*
X110000Y139000D02*
X113500D01*
X110000D02*
Y151000D01*
X113500D01*
X10000Y139000D02*
Y151000D01*
X6500Y139000D02*
X10000D01*
X6500D02*
Y151000D01*
X10000D01*
Y109000D02*
Y121000D01*
X6500Y109000D02*
X10000D01*
X6500D02*
Y121000D01*
X10000D01*
Y79000D02*
Y91000D01*
X6500Y79000D02*
X10000D01*
X6500D02*
Y91000D01*
X10000D01*
Y19000D02*
Y31000D01*
X6500Y19000D02*
X10000D01*
X6500D02*
Y31000D01*
X10000D01*
Y49000D02*
Y61000D01*
X6500Y49000D02*
X10000D01*
X6500D02*
Y61000D01*
X10000D01*
X-0Y-0D02*
X0Y170000D01*
X-0Y-0D02*
X120000Y0D01*
X0Y170000D02*
X120000D01*
X120000Y0D02*
X120000Y170000D01*
D43*
X10000Y10000D02*
X10000Y40000D01*
X60000Y40000D01*
X60000Y10000D01*
X10000Y10000D02*
X60000Y10000D01*
X10000Y40000D02*
X10000Y70000D01*
X60000Y70000D01*
X60000Y40000D01*
X10000Y40000D02*
X60000Y40000D01*
X110000Y160000D02*
X110000Y130000D01*
X60000Y130000D01*
X60000Y160000D01*
X110000Y160000D02*
X60000Y160000D01*
X110000Y130000D02*
X110000Y100000D01*
X60000Y100000D01*
X60000Y130000D01*
X110000Y130000D02*
X60000Y130000D01*
X110000Y100000D02*
X110000Y70000D01*
X60000Y70000D01*
X60000Y100000D01*
X110000Y100000D02*
X60000Y100000D01*
X110000Y70000D02*
X110000Y40000D01*
X60000Y40000D01*
X60000Y70000D01*
X110000Y70000D02*
X60000Y70000D01*
X110000Y40000D02*
X110000Y10000D01*
X60000Y10000D01*
X60000Y40000D01*
X110000Y40000D02*
X60000Y40000D01*
X10000Y130000D02*
X10000Y160000D01*
X60000Y160000D01*
X60000Y130000D01*
X10000Y130000D02*
X60000Y130000D01*
X10000Y100000D02*
X10000Y130000D01*
X60000Y130000D01*
X60000Y100000D01*
X10000Y100000D02*
X60000Y100000D01*
X10000Y70000D02*
X10000Y100000D01*
X60000Y100000D01*
X60000Y70000D01*
X10000Y70000D02*
X60000Y70000D01*
D44*
X12500Y17300D02*
D03*
Y47300D02*
D03*
X107500Y152700D02*
D03*
Y122700D02*
D03*
Y92700D02*
D03*
Y62700D02*
D03*
Y32700D02*
D03*
X12500Y137300D02*
D03*
Y107300D02*
D03*
Y77300D02*
D03*
D45*
X11525Y20054D02*
D03*
Y29954D02*
D03*
Y50054D02*
D03*
Y59954D02*
D03*
X108475Y149946D02*
D03*
Y140046D02*
D03*
Y119946D02*
D03*
Y110046D02*
D03*
Y89946D02*
D03*
Y80046D02*
D03*
Y59946D02*
D03*
Y50046D02*
D03*
Y29946D02*
D03*
Y20046D02*
D03*
X11525Y140054D02*
D03*
Y149954D02*
D03*
Y110054D02*
D03*
Y119954D02*
D03*
Y80054D02*
D03*
Y89954D02*
D03*
D46*
X11855Y21004D02*
D03*
Y29004D02*
D03*
Y51004D02*
D03*
Y59004D02*
D03*
X108145Y148996D02*
D03*
Y140996D02*
D03*
Y118996D02*
D03*
Y110996D02*
D03*
Y88996D02*
D03*
Y80996D02*
D03*
Y58996D02*
D03*
Y50996D02*
D03*
Y28996D02*
D03*
Y20996D02*
D03*
X11855Y141004D02*
D03*
Y149004D02*
D03*
Y111004D02*
D03*
Y119004D02*
D03*
Y81004D02*
D03*
Y89004D02*
D03*
D47*
X34730Y37000D02*
D03*
X37270D02*
D03*
X34730Y67000D02*
D03*
X37270D02*
D03*
X85270Y133000D02*
D03*
X82730D02*
D03*
X85270Y103000D02*
D03*
X82730D02*
D03*
X85270Y73000D02*
D03*
X82730D02*
D03*
X85270Y43000D02*
D03*
X82730D02*
D03*
X85270Y13000D02*
D03*
X82730D02*
D03*
X34730Y157000D02*
D03*
X37270D02*
D03*
X34730Y127000D02*
D03*
X37270D02*
D03*
X34730Y97000D02*
D03*
X37270D02*
D03*
D48*
X30500Y26300D02*
D03*
X41000Y21300D02*
D03*
X30500Y56300D02*
D03*
X41000Y51300D02*
D03*
X89500Y143700D02*
D03*
X79000Y148700D02*
D03*
X89500Y113700D02*
D03*
X79000Y118700D02*
D03*
X89500Y83700D02*
D03*
X79000Y88700D02*
D03*
X89500Y53700D02*
D03*
X79000Y58700D02*
D03*
X89500Y23700D02*
D03*
X79000Y28700D02*
D03*
X30500Y146300D02*
D03*
X41000Y141300D02*
D03*
X30500Y116300D02*
D03*
X41000Y111300D02*
D03*
X30500Y86300D02*
D03*
X41000Y81300D02*
D03*
D49*
X40500Y26300D02*
D03*
X30000Y21300D02*
D03*
X40500Y56300D02*
D03*
X30000Y51300D02*
D03*
X79500Y143700D02*
D03*
X90000Y148700D02*
D03*
X79500Y113700D02*
D03*
X90000Y118700D02*
D03*
X79500Y83700D02*
D03*
X90000Y88700D02*
D03*
X79500Y53700D02*
D03*
X90000Y58700D02*
D03*
X79500Y23700D02*
D03*
X90000Y28700D02*
D03*
X40500Y146300D02*
D03*
X30000Y141300D02*
D03*
X40500Y116300D02*
D03*
X30000Y111300D02*
D03*
X40500Y86300D02*
D03*
X30000Y81300D02*
D03*
D50*
X16300Y19500D02*
D03*
Y49500D02*
D03*
X103700Y150500D02*
D03*
Y120500D02*
D03*
Y90500D02*
D03*
Y60500D02*
D03*
Y30500D02*
D03*
X16300Y139500D02*
D03*
Y109500D02*
D03*
Y79500D02*
D03*
D52*
X18000Y23000D02*
D03*
Y21000D02*
D03*
X40460Y37000D02*
D03*
X43000D02*
D03*
X45540D02*
D03*
X18000Y53000D02*
D03*
Y51000D02*
D03*
X40460Y67000D02*
D03*
X43000D02*
D03*
X45540D02*
D03*
X102000Y147000D02*
D03*
Y149000D02*
D03*
X79540Y133000D02*
D03*
X77000D02*
D03*
X74460D02*
D03*
X102000Y117000D02*
D03*
Y119000D02*
D03*
X79540Y103000D02*
D03*
X77000D02*
D03*
X74460D02*
D03*
X102000Y87000D02*
D03*
Y89000D02*
D03*
X79540Y73000D02*
D03*
X77000D02*
D03*
X74460D02*
D03*
X102000Y57000D02*
D03*
Y59000D02*
D03*
X79540Y43000D02*
D03*
X77000D02*
D03*
X74460D02*
D03*
X102000Y27000D02*
D03*
Y29000D02*
D03*
X79540Y13000D02*
D03*
X77000D02*
D03*
X74460D02*
D03*
X18000Y143000D02*
D03*
Y141000D02*
D03*
X40460Y157000D02*
D03*
X43000D02*
D03*
X45540D02*
D03*
X18000Y113000D02*
D03*
Y111000D02*
D03*
X40460Y127000D02*
D03*
X43000D02*
D03*
X45540D02*
D03*
X18000Y83000D02*
D03*
Y81000D02*
D03*
X40460Y97000D02*
D03*
X43000D02*
D03*
X45540D02*
D03*
D53*
X45000Y13000D02*
D03*
X16000Y17300D02*
D03*
X16600Y34100D02*
D03*
X26200Y19400D02*
D03*
X20000Y19000D02*
D03*
X45000Y43000D02*
D03*
X16000Y47300D02*
D03*
X16600Y64100D02*
D03*
X26200Y49400D02*
D03*
X20000Y49000D02*
D03*
X75000Y157000D02*
D03*
X104000Y152700D02*
D03*
X103400Y135900D02*
D03*
X93800Y150600D02*
D03*
X100000Y151000D02*
D03*
X75000Y127000D02*
D03*
X104000Y122700D02*
D03*
X103400Y105900D02*
D03*
X93800Y120600D02*
D03*
X100000Y121000D02*
D03*
X75000Y97000D02*
D03*
X104000Y92700D02*
D03*
X103400Y75900D02*
D03*
X93800Y90600D02*
D03*
X100000Y91000D02*
D03*
X75000Y67000D02*
D03*
X104000Y62700D02*
D03*
X103400Y45900D02*
D03*
X93800Y60600D02*
D03*
X100000Y61000D02*
D03*
X75000Y37000D02*
D03*
X104000Y32700D02*
D03*
X103400Y15900D02*
D03*
X93800Y30600D02*
D03*
X100000Y31000D02*
D03*
X45000Y133000D02*
D03*
X16000Y137300D02*
D03*
X16600Y154100D02*
D03*
X26200Y139400D02*
D03*
X20000Y139000D02*
D03*
X45000Y103000D02*
D03*
X16000Y107300D02*
D03*
X16600Y124100D02*
D03*
X26200Y109400D02*
D03*
X20000Y109000D02*
D03*
X45000Y73000D02*
D03*
X16000Y77300D02*
D03*
X16600Y94100D02*
D03*
X26200Y79400D02*
D03*
X20000Y79000D02*
D03*
D54*
X56000Y14000D02*
D03*
X14000D02*
D03*
Y36000D02*
D03*
X56000Y44000D02*
D03*
X14000D02*
D03*
Y66000D02*
D03*
X64000Y156000D02*
D03*
X106000D02*
D03*
Y134000D02*
D03*
X64000Y126000D02*
D03*
X106000D02*
D03*
Y104000D02*
D03*
X64000Y96000D02*
D03*
X106000D02*
D03*
Y74000D02*
D03*
X64000Y66000D02*
D03*
X106000D02*
D03*
Y44000D02*
D03*
X64000Y36000D02*
D03*
X106000D02*
D03*
Y14000D02*
D03*
X56000Y134000D02*
D03*
X14000D02*
D03*
Y156000D02*
D03*
X56000Y104000D02*
D03*
X14000D02*
D03*
Y126000D02*
D03*
X56000Y74000D02*
D03*
X14000D02*
D03*
Y96000D02*
D03*
D55*
X22500Y37600D02*
D03*
X24019Y37369D02*
D03*
X24000Y13000D02*
D03*
Y15200D02*
D03*
X35400Y33700D02*
D03*
X33800Y33000D02*
D03*
X34100Y28685D02*
D03*
X39000Y27735D02*
D03*
X50000Y18800D02*
D03*
X29100Y17900D02*
D03*
X29700Y37000D02*
D03*
X47200Y37200D02*
D03*
X54600Y22200D02*
D03*
X50050Y14200D02*
D03*
X50287Y12900D02*
D03*
X58500Y19600D02*
D03*
X23800Y25425D02*
D03*
X16600Y31100D02*
D03*
X14800Y32000D02*
D03*
X16600Y25200D02*
D03*
X14700Y24379D02*
D03*
Y27879D02*
D03*
Y22379D02*
D03*
X18550Y29000D02*
D03*
X56100Y22000D02*
D03*
X54600Y20300D02*
D03*
X35500Y23300D02*
D03*
X34900Y27250D02*
D03*
X24000Y36000D02*
D03*
X46300Y25150D02*
D03*
X55150Y16750D02*
D03*
X35130Y20170D02*
D03*
X31320D02*
D03*
X41500Y33100D02*
D03*
X46275Y33125D02*
D03*
X45290Y19000D02*
D03*
X44020D02*
D03*
X38940Y20170D02*
D03*
X42750D02*
D03*
X45700Y30075D02*
D03*
X39900Y28685D02*
D03*
X40800Y29635D02*
D03*
X41700Y30585D02*
D03*
X27700Y13365D02*
D03*
X36800Y26400D02*
D03*
X29275Y12695D02*
D03*
X24200Y27730D02*
D03*
X24300Y30905D02*
D03*
X33860Y11500D02*
D03*
X36400D02*
D03*
X40210D02*
D03*
X42750D02*
D03*
X52700Y16200D02*
D03*
X32900Y28365D02*
D03*
X18625Y30905D02*
D03*
X24000Y14000D02*
D03*
X18900Y12095D02*
D03*
X27700D02*
D03*
Y14635D02*
D03*
X18900Y34095D02*
D03*
X27700Y36635D02*
D03*
X22500Y67600D02*
D03*
X24019Y67369D02*
D03*
X24000Y43000D02*
D03*
Y45200D02*
D03*
X35400Y63700D02*
D03*
X33800Y63000D02*
D03*
X34100Y58685D02*
D03*
X39000Y57735D02*
D03*
X50000Y48800D02*
D03*
X29100Y47900D02*
D03*
X29700Y67000D02*
D03*
X47200Y67200D02*
D03*
X54600Y52200D02*
D03*
X50050Y44200D02*
D03*
X50287Y42900D02*
D03*
X58500Y49600D02*
D03*
X23800Y55425D02*
D03*
X16600Y61100D02*
D03*
X14800Y62000D02*
D03*
X16600Y55200D02*
D03*
X14700Y54379D02*
D03*
Y57879D02*
D03*
Y52379D02*
D03*
X18550Y59000D02*
D03*
X56100Y52000D02*
D03*
X54600Y50300D02*
D03*
X35500Y53300D02*
D03*
X34900Y57250D02*
D03*
X24000Y66000D02*
D03*
X46300Y55150D02*
D03*
X55150Y46750D02*
D03*
X35130Y50170D02*
D03*
X31320D02*
D03*
X41500Y63100D02*
D03*
X46275Y63125D02*
D03*
X45290Y49000D02*
D03*
X44020D02*
D03*
X38940Y50170D02*
D03*
X42750D02*
D03*
X45700Y60075D02*
D03*
X39900Y58685D02*
D03*
X40800Y59635D02*
D03*
X41700Y60585D02*
D03*
X27700Y43365D02*
D03*
X36800Y56400D02*
D03*
X29275Y42695D02*
D03*
X24200Y57730D02*
D03*
X24300Y60905D02*
D03*
X33860Y41500D02*
D03*
X36400D02*
D03*
X40210D02*
D03*
X42750D02*
D03*
X52700Y46200D02*
D03*
X32900Y58365D02*
D03*
X18625Y60905D02*
D03*
X24000Y44000D02*
D03*
X18900Y42095D02*
D03*
X27700D02*
D03*
Y44635D02*
D03*
X18900Y64095D02*
D03*
X27700Y66635D02*
D03*
X97500Y132400D02*
D03*
X95981Y132631D02*
D03*
X96000Y157000D02*
D03*
Y154800D02*
D03*
X84600Y136300D02*
D03*
X86200Y137000D02*
D03*
X85900Y141315D02*
D03*
X81000Y142265D02*
D03*
X70000Y151200D02*
D03*
X90900Y152100D02*
D03*
X90300Y133000D02*
D03*
X72800Y132800D02*
D03*
X65400Y147800D02*
D03*
X69950Y155800D02*
D03*
X69713Y157100D02*
D03*
X61500Y150400D02*
D03*
X96200Y144575D02*
D03*
X103400Y138900D02*
D03*
X105200Y138000D02*
D03*
X103400Y144800D02*
D03*
X105300Y145621D02*
D03*
Y142121D02*
D03*
Y147621D02*
D03*
X101450Y141000D02*
D03*
X63900Y148000D02*
D03*
X65400Y149700D02*
D03*
X84500Y146700D02*
D03*
X85100Y142750D02*
D03*
X96000Y134000D02*
D03*
X73700Y144850D02*
D03*
X64850Y153250D02*
D03*
X84870Y149830D02*
D03*
X88680D02*
D03*
X78500Y136900D02*
D03*
X73725Y136875D02*
D03*
X74710Y151000D02*
D03*
X75980D02*
D03*
X81060Y149830D02*
D03*
X77250D02*
D03*
X74300Y139925D02*
D03*
X80100Y141315D02*
D03*
X79200Y140365D02*
D03*
X78300Y139415D02*
D03*
X92300Y156635D02*
D03*
X83200Y143600D02*
D03*
X90725Y157305D02*
D03*
X95800Y142270D02*
D03*
X95700Y139095D02*
D03*
X86140Y158500D02*
D03*
X83600D02*
D03*
X79790D02*
D03*
X77250D02*
D03*
X67300Y153800D02*
D03*
X87100Y141635D02*
D03*
X101375Y139095D02*
D03*
X96000Y156000D02*
D03*
X101100Y157905D02*
D03*
X92300D02*
D03*
Y155365D02*
D03*
X101100Y135905D02*
D03*
X92300Y133365D02*
D03*
X97500Y102400D02*
D03*
X95981Y102631D02*
D03*
X96000Y127000D02*
D03*
Y124800D02*
D03*
X84600Y106300D02*
D03*
X86200Y107000D02*
D03*
X85900Y111315D02*
D03*
X81000Y112265D02*
D03*
X70000Y121200D02*
D03*
X90900Y122100D02*
D03*
X90300Y103000D02*
D03*
X72800Y102800D02*
D03*
X65400Y117800D02*
D03*
X69950Y125800D02*
D03*
X69713Y127100D02*
D03*
X61500Y120400D02*
D03*
X96200Y114575D02*
D03*
X103400Y108900D02*
D03*
X105200Y108000D02*
D03*
X103400Y114800D02*
D03*
X105300Y115621D02*
D03*
Y112121D02*
D03*
Y117621D02*
D03*
X101450Y111000D02*
D03*
X63900Y118000D02*
D03*
X65400Y119700D02*
D03*
X84500Y116700D02*
D03*
X85100Y112750D02*
D03*
X96000Y104000D02*
D03*
X73700Y114850D02*
D03*
X64850Y123250D02*
D03*
X84870Y119830D02*
D03*
X88680D02*
D03*
X78500Y106900D02*
D03*
X73725Y106875D02*
D03*
X74710Y121000D02*
D03*
X75980D02*
D03*
X81060Y119830D02*
D03*
X77250D02*
D03*
X74300Y109925D02*
D03*
X80100Y111315D02*
D03*
X79200Y110365D02*
D03*
X78300Y109415D02*
D03*
X92300Y126635D02*
D03*
X83200Y113600D02*
D03*
X90725Y127305D02*
D03*
X95800Y112270D02*
D03*
X95700Y109095D02*
D03*
X86140Y128500D02*
D03*
X83600D02*
D03*
X79790D02*
D03*
X77250D02*
D03*
X67300Y123800D02*
D03*
X87100Y111635D02*
D03*
X101375Y109095D02*
D03*
X96000Y126000D02*
D03*
X101100Y127905D02*
D03*
X92300D02*
D03*
Y125365D02*
D03*
X101100Y105905D02*
D03*
X92300Y103365D02*
D03*
X97500Y72400D02*
D03*
X95981Y72631D02*
D03*
X96000Y97000D02*
D03*
Y94800D02*
D03*
X84600Y76300D02*
D03*
X86200Y77000D02*
D03*
X85900Y81315D02*
D03*
X81000Y82265D02*
D03*
X70000Y91200D02*
D03*
X90900Y92100D02*
D03*
X90300Y73000D02*
D03*
X72800Y72800D02*
D03*
X65400Y87800D02*
D03*
X69950Y95800D02*
D03*
X69713Y97100D02*
D03*
X61500Y90400D02*
D03*
X96200Y84575D02*
D03*
X103400Y78900D02*
D03*
X105200Y78000D02*
D03*
X103400Y84800D02*
D03*
X105300Y85621D02*
D03*
Y82121D02*
D03*
Y87621D02*
D03*
X101450Y81000D02*
D03*
X63900Y88000D02*
D03*
X65400Y89700D02*
D03*
X84500Y86700D02*
D03*
X85100Y82750D02*
D03*
X96000Y74000D02*
D03*
X73700Y84850D02*
D03*
X64850Y93250D02*
D03*
X84870Y89830D02*
D03*
X88680D02*
D03*
X78500Y76900D02*
D03*
X73725Y76875D02*
D03*
X74710Y91000D02*
D03*
X75980D02*
D03*
X81060Y89830D02*
D03*
X77250D02*
D03*
X74300Y79925D02*
D03*
X80100Y81315D02*
D03*
X79200Y80365D02*
D03*
X78300Y79415D02*
D03*
X92300Y96635D02*
D03*
X83200Y83600D02*
D03*
X90725Y97305D02*
D03*
X95800Y82270D02*
D03*
X95700Y79095D02*
D03*
X86140Y98500D02*
D03*
X83600D02*
D03*
X79790D02*
D03*
X77250D02*
D03*
X67300Y93800D02*
D03*
X87100Y81635D02*
D03*
X101375Y79095D02*
D03*
X96000Y96000D02*
D03*
X101100Y97905D02*
D03*
X92300D02*
D03*
Y95365D02*
D03*
X101100Y75905D02*
D03*
X92300Y73365D02*
D03*
X97500Y42400D02*
D03*
X95981Y42631D02*
D03*
X96000Y67000D02*
D03*
Y64800D02*
D03*
X84600Y46300D02*
D03*
X86200Y47000D02*
D03*
X85900Y51315D02*
D03*
X81000Y52265D02*
D03*
X70000Y61200D02*
D03*
X90900Y62100D02*
D03*
X90300Y43000D02*
D03*
X72800Y42800D02*
D03*
X65400Y57800D02*
D03*
X69950Y65800D02*
D03*
X69713Y67100D02*
D03*
X61500Y60400D02*
D03*
X96200Y54575D02*
D03*
X103400Y48900D02*
D03*
X105200Y48000D02*
D03*
X103400Y54800D02*
D03*
X105300Y55621D02*
D03*
Y52121D02*
D03*
Y57621D02*
D03*
X101450Y51000D02*
D03*
X63900Y58000D02*
D03*
X65400Y59700D02*
D03*
X84500Y56700D02*
D03*
X85100Y52750D02*
D03*
X96000Y44000D02*
D03*
X73700Y54850D02*
D03*
X64850Y63250D02*
D03*
X84870Y59830D02*
D03*
X88680D02*
D03*
X78500Y46900D02*
D03*
X73725Y46875D02*
D03*
X74710Y61000D02*
D03*
X75980D02*
D03*
X81060Y59830D02*
D03*
X77250D02*
D03*
X74300Y49925D02*
D03*
X80100Y51315D02*
D03*
X79200Y50365D02*
D03*
X78300Y49415D02*
D03*
X92300Y66635D02*
D03*
X83200Y53600D02*
D03*
X90725Y67305D02*
D03*
X95800Y52270D02*
D03*
X95700Y49095D02*
D03*
X86140Y68500D02*
D03*
X83600D02*
D03*
X79790D02*
D03*
X77250D02*
D03*
X67300Y63800D02*
D03*
X87100Y51635D02*
D03*
X101375Y49095D02*
D03*
X96000Y66000D02*
D03*
X101100Y67905D02*
D03*
X92300D02*
D03*
Y65365D02*
D03*
X101100Y45905D02*
D03*
X92300Y43365D02*
D03*
X97500Y12400D02*
D03*
X95981Y12631D02*
D03*
X96000Y37000D02*
D03*
Y34800D02*
D03*
X84600Y16300D02*
D03*
X86200Y17000D02*
D03*
X85900Y21315D02*
D03*
X81000Y22265D02*
D03*
X70000Y31200D02*
D03*
X90900Y32100D02*
D03*
X90300Y13000D02*
D03*
X72800Y12800D02*
D03*
X65400Y27800D02*
D03*
X69950Y35800D02*
D03*
X69713Y37100D02*
D03*
X61500Y30400D02*
D03*
X96200Y24575D02*
D03*
X103400Y18900D02*
D03*
X105200Y18000D02*
D03*
X103400Y24800D02*
D03*
X105300Y25621D02*
D03*
Y22121D02*
D03*
Y27621D02*
D03*
X101450Y21000D02*
D03*
X63900Y28000D02*
D03*
X65400Y29700D02*
D03*
X84500Y26700D02*
D03*
X85100Y22750D02*
D03*
X96000Y14000D02*
D03*
X73700Y24850D02*
D03*
X64850Y33250D02*
D03*
X84870Y29830D02*
D03*
X88680D02*
D03*
X78500Y16900D02*
D03*
X73725Y16875D02*
D03*
X74710Y31000D02*
D03*
X75980D02*
D03*
X81060Y29830D02*
D03*
X77250D02*
D03*
X74300Y19925D02*
D03*
X80100Y21315D02*
D03*
X79200Y20365D02*
D03*
X78300Y19415D02*
D03*
X92300Y36635D02*
D03*
X83200Y23600D02*
D03*
X90725Y37305D02*
D03*
X95800Y22270D02*
D03*
X95700Y19095D02*
D03*
X86140Y38500D02*
D03*
X83600D02*
D03*
X79790D02*
D03*
X77250D02*
D03*
X67300Y33800D02*
D03*
X87100Y21635D02*
D03*
X101375Y19095D02*
D03*
X96000Y36000D02*
D03*
X101100Y37905D02*
D03*
X92300D02*
D03*
Y35365D02*
D03*
X101100Y15905D02*
D03*
X92300Y13365D02*
D03*
X22500Y157600D02*
D03*
X24019Y157369D02*
D03*
X24000Y133000D02*
D03*
Y135200D02*
D03*
X35400Y153700D02*
D03*
X33800Y153000D02*
D03*
X34100Y148685D02*
D03*
X39000Y147735D02*
D03*
X50000Y138800D02*
D03*
X29100Y137900D02*
D03*
X29700Y157000D02*
D03*
X47200Y157200D02*
D03*
X54600Y142200D02*
D03*
X50050Y134200D02*
D03*
X50287Y132900D02*
D03*
X58500Y139600D02*
D03*
X23800Y145425D02*
D03*
X16600Y151100D02*
D03*
X14800Y152000D02*
D03*
X16600Y145200D02*
D03*
X14700Y144379D02*
D03*
Y147879D02*
D03*
Y142379D02*
D03*
X18550Y149000D02*
D03*
X56100Y142000D02*
D03*
X54600Y140300D02*
D03*
X35500Y143300D02*
D03*
X34900Y147250D02*
D03*
X24000Y156000D02*
D03*
X46300Y145150D02*
D03*
X55150Y136750D02*
D03*
X35130Y140170D02*
D03*
X31320D02*
D03*
X41500Y153100D02*
D03*
X46275Y153125D02*
D03*
X45290Y139000D02*
D03*
X44020D02*
D03*
X38940Y140170D02*
D03*
X42750D02*
D03*
X45700Y150075D02*
D03*
X39900Y148685D02*
D03*
X40800Y149635D02*
D03*
X41700Y150585D02*
D03*
X27700Y133365D02*
D03*
X36800Y146400D02*
D03*
X29275Y132695D02*
D03*
X24200Y147730D02*
D03*
X24300Y150905D02*
D03*
X33860Y131500D02*
D03*
X36400D02*
D03*
X40210D02*
D03*
X42750D02*
D03*
X52700Y136200D02*
D03*
X32900Y148365D02*
D03*
X18625Y150905D02*
D03*
X24000Y134000D02*
D03*
X18900Y132095D02*
D03*
X27700D02*
D03*
Y134635D02*
D03*
X18900Y154095D02*
D03*
X27700Y156635D02*
D03*
X22500Y127600D02*
D03*
X24019Y127369D02*
D03*
X24000Y103000D02*
D03*
Y105200D02*
D03*
X35400Y123700D02*
D03*
X33800Y123000D02*
D03*
X34100Y118685D02*
D03*
X39000Y117735D02*
D03*
X50000Y108800D02*
D03*
X29100Y107900D02*
D03*
X29700Y127000D02*
D03*
X47200Y127200D02*
D03*
X54600Y112200D02*
D03*
X50050Y104200D02*
D03*
X50287Y102900D02*
D03*
X58500Y109600D02*
D03*
X23800Y115425D02*
D03*
X16600Y121100D02*
D03*
X14800Y122000D02*
D03*
X16600Y115200D02*
D03*
X14700Y114379D02*
D03*
Y117879D02*
D03*
Y112379D02*
D03*
X18550Y119000D02*
D03*
X56100Y112000D02*
D03*
X54600Y110300D02*
D03*
X35500Y113300D02*
D03*
X34900Y117250D02*
D03*
X24000Y126000D02*
D03*
X46300Y115150D02*
D03*
X55150Y106750D02*
D03*
X35130Y110170D02*
D03*
X31320D02*
D03*
X41500Y123100D02*
D03*
X46275Y123125D02*
D03*
X45290Y109000D02*
D03*
X44020D02*
D03*
X38940Y110170D02*
D03*
X42750D02*
D03*
X45700Y120075D02*
D03*
X39900Y118685D02*
D03*
X40800Y119635D02*
D03*
X41700Y120585D02*
D03*
X27700Y103365D02*
D03*
X36800Y116400D02*
D03*
X29275Y102695D02*
D03*
X24200Y117730D02*
D03*
X24300Y120905D02*
D03*
X33860Y101500D02*
D03*
X36400D02*
D03*
X40210D02*
D03*
X42750D02*
D03*
X52700Y106200D02*
D03*
X32900Y118365D02*
D03*
X18625Y120905D02*
D03*
X24000Y104000D02*
D03*
X18900Y102095D02*
D03*
X27700D02*
D03*
Y104635D02*
D03*
X18900Y124095D02*
D03*
X27700Y126635D02*
D03*
X22500Y97600D02*
D03*
X24019Y97369D02*
D03*
X24000Y73000D02*
D03*
Y75200D02*
D03*
X35400Y93700D02*
D03*
X33800Y93000D02*
D03*
X34100Y88685D02*
D03*
X39000Y87735D02*
D03*
X50000Y78800D02*
D03*
X29100Y77900D02*
D03*
X29700Y97000D02*
D03*
X47200Y97200D02*
D03*
X54600Y82200D02*
D03*
X50050Y74200D02*
D03*
X50287Y72900D02*
D03*
X58500Y79600D02*
D03*
X23800Y85425D02*
D03*
X16600Y91100D02*
D03*
X14800Y92000D02*
D03*
X16600Y85200D02*
D03*
X14700Y84379D02*
D03*
Y87879D02*
D03*
Y82379D02*
D03*
X18550Y89000D02*
D03*
X56100Y82000D02*
D03*
X54600Y80300D02*
D03*
X35500Y83300D02*
D03*
X34900Y87250D02*
D03*
X24000Y96000D02*
D03*
X46300Y85150D02*
D03*
X55150Y76750D02*
D03*
X35130Y80170D02*
D03*
X31320D02*
D03*
X41500Y93100D02*
D03*
X46275Y93125D02*
D03*
X45290Y79000D02*
D03*
X44020D02*
D03*
X38940Y80170D02*
D03*
X42750D02*
D03*
X45700Y90075D02*
D03*
X39900Y88685D02*
D03*
X40800Y89635D02*
D03*
X41700Y90585D02*
D03*
X27700Y73365D02*
D03*
X36800Y86400D02*
D03*
X29275Y72695D02*
D03*
X24200Y87730D02*
D03*
X24300Y90905D02*
D03*
X33860Y71500D02*
D03*
X36400D02*
D03*
X40210D02*
D03*
X42750D02*
D03*
X52700Y76200D02*
D03*
X32900Y88365D02*
D03*
X18625Y90905D02*
D03*
X24000Y74000D02*
D03*
X18900Y72095D02*
D03*
X27700D02*
D03*
Y74635D02*
D03*
X18900Y94095D02*
D03*
X27700Y96635D02*
D03*
D56*
X30300Y30900D02*
D03*
X56000Y34100D02*
D03*
X50100Y34000D02*
D03*
X52000Y35200D02*
D03*
X54000D02*
D03*
X50050Y25150D02*
D03*
X51300Y27800D02*
D03*
X58325Y27075D02*
D03*
X50500Y21100D02*
D03*
X58325Y25075D02*
D03*
X52000Y22750D02*
D03*
X58325Y31075D02*
D03*
X51000Y35200D02*
D03*
X55000D02*
D03*
X54500Y32600D02*
D03*
X51300Y30200D02*
D03*
X30300Y60900D02*
D03*
X56000Y64100D02*
D03*
X50100Y64000D02*
D03*
X52000Y65200D02*
D03*
X54000D02*
D03*
X50050Y55150D02*
D03*
X51300Y57800D02*
D03*
X58325Y57075D02*
D03*
X50500Y51100D02*
D03*
X58325Y55075D02*
D03*
X52000Y52750D02*
D03*
X58325Y61075D02*
D03*
X51000Y65200D02*
D03*
X55000D02*
D03*
X54500Y62600D02*
D03*
X51300Y60200D02*
D03*
X89700Y139100D02*
D03*
X64000Y135900D02*
D03*
X69900Y136000D02*
D03*
X68000Y134800D02*
D03*
X66000D02*
D03*
X69950Y144850D02*
D03*
X68700Y142200D02*
D03*
X61675Y142925D02*
D03*
X69500Y148900D02*
D03*
X61675Y144925D02*
D03*
X68000Y147250D02*
D03*
X61675Y138925D02*
D03*
X69000Y134800D02*
D03*
X65000D02*
D03*
X65500Y137400D02*
D03*
X68700Y139800D02*
D03*
X89700Y109100D02*
D03*
X64000Y105900D02*
D03*
X69900Y106000D02*
D03*
X68000Y104800D02*
D03*
X66000D02*
D03*
X69950Y114850D02*
D03*
X68700Y112200D02*
D03*
X61675Y112925D02*
D03*
X69500Y118900D02*
D03*
X61675Y114925D02*
D03*
X68000Y117250D02*
D03*
X61675Y108925D02*
D03*
X69000Y104800D02*
D03*
X65000D02*
D03*
X65500Y107400D02*
D03*
X68700Y109800D02*
D03*
X89700Y79100D02*
D03*
X64000Y75900D02*
D03*
X69900Y76000D02*
D03*
X68000Y74800D02*
D03*
X66000D02*
D03*
X69950Y84850D02*
D03*
X68700Y82200D02*
D03*
X61675Y82925D02*
D03*
X69500Y88900D02*
D03*
X61675Y84925D02*
D03*
X68000Y87250D02*
D03*
X61675Y78925D02*
D03*
X69000Y74800D02*
D03*
X65000D02*
D03*
X65500Y77400D02*
D03*
X68700Y79800D02*
D03*
X89700Y49100D02*
D03*
X64000Y45900D02*
D03*
X69900Y46000D02*
D03*
X68000Y44800D02*
D03*
X66000D02*
D03*
X69950Y54850D02*
D03*
X68700Y52200D02*
D03*
X61675Y52925D02*
D03*
X69500Y58900D02*
D03*
X61675Y54925D02*
D03*
X68000Y57250D02*
D03*
X61675Y48925D02*
D03*
X69000Y44800D02*
D03*
X65000D02*
D03*
X65500Y47400D02*
D03*
X68700Y49800D02*
D03*
X89700Y19100D02*
D03*
X64000Y15900D02*
D03*
X69900Y16000D02*
D03*
X68000Y14800D02*
D03*
X66000D02*
D03*
X69950Y24850D02*
D03*
X68700Y22200D02*
D03*
X61675Y22925D02*
D03*
X69500Y28900D02*
D03*
X61675Y24925D02*
D03*
X68000Y27250D02*
D03*
X61675Y18925D02*
D03*
X69000Y14800D02*
D03*
X65000D02*
D03*
X65500Y17400D02*
D03*
X68700Y19800D02*
D03*
X30300Y150900D02*
D03*
X56000Y154100D02*
D03*
X50100Y154000D02*
D03*
X52000Y155200D02*
D03*
X54000D02*
D03*
X50050Y145150D02*
D03*
X51300Y147800D02*
D03*
X58325Y147075D02*
D03*
X50500Y141100D02*
D03*
X58325Y145075D02*
D03*
X52000Y142750D02*
D03*
X58325Y151075D02*
D03*
X51000Y155200D02*
D03*
X55000D02*
D03*
X54500Y152600D02*
D03*
X51300Y150200D02*
D03*
X30300Y120900D02*
D03*
X56000Y124100D02*
D03*
X50100Y124000D02*
D03*
X52000Y125200D02*
D03*
X54000D02*
D03*
X50050Y115150D02*
D03*
X51300Y117800D02*
D03*
X58325Y117075D02*
D03*
X50500Y111100D02*
D03*
X58325Y115075D02*
D03*
X52000Y112750D02*
D03*
X58325Y121075D02*
D03*
X51000Y125200D02*
D03*
X55000D02*
D03*
X54500Y122600D02*
D03*
X51300Y120200D02*
D03*
X30300Y90900D02*
D03*
X56000Y94100D02*
D03*
X50100Y94000D02*
D03*
X52000Y95200D02*
D03*
X54000D02*
D03*
X50050Y85150D02*
D03*
X51300Y87800D02*
D03*
X58325Y87075D02*
D03*
X50500Y81100D02*
D03*
X58325Y85075D02*
D03*
X52000Y82750D02*
D03*
X58325Y91075D02*
D03*
X51000Y95200D02*
D03*
X55000D02*
D03*
X54500Y92600D02*
D03*
X51300Y90200D02*
D03*
M02*
