G04*
G04 #@! TF.GenerationSoftware,Altium Limited,Altium Designer,21.6.4 (81)*
G04*
G04 Layer_Color=8388736*
%FSLAX43Y43*%
%MOMM*%
G71*
G04*
G04 #@! TF.SameCoordinates,B8146748-6EAE-4540-ADCA-D378D2E1ADA8*
G04*
G04*
G04 #@! TF.FilePolarity,Positive*
G04*
G01*
G75*
%ADD29C,0.500*%
%ADD116C,0.254*%
D29*
X10000Y-7000D02*
Y179000D01*
X110000Y-8000D02*
Y178000D01*
X60000Y-8000D02*
Y178000D01*
X-7000Y10000D02*
X125000D01*
X-6000Y160000D02*
X126000D01*
X-7000Y130000D02*
X125000D01*
X-8000Y100000D02*
X124000D01*
X-8000Y70000D02*
X124000D01*
X-7000Y40000D02*
X125000D01*
D116*
X110254Y183253D02*
Y181254D01*
X111254Y180254D01*
X112253Y181254D01*
Y183253D01*
X115252Y182253D02*
X113753D01*
X113253Y181754D01*
Y180754D01*
X113753Y180254D01*
X115252D01*
X116252Y182253D02*
Y180754D01*
X116752Y180254D01*
X118251D01*
Y182253D01*
X119751Y182753D02*
Y182253D01*
X119251D01*
X120251D01*
X119751D01*
Y180754D01*
X120251Y180254D01*
X60254Y184253D02*
Y182254D01*
X61254Y181254D01*
X62253Y182254D01*
Y184253D01*
X65252Y183253D02*
X63753D01*
X63253Y182754D01*
Y181754D01*
X63753Y181254D01*
X65252D01*
X66252Y183253D02*
Y181754D01*
X66752Y181254D01*
X68251D01*
Y183253D01*
X69751Y183753D02*
Y183253D01*
X69251D01*
X70251D01*
X69751D01*
Y181754D01*
X70251Y181254D01*
X10254Y183253D02*
Y181254D01*
X11254Y180254D01*
X12253Y181254D01*
Y183253D01*
X15252Y182253D02*
X13753D01*
X13253Y181754D01*
Y180754D01*
X13753Y180254D01*
X15252D01*
X16252Y182253D02*
Y180754D01*
X16752Y180254D01*
X18251D01*
Y182253D01*
X19751Y182753D02*
Y182253D01*
X19251D01*
X20251D01*
X19751D01*
Y180754D01*
X20251Y180254D01*
X-18746Y163253D02*
Y161254D01*
X-17746Y160254D01*
X-16747Y161254D01*
Y163253D01*
X-13748Y162253D02*
X-15247D01*
X-15747Y161754D01*
Y160754D01*
X-15247Y160254D01*
X-13748D01*
X-12748Y162253D02*
Y160754D01*
X-12248Y160254D01*
X-10749D01*
Y162253D01*
X-9249Y162753D02*
Y162253D01*
X-9749D01*
X-8749D01*
X-9249D01*
Y160754D01*
X-8749Y160254D01*
X-18746Y133253D02*
Y131254D01*
X-17746Y130254D01*
X-16747Y131254D01*
Y133253D01*
X-13748Y132253D02*
X-15247D01*
X-15747Y131754D01*
Y130754D01*
X-15247Y130254D01*
X-13748D01*
X-12748Y132253D02*
Y130754D01*
X-12248Y130254D01*
X-10749D01*
Y132253D01*
X-9249Y132753D02*
Y132253D01*
X-9749D01*
X-8749D01*
X-9249D01*
Y130754D01*
X-8749Y130254D01*
X-18746Y103253D02*
Y101254D01*
X-17746Y100254D01*
X-16747Y101254D01*
Y103253D01*
X-13748Y102253D02*
X-15247D01*
X-15747Y101754D01*
Y100754D01*
X-15247Y100254D01*
X-13748D01*
X-12748Y102253D02*
Y100754D01*
X-12248Y100254D01*
X-10749D01*
Y102253D01*
X-9249Y102753D02*
Y102253D01*
X-9749D01*
X-8749D01*
X-9249D01*
Y100754D01*
X-8749Y100254D01*
X-18746Y73253D02*
Y71254D01*
X-17746Y70254D01*
X-16747Y71254D01*
Y73253D01*
X-13748Y72253D02*
X-15247D01*
X-15747Y71754D01*
Y70754D01*
X-15247Y70254D01*
X-13748D01*
X-12748Y72253D02*
Y70754D01*
X-12248Y70254D01*
X-10749D01*
Y72253D01*
X-9249Y72753D02*
Y72253D01*
X-9749D01*
X-8749D01*
X-9249D01*
Y70754D01*
X-8749Y70254D01*
X-18746Y43253D02*
Y41254D01*
X-17746Y40254D01*
X-16747Y41254D01*
Y43253D01*
X-13748Y42253D02*
X-15247D01*
X-15747Y41754D01*
Y40754D01*
X-15247Y40254D01*
X-13748D01*
X-12748Y42253D02*
Y40754D01*
X-12248Y40254D01*
X-10749D01*
Y42253D01*
X-9249Y42753D02*
Y42253D01*
X-9749D01*
X-8749D01*
X-9249D01*
Y40754D01*
X-8749Y40254D01*
X-18746Y12253D02*
Y10254D01*
X-17746Y9254D01*
X-16747Y10254D01*
Y12253D01*
X-13748Y11253D02*
X-15247D01*
X-15747Y10754D01*
Y9754D01*
X-15247Y9254D01*
X-13748D01*
X-12748Y11253D02*
Y9754D01*
X-12248Y9254D01*
X-10749D01*
Y11253D01*
X-9249Y11753D02*
Y11253D01*
X-9749D01*
X-8749D01*
X-9249D01*
Y9754D01*
X-8749Y9254D01*
M02*
