G04*
G04 #@! TF.GenerationSoftware,Altium Limited,Altium Designer,21.6.4 (81)*
G04*
G04 Layer_Color=8388736*
%FSLAX43Y43*%
%MOMM*%
G71*
G04*
G04 #@! TF.SameCoordinates,07C235E3-D0D3-4C9F-B76D-DFC27EE1DA73*
G04*
G04*
G04 #@! TF.FilePolarity,Negative*
G04*
G01*
G75*
%ADD34C,1.500*%
%ADD37C,1.600*%
%ADD52C,1.700*%
%ADD81C,2.500*%
%ADD82R,2.500X2.500*%
%ADD83C,1.100*%
G04:AMPARAMS|DCode=84|XSize=1.1mm|YSize=1.3mm|CornerRadius=0mm|HoleSize=0mm|Usage=FLASHONLY|Rotation=0.000|XOffset=0mm|YOffset=0mm|HoleType=Round|Shape=Octagon|*
%AMOCTAGOND84*
4,1,8,-0.275,0.650,0.275,0.650,0.550,0.375,0.550,-0.375,0.275,-0.650,-0.275,-0.650,-0.550,-0.375,-0.550,0.375,-0.275,0.650,0.0*
%
%ADD84OCTAGOND84*%

G04:AMPARAMS|DCode=85|XSize=1.1mm|YSize=1.3mm|CornerRadius=0.3mm|HoleSize=0mm|Usage=FLASHONLY|Rotation=0.000|XOffset=0mm|YOffset=0mm|HoleType=Round|Shape=RoundedRectangle|*
%AMROUNDEDRECTD85*
21,1,1.100,0.700,0,0,0.0*
21,1,0.500,1.300,0,0,0.0*
1,1,0.600,0.250,-0.350*
1,1,0.600,-0.250,-0.350*
1,1,0.600,-0.250,0.350*
1,1,0.600,0.250,0.350*
%
%ADD85ROUNDEDRECTD85*%
G04:AMPARAMS|DCode=86|XSize=0.65mm|YSize=1.2mm|CornerRadius=0.105mm|HoleSize=0mm|Usage=FLASHONLY|Rotation=270.000|XOffset=0mm|YOffset=0mm|HoleType=Round|Shape=RoundedRectangle|*
%AMROUNDEDRECTD86*
21,1,0.650,0.990,0,0,270.0*
21,1,0.440,1.200,0,0,270.0*
1,1,0.210,-0.495,-0.220*
1,1,0.210,-0.495,0.220*
1,1,0.210,0.495,0.220*
1,1,0.210,0.495,-0.220*
%
%ADD86ROUNDEDRECTD86*%
G04:AMPARAMS|DCode=87|XSize=0.84mm|YSize=2.89mm|CornerRadius=0.161mm|HoleSize=0mm|Usage=FLASHONLY|Rotation=180.000|XOffset=0mm|YOffset=0mm|HoleType=Round|Shape=RoundedRectangle|*
%AMROUNDEDRECTD87*
21,1,0.840,2.568,0,0,180.0*
21,1,0.518,2.890,0,0,180.0*
1,1,0.322,-0.259,1.284*
1,1,0.322,0.259,1.284*
1,1,0.322,0.259,-1.284*
1,1,0.322,-0.259,-1.284*
%
%ADD87ROUNDEDRECTD87*%
%ADD88R,0.900X0.850*%
G04:AMPARAMS|DCode=89|XSize=0.85mm|YSize=0.85mm|CornerRadius=0.125mm|HoleSize=0mm|Usage=FLASHONLY|Rotation=270.000|XOffset=0mm|YOffset=0mm|HoleType=Round|Shape=RoundedRectangle|*
%AMROUNDEDRECTD89*
21,1,0.850,0.600,0,0,270.0*
21,1,0.600,0.850,0,0,270.0*
1,1,0.250,-0.300,-0.300*
1,1,0.250,-0.300,0.300*
1,1,0.250,0.300,0.300*
1,1,0.250,0.300,-0.300*
%
%ADD89ROUNDEDRECTD89*%
%ADD90R,0.650X0.650*%
G04:AMPARAMS|DCode=91|XSize=1.65mm|YSize=1.4mm|CornerRadius=0.18mm|HoleSize=0mm|Usage=FLASHONLY|Rotation=270.000|XOffset=0mm|YOffset=0mm|HoleType=Round|Shape=RoundedRectangle|*
%AMROUNDEDRECTD91*
21,1,1.650,1.040,0,0,270.0*
21,1,1.290,1.400,0,0,270.0*
1,1,0.360,-0.520,-0.645*
1,1,0.360,-0.520,0.645*
1,1,0.360,0.520,0.645*
1,1,0.360,0.520,-0.645*
%
%ADD91ROUNDEDRECTD91*%
%ADD92R,1.000X1.700*%
%ADD93R,1.400X1.700*%
G04:AMPARAMS|DCode=94|XSize=0.65mm|YSize=0.65mm|CornerRadius=0.105mm|HoleSize=0mm|Usage=FLASHONLY|Rotation=90.000|XOffset=0mm|YOffset=0mm|HoleType=Round|Shape=RoundedRectangle|*
%AMROUNDEDRECTD94*
21,1,0.650,0.440,0,0,90.0*
21,1,0.440,0.650,0,0,90.0*
1,1,0.210,0.220,0.220*
1,1,0.210,0.220,-0.220*
1,1,0.210,-0.220,-0.220*
1,1,0.210,-0.220,0.220*
%
%ADD94ROUNDEDRECTD94*%
%ADD95R,0.850X0.900*%
G04:AMPARAMS|DCode=96|XSize=0.7mm|YSize=1mm|CornerRadius=0.11mm|HoleSize=0mm|Usage=FLASHONLY|Rotation=180.000|XOffset=0mm|YOffset=0mm|HoleType=Round|Shape=RoundedRectangle|*
%AMROUNDEDRECTD96*
21,1,0.700,0.780,0,0,180.0*
21,1,0.480,1.000,0,0,180.0*
1,1,0.220,-0.240,0.390*
1,1,0.220,0.240,0.390*
1,1,0.220,0.240,-0.390*
1,1,0.220,-0.240,-0.390*
%
%ADD96ROUNDEDRECTD96*%
G04:AMPARAMS|DCode=97|XSize=0.85mm|YSize=0.85mm|CornerRadius=0.125mm|HoleSize=0mm|Usage=FLASHONLY|Rotation=180.000|XOffset=0mm|YOffset=0mm|HoleType=Round|Shape=RoundedRectangle|*
%AMROUNDEDRECTD97*
21,1,0.850,0.600,0,0,180.0*
21,1,0.600,0.850,0,0,180.0*
1,1,0.250,-0.300,0.300*
1,1,0.250,0.300,0.300*
1,1,0.250,0.300,-0.300*
1,1,0.250,-0.300,-0.300*
%
%ADD97ROUNDEDRECTD97*%
G04:AMPARAMS|DCode=98|XSize=0.65mm|YSize=1.7mm|CornerRadius=0.133mm|HoleSize=0mm|Usage=FLASHONLY|Rotation=270.000|XOffset=0mm|YOffset=0mm|HoleType=Round|Shape=RoundedRectangle|*
%AMROUNDEDRECTD98*
21,1,0.650,1.435,0,0,270.0*
21,1,0.385,1.700,0,0,270.0*
1,1,0.265,-0.718,-0.193*
1,1,0.265,-0.718,0.193*
1,1,0.265,0.718,0.193*
1,1,0.265,0.718,-0.193*
%
%ADD98ROUNDEDRECTD98*%
%ADD99R,1.900X1.100*%
%ADD100O,1.600X1.100*%
%ADD101O,0.700X1.100*%
%ADD102C,0.900*%
%ADD103C,1.300*%
%ADD104C,0.100*%
%ADD105C,0.650*%
%ADD106C,0.700*%
G36*
X31808Y154849D02*
X32001Y154811D01*
X32011Y154808D01*
X32193Y154733D01*
X32193Y154733D01*
X32202Y154728D01*
X32365Y154619D01*
X32365Y154619D01*
X32373Y154612D01*
X32512Y154473D01*
X32519Y154465D01*
X32519Y154465D01*
X32628Y154302D01*
X32628Y154302D01*
X32631Y154296D01*
X32633Y154293D01*
X32633Y154293D01*
X32708Y154111D01*
X32711Y154102D01*
X32749Y153908D01*
X32750Y153898D01*
Y153800D01*
Y153702D01*
X32749Y153692D01*
X32711Y153499D01*
X32708Y153489D01*
X32633Y153307D01*
X32633Y153307D01*
X32628Y153298D01*
X32519Y153135D01*
X32519Y153135D01*
X32512Y153127D01*
X32373Y152988D01*
X32365Y152981D01*
X32365Y152981D01*
X32202Y152872D01*
X32202Y152872D01*
X32196Y152869D01*
X32193Y152867D01*
X32193Y152867D01*
X32011Y152792D01*
X32001Y152789D01*
X31808Y152751D01*
X31798Y152750D01*
X31700D01*
X31690Y152751D01*
X31681Y152754D01*
X31672Y152758D01*
X31664Y152764D01*
X31658Y152772D01*
X31654Y152781D01*
X31651Y152790D01*
X31650Y152800D01*
Y154800D01*
X31651Y154810D01*
X31654Y154819D01*
X31658Y154828D01*
X31664Y154836D01*
X31672Y154842D01*
X31681Y154846D01*
X31690Y154849D01*
X31700Y154850D01*
X31798D01*
X31808Y154849D01*
D02*
G37*
G36*
X31310D02*
X31319Y154846D01*
X31328Y154842D01*
X31336Y154836D01*
X31342Y154828D01*
X31346Y154819D01*
X31349Y154810D01*
X31350Y154800D01*
Y152800D01*
X31349Y152790D01*
X31346Y152781D01*
X31342Y152772D01*
X31336Y152764D01*
X31328Y152758D01*
X31319Y152754D01*
X31310Y152751D01*
X31300Y152750D01*
X31202D01*
X31192Y152751D01*
X30999Y152789D01*
X30989Y152792D01*
X30807Y152867D01*
X30807Y152867D01*
X30804Y152869D01*
X30798Y152872D01*
X30798Y152872D01*
X30635Y152981D01*
X30635Y152981D01*
X30627Y152988D01*
X30488Y153127D01*
X30481Y153135D01*
X30481Y153135D01*
X30372Y153298D01*
X30367Y153307D01*
X30367Y153307D01*
X30292Y153489D01*
X30289Y153499D01*
X30251Y153692D01*
X30250Y153702D01*
Y153800D01*
Y153898D01*
X30251Y153908D01*
X30289Y154102D01*
X30292Y154111D01*
X30367Y154293D01*
X30367Y154293D01*
X30369Y154296D01*
X30372Y154302D01*
X30372Y154302D01*
X30481Y154465D01*
X30481Y154465D01*
X30488Y154473D01*
X30627Y154612D01*
X30635Y154619D01*
X30635Y154619D01*
X30798Y154728D01*
X30807Y154733D01*
X30807Y154733D01*
X30989Y154808D01*
X30999Y154811D01*
X31192Y154849D01*
X31202Y154850D01*
X31300D01*
X31310Y154849D01*
D02*
G37*
G36*
X43808Y153124D02*
X44001Y153086D01*
X44011Y153083D01*
X44193Y153008D01*
X44193Y153008D01*
X44196Y153006D01*
X44202Y153003D01*
X44202Y153003D01*
X44365Y152894D01*
X44365Y152894D01*
X44373Y152887D01*
X44512Y152748D01*
X44519Y152740D01*
X44519Y152740D01*
X44628Y152577D01*
X44633Y152568D01*
X44633Y152568D01*
X44708Y152386D01*
X44711Y152376D01*
X44749Y152183D01*
X44750Y152173D01*
Y152075D01*
Y151977D01*
X44749Y151967D01*
X44711Y151774D01*
X44708Y151764D01*
X44633Y151582D01*
X44633Y151582D01*
X44631Y151579D01*
X44628Y151573D01*
X44628Y151573D01*
X44519Y151410D01*
X44519Y151410D01*
X44512Y151402D01*
X44373Y151263D01*
X44365Y151256D01*
X44365Y151256D01*
X44202Y151147D01*
X44193Y151142D01*
X44193Y151142D01*
X44011Y151067D01*
X44001Y151064D01*
X43808Y151026D01*
X43798Y151025D01*
X43700D01*
X43690Y151026D01*
X43681Y151029D01*
X43672Y151033D01*
X43664Y151039D01*
X43658Y151047D01*
X43654Y151056D01*
X43651Y151065D01*
X43650Y151075D01*
Y153075D01*
X43651Y153085D01*
X43654Y153094D01*
X43658Y153103D01*
X43664Y153111D01*
X43672Y153117D01*
X43681Y153121D01*
X43690Y153124D01*
X43700Y153125D01*
X43798D01*
X43808Y153124D01*
D02*
G37*
G36*
X43310D02*
X43319Y153121D01*
X43328Y153117D01*
X43336Y153111D01*
X43342Y153103D01*
X43346Y153094D01*
X43349Y153085D01*
X43350Y153075D01*
Y151075D01*
X43349Y151065D01*
X43346Y151056D01*
X43342Y151047D01*
X43336Y151039D01*
X43328Y151033D01*
X43319Y151029D01*
X43310Y151026D01*
X43300Y151025D01*
X43202D01*
X43192Y151026D01*
X42999Y151064D01*
X42989Y151067D01*
X42807Y151142D01*
X42807Y151142D01*
X42798Y151147D01*
X42635Y151256D01*
X42635Y151256D01*
X42627Y151263D01*
X42488Y151402D01*
X42481Y151410D01*
X42481Y151410D01*
X42372Y151573D01*
X42372Y151573D01*
X42369Y151579D01*
X42367Y151582D01*
X42367Y151582D01*
X42292Y151764D01*
X42289Y151774D01*
X42251Y151967D01*
X42250Y151977D01*
Y152075D01*
Y152173D01*
X42251Y152183D01*
X42289Y152376D01*
X42292Y152386D01*
X42367Y152568D01*
X42367Y152568D01*
X42372Y152577D01*
X42481Y152740D01*
X42481Y152740D01*
X42488Y152748D01*
X42627Y152887D01*
X42635Y152894D01*
X42635Y152894D01*
X42798Y153003D01*
X42798Y153003D01*
X42804Y153006D01*
X42807Y153008D01*
X42807Y153008D01*
X42989Y153083D01*
X42999Y153086D01*
X43192Y153124D01*
X43202Y153125D01*
X43300D01*
X43310Y153124D01*
D02*
G37*
G36*
X56208Y149149D02*
X56401Y149111D01*
X56411Y149108D01*
X56593Y149033D01*
X56593Y149033D01*
X56596Y149031D01*
X56602Y149028D01*
X56602Y149028D01*
X56765Y148919D01*
X56765Y148919D01*
X56773Y148912D01*
X56912Y148773D01*
X56919Y148765D01*
X56919Y148765D01*
X57028Y148602D01*
X57033Y148593D01*
X57033Y148593D01*
X57108Y148411D01*
X57111Y148402D01*
X57149Y148208D01*
X57150Y148199D01*
Y148100D01*
Y148002D01*
X57149Y147992D01*
X57111Y147799D01*
X57108Y147789D01*
X57033Y147607D01*
X57033Y147607D01*
X57031Y147604D01*
X57028Y147598D01*
X57028Y147598D01*
X56919Y147435D01*
X56919Y147435D01*
X56912Y147427D01*
X56773Y147288D01*
X56765Y147281D01*
X56765Y147281D01*
X56602Y147172D01*
X56593Y147167D01*
X56593Y147167D01*
X56411Y147092D01*
X56401Y147089D01*
X56208Y147051D01*
X56198Y147050D01*
X56100D01*
X56090Y147051D01*
X56081Y147054D01*
X56072Y147058D01*
X56064Y147064D01*
X56058Y147072D01*
X56054Y147081D01*
X56051Y147090D01*
X56050Y147100D01*
Y149100D01*
X56051Y149110D01*
X56054Y149119D01*
X56058Y149128D01*
X56064Y149136D01*
X56072Y149142D01*
X56081Y149146D01*
X56090Y149149D01*
X56100Y149150D01*
X56198D01*
X56208Y149149D01*
D02*
G37*
G36*
X55710D02*
X55719Y149146D01*
X55728Y149142D01*
X55736Y149136D01*
X55742Y149128D01*
X55746Y149119D01*
X55749Y149110D01*
X55750Y149100D01*
Y147100D01*
X55749Y147090D01*
X55746Y147081D01*
X55742Y147072D01*
X55736Y147064D01*
X55728Y147058D01*
X55719Y147054D01*
X55710Y147051D01*
X55700Y147050D01*
X55602D01*
X55592Y147051D01*
X55399Y147089D01*
X55389Y147092D01*
X55207Y147167D01*
X55207Y147167D01*
X55198Y147172D01*
X55035Y147281D01*
X55035Y147281D01*
X55027Y147288D01*
X54888Y147427D01*
X54881Y147435D01*
X54881Y147435D01*
X54772Y147598D01*
X54772Y147598D01*
X54769Y147604D01*
X54767Y147607D01*
X54767Y147607D01*
X54692Y147789D01*
X54689Y147799D01*
X54651Y147992D01*
X54650Y148002D01*
Y148100D01*
Y148199D01*
X54651Y148208D01*
X54689Y148402D01*
X54692Y148411D01*
X54767Y148593D01*
X54767Y148593D01*
X54772Y148602D01*
X54881Y148765D01*
X54881Y148765D01*
X54888Y148773D01*
X55027Y148912D01*
X55035Y148919D01*
X55035Y148919D01*
X55198Y149028D01*
X55198Y149028D01*
X55204Y149031D01*
X55207Y149033D01*
X55207Y149033D01*
X55389Y149108D01*
X55399Y149111D01*
X55592Y149149D01*
X55602Y149150D01*
X55700D01*
X55710Y149149D01*
D02*
G37*
G36*
X43808D02*
X44001Y149111D01*
X44011Y149108D01*
X44193Y149033D01*
X44193Y149033D01*
X44196Y149031D01*
X44202Y149028D01*
X44202Y149028D01*
X44365Y148919D01*
X44365Y148919D01*
X44373Y148912D01*
X44512Y148773D01*
X44519Y148765D01*
X44519Y148765D01*
X44628Y148602D01*
X44633Y148593D01*
X44633Y148593D01*
X44708Y148411D01*
X44711Y148402D01*
X44749Y148208D01*
X44750Y148199D01*
Y148100D01*
Y148002D01*
X44749Y147992D01*
X44711Y147799D01*
X44708Y147789D01*
X44633Y147607D01*
X44633Y147607D01*
X44631Y147604D01*
X44628Y147598D01*
X44628Y147598D01*
X44519Y147435D01*
X44519Y147435D01*
X44512Y147427D01*
X44373Y147288D01*
X44365Y147281D01*
X44365Y147281D01*
X44202Y147172D01*
X44193Y147167D01*
X44193Y147167D01*
X44011Y147092D01*
X44001Y147089D01*
X43808Y147051D01*
X43798Y147050D01*
X43700D01*
X43690Y147051D01*
X43681Y147054D01*
X43672Y147058D01*
X43664Y147064D01*
X43658Y147072D01*
X43654Y147081D01*
X43651Y147090D01*
X43650Y147100D01*
Y149100D01*
X43651Y149110D01*
X43654Y149119D01*
X43658Y149128D01*
X43664Y149136D01*
X43672Y149142D01*
X43681Y149146D01*
X43690Y149149D01*
X43700Y149150D01*
X43798D01*
X43808Y149149D01*
D02*
G37*
G36*
X43310D02*
X43319Y149146D01*
X43328Y149142D01*
X43336Y149136D01*
X43342Y149128D01*
X43346Y149119D01*
X43349Y149110D01*
X43350Y149100D01*
Y147100D01*
X43349Y147090D01*
X43346Y147081D01*
X43342Y147072D01*
X43336Y147064D01*
X43328Y147058D01*
X43319Y147054D01*
X43310Y147051D01*
X43300Y147050D01*
X43202D01*
X43192Y147051D01*
X42999Y147089D01*
X42989Y147092D01*
X42807Y147167D01*
X42807Y147167D01*
X42798Y147172D01*
X42635Y147281D01*
X42635Y147281D01*
X42627Y147288D01*
X42488Y147427D01*
X42481Y147435D01*
X42481Y147435D01*
X42372Y147598D01*
X42372Y147598D01*
X42369Y147604D01*
X42367Y147607D01*
X42367Y147607D01*
X42292Y147789D01*
X42289Y147799D01*
X42251Y147992D01*
X42250Y148002D01*
Y148100D01*
Y148199D01*
X42251Y148208D01*
X42289Y148402D01*
X42292Y148411D01*
X42367Y148593D01*
X42367Y148593D01*
X42372Y148602D01*
X42481Y148765D01*
X42481Y148765D01*
X42488Y148773D01*
X42627Y148912D01*
X42635Y148919D01*
X42635Y148919D01*
X42798Y149028D01*
X42798Y149028D01*
X42804Y149031D01*
X42807Y149033D01*
X42807Y149033D01*
X42989Y149108D01*
X42999Y149111D01*
X43192Y149149D01*
X43202Y149150D01*
X43300D01*
X43310Y149149D01*
D02*
G37*
G36*
X76808Y146924D02*
X77001Y146886D01*
X77011Y146883D01*
X77193Y146808D01*
X77193Y146808D01*
X77202Y146803D01*
X77365Y146694D01*
X77365Y146694D01*
X77373Y146687D01*
X77512Y146548D01*
X77519Y146540D01*
X77519Y146540D01*
X77628Y146377D01*
X77628Y146377D01*
X77631Y146371D01*
X77633Y146368D01*
X77633Y146368D01*
X77708Y146186D01*
X77711Y146176D01*
X77749Y145983D01*
X77750Y145973D01*
Y145875D01*
Y145777D01*
X77749Y145767D01*
X77711Y145574D01*
X77708Y145564D01*
X77633Y145382D01*
X77633Y145382D01*
X77628Y145373D01*
X77519Y145210D01*
X77519Y145210D01*
X77512Y145202D01*
X77373Y145063D01*
X77365Y145056D01*
X77365Y145056D01*
X77202Y144947D01*
X77202Y144947D01*
X77196Y144944D01*
X77193Y144942D01*
X77193Y144942D01*
X77011Y144867D01*
X77001Y144864D01*
X76808Y144826D01*
X76798Y144825D01*
X76700D01*
X76690Y144826D01*
X76681Y144829D01*
X76672Y144833D01*
X76664Y144839D01*
X76658Y144847D01*
X76654Y144856D01*
X76651Y144865D01*
X76650Y144875D01*
Y146875D01*
X76651Y146885D01*
X76654Y146894D01*
X76658Y146903D01*
X76664Y146911D01*
X76672Y146917D01*
X76681Y146921D01*
X76690Y146924D01*
X76700Y146925D01*
X76798D01*
X76808Y146924D01*
D02*
G37*
G36*
X76310D02*
X76319Y146921D01*
X76328Y146917D01*
X76336Y146911D01*
X76342Y146903D01*
X76346Y146894D01*
X76349Y146885D01*
X76350Y146875D01*
Y144875D01*
X76349Y144865D01*
X76346Y144856D01*
X76342Y144847D01*
X76336Y144839D01*
X76328Y144833D01*
X76319Y144829D01*
X76310Y144826D01*
X76300Y144825D01*
X76202D01*
X76192Y144826D01*
X75999Y144864D01*
X75989Y144867D01*
X75807Y144942D01*
X75807Y144942D01*
X75804Y144944D01*
X75798Y144947D01*
X75798Y144947D01*
X75635Y145056D01*
X75635Y145056D01*
X75627Y145063D01*
X75488Y145202D01*
X75481Y145210D01*
X75481Y145210D01*
X75372Y145373D01*
X75367Y145382D01*
X75367Y145382D01*
X75292Y145564D01*
X75289Y145574D01*
X75251Y145767D01*
X75250Y145777D01*
Y145875D01*
Y145973D01*
X75251Y145983D01*
X75289Y146176D01*
X75292Y146186D01*
X75367Y146368D01*
X75367Y146368D01*
X75369Y146371D01*
X75372Y146377D01*
X75372Y146377D01*
X75481Y146540D01*
X75481Y146540D01*
X75488Y146548D01*
X75627Y146687D01*
X75635Y146694D01*
X75635Y146694D01*
X75798Y146803D01*
X75807Y146808D01*
X75807Y146808D01*
X75989Y146883D01*
X75999Y146886D01*
X76192Y146924D01*
X76202Y146925D01*
X76300D01*
X76310Y146924D01*
D02*
G37*
G36*
X64408D02*
X64601Y146886D01*
X64611Y146883D01*
X64793Y146808D01*
X64793Y146808D01*
X64802Y146803D01*
X64965Y146694D01*
X64965Y146694D01*
X64973Y146687D01*
X65112Y146548D01*
X65119Y146540D01*
X65119Y146540D01*
X65228Y146377D01*
X65228Y146377D01*
X65231Y146371D01*
X65233Y146368D01*
X65233Y146368D01*
X65308Y146186D01*
X65311Y146176D01*
X65349Y145983D01*
X65350Y145973D01*
Y145875D01*
Y145777D01*
X65349Y145767D01*
X65311Y145574D01*
X65308Y145564D01*
X65233Y145382D01*
X65233Y145382D01*
X65228Y145373D01*
X65119Y145210D01*
X65119Y145210D01*
X65112Y145202D01*
X64973Y145063D01*
X64965Y145056D01*
X64965Y145056D01*
X64802Y144947D01*
X64802Y144947D01*
X64796Y144944D01*
X64793Y144942D01*
X64793Y144942D01*
X64611Y144867D01*
X64601Y144864D01*
X64408Y144826D01*
X64398Y144825D01*
X64300D01*
X64290Y144826D01*
X64281Y144829D01*
X64272Y144833D01*
X64264Y144839D01*
X64258Y144847D01*
X64254Y144856D01*
X64251Y144865D01*
X64250Y144875D01*
Y146875D01*
X64251Y146885D01*
X64254Y146894D01*
X64258Y146903D01*
X64264Y146911D01*
X64272Y146917D01*
X64281Y146921D01*
X64290Y146924D01*
X64300Y146925D01*
X64398D01*
X64408Y146924D01*
D02*
G37*
G36*
X63910D02*
X63919Y146921D01*
X63928Y146917D01*
X63936Y146911D01*
X63942Y146903D01*
X63946Y146894D01*
X63949Y146885D01*
X63950Y146875D01*
Y144875D01*
X63949Y144865D01*
X63946Y144856D01*
X63942Y144847D01*
X63936Y144839D01*
X63928Y144833D01*
X63919Y144829D01*
X63910Y144826D01*
X63900Y144825D01*
X63802D01*
X63792Y144826D01*
X63599Y144864D01*
X63589Y144867D01*
X63407Y144942D01*
X63407Y144942D01*
X63404Y144944D01*
X63398Y144947D01*
X63398Y144947D01*
X63235Y145056D01*
X63235Y145056D01*
X63227Y145063D01*
X63088Y145202D01*
X63081Y145210D01*
X63081Y145210D01*
X62972Y145373D01*
X62967Y145382D01*
X62967Y145382D01*
X62892Y145564D01*
X62889Y145574D01*
X62851Y145767D01*
X62850Y145777D01*
Y145875D01*
Y145973D01*
X62851Y145983D01*
X62889Y146176D01*
X62892Y146186D01*
X62967Y146368D01*
X62967Y146368D01*
X62969Y146371D01*
X62972Y146377D01*
X62972Y146377D01*
X63081Y146540D01*
X63081Y146540D01*
X63088Y146548D01*
X63227Y146687D01*
X63235Y146694D01*
X63235Y146694D01*
X63398Y146803D01*
X63407Y146808D01*
X63407Y146808D01*
X63589Y146883D01*
X63599Y146886D01*
X63792Y146924D01*
X63802Y146925D01*
X63900D01*
X63910Y146924D01*
D02*
G37*
G36*
X56208Y145174D02*
X56401Y145136D01*
X56411Y145133D01*
X56593Y145058D01*
X56593Y145058D01*
X56596Y145056D01*
X56602Y145053D01*
X56602Y145053D01*
X56765Y144944D01*
X56765Y144944D01*
X56773Y144937D01*
X56912Y144798D01*
X56919Y144790D01*
X56919Y144790D01*
X57028Y144627D01*
X57033Y144618D01*
X57033Y144618D01*
X57108Y144436D01*
X57111Y144426D01*
X57149Y144233D01*
X57150Y144223D01*
Y144125D01*
Y144027D01*
X57149Y144017D01*
X57111Y143824D01*
X57108Y143814D01*
X57033Y143632D01*
X57033Y143632D01*
X57031Y143629D01*
X57028Y143623D01*
X57028Y143623D01*
X56919Y143460D01*
X56919Y143460D01*
X56912Y143452D01*
X56773Y143313D01*
X56765Y143306D01*
X56765Y143306D01*
X56602Y143197D01*
X56593Y143192D01*
X56593Y143192D01*
X56411Y143117D01*
X56401Y143114D01*
X56208Y143076D01*
X56198Y143075D01*
X56100D01*
X56090Y143076D01*
X56081Y143079D01*
X56072Y143083D01*
X56064Y143089D01*
X56058Y143097D01*
X56054Y143106D01*
X56051Y143115D01*
X56050Y143125D01*
Y145125D01*
X56051Y145135D01*
X56054Y145144D01*
X56058Y145153D01*
X56064Y145161D01*
X56072Y145167D01*
X56081Y145171D01*
X56090Y145174D01*
X56100Y145175D01*
X56198D01*
X56208Y145174D01*
D02*
G37*
G36*
X55710D02*
X55719Y145171D01*
X55728Y145167D01*
X55736Y145161D01*
X55742Y145153D01*
X55746Y145144D01*
X55749Y145135D01*
X55750Y145125D01*
Y143125D01*
X55749Y143115D01*
X55746Y143106D01*
X55742Y143097D01*
X55736Y143089D01*
X55728Y143083D01*
X55719Y143079D01*
X55710Y143076D01*
X55700Y143075D01*
X55602D01*
X55592Y143076D01*
X55399Y143114D01*
X55389Y143117D01*
X55207Y143192D01*
X55207Y143192D01*
X55198Y143197D01*
X55035Y143306D01*
X55035Y143306D01*
X55027Y143313D01*
X54888Y143452D01*
X54881Y143460D01*
X54881Y143460D01*
X54772Y143623D01*
X54772Y143623D01*
X54769Y143629D01*
X54767Y143632D01*
X54767Y143632D01*
X54692Y143814D01*
X54689Y143824D01*
X54651Y144017D01*
X54650Y144027D01*
Y144125D01*
Y144223D01*
X54651Y144233D01*
X54689Y144426D01*
X54692Y144436D01*
X54767Y144618D01*
X54767Y144618D01*
X54772Y144627D01*
X54881Y144790D01*
X54881Y144790D01*
X54888Y144798D01*
X55027Y144937D01*
X55035Y144944D01*
X55035Y144944D01*
X55198Y145053D01*
X55198Y145053D01*
X55204Y145056D01*
X55207Y145058D01*
X55207Y145058D01*
X55389Y145133D01*
X55399Y145136D01*
X55592Y145174D01*
X55602Y145175D01*
X55700D01*
X55710Y145174D01*
D02*
G37*
G36*
X43808D02*
X44001Y145136D01*
X44011Y145133D01*
X44193Y145058D01*
X44193Y145058D01*
X44196Y145056D01*
X44202Y145053D01*
X44202Y145053D01*
X44365Y144944D01*
X44365Y144944D01*
X44373Y144937D01*
X44512Y144798D01*
X44519Y144790D01*
X44519Y144790D01*
X44628Y144627D01*
X44633Y144618D01*
X44633Y144618D01*
X44708Y144436D01*
X44711Y144426D01*
X44749Y144233D01*
X44750Y144223D01*
Y144125D01*
Y144027D01*
X44749Y144017D01*
X44711Y143824D01*
X44708Y143814D01*
X44633Y143632D01*
X44633Y143632D01*
X44631Y143629D01*
X44628Y143623D01*
X44628Y143623D01*
X44519Y143460D01*
X44519Y143460D01*
X44512Y143452D01*
X44373Y143313D01*
X44365Y143306D01*
X44365Y143306D01*
X44202Y143197D01*
X44193Y143192D01*
X44193Y143192D01*
X44011Y143117D01*
X44001Y143114D01*
X43808Y143076D01*
X43798Y143075D01*
X43700D01*
X43690Y143076D01*
X43681Y143079D01*
X43672Y143083D01*
X43664Y143089D01*
X43658Y143097D01*
X43654Y143106D01*
X43651Y143115D01*
X43650Y143125D01*
Y145125D01*
X43651Y145135D01*
X43654Y145144D01*
X43658Y145153D01*
X43664Y145161D01*
X43672Y145167D01*
X43681Y145171D01*
X43690Y145174D01*
X43700Y145175D01*
X43798D01*
X43808Y145174D01*
D02*
G37*
G36*
X43310D02*
X43319Y145171D01*
X43328Y145167D01*
X43336Y145161D01*
X43342Y145153D01*
X43346Y145144D01*
X43349Y145135D01*
X43350Y145125D01*
Y143125D01*
X43349Y143115D01*
X43346Y143106D01*
X43342Y143097D01*
X43336Y143089D01*
X43328Y143083D01*
X43319Y143079D01*
X43310Y143076D01*
X43300Y143075D01*
X43202D01*
X43192Y143076D01*
X42999Y143114D01*
X42989Y143117D01*
X42807Y143192D01*
X42807Y143192D01*
X42798Y143197D01*
X42635Y143306D01*
X42635Y143306D01*
X42627Y143313D01*
X42488Y143452D01*
X42481Y143460D01*
X42481Y143460D01*
X42372Y143623D01*
X42372Y143623D01*
X42369Y143629D01*
X42367Y143632D01*
X42367Y143632D01*
X42292Y143814D01*
X42289Y143824D01*
X42251Y144017D01*
X42250Y144027D01*
Y144125D01*
Y144223D01*
X42251Y144233D01*
X42289Y144426D01*
X42292Y144436D01*
X42367Y144618D01*
X42367Y144618D01*
X42372Y144627D01*
X42481Y144790D01*
X42481Y144790D01*
X42488Y144798D01*
X42627Y144937D01*
X42635Y144944D01*
X42635Y144944D01*
X42798Y145053D01*
X42798Y145053D01*
X42804Y145056D01*
X42807Y145058D01*
X42807Y145058D01*
X42989Y145133D01*
X42999Y145136D01*
X43192Y145174D01*
X43202Y145175D01*
X43300D01*
X43310Y145174D01*
D02*
G37*
G36*
X76808Y142949D02*
X77001Y142911D01*
X77011Y142908D01*
X77193Y142833D01*
X77193Y142833D01*
X77202Y142828D01*
X77365Y142719D01*
X77365Y142719D01*
X77373Y142712D01*
X77512Y142573D01*
X77519Y142565D01*
X77519Y142565D01*
X77628Y142402D01*
X77628Y142402D01*
X77631Y142396D01*
X77633Y142393D01*
X77633Y142393D01*
X77708Y142211D01*
X77711Y142201D01*
X77749Y142008D01*
X77750Y141998D01*
Y141900D01*
Y141801D01*
X77749Y141792D01*
X77711Y141598D01*
X77708Y141589D01*
X77633Y141407D01*
X77633Y141407D01*
X77628Y141398D01*
X77519Y141235D01*
X77519Y141235D01*
X77512Y141227D01*
X77373Y141088D01*
X77365Y141081D01*
X77365Y141081D01*
X77202Y140972D01*
X77202Y140972D01*
X77196Y140969D01*
X77193Y140967D01*
X77193Y140967D01*
X77011Y140892D01*
X77001Y140889D01*
X76808Y140851D01*
X76798Y140850D01*
X76700D01*
X76690Y140851D01*
X76681Y140854D01*
X76672Y140858D01*
X76664Y140864D01*
X76658Y140872D01*
X76654Y140881D01*
X76651Y140890D01*
X76650Y140900D01*
Y142900D01*
X76651Y142910D01*
X76654Y142919D01*
X76658Y142928D01*
X76664Y142936D01*
X76672Y142942D01*
X76681Y142946D01*
X76690Y142949D01*
X76700Y142950D01*
X76798D01*
X76808Y142949D01*
D02*
G37*
G36*
X76310D02*
X76319Y142946D01*
X76328Y142942D01*
X76336Y142936D01*
X76342Y142928D01*
X76346Y142919D01*
X76349Y142910D01*
X76350Y142900D01*
Y140900D01*
X76349Y140890D01*
X76346Y140881D01*
X76342Y140872D01*
X76336Y140864D01*
X76328Y140858D01*
X76319Y140854D01*
X76310Y140851D01*
X76300Y140850D01*
X76202D01*
X76192Y140851D01*
X75999Y140889D01*
X75989Y140892D01*
X75807Y140967D01*
X75807Y140967D01*
X75804Y140969D01*
X75798Y140972D01*
X75798Y140972D01*
X75635Y141081D01*
X75635Y141081D01*
X75627Y141088D01*
X75488Y141227D01*
X75481Y141235D01*
X75481Y141235D01*
X75372Y141398D01*
X75367Y141407D01*
X75367Y141407D01*
X75292Y141589D01*
X75289Y141598D01*
X75251Y141792D01*
X75250Y141801D01*
Y141900D01*
Y141998D01*
X75251Y142008D01*
X75289Y142201D01*
X75292Y142211D01*
X75367Y142393D01*
X75367Y142393D01*
X75369Y142396D01*
X75372Y142402D01*
X75372Y142402D01*
X75481Y142565D01*
X75481Y142565D01*
X75488Y142573D01*
X75627Y142712D01*
X75635Y142719D01*
X75635Y142719D01*
X75798Y142828D01*
X75807Y142833D01*
X75807Y142833D01*
X75989Y142908D01*
X75999Y142911D01*
X76192Y142949D01*
X76202Y142950D01*
X76300D01*
X76310Y142949D01*
D02*
G37*
G36*
X64408D02*
X64601Y142911D01*
X64611Y142908D01*
X64793Y142833D01*
X64793Y142833D01*
X64802Y142828D01*
X64965Y142719D01*
X64965Y142719D01*
X64973Y142712D01*
X65112Y142573D01*
X65119Y142565D01*
X65119Y142565D01*
X65228Y142402D01*
X65228Y142402D01*
X65231Y142396D01*
X65233Y142393D01*
X65233Y142393D01*
X65308Y142211D01*
X65311Y142201D01*
X65349Y142008D01*
X65350Y141998D01*
Y141900D01*
Y141801D01*
X65349Y141792D01*
X65311Y141598D01*
X65308Y141589D01*
X65233Y141407D01*
X65233Y141407D01*
X65228Y141398D01*
X65119Y141235D01*
X65119Y141235D01*
X65112Y141227D01*
X64973Y141088D01*
X64965Y141081D01*
X64965Y141081D01*
X64802Y140972D01*
X64802Y140972D01*
X64796Y140969D01*
X64793Y140967D01*
X64793Y140967D01*
X64611Y140892D01*
X64601Y140889D01*
X64408Y140851D01*
X64398Y140850D01*
X64300D01*
X64290Y140851D01*
X64281Y140854D01*
X64272Y140858D01*
X64264Y140864D01*
X64258Y140872D01*
X64254Y140881D01*
X64251Y140890D01*
X64250Y140900D01*
Y142900D01*
X64251Y142910D01*
X64254Y142919D01*
X64258Y142928D01*
X64264Y142936D01*
X64272Y142942D01*
X64281Y142946D01*
X64290Y142949D01*
X64300Y142950D01*
X64398D01*
X64408Y142949D01*
D02*
G37*
G36*
X63910D02*
X63919Y142946D01*
X63928Y142942D01*
X63936Y142936D01*
X63942Y142928D01*
X63946Y142919D01*
X63949Y142910D01*
X63950Y142900D01*
Y140900D01*
X63949Y140890D01*
X63946Y140881D01*
X63942Y140872D01*
X63936Y140864D01*
X63928Y140858D01*
X63919Y140854D01*
X63910Y140851D01*
X63900Y140850D01*
X63802D01*
X63792Y140851D01*
X63599Y140889D01*
X63589Y140892D01*
X63407Y140967D01*
X63407Y140967D01*
X63404Y140969D01*
X63398Y140972D01*
X63398Y140972D01*
X63235Y141081D01*
X63235Y141081D01*
X63227Y141088D01*
X63088Y141227D01*
X63081Y141235D01*
X63081Y141235D01*
X62972Y141398D01*
X62967Y141407D01*
X62967Y141407D01*
X62892Y141589D01*
X62889Y141598D01*
X62851Y141792D01*
X62850Y141801D01*
Y141900D01*
Y141998D01*
X62851Y142008D01*
X62889Y142201D01*
X62892Y142211D01*
X62967Y142393D01*
X62967Y142393D01*
X62969Y142396D01*
X62972Y142402D01*
X62972Y142402D01*
X63081Y142565D01*
X63081Y142565D01*
X63088Y142573D01*
X63227Y142712D01*
X63235Y142719D01*
X63235Y142719D01*
X63398Y142828D01*
X63407Y142833D01*
X63407Y142833D01*
X63589Y142908D01*
X63599Y142911D01*
X63792Y142949D01*
X63802Y142950D01*
X63900D01*
X63910Y142949D01*
D02*
G37*
G36*
X76808Y138974D02*
X77001Y138936D01*
X77011Y138933D01*
X77193Y138858D01*
X77193Y138858D01*
X77202Y138853D01*
X77365Y138744D01*
X77365Y138744D01*
X77373Y138737D01*
X77512Y138598D01*
X77519Y138590D01*
X77519Y138590D01*
X77628Y138427D01*
X77628Y138427D01*
X77631Y138421D01*
X77633Y138418D01*
X77633Y138418D01*
X77708Y138236D01*
X77711Y138226D01*
X77749Y138033D01*
X77750Y138023D01*
Y137925D01*
Y137827D01*
X77749Y137817D01*
X77711Y137624D01*
X77708Y137614D01*
X77633Y137432D01*
X77633Y137432D01*
X77628Y137423D01*
X77519Y137260D01*
X77519Y137260D01*
X77512Y137252D01*
X77373Y137113D01*
X77365Y137106D01*
X77365Y137106D01*
X77202Y136997D01*
X77202Y136997D01*
X77196Y136994D01*
X77193Y136992D01*
X77193Y136992D01*
X77011Y136917D01*
X77001Y136914D01*
X76808Y136876D01*
X76798Y136875D01*
X76700D01*
X76690Y136876D01*
X76681Y136879D01*
X76672Y136883D01*
X76664Y136889D01*
X76658Y136897D01*
X76654Y136906D01*
X76651Y136915D01*
X76650Y136925D01*
Y138925D01*
X76651Y138935D01*
X76654Y138944D01*
X76658Y138953D01*
X76664Y138961D01*
X76672Y138967D01*
X76681Y138971D01*
X76690Y138974D01*
X76700Y138975D01*
X76798D01*
X76808Y138974D01*
D02*
G37*
G36*
X76310D02*
X76319Y138971D01*
X76328Y138967D01*
X76336Y138961D01*
X76342Y138953D01*
X76346Y138944D01*
X76349Y138935D01*
X76350Y138925D01*
Y136925D01*
X76349Y136915D01*
X76346Y136906D01*
X76342Y136897D01*
X76336Y136889D01*
X76328Y136883D01*
X76319Y136879D01*
X76310Y136876D01*
X76300Y136875D01*
X76202D01*
X76192Y136876D01*
X75999Y136914D01*
X75989Y136917D01*
X75807Y136992D01*
X75807Y136992D01*
X75804Y136994D01*
X75798Y136997D01*
X75798Y136997D01*
X75635Y137106D01*
X75635Y137106D01*
X75627Y137113D01*
X75488Y137252D01*
X75481Y137260D01*
X75481Y137260D01*
X75372Y137423D01*
X75367Y137432D01*
X75367Y137432D01*
X75292Y137614D01*
X75289Y137624D01*
X75251Y137817D01*
X75250Y137827D01*
Y137925D01*
Y138023D01*
X75251Y138033D01*
X75289Y138226D01*
X75292Y138236D01*
X75367Y138418D01*
X75367Y138418D01*
X75369Y138421D01*
X75372Y138427D01*
X75372Y138427D01*
X75481Y138590D01*
X75481Y138590D01*
X75488Y138598D01*
X75627Y138737D01*
X75635Y138744D01*
X75635Y138744D01*
X75798Y138853D01*
X75807Y138858D01*
X75807Y138858D01*
X75989Y138933D01*
X75999Y138936D01*
X76192Y138974D01*
X76202Y138975D01*
X76300D01*
X76310Y138974D01*
D02*
G37*
G36*
X88808Y137249D02*
X89001Y137211D01*
X89011Y137208D01*
X89193Y137133D01*
X89193Y137133D01*
X89196Y137131D01*
X89202Y137128D01*
X89202Y137128D01*
X89365Y137019D01*
X89365Y137019D01*
X89373Y137012D01*
X89512Y136873D01*
X89519Y136865D01*
X89519Y136865D01*
X89628Y136702D01*
X89633Y136693D01*
X89633Y136693D01*
X89708Y136511D01*
X89711Y136501D01*
X89749Y136308D01*
X89750Y136298D01*
Y136200D01*
Y136102D01*
X89749Y136092D01*
X89711Y135898D01*
X89708Y135889D01*
X89633Y135707D01*
X89633Y135707D01*
X89631Y135704D01*
X89628Y135698D01*
X89628Y135698D01*
X89519Y135535D01*
X89519Y135535D01*
X89512Y135527D01*
X89373Y135388D01*
X89365Y135381D01*
X89365Y135381D01*
X89202Y135272D01*
X89193Y135267D01*
X89193Y135267D01*
X89011Y135192D01*
X89001Y135189D01*
X88808Y135151D01*
X88798Y135150D01*
X88700D01*
X88690Y135151D01*
X88681Y135154D01*
X88672Y135158D01*
X88664Y135164D01*
X88658Y135172D01*
X88654Y135181D01*
X88651Y135190D01*
X88650Y135200D01*
Y137200D01*
X88651Y137210D01*
X88654Y137219D01*
X88658Y137228D01*
X88664Y137236D01*
X88672Y137242D01*
X88681Y137246D01*
X88690Y137249D01*
X88700Y137250D01*
X88798D01*
X88808Y137249D01*
D02*
G37*
G36*
X88310D02*
X88319Y137246D01*
X88328Y137242D01*
X88336Y137236D01*
X88342Y137228D01*
X88346Y137219D01*
X88349Y137210D01*
X88350Y137200D01*
Y135200D01*
X88349Y135190D01*
X88346Y135181D01*
X88342Y135172D01*
X88336Y135164D01*
X88328Y135158D01*
X88319Y135154D01*
X88310Y135151D01*
X88300Y135150D01*
X88202D01*
X88192Y135151D01*
X87999Y135189D01*
X87989Y135192D01*
X87807Y135267D01*
X87807Y135267D01*
X87798Y135272D01*
X87635Y135381D01*
X87635Y135381D01*
X87627Y135388D01*
X87488Y135527D01*
X87481Y135535D01*
X87481Y135535D01*
X87372Y135698D01*
X87372Y135698D01*
X87369Y135704D01*
X87367Y135707D01*
X87367Y135707D01*
X87292Y135889D01*
X87289Y135898D01*
X87251Y136092D01*
X87250Y136102D01*
Y136200D01*
Y136298D01*
X87251Y136308D01*
X87289Y136501D01*
X87292Y136511D01*
X87367Y136693D01*
X87367Y136693D01*
X87372Y136702D01*
X87481Y136865D01*
X87481Y136865D01*
X87488Y136873D01*
X87627Y137012D01*
X87635Y137019D01*
X87635Y137019D01*
X87798Y137128D01*
X87798Y137128D01*
X87804Y137131D01*
X87807Y137133D01*
X87807Y137133D01*
X87989Y137208D01*
X87999Y137211D01*
X88192Y137249D01*
X88202Y137250D01*
X88300D01*
X88310Y137249D01*
D02*
G37*
G36*
X31808Y124849D02*
X32001Y124811D01*
X32011Y124808D01*
X32193Y124733D01*
X32193Y124733D01*
X32202Y124728D01*
X32365Y124619D01*
X32365Y124619D01*
X32373Y124612D01*
X32512Y124473D01*
X32519Y124465D01*
X32519Y124465D01*
X32628Y124302D01*
X32628Y124302D01*
X32631Y124296D01*
X32633Y124293D01*
X32633Y124293D01*
X32708Y124111D01*
X32711Y124102D01*
X32749Y123908D01*
X32750Y123898D01*
Y123800D01*
Y123702D01*
X32749Y123692D01*
X32711Y123499D01*
X32708Y123489D01*
X32633Y123307D01*
X32633Y123307D01*
X32628Y123298D01*
X32519Y123135D01*
X32519Y123135D01*
X32512Y123127D01*
X32373Y122988D01*
X32365Y122981D01*
X32365Y122981D01*
X32202Y122872D01*
X32202Y122872D01*
X32196Y122869D01*
X32193Y122867D01*
X32193Y122867D01*
X32011Y122792D01*
X32001Y122789D01*
X31808Y122751D01*
X31798Y122750D01*
X31700D01*
X31690Y122751D01*
X31681Y122754D01*
X31672Y122758D01*
X31664Y122764D01*
X31658Y122772D01*
X31654Y122781D01*
X31651Y122790D01*
X31650Y122800D01*
Y124800D01*
X31651Y124810D01*
X31654Y124819D01*
X31658Y124828D01*
X31664Y124836D01*
X31672Y124842D01*
X31681Y124846D01*
X31690Y124849D01*
X31700Y124850D01*
X31798D01*
X31808Y124849D01*
D02*
G37*
G36*
X31310D02*
X31319Y124846D01*
X31328Y124842D01*
X31336Y124836D01*
X31342Y124828D01*
X31346Y124819D01*
X31349Y124810D01*
X31350Y124800D01*
Y122800D01*
X31349Y122790D01*
X31346Y122781D01*
X31342Y122772D01*
X31336Y122764D01*
X31328Y122758D01*
X31319Y122754D01*
X31310Y122751D01*
X31300Y122750D01*
X31202D01*
X31192Y122751D01*
X30999Y122789D01*
X30989Y122792D01*
X30807Y122867D01*
X30807Y122867D01*
X30804Y122869D01*
X30798Y122872D01*
X30798Y122872D01*
X30635Y122981D01*
X30635Y122981D01*
X30627Y122988D01*
X30488Y123127D01*
X30481Y123135D01*
X30481Y123135D01*
X30372Y123298D01*
X30367Y123307D01*
X30367Y123307D01*
X30292Y123489D01*
X30289Y123499D01*
X30251Y123692D01*
X30250Y123702D01*
Y123800D01*
Y123898D01*
X30251Y123908D01*
X30289Y124102D01*
X30292Y124111D01*
X30367Y124293D01*
X30367Y124293D01*
X30369Y124296D01*
X30372Y124302D01*
X30372Y124302D01*
X30481Y124465D01*
X30481Y124465D01*
X30488Y124473D01*
X30627Y124612D01*
X30635Y124619D01*
X30635Y124619D01*
X30798Y124728D01*
X30807Y124733D01*
X30807Y124733D01*
X30989Y124808D01*
X30999Y124811D01*
X31192Y124849D01*
X31202Y124850D01*
X31300D01*
X31310Y124849D01*
D02*
G37*
G36*
X43808Y123124D02*
X44001Y123086D01*
X44011Y123083D01*
X44193Y123008D01*
X44193Y123008D01*
X44196Y123006D01*
X44202Y123003D01*
X44202Y123003D01*
X44365Y122894D01*
X44365Y122894D01*
X44373Y122887D01*
X44512Y122748D01*
X44519Y122740D01*
X44519Y122740D01*
X44628Y122577D01*
X44633Y122568D01*
X44633Y122568D01*
X44708Y122386D01*
X44711Y122377D01*
X44749Y122183D01*
X44750Y122174D01*
Y122075D01*
Y121977D01*
X44749Y121967D01*
X44711Y121774D01*
X44708Y121764D01*
X44633Y121582D01*
X44633Y121582D01*
X44631Y121579D01*
X44628Y121573D01*
X44628Y121573D01*
X44519Y121410D01*
X44519Y121410D01*
X44512Y121402D01*
X44373Y121263D01*
X44365Y121256D01*
X44365Y121256D01*
X44202Y121147D01*
X44193Y121142D01*
X44193Y121142D01*
X44011Y121067D01*
X44001Y121064D01*
X43808Y121026D01*
X43798Y121025D01*
X43700D01*
X43690Y121026D01*
X43681Y121029D01*
X43672Y121033D01*
X43664Y121039D01*
X43658Y121047D01*
X43654Y121056D01*
X43651Y121065D01*
X43650Y121075D01*
Y123075D01*
X43651Y123085D01*
X43654Y123094D01*
X43658Y123103D01*
X43664Y123111D01*
X43672Y123117D01*
X43681Y123121D01*
X43690Y123124D01*
X43700Y123125D01*
X43798D01*
X43808Y123124D01*
D02*
G37*
G36*
X43310D02*
X43319Y123121D01*
X43328Y123117D01*
X43336Y123111D01*
X43342Y123103D01*
X43346Y123094D01*
X43349Y123085D01*
X43350Y123075D01*
Y121075D01*
X43349Y121065D01*
X43346Y121056D01*
X43342Y121047D01*
X43336Y121039D01*
X43328Y121033D01*
X43319Y121029D01*
X43310Y121026D01*
X43300Y121025D01*
X43202D01*
X43192Y121026D01*
X42999Y121064D01*
X42989Y121067D01*
X42807Y121142D01*
X42807Y121142D01*
X42798Y121147D01*
X42635Y121256D01*
X42635Y121256D01*
X42627Y121263D01*
X42488Y121402D01*
X42481Y121410D01*
X42481Y121410D01*
X42372Y121573D01*
X42372Y121573D01*
X42369Y121579D01*
X42367Y121582D01*
X42367Y121582D01*
X42292Y121764D01*
X42289Y121774D01*
X42251Y121967D01*
X42250Y121977D01*
Y122075D01*
Y122174D01*
X42251Y122183D01*
X42289Y122377D01*
X42292Y122386D01*
X42367Y122568D01*
X42367Y122568D01*
X42372Y122577D01*
X42481Y122740D01*
X42481Y122740D01*
X42488Y122748D01*
X42627Y122887D01*
X42635Y122894D01*
X42635Y122894D01*
X42798Y123003D01*
X42798Y123003D01*
X42804Y123006D01*
X42807Y123008D01*
X42807Y123008D01*
X42989Y123083D01*
X42999Y123086D01*
X43192Y123124D01*
X43202Y123125D01*
X43300D01*
X43310Y123124D01*
D02*
G37*
G36*
X56208Y119149D02*
X56401Y119111D01*
X56411Y119108D01*
X56593Y119033D01*
X56593Y119033D01*
X56596Y119031D01*
X56602Y119028D01*
X56602Y119028D01*
X56765Y118919D01*
X56765Y118919D01*
X56773Y118912D01*
X56912Y118773D01*
X56919Y118765D01*
X56919Y118765D01*
X57028Y118602D01*
X57033Y118593D01*
X57033Y118593D01*
X57108Y118411D01*
X57111Y118401D01*
X57149Y118208D01*
X57150Y118199D01*
Y118100D01*
Y118002D01*
X57149Y117992D01*
X57111Y117799D01*
X57108Y117789D01*
X57033Y117607D01*
X57033Y117607D01*
X57031Y117604D01*
X57028Y117598D01*
X57028Y117598D01*
X56919Y117435D01*
X56919Y117435D01*
X56912Y117427D01*
X56773Y117288D01*
X56765Y117281D01*
X56765Y117281D01*
X56602Y117172D01*
X56593Y117167D01*
X56593Y117167D01*
X56411Y117092D01*
X56401Y117089D01*
X56208Y117051D01*
X56198Y117050D01*
X56100D01*
X56090Y117051D01*
X56081Y117054D01*
X56072Y117058D01*
X56064Y117064D01*
X56058Y117072D01*
X56054Y117081D01*
X56051Y117090D01*
X56050Y117100D01*
Y119100D01*
X56051Y119110D01*
X56054Y119119D01*
X56058Y119128D01*
X56064Y119136D01*
X56072Y119142D01*
X56081Y119146D01*
X56090Y119149D01*
X56100Y119150D01*
X56198D01*
X56208Y119149D01*
D02*
G37*
G36*
X55710D02*
X55719Y119146D01*
X55728Y119142D01*
X55736Y119136D01*
X55742Y119128D01*
X55746Y119119D01*
X55749Y119110D01*
X55750Y119100D01*
Y117100D01*
X55749Y117090D01*
X55746Y117081D01*
X55742Y117072D01*
X55736Y117064D01*
X55728Y117058D01*
X55719Y117054D01*
X55710Y117051D01*
X55700Y117050D01*
X55602D01*
X55592Y117051D01*
X55399Y117089D01*
X55389Y117092D01*
X55207Y117167D01*
X55207Y117167D01*
X55198Y117172D01*
X55035Y117281D01*
X55035Y117281D01*
X55027Y117288D01*
X54888Y117427D01*
X54881Y117435D01*
X54881Y117435D01*
X54772Y117598D01*
X54772Y117598D01*
X54769Y117604D01*
X54767Y117607D01*
X54767Y117607D01*
X54692Y117789D01*
X54689Y117799D01*
X54651Y117992D01*
X54650Y118002D01*
Y118100D01*
Y118199D01*
X54651Y118208D01*
X54689Y118401D01*
X54692Y118411D01*
X54767Y118593D01*
X54767Y118593D01*
X54772Y118602D01*
X54881Y118765D01*
X54881Y118765D01*
X54888Y118773D01*
X55027Y118912D01*
X55035Y118919D01*
X55035Y118919D01*
X55198Y119028D01*
X55198Y119028D01*
X55204Y119031D01*
X55207Y119033D01*
X55207Y119033D01*
X55389Y119108D01*
X55399Y119111D01*
X55592Y119149D01*
X55602Y119150D01*
X55700D01*
X55710Y119149D01*
D02*
G37*
G36*
X43808D02*
X44001Y119111D01*
X44011Y119108D01*
X44193Y119033D01*
X44193Y119033D01*
X44196Y119031D01*
X44202Y119028D01*
X44202Y119028D01*
X44365Y118919D01*
X44365Y118919D01*
X44373Y118912D01*
X44512Y118773D01*
X44519Y118765D01*
X44519Y118765D01*
X44628Y118602D01*
X44633Y118593D01*
X44633Y118593D01*
X44708Y118411D01*
X44711Y118401D01*
X44749Y118208D01*
X44750Y118199D01*
Y118100D01*
Y118002D01*
X44749Y117992D01*
X44711Y117799D01*
X44708Y117789D01*
X44633Y117607D01*
X44633Y117607D01*
X44631Y117604D01*
X44628Y117598D01*
X44628Y117598D01*
X44519Y117435D01*
X44519Y117435D01*
X44512Y117427D01*
X44373Y117288D01*
X44365Y117281D01*
X44365Y117281D01*
X44202Y117172D01*
X44193Y117167D01*
X44193Y117167D01*
X44011Y117092D01*
X44001Y117089D01*
X43808Y117051D01*
X43798Y117050D01*
X43700D01*
X43690Y117051D01*
X43681Y117054D01*
X43672Y117058D01*
X43664Y117064D01*
X43658Y117072D01*
X43654Y117081D01*
X43651Y117090D01*
X43650Y117100D01*
Y119100D01*
X43651Y119110D01*
X43654Y119119D01*
X43658Y119128D01*
X43664Y119136D01*
X43672Y119142D01*
X43681Y119146D01*
X43690Y119149D01*
X43700Y119150D01*
X43798D01*
X43808Y119149D01*
D02*
G37*
G36*
X43310D02*
X43319Y119146D01*
X43328Y119142D01*
X43336Y119136D01*
X43342Y119128D01*
X43346Y119119D01*
X43349Y119110D01*
X43350Y119100D01*
Y117100D01*
X43349Y117090D01*
X43346Y117081D01*
X43342Y117072D01*
X43336Y117064D01*
X43328Y117058D01*
X43319Y117054D01*
X43310Y117051D01*
X43300Y117050D01*
X43202D01*
X43192Y117051D01*
X42999Y117089D01*
X42989Y117092D01*
X42807Y117167D01*
X42807Y117167D01*
X42798Y117172D01*
X42635Y117281D01*
X42635Y117281D01*
X42627Y117288D01*
X42488Y117427D01*
X42481Y117435D01*
X42481Y117435D01*
X42372Y117598D01*
X42372Y117598D01*
X42369Y117604D01*
X42367Y117607D01*
X42367Y117607D01*
X42292Y117789D01*
X42289Y117799D01*
X42251Y117992D01*
X42250Y118002D01*
Y118100D01*
Y118199D01*
X42251Y118208D01*
X42289Y118401D01*
X42292Y118411D01*
X42367Y118593D01*
X42367Y118593D01*
X42372Y118602D01*
X42481Y118765D01*
X42481Y118765D01*
X42488Y118773D01*
X42627Y118912D01*
X42635Y118919D01*
X42635Y118919D01*
X42798Y119028D01*
X42798Y119028D01*
X42804Y119031D01*
X42807Y119033D01*
X42807Y119033D01*
X42989Y119108D01*
X42999Y119111D01*
X43192Y119149D01*
X43202Y119150D01*
X43300D01*
X43310Y119149D01*
D02*
G37*
G36*
X76808Y116924D02*
X77001Y116886D01*
X77011Y116883D01*
X77193Y116808D01*
X77193Y116808D01*
X77202Y116803D01*
X77365Y116694D01*
X77365Y116694D01*
X77373Y116687D01*
X77512Y116548D01*
X77519Y116540D01*
X77519Y116540D01*
X77628Y116377D01*
X77628Y116377D01*
X77631Y116371D01*
X77633Y116368D01*
X77633Y116368D01*
X77708Y116186D01*
X77711Y116176D01*
X77749Y115983D01*
X77750Y115973D01*
Y115875D01*
Y115776D01*
X77749Y115767D01*
X77711Y115574D01*
X77708Y115564D01*
X77633Y115382D01*
X77633Y115382D01*
X77628Y115373D01*
X77519Y115210D01*
X77519Y115210D01*
X77512Y115202D01*
X77373Y115063D01*
X77365Y115056D01*
X77365Y115056D01*
X77202Y114947D01*
X77202Y114947D01*
X77196Y114944D01*
X77193Y114942D01*
X77193Y114942D01*
X77011Y114867D01*
X77001Y114864D01*
X76808Y114826D01*
X76798Y114825D01*
X76700D01*
X76690Y114826D01*
X76681Y114829D01*
X76672Y114833D01*
X76664Y114839D01*
X76658Y114847D01*
X76654Y114856D01*
X76651Y114865D01*
X76650Y114875D01*
Y116875D01*
X76651Y116885D01*
X76654Y116894D01*
X76658Y116903D01*
X76664Y116911D01*
X76672Y116917D01*
X76681Y116921D01*
X76690Y116924D01*
X76700Y116925D01*
X76798D01*
X76808Y116924D01*
D02*
G37*
G36*
X76310D02*
X76319Y116921D01*
X76328Y116917D01*
X76336Y116911D01*
X76342Y116903D01*
X76346Y116894D01*
X76349Y116885D01*
X76350Y116875D01*
Y114875D01*
X76349Y114865D01*
X76346Y114856D01*
X76342Y114847D01*
X76336Y114839D01*
X76328Y114833D01*
X76319Y114829D01*
X76310Y114826D01*
X76300Y114825D01*
X76202D01*
X76192Y114826D01*
X75999Y114864D01*
X75989Y114867D01*
X75807Y114942D01*
X75807Y114942D01*
X75804Y114944D01*
X75798Y114947D01*
X75798Y114947D01*
X75635Y115056D01*
X75635Y115056D01*
X75627Y115063D01*
X75488Y115202D01*
X75481Y115210D01*
X75481Y115210D01*
X75372Y115373D01*
X75367Y115382D01*
X75367Y115382D01*
X75292Y115564D01*
X75289Y115574D01*
X75251Y115767D01*
X75250Y115776D01*
Y115875D01*
Y115973D01*
X75251Y115983D01*
X75289Y116176D01*
X75292Y116186D01*
X75367Y116368D01*
X75367Y116368D01*
X75369Y116371D01*
X75372Y116377D01*
X75372Y116377D01*
X75481Y116540D01*
X75481Y116540D01*
X75488Y116548D01*
X75627Y116687D01*
X75635Y116694D01*
X75635Y116694D01*
X75798Y116803D01*
X75807Y116808D01*
X75807Y116808D01*
X75989Y116883D01*
X75999Y116886D01*
X76192Y116924D01*
X76202Y116925D01*
X76300D01*
X76310Y116924D01*
D02*
G37*
G36*
X64408D02*
X64601Y116886D01*
X64611Y116883D01*
X64793Y116808D01*
X64793Y116808D01*
X64802Y116803D01*
X64965Y116694D01*
X64965Y116694D01*
X64973Y116687D01*
X65112Y116548D01*
X65119Y116540D01*
X65119Y116540D01*
X65228Y116377D01*
X65228Y116377D01*
X65231Y116371D01*
X65233Y116368D01*
X65233Y116368D01*
X65308Y116186D01*
X65311Y116176D01*
X65349Y115983D01*
X65350Y115973D01*
Y115875D01*
Y115776D01*
X65349Y115767D01*
X65311Y115574D01*
X65308Y115564D01*
X65233Y115382D01*
X65233Y115382D01*
X65228Y115373D01*
X65119Y115210D01*
X65119Y115210D01*
X65112Y115202D01*
X64973Y115063D01*
X64965Y115056D01*
X64965Y115056D01*
X64802Y114947D01*
X64802Y114947D01*
X64796Y114944D01*
X64793Y114942D01*
X64793Y114942D01*
X64611Y114867D01*
X64601Y114864D01*
X64408Y114826D01*
X64398Y114825D01*
X64300D01*
X64290Y114826D01*
X64281Y114829D01*
X64272Y114833D01*
X64264Y114839D01*
X64258Y114847D01*
X64254Y114856D01*
X64251Y114865D01*
X64250Y114875D01*
Y116875D01*
X64251Y116885D01*
X64254Y116894D01*
X64258Y116903D01*
X64264Y116911D01*
X64272Y116917D01*
X64281Y116921D01*
X64290Y116924D01*
X64300Y116925D01*
X64398D01*
X64408Y116924D01*
D02*
G37*
G36*
X63910D02*
X63919Y116921D01*
X63928Y116917D01*
X63936Y116911D01*
X63942Y116903D01*
X63946Y116894D01*
X63949Y116885D01*
X63950Y116875D01*
Y114875D01*
X63949Y114865D01*
X63946Y114856D01*
X63942Y114847D01*
X63936Y114839D01*
X63928Y114833D01*
X63919Y114829D01*
X63910Y114826D01*
X63900Y114825D01*
X63802D01*
X63792Y114826D01*
X63599Y114864D01*
X63589Y114867D01*
X63407Y114942D01*
X63407Y114942D01*
X63404Y114944D01*
X63398Y114947D01*
X63398Y114947D01*
X63235Y115056D01*
X63235Y115056D01*
X63227Y115063D01*
X63088Y115202D01*
X63081Y115210D01*
X63081Y115210D01*
X62972Y115373D01*
X62967Y115382D01*
X62967Y115382D01*
X62892Y115564D01*
X62889Y115574D01*
X62851Y115767D01*
X62850Y115776D01*
Y115875D01*
Y115973D01*
X62851Y115983D01*
X62889Y116176D01*
X62892Y116186D01*
X62967Y116368D01*
X62967Y116368D01*
X62969Y116371D01*
X62972Y116377D01*
X62972Y116377D01*
X63081Y116540D01*
X63081Y116540D01*
X63088Y116548D01*
X63227Y116687D01*
X63235Y116694D01*
X63235Y116694D01*
X63398Y116803D01*
X63407Y116808D01*
X63407Y116808D01*
X63589Y116883D01*
X63599Y116886D01*
X63792Y116924D01*
X63802Y116925D01*
X63900D01*
X63910Y116924D01*
D02*
G37*
G36*
X56208Y115174D02*
X56401Y115136D01*
X56411Y115133D01*
X56593Y115058D01*
X56593Y115058D01*
X56596Y115056D01*
X56602Y115053D01*
X56602Y115053D01*
X56765Y114944D01*
X56765Y114944D01*
X56773Y114937D01*
X56912Y114798D01*
X56919Y114790D01*
X56919Y114790D01*
X57028Y114627D01*
X57033Y114618D01*
X57033Y114618D01*
X57108Y114436D01*
X57111Y114426D01*
X57149Y114233D01*
X57150Y114224D01*
Y114125D01*
Y114027D01*
X57149Y114017D01*
X57111Y113824D01*
X57108Y113814D01*
X57033Y113632D01*
X57033Y113632D01*
X57031Y113629D01*
X57028Y113623D01*
X57028Y113623D01*
X56919Y113460D01*
X56919Y113460D01*
X56912Y113452D01*
X56773Y113313D01*
X56765Y113306D01*
X56765Y113306D01*
X56602Y113197D01*
X56593Y113192D01*
X56593Y113192D01*
X56411Y113117D01*
X56401Y113114D01*
X56208Y113076D01*
X56198Y113075D01*
X56100D01*
X56090Y113076D01*
X56081Y113079D01*
X56072Y113083D01*
X56064Y113089D01*
X56058Y113097D01*
X56054Y113106D01*
X56051Y113115D01*
X56050Y113125D01*
Y115125D01*
X56051Y115135D01*
X56054Y115144D01*
X56058Y115153D01*
X56064Y115161D01*
X56072Y115167D01*
X56081Y115171D01*
X56090Y115174D01*
X56100Y115175D01*
X56198D01*
X56208Y115174D01*
D02*
G37*
G36*
X55710D02*
X55719Y115171D01*
X55728Y115167D01*
X55736Y115161D01*
X55742Y115153D01*
X55746Y115144D01*
X55749Y115135D01*
X55750Y115125D01*
Y113125D01*
X55749Y113115D01*
X55746Y113106D01*
X55742Y113097D01*
X55736Y113089D01*
X55728Y113083D01*
X55719Y113079D01*
X55710Y113076D01*
X55700Y113075D01*
X55602D01*
X55592Y113076D01*
X55399Y113114D01*
X55389Y113117D01*
X55207Y113192D01*
X55207Y113192D01*
X55198Y113197D01*
X55035Y113306D01*
X55035Y113306D01*
X55027Y113313D01*
X54888Y113452D01*
X54881Y113460D01*
X54881Y113460D01*
X54772Y113623D01*
X54772Y113623D01*
X54769Y113629D01*
X54767Y113632D01*
X54767Y113632D01*
X54692Y113814D01*
X54689Y113824D01*
X54651Y114017D01*
X54650Y114027D01*
Y114125D01*
Y114224D01*
X54651Y114233D01*
X54689Y114426D01*
X54692Y114436D01*
X54767Y114618D01*
X54767Y114618D01*
X54772Y114627D01*
X54881Y114790D01*
X54881Y114790D01*
X54888Y114798D01*
X55027Y114937D01*
X55035Y114944D01*
X55035Y114944D01*
X55198Y115053D01*
X55198Y115053D01*
X55204Y115056D01*
X55207Y115058D01*
X55207Y115058D01*
X55389Y115133D01*
X55399Y115136D01*
X55592Y115174D01*
X55602Y115175D01*
X55700D01*
X55710Y115174D01*
D02*
G37*
G36*
X43808D02*
X44001Y115136D01*
X44011Y115133D01*
X44193Y115058D01*
X44193Y115058D01*
X44196Y115056D01*
X44202Y115053D01*
X44202Y115053D01*
X44365Y114944D01*
X44365Y114944D01*
X44373Y114937D01*
X44512Y114798D01*
X44519Y114790D01*
X44519Y114790D01*
X44628Y114627D01*
X44633Y114618D01*
X44633Y114618D01*
X44708Y114436D01*
X44711Y114426D01*
X44749Y114233D01*
X44750Y114224D01*
Y114125D01*
Y114027D01*
X44749Y114017D01*
X44711Y113824D01*
X44708Y113814D01*
X44633Y113632D01*
X44633Y113632D01*
X44631Y113629D01*
X44628Y113623D01*
X44628Y113623D01*
X44519Y113460D01*
X44519Y113460D01*
X44512Y113452D01*
X44373Y113313D01*
X44365Y113306D01*
X44365Y113306D01*
X44202Y113197D01*
X44193Y113192D01*
X44193Y113192D01*
X44011Y113117D01*
X44001Y113114D01*
X43808Y113076D01*
X43798Y113075D01*
X43700D01*
X43690Y113076D01*
X43681Y113079D01*
X43672Y113083D01*
X43664Y113089D01*
X43658Y113097D01*
X43654Y113106D01*
X43651Y113115D01*
X43650Y113125D01*
Y115125D01*
X43651Y115135D01*
X43654Y115144D01*
X43658Y115153D01*
X43664Y115161D01*
X43672Y115167D01*
X43681Y115171D01*
X43690Y115174D01*
X43700Y115175D01*
X43798D01*
X43808Y115174D01*
D02*
G37*
G36*
X43310D02*
X43319Y115171D01*
X43328Y115167D01*
X43336Y115161D01*
X43342Y115153D01*
X43346Y115144D01*
X43349Y115135D01*
X43350Y115125D01*
Y113125D01*
X43349Y113115D01*
X43346Y113106D01*
X43342Y113097D01*
X43336Y113089D01*
X43328Y113083D01*
X43319Y113079D01*
X43310Y113076D01*
X43300Y113075D01*
X43202D01*
X43192Y113076D01*
X42999Y113114D01*
X42989Y113117D01*
X42807Y113192D01*
X42807Y113192D01*
X42798Y113197D01*
X42635Y113306D01*
X42635Y113306D01*
X42627Y113313D01*
X42488Y113452D01*
X42481Y113460D01*
X42481Y113460D01*
X42372Y113623D01*
X42372Y113623D01*
X42369Y113629D01*
X42367Y113632D01*
X42367Y113632D01*
X42292Y113814D01*
X42289Y113824D01*
X42251Y114017D01*
X42250Y114027D01*
Y114125D01*
Y114224D01*
X42251Y114233D01*
X42289Y114426D01*
X42292Y114436D01*
X42367Y114618D01*
X42367Y114618D01*
X42372Y114627D01*
X42481Y114790D01*
X42481Y114790D01*
X42488Y114798D01*
X42627Y114937D01*
X42635Y114944D01*
X42635Y114944D01*
X42798Y115053D01*
X42798Y115053D01*
X42804Y115056D01*
X42807Y115058D01*
X42807Y115058D01*
X42989Y115133D01*
X42999Y115136D01*
X43192Y115174D01*
X43202Y115175D01*
X43300D01*
X43310Y115174D01*
D02*
G37*
G36*
X76808Y112949D02*
X77001Y112911D01*
X77011Y112908D01*
X77193Y112833D01*
X77193Y112833D01*
X77202Y112828D01*
X77365Y112719D01*
X77365Y112719D01*
X77373Y112712D01*
X77512Y112573D01*
X77519Y112565D01*
X77519Y112565D01*
X77628Y112402D01*
X77628Y112402D01*
X77631Y112396D01*
X77633Y112393D01*
X77633Y112393D01*
X77708Y112211D01*
X77711Y112201D01*
X77749Y112008D01*
X77750Y111998D01*
Y111900D01*
Y111801D01*
X77749Y111792D01*
X77711Y111599D01*
X77708Y111589D01*
X77633Y111407D01*
X77633Y111407D01*
X77628Y111398D01*
X77519Y111235D01*
X77519Y111235D01*
X77512Y111227D01*
X77373Y111088D01*
X77365Y111081D01*
X77365Y111081D01*
X77202Y110972D01*
X77202Y110972D01*
X77196Y110969D01*
X77193Y110967D01*
X77193Y110967D01*
X77011Y110892D01*
X77001Y110889D01*
X76808Y110851D01*
X76798Y110850D01*
X76700D01*
X76690Y110851D01*
X76681Y110854D01*
X76672Y110858D01*
X76664Y110864D01*
X76658Y110872D01*
X76654Y110881D01*
X76651Y110890D01*
X76650Y110900D01*
Y112900D01*
X76651Y112910D01*
X76654Y112919D01*
X76658Y112928D01*
X76664Y112936D01*
X76672Y112942D01*
X76681Y112946D01*
X76690Y112949D01*
X76700Y112950D01*
X76798D01*
X76808Y112949D01*
D02*
G37*
G36*
X76310D02*
X76319Y112946D01*
X76328Y112942D01*
X76336Y112936D01*
X76342Y112928D01*
X76346Y112919D01*
X76349Y112910D01*
X76350Y112900D01*
Y110900D01*
X76349Y110890D01*
X76346Y110881D01*
X76342Y110872D01*
X76336Y110864D01*
X76328Y110858D01*
X76319Y110854D01*
X76310Y110851D01*
X76300Y110850D01*
X76202D01*
X76192Y110851D01*
X75999Y110889D01*
X75989Y110892D01*
X75807Y110967D01*
X75807Y110967D01*
X75804Y110969D01*
X75798Y110972D01*
X75798Y110972D01*
X75635Y111081D01*
X75635Y111081D01*
X75627Y111088D01*
X75488Y111227D01*
X75481Y111235D01*
X75481Y111235D01*
X75372Y111398D01*
X75367Y111407D01*
X75367Y111407D01*
X75292Y111589D01*
X75289Y111599D01*
X75251Y111792D01*
X75250Y111801D01*
Y111900D01*
Y111998D01*
X75251Y112008D01*
X75289Y112201D01*
X75292Y112211D01*
X75367Y112393D01*
X75367Y112393D01*
X75369Y112396D01*
X75372Y112402D01*
X75372Y112402D01*
X75481Y112565D01*
X75481Y112565D01*
X75488Y112573D01*
X75627Y112712D01*
X75635Y112719D01*
X75635Y112719D01*
X75798Y112828D01*
X75807Y112833D01*
X75807Y112833D01*
X75989Y112908D01*
X75999Y112911D01*
X76192Y112949D01*
X76202Y112950D01*
X76300D01*
X76310Y112949D01*
D02*
G37*
G36*
X64408D02*
X64601Y112911D01*
X64611Y112908D01*
X64793Y112833D01*
X64793Y112833D01*
X64802Y112828D01*
X64965Y112719D01*
X64965Y112719D01*
X64973Y112712D01*
X65112Y112573D01*
X65119Y112565D01*
X65119Y112565D01*
X65228Y112402D01*
X65228Y112402D01*
X65231Y112396D01*
X65233Y112393D01*
X65233Y112393D01*
X65308Y112211D01*
X65311Y112201D01*
X65349Y112008D01*
X65350Y111998D01*
Y111900D01*
Y111801D01*
X65349Y111792D01*
X65311Y111599D01*
X65308Y111589D01*
X65233Y111407D01*
X65233Y111407D01*
X65228Y111398D01*
X65119Y111235D01*
X65119Y111235D01*
X65112Y111227D01*
X64973Y111088D01*
X64965Y111081D01*
X64965Y111081D01*
X64802Y110972D01*
X64802Y110972D01*
X64796Y110969D01*
X64793Y110967D01*
X64793Y110967D01*
X64611Y110892D01*
X64601Y110889D01*
X64408Y110851D01*
X64398Y110850D01*
X64300D01*
X64290Y110851D01*
X64281Y110854D01*
X64272Y110858D01*
X64264Y110864D01*
X64258Y110872D01*
X64254Y110881D01*
X64251Y110890D01*
X64250Y110900D01*
Y112900D01*
X64251Y112910D01*
X64254Y112919D01*
X64258Y112928D01*
X64264Y112936D01*
X64272Y112942D01*
X64281Y112946D01*
X64290Y112949D01*
X64300Y112950D01*
X64398D01*
X64408Y112949D01*
D02*
G37*
G36*
X63910D02*
X63919Y112946D01*
X63928Y112942D01*
X63936Y112936D01*
X63942Y112928D01*
X63946Y112919D01*
X63949Y112910D01*
X63950Y112900D01*
Y110900D01*
X63949Y110890D01*
X63946Y110881D01*
X63942Y110872D01*
X63936Y110864D01*
X63928Y110858D01*
X63919Y110854D01*
X63910Y110851D01*
X63900Y110850D01*
X63802D01*
X63792Y110851D01*
X63599Y110889D01*
X63589Y110892D01*
X63407Y110967D01*
X63407Y110967D01*
X63404Y110969D01*
X63398Y110972D01*
X63398Y110972D01*
X63235Y111081D01*
X63235Y111081D01*
X63227Y111088D01*
X63088Y111227D01*
X63081Y111235D01*
X63081Y111235D01*
X62972Y111398D01*
X62967Y111407D01*
X62967Y111407D01*
X62892Y111589D01*
X62889Y111599D01*
X62851Y111792D01*
X62850Y111801D01*
Y111900D01*
Y111998D01*
X62851Y112008D01*
X62889Y112201D01*
X62892Y112211D01*
X62967Y112393D01*
X62967Y112393D01*
X62969Y112396D01*
X62972Y112402D01*
X62972Y112402D01*
X63081Y112565D01*
X63081Y112565D01*
X63088Y112573D01*
X63227Y112712D01*
X63235Y112719D01*
X63235Y112719D01*
X63398Y112828D01*
X63407Y112833D01*
X63407Y112833D01*
X63589Y112908D01*
X63599Y112911D01*
X63792Y112949D01*
X63802Y112950D01*
X63900D01*
X63910Y112949D01*
D02*
G37*
G36*
X76808Y108974D02*
X77001Y108936D01*
X77011Y108933D01*
X77193Y108858D01*
X77193Y108858D01*
X77202Y108853D01*
X77365Y108744D01*
X77365Y108744D01*
X77373Y108737D01*
X77512Y108598D01*
X77519Y108590D01*
X77519Y108590D01*
X77628Y108427D01*
X77628Y108427D01*
X77631Y108421D01*
X77633Y108418D01*
X77633Y108418D01*
X77708Y108236D01*
X77711Y108226D01*
X77749Y108033D01*
X77750Y108023D01*
Y107925D01*
Y107826D01*
X77749Y107817D01*
X77711Y107623D01*
X77708Y107614D01*
X77633Y107432D01*
X77633Y107432D01*
X77628Y107423D01*
X77519Y107260D01*
X77519Y107260D01*
X77512Y107252D01*
X77373Y107113D01*
X77365Y107106D01*
X77365Y107106D01*
X77202Y106997D01*
X77202Y106997D01*
X77196Y106994D01*
X77193Y106992D01*
X77193Y106992D01*
X77011Y106917D01*
X77001Y106914D01*
X76808Y106876D01*
X76798Y106875D01*
X76700D01*
X76690Y106876D01*
X76681Y106879D01*
X76672Y106883D01*
X76664Y106889D01*
X76658Y106897D01*
X76654Y106906D01*
X76651Y106915D01*
X76650Y106925D01*
Y108925D01*
X76651Y108935D01*
X76654Y108944D01*
X76658Y108953D01*
X76664Y108961D01*
X76672Y108967D01*
X76681Y108971D01*
X76690Y108974D01*
X76700Y108975D01*
X76798D01*
X76808Y108974D01*
D02*
G37*
G36*
X76310D02*
X76319Y108971D01*
X76328Y108967D01*
X76336Y108961D01*
X76342Y108953D01*
X76346Y108944D01*
X76349Y108935D01*
X76350Y108925D01*
Y106925D01*
X76349Y106915D01*
X76346Y106906D01*
X76342Y106897D01*
X76336Y106889D01*
X76328Y106883D01*
X76319Y106879D01*
X76310Y106876D01*
X76300Y106875D01*
X76202D01*
X76192Y106876D01*
X75999Y106914D01*
X75989Y106917D01*
X75807Y106992D01*
X75807Y106992D01*
X75804Y106994D01*
X75798Y106997D01*
X75798Y106997D01*
X75635Y107106D01*
X75635Y107106D01*
X75627Y107113D01*
X75488Y107252D01*
X75481Y107260D01*
X75481Y107260D01*
X75372Y107423D01*
X75367Y107432D01*
X75367Y107432D01*
X75292Y107614D01*
X75289Y107623D01*
X75251Y107817D01*
X75250Y107826D01*
Y107925D01*
Y108023D01*
X75251Y108033D01*
X75289Y108226D01*
X75292Y108236D01*
X75367Y108418D01*
X75367Y108418D01*
X75369Y108421D01*
X75372Y108427D01*
X75372Y108427D01*
X75481Y108590D01*
X75481Y108590D01*
X75488Y108598D01*
X75627Y108737D01*
X75635Y108744D01*
X75635Y108744D01*
X75798Y108853D01*
X75807Y108858D01*
X75807Y108858D01*
X75989Y108933D01*
X75999Y108936D01*
X76192Y108974D01*
X76202Y108975D01*
X76300D01*
X76310Y108974D01*
D02*
G37*
G36*
X88808Y107249D02*
X89001Y107211D01*
X89011Y107208D01*
X89193Y107133D01*
X89193Y107133D01*
X89196Y107131D01*
X89202Y107128D01*
X89202Y107128D01*
X89365Y107019D01*
X89365Y107019D01*
X89373Y107012D01*
X89512Y106873D01*
X89519Y106865D01*
X89519Y106865D01*
X89628Y106702D01*
X89633Y106693D01*
X89633Y106693D01*
X89708Y106511D01*
X89711Y106501D01*
X89749Y106308D01*
X89750Y106298D01*
Y106200D01*
Y106102D01*
X89749Y106092D01*
X89711Y105898D01*
X89708Y105889D01*
X89633Y105707D01*
X89633Y105707D01*
X89631Y105704D01*
X89628Y105698D01*
X89628Y105698D01*
X89519Y105535D01*
X89519Y105535D01*
X89512Y105527D01*
X89373Y105388D01*
X89365Y105381D01*
X89365Y105381D01*
X89202Y105272D01*
X89193Y105267D01*
X89193Y105267D01*
X89011Y105192D01*
X89001Y105189D01*
X88808Y105151D01*
X88798Y105150D01*
X88700D01*
X88690Y105151D01*
X88681Y105154D01*
X88672Y105158D01*
X88664Y105164D01*
X88658Y105172D01*
X88654Y105181D01*
X88651Y105190D01*
X88650Y105200D01*
Y107200D01*
X88651Y107210D01*
X88654Y107219D01*
X88658Y107228D01*
X88664Y107236D01*
X88672Y107242D01*
X88681Y107246D01*
X88690Y107249D01*
X88700Y107250D01*
X88798D01*
X88808Y107249D01*
D02*
G37*
G36*
X88310D02*
X88319Y107246D01*
X88328Y107242D01*
X88336Y107236D01*
X88342Y107228D01*
X88346Y107219D01*
X88349Y107210D01*
X88350Y107200D01*
Y105200D01*
X88349Y105190D01*
X88346Y105181D01*
X88342Y105172D01*
X88336Y105164D01*
X88328Y105158D01*
X88319Y105154D01*
X88310Y105151D01*
X88300Y105150D01*
X88202D01*
X88192Y105151D01*
X87999Y105189D01*
X87989Y105192D01*
X87807Y105267D01*
X87807Y105267D01*
X87798Y105272D01*
X87635Y105381D01*
X87635Y105381D01*
X87627Y105388D01*
X87488Y105527D01*
X87481Y105535D01*
X87481Y105535D01*
X87372Y105698D01*
X87372Y105698D01*
X87369Y105704D01*
X87367Y105707D01*
X87367Y105707D01*
X87292Y105889D01*
X87289Y105898D01*
X87251Y106092D01*
X87250Y106102D01*
Y106200D01*
Y106298D01*
X87251Y106308D01*
X87289Y106501D01*
X87292Y106511D01*
X87367Y106693D01*
X87367Y106693D01*
X87372Y106702D01*
X87481Y106865D01*
X87481Y106865D01*
X87488Y106873D01*
X87627Y107012D01*
X87635Y107019D01*
X87635Y107019D01*
X87798Y107128D01*
X87798Y107128D01*
X87804Y107131D01*
X87807Y107133D01*
X87807Y107133D01*
X87989Y107208D01*
X87999Y107211D01*
X88192Y107249D01*
X88202Y107250D01*
X88300D01*
X88310Y107249D01*
D02*
G37*
G36*
X31808Y94849D02*
X32001Y94811D01*
X32011Y94808D01*
X32193Y94733D01*
X32193Y94733D01*
X32202Y94728D01*
X32365Y94619D01*
X32365Y94619D01*
X32373Y94612D01*
X32512Y94473D01*
X32519Y94465D01*
X32519Y94465D01*
X32628Y94302D01*
X32628Y94302D01*
X32631Y94296D01*
X32633Y94293D01*
X32633Y94293D01*
X32708Y94111D01*
X32711Y94102D01*
X32749Y93908D01*
X32750Y93898D01*
Y93800D01*
Y93702D01*
X32749Y93692D01*
X32711Y93499D01*
X32708Y93489D01*
X32633Y93307D01*
X32633Y93307D01*
X32628Y93298D01*
X32519Y93135D01*
X32519Y93135D01*
X32512Y93127D01*
X32373Y92988D01*
X32365Y92981D01*
X32365Y92981D01*
X32202Y92872D01*
X32202Y92872D01*
X32196Y92869D01*
X32193Y92867D01*
X32193Y92867D01*
X32011Y92792D01*
X32001Y92789D01*
X31808Y92751D01*
X31798Y92750D01*
X31700D01*
X31690Y92751D01*
X31681Y92754D01*
X31672Y92758D01*
X31664Y92764D01*
X31658Y92772D01*
X31654Y92781D01*
X31651Y92790D01*
X31650Y92800D01*
Y94800D01*
X31651Y94810D01*
X31654Y94819D01*
X31658Y94828D01*
X31664Y94836D01*
X31672Y94842D01*
X31681Y94846D01*
X31690Y94849D01*
X31700Y94850D01*
X31798D01*
X31808Y94849D01*
D02*
G37*
G36*
X31310D02*
X31319Y94846D01*
X31328Y94842D01*
X31336Y94836D01*
X31342Y94828D01*
X31346Y94819D01*
X31349Y94810D01*
X31350Y94800D01*
Y92800D01*
X31349Y92790D01*
X31346Y92781D01*
X31342Y92772D01*
X31336Y92764D01*
X31328Y92758D01*
X31319Y92754D01*
X31310Y92751D01*
X31300Y92750D01*
X31202D01*
X31192Y92751D01*
X30999Y92789D01*
X30989Y92792D01*
X30807Y92867D01*
X30807Y92867D01*
X30804Y92869D01*
X30798Y92872D01*
X30798Y92872D01*
X30635Y92981D01*
X30635Y92981D01*
X30627Y92988D01*
X30488Y93127D01*
X30481Y93135D01*
X30481Y93135D01*
X30372Y93298D01*
X30367Y93307D01*
X30367Y93307D01*
X30292Y93489D01*
X30289Y93499D01*
X30251Y93692D01*
X30250Y93702D01*
Y93800D01*
Y93898D01*
X30251Y93908D01*
X30289Y94102D01*
X30292Y94111D01*
X30367Y94293D01*
X30367Y94293D01*
X30369Y94296D01*
X30372Y94302D01*
X30372Y94302D01*
X30481Y94465D01*
X30481Y94465D01*
X30488Y94473D01*
X30627Y94612D01*
X30635Y94619D01*
X30635Y94619D01*
X30798Y94728D01*
X30807Y94733D01*
X30807Y94733D01*
X30989Y94808D01*
X30999Y94811D01*
X31192Y94849D01*
X31202Y94850D01*
X31300D01*
X31310Y94849D01*
D02*
G37*
G36*
X43808Y93124D02*
X44001Y93086D01*
X44011Y93083D01*
X44193Y93008D01*
X44193Y93008D01*
X44196Y93006D01*
X44202Y93003D01*
X44202Y93003D01*
X44365Y92894D01*
X44365Y92894D01*
X44373Y92887D01*
X44512Y92748D01*
X44519Y92740D01*
X44519Y92740D01*
X44628Y92577D01*
X44633Y92568D01*
X44633Y92568D01*
X44708Y92386D01*
X44711Y92377D01*
X44749Y92183D01*
X44750Y92174D01*
Y92075D01*
Y91977D01*
X44749Y91967D01*
X44711Y91774D01*
X44708Y91764D01*
X44633Y91582D01*
X44633Y91582D01*
X44631Y91579D01*
X44628Y91573D01*
X44628Y91573D01*
X44519Y91410D01*
X44519Y91410D01*
X44512Y91402D01*
X44373Y91263D01*
X44365Y91256D01*
X44365Y91256D01*
X44202Y91147D01*
X44193Y91142D01*
X44193Y91142D01*
X44011Y91067D01*
X44001Y91064D01*
X43808Y91026D01*
X43798Y91025D01*
X43700D01*
X43690Y91026D01*
X43681Y91029D01*
X43672Y91033D01*
X43664Y91039D01*
X43658Y91047D01*
X43654Y91056D01*
X43651Y91065D01*
X43650Y91075D01*
Y93075D01*
X43651Y93085D01*
X43654Y93094D01*
X43658Y93103D01*
X43664Y93111D01*
X43672Y93117D01*
X43681Y93121D01*
X43690Y93124D01*
X43700Y93125D01*
X43798D01*
X43808Y93124D01*
D02*
G37*
G36*
X43310D02*
X43319Y93121D01*
X43328Y93117D01*
X43336Y93111D01*
X43342Y93103D01*
X43346Y93094D01*
X43349Y93085D01*
X43350Y93075D01*
Y91075D01*
X43349Y91065D01*
X43346Y91056D01*
X43342Y91047D01*
X43336Y91039D01*
X43328Y91033D01*
X43319Y91029D01*
X43310Y91026D01*
X43300Y91025D01*
X43202D01*
X43192Y91026D01*
X42999Y91064D01*
X42989Y91067D01*
X42807Y91142D01*
X42807Y91142D01*
X42798Y91147D01*
X42635Y91256D01*
X42635Y91256D01*
X42627Y91263D01*
X42488Y91402D01*
X42481Y91410D01*
X42481Y91410D01*
X42372Y91573D01*
X42372Y91573D01*
X42369Y91579D01*
X42367Y91582D01*
X42367Y91582D01*
X42292Y91764D01*
X42289Y91774D01*
X42251Y91967D01*
X42250Y91977D01*
Y92075D01*
Y92174D01*
X42251Y92183D01*
X42289Y92377D01*
X42292Y92386D01*
X42367Y92568D01*
X42367Y92568D01*
X42372Y92577D01*
X42481Y92740D01*
X42481Y92740D01*
X42488Y92748D01*
X42627Y92887D01*
X42635Y92894D01*
X42635Y92894D01*
X42798Y93003D01*
X42798Y93003D01*
X42804Y93006D01*
X42807Y93008D01*
X42807Y93008D01*
X42989Y93083D01*
X42999Y93086D01*
X43192Y93124D01*
X43202Y93125D01*
X43300D01*
X43310Y93124D01*
D02*
G37*
G36*
X56208Y89149D02*
X56401Y89111D01*
X56411Y89108D01*
X56593Y89033D01*
X56593Y89033D01*
X56596Y89031D01*
X56602Y89028D01*
X56602Y89028D01*
X56765Y88919D01*
X56765Y88919D01*
X56773Y88912D01*
X56912Y88773D01*
X56919Y88765D01*
X56919Y88765D01*
X57028Y88602D01*
X57033Y88593D01*
X57033Y88593D01*
X57108Y88411D01*
X57111Y88401D01*
X57149Y88208D01*
X57150Y88199D01*
Y88100D01*
Y88002D01*
X57149Y87992D01*
X57111Y87799D01*
X57108Y87789D01*
X57033Y87607D01*
X57033Y87607D01*
X57031Y87604D01*
X57028Y87598D01*
X57028Y87598D01*
X56919Y87435D01*
X56919Y87435D01*
X56912Y87427D01*
X56773Y87288D01*
X56765Y87281D01*
X56765Y87281D01*
X56602Y87172D01*
X56593Y87167D01*
X56593Y87167D01*
X56411Y87092D01*
X56401Y87089D01*
X56208Y87051D01*
X56198Y87050D01*
X56100D01*
X56090Y87051D01*
X56081Y87054D01*
X56072Y87058D01*
X56064Y87064D01*
X56058Y87072D01*
X56054Y87081D01*
X56051Y87090D01*
X56050Y87100D01*
Y89100D01*
X56051Y89110D01*
X56054Y89119D01*
X56058Y89128D01*
X56064Y89136D01*
X56072Y89142D01*
X56081Y89146D01*
X56090Y89149D01*
X56100Y89150D01*
X56198D01*
X56208Y89149D01*
D02*
G37*
G36*
X55710D02*
X55719Y89146D01*
X55728Y89142D01*
X55736Y89136D01*
X55742Y89128D01*
X55746Y89119D01*
X55749Y89110D01*
X55750Y89100D01*
Y87100D01*
X55749Y87090D01*
X55746Y87081D01*
X55742Y87072D01*
X55736Y87064D01*
X55728Y87058D01*
X55719Y87054D01*
X55710Y87051D01*
X55700Y87050D01*
X55602D01*
X55592Y87051D01*
X55399Y87089D01*
X55389Y87092D01*
X55207Y87167D01*
X55207Y87167D01*
X55198Y87172D01*
X55035Y87281D01*
X55035Y87281D01*
X55027Y87288D01*
X54888Y87427D01*
X54881Y87435D01*
X54881Y87435D01*
X54772Y87598D01*
X54772Y87598D01*
X54769Y87604D01*
X54767Y87607D01*
X54767Y87607D01*
X54692Y87789D01*
X54689Y87799D01*
X54651Y87992D01*
X54650Y88002D01*
Y88100D01*
Y88199D01*
X54651Y88208D01*
X54689Y88401D01*
X54692Y88411D01*
X54767Y88593D01*
X54767Y88593D01*
X54772Y88602D01*
X54881Y88765D01*
X54881Y88765D01*
X54888Y88773D01*
X55027Y88912D01*
X55035Y88919D01*
X55035Y88919D01*
X55198Y89028D01*
X55198Y89028D01*
X55204Y89031D01*
X55207Y89033D01*
X55207Y89033D01*
X55389Y89108D01*
X55399Y89111D01*
X55592Y89149D01*
X55602Y89150D01*
X55700D01*
X55710Y89149D01*
D02*
G37*
G36*
X43808D02*
X44001Y89111D01*
X44011Y89108D01*
X44193Y89033D01*
X44193Y89033D01*
X44196Y89031D01*
X44202Y89028D01*
X44202Y89028D01*
X44365Y88919D01*
X44365Y88919D01*
X44373Y88912D01*
X44512Y88773D01*
X44519Y88765D01*
X44519Y88765D01*
X44628Y88602D01*
X44633Y88593D01*
X44633Y88593D01*
X44708Y88411D01*
X44711Y88401D01*
X44749Y88208D01*
X44750Y88199D01*
Y88100D01*
Y88002D01*
X44749Y87992D01*
X44711Y87799D01*
X44708Y87789D01*
X44633Y87607D01*
X44633Y87607D01*
X44631Y87604D01*
X44628Y87598D01*
X44628Y87598D01*
X44519Y87435D01*
X44519Y87435D01*
X44512Y87427D01*
X44373Y87288D01*
X44365Y87281D01*
X44365Y87281D01*
X44202Y87172D01*
X44193Y87167D01*
X44193Y87167D01*
X44011Y87092D01*
X44001Y87089D01*
X43808Y87051D01*
X43798Y87050D01*
X43700D01*
X43690Y87051D01*
X43681Y87054D01*
X43672Y87058D01*
X43664Y87064D01*
X43658Y87072D01*
X43654Y87081D01*
X43651Y87090D01*
X43650Y87100D01*
Y89100D01*
X43651Y89110D01*
X43654Y89119D01*
X43658Y89128D01*
X43664Y89136D01*
X43672Y89142D01*
X43681Y89146D01*
X43690Y89149D01*
X43700Y89150D01*
X43798D01*
X43808Y89149D01*
D02*
G37*
G36*
X43310D02*
X43319Y89146D01*
X43328Y89142D01*
X43336Y89136D01*
X43342Y89128D01*
X43346Y89119D01*
X43349Y89110D01*
X43350Y89100D01*
Y87100D01*
X43349Y87090D01*
X43346Y87081D01*
X43342Y87072D01*
X43336Y87064D01*
X43328Y87058D01*
X43319Y87054D01*
X43310Y87051D01*
X43300Y87050D01*
X43202D01*
X43192Y87051D01*
X42999Y87089D01*
X42989Y87092D01*
X42807Y87167D01*
X42807Y87167D01*
X42798Y87172D01*
X42635Y87281D01*
X42635Y87281D01*
X42627Y87288D01*
X42488Y87427D01*
X42481Y87435D01*
X42481Y87435D01*
X42372Y87598D01*
X42372Y87598D01*
X42369Y87604D01*
X42367Y87607D01*
X42367Y87607D01*
X42292Y87789D01*
X42289Y87799D01*
X42251Y87992D01*
X42250Y88002D01*
Y88100D01*
Y88199D01*
X42251Y88208D01*
X42289Y88401D01*
X42292Y88411D01*
X42367Y88593D01*
X42367Y88593D01*
X42372Y88602D01*
X42481Y88765D01*
X42481Y88765D01*
X42488Y88773D01*
X42627Y88912D01*
X42635Y88919D01*
X42635Y88919D01*
X42798Y89028D01*
X42798Y89028D01*
X42804Y89031D01*
X42807Y89033D01*
X42807Y89033D01*
X42989Y89108D01*
X42999Y89111D01*
X43192Y89149D01*
X43202Y89150D01*
X43300D01*
X43310Y89149D01*
D02*
G37*
G36*
X76808Y86924D02*
X77001Y86886D01*
X77011Y86883D01*
X77193Y86808D01*
X77193Y86808D01*
X77202Y86803D01*
X77365Y86694D01*
X77365Y86694D01*
X77373Y86687D01*
X77512Y86548D01*
X77519Y86540D01*
X77519Y86540D01*
X77628Y86377D01*
X77628Y86377D01*
X77631Y86371D01*
X77633Y86368D01*
X77633Y86368D01*
X77708Y86186D01*
X77711Y86176D01*
X77749Y85983D01*
X77750Y85973D01*
Y85875D01*
Y85776D01*
X77749Y85767D01*
X77711Y85574D01*
X77708Y85564D01*
X77633Y85382D01*
X77633Y85382D01*
X77628Y85373D01*
X77519Y85210D01*
X77519Y85210D01*
X77512Y85202D01*
X77373Y85063D01*
X77365Y85056D01*
X77365Y85056D01*
X77202Y84947D01*
X77202Y84947D01*
X77196Y84944D01*
X77193Y84942D01*
X77193Y84942D01*
X77011Y84867D01*
X77001Y84864D01*
X76808Y84826D01*
X76798Y84825D01*
X76700D01*
X76690Y84826D01*
X76681Y84829D01*
X76672Y84833D01*
X76664Y84839D01*
X76658Y84847D01*
X76654Y84856D01*
X76651Y84865D01*
X76650Y84875D01*
Y86875D01*
X76651Y86885D01*
X76654Y86894D01*
X76658Y86903D01*
X76664Y86911D01*
X76672Y86917D01*
X76681Y86921D01*
X76690Y86924D01*
X76700Y86925D01*
X76798D01*
X76808Y86924D01*
D02*
G37*
G36*
X76310D02*
X76319Y86921D01*
X76328Y86917D01*
X76336Y86911D01*
X76342Y86903D01*
X76346Y86894D01*
X76349Y86885D01*
X76350Y86875D01*
Y84875D01*
X76349Y84865D01*
X76346Y84856D01*
X76342Y84847D01*
X76336Y84839D01*
X76328Y84833D01*
X76319Y84829D01*
X76310Y84826D01*
X76300Y84825D01*
X76202D01*
X76192Y84826D01*
X75999Y84864D01*
X75989Y84867D01*
X75807Y84942D01*
X75807Y84942D01*
X75804Y84944D01*
X75798Y84947D01*
X75798Y84947D01*
X75635Y85056D01*
X75635Y85056D01*
X75627Y85063D01*
X75488Y85202D01*
X75481Y85210D01*
X75481Y85210D01*
X75372Y85373D01*
X75367Y85382D01*
X75367Y85382D01*
X75292Y85564D01*
X75289Y85574D01*
X75251Y85767D01*
X75250Y85776D01*
Y85875D01*
Y85973D01*
X75251Y85983D01*
X75289Y86176D01*
X75292Y86186D01*
X75367Y86368D01*
X75367Y86368D01*
X75369Y86371D01*
X75372Y86377D01*
X75372Y86377D01*
X75481Y86540D01*
X75481Y86540D01*
X75488Y86548D01*
X75627Y86687D01*
X75635Y86694D01*
X75635Y86694D01*
X75798Y86803D01*
X75807Y86808D01*
X75807Y86808D01*
X75989Y86883D01*
X75999Y86886D01*
X76192Y86924D01*
X76202Y86925D01*
X76300D01*
X76310Y86924D01*
D02*
G37*
G36*
X64408D02*
X64601Y86886D01*
X64611Y86883D01*
X64793Y86808D01*
X64793Y86808D01*
X64802Y86803D01*
X64965Y86694D01*
X64965Y86694D01*
X64973Y86687D01*
X65112Y86548D01*
X65119Y86540D01*
X65119Y86540D01*
X65228Y86377D01*
X65228Y86377D01*
X65231Y86371D01*
X65233Y86368D01*
X65233Y86368D01*
X65308Y86186D01*
X65311Y86176D01*
X65349Y85983D01*
X65350Y85973D01*
Y85875D01*
Y85776D01*
X65349Y85767D01*
X65311Y85574D01*
X65308Y85564D01*
X65233Y85382D01*
X65233Y85382D01*
X65228Y85373D01*
X65119Y85210D01*
X65119Y85210D01*
X65112Y85202D01*
X64973Y85063D01*
X64965Y85056D01*
X64965Y85056D01*
X64802Y84947D01*
X64802Y84947D01*
X64796Y84944D01*
X64793Y84942D01*
X64793Y84942D01*
X64611Y84867D01*
X64601Y84864D01*
X64408Y84826D01*
X64398Y84825D01*
X64300D01*
X64290Y84826D01*
X64281Y84829D01*
X64272Y84833D01*
X64264Y84839D01*
X64258Y84847D01*
X64254Y84856D01*
X64251Y84865D01*
X64250Y84875D01*
Y86875D01*
X64251Y86885D01*
X64254Y86894D01*
X64258Y86903D01*
X64264Y86911D01*
X64272Y86917D01*
X64281Y86921D01*
X64290Y86924D01*
X64300Y86925D01*
X64398D01*
X64408Y86924D01*
D02*
G37*
G36*
X63910D02*
X63919Y86921D01*
X63928Y86917D01*
X63936Y86911D01*
X63942Y86903D01*
X63946Y86894D01*
X63949Y86885D01*
X63950Y86875D01*
Y84875D01*
X63949Y84865D01*
X63946Y84856D01*
X63942Y84847D01*
X63936Y84839D01*
X63928Y84833D01*
X63919Y84829D01*
X63910Y84826D01*
X63900Y84825D01*
X63802D01*
X63792Y84826D01*
X63599Y84864D01*
X63589Y84867D01*
X63407Y84942D01*
X63407Y84942D01*
X63404Y84944D01*
X63398Y84947D01*
X63398Y84947D01*
X63235Y85056D01*
X63235Y85056D01*
X63227Y85063D01*
X63088Y85202D01*
X63081Y85210D01*
X63081Y85210D01*
X62972Y85373D01*
X62967Y85382D01*
X62967Y85382D01*
X62892Y85564D01*
X62889Y85574D01*
X62851Y85767D01*
X62850Y85776D01*
Y85875D01*
Y85973D01*
X62851Y85983D01*
X62889Y86176D01*
X62892Y86186D01*
X62967Y86368D01*
X62967Y86368D01*
X62969Y86371D01*
X62972Y86377D01*
X62972Y86377D01*
X63081Y86540D01*
X63081Y86540D01*
X63088Y86548D01*
X63227Y86687D01*
X63235Y86694D01*
X63235Y86694D01*
X63398Y86803D01*
X63407Y86808D01*
X63407Y86808D01*
X63589Y86883D01*
X63599Y86886D01*
X63792Y86924D01*
X63802Y86925D01*
X63900D01*
X63910Y86924D01*
D02*
G37*
G36*
X56208Y85174D02*
X56401Y85136D01*
X56411Y85133D01*
X56593Y85058D01*
X56593Y85058D01*
X56596Y85056D01*
X56602Y85053D01*
X56602Y85053D01*
X56765Y84944D01*
X56765Y84944D01*
X56773Y84937D01*
X56912Y84798D01*
X56919Y84790D01*
X56919Y84790D01*
X57028Y84627D01*
X57033Y84618D01*
X57033Y84618D01*
X57108Y84436D01*
X57111Y84426D01*
X57149Y84233D01*
X57150Y84224D01*
Y84125D01*
Y84027D01*
X57149Y84017D01*
X57111Y83824D01*
X57108Y83814D01*
X57033Y83632D01*
X57033Y83632D01*
X57031Y83629D01*
X57028Y83623D01*
X57028Y83623D01*
X56919Y83460D01*
X56919Y83460D01*
X56912Y83452D01*
X56773Y83313D01*
X56765Y83306D01*
X56765Y83306D01*
X56602Y83197D01*
X56593Y83192D01*
X56593Y83192D01*
X56411Y83117D01*
X56401Y83114D01*
X56208Y83076D01*
X56198Y83075D01*
X56100D01*
X56090Y83076D01*
X56081Y83079D01*
X56072Y83083D01*
X56064Y83089D01*
X56058Y83097D01*
X56054Y83106D01*
X56051Y83115D01*
X56050Y83125D01*
Y85125D01*
X56051Y85135D01*
X56054Y85144D01*
X56058Y85153D01*
X56064Y85161D01*
X56072Y85167D01*
X56081Y85171D01*
X56090Y85174D01*
X56100Y85175D01*
X56198D01*
X56208Y85174D01*
D02*
G37*
G36*
X55710D02*
X55719Y85171D01*
X55728Y85167D01*
X55736Y85161D01*
X55742Y85153D01*
X55746Y85144D01*
X55749Y85135D01*
X55750Y85125D01*
Y83125D01*
X55749Y83115D01*
X55746Y83106D01*
X55742Y83097D01*
X55736Y83089D01*
X55728Y83083D01*
X55719Y83079D01*
X55710Y83076D01*
X55700Y83075D01*
X55602D01*
X55592Y83076D01*
X55399Y83114D01*
X55389Y83117D01*
X55207Y83192D01*
X55207Y83192D01*
X55198Y83197D01*
X55035Y83306D01*
X55035Y83306D01*
X55027Y83313D01*
X54888Y83452D01*
X54881Y83460D01*
X54881Y83460D01*
X54772Y83623D01*
X54772Y83623D01*
X54769Y83629D01*
X54767Y83632D01*
X54767Y83632D01*
X54692Y83814D01*
X54689Y83824D01*
X54651Y84017D01*
X54650Y84027D01*
Y84125D01*
Y84224D01*
X54651Y84233D01*
X54689Y84426D01*
X54692Y84436D01*
X54767Y84618D01*
X54767Y84618D01*
X54772Y84627D01*
X54881Y84790D01*
X54881Y84790D01*
X54888Y84798D01*
X55027Y84937D01*
X55035Y84944D01*
X55035Y84944D01*
X55198Y85053D01*
X55198Y85053D01*
X55204Y85056D01*
X55207Y85058D01*
X55207Y85058D01*
X55389Y85133D01*
X55399Y85136D01*
X55592Y85174D01*
X55602Y85175D01*
X55700D01*
X55710Y85174D01*
D02*
G37*
G36*
X43808D02*
X44001Y85136D01*
X44011Y85133D01*
X44193Y85058D01*
X44193Y85058D01*
X44196Y85056D01*
X44202Y85053D01*
X44202Y85053D01*
X44365Y84944D01*
X44365Y84944D01*
X44373Y84937D01*
X44512Y84798D01*
X44519Y84790D01*
X44519Y84790D01*
X44628Y84627D01*
X44633Y84618D01*
X44633Y84618D01*
X44708Y84436D01*
X44711Y84426D01*
X44749Y84233D01*
X44750Y84224D01*
Y84125D01*
Y84027D01*
X44749Y84017D01*
X44711Y83824D01*
X44708Y83814D01*
X44633Y83632D01*
X44633Y83632D01*
X44631Y83629D01*
X44628Y83623D01*
X44628Y83623D01*
X44519Y83460D01*
X44519Y83460D01*
X44512Y83452D01*
X44373Y83313D01*
X44365Y83306D01*
X44365Y83306D01*
X44202Y83197D01*
X44193Y83192D01*
X44193Y83192D01*
X44011Y83117D01*
X44001Y83114D01*
X43808Y83076D01*
X43798Y83075D01*
X43700D01*
X43690Y83076D01*
X43681Y83079D01*
X43672Y83083D01*
X43664Y83089D01*
X43658Y83097D01*
X43654Y83106D01*
X43651Y83115D01*
X43650Y83125D01*
Y85125D01*
X43651Y85135D01*
X43654Y85144D01*
X43658Y85153D01*
X43664Y85161D01*
X43672Y85167D01*
X43681Y85171D01*
X43690Y85174D01*
X43700Y85175D01*
X43798D01*
X43808Y85174D01*
D02*
G37*
G36*
X43310D02*
X43319Y85171D01*
X43328Y85167D01*
X43336Y85161D01*
X43342Y85153D01*
X43346Y85144D01*
X43349Y85135D01*
X43350Y85125D01*
Y83125D01*
X43349Y83115D01*
X43346Y83106D01*
X43342Y83097D01*
X43336Y83089D01*
X43328Y83083D01*
X43319Y83079D01*
X43310Y83076D01*
X43300Y83075D01*
X43202D01*
X43192Y83076D01*
X42999Y83114D01*
X42989Y83117D01*
X42807Y83192D01*
X42807Y83192D01*
X42798Y83197D01*
X42635Y83306D01*
X42635Y83306D01*
X42627Y83313D01*
X42488Y83452D01*
X42481Y83460D01*
X42481Y83460D01*
X42372Y83623D01*
X42372Y83623D01*
X42369Y83629D01*
X42367Y83632D01*
X42367Y83632D01*
X42292Y83814D01*
X42289Y83824D01*
X42251Y84017D01*
X42250Y84027D01*
Y84125D01*
Y84224D01*
X42251Y84233D01*
X42289Y84426D01*
X42292Y84436D01*
X42367Y84618D01*
X42367Y84618D01*
X42372Y84627D01*
X42481Y84790D01*
X42481Y84790D01*
X42488Y84798D01*
X42627Y84937D01*
X42635Y84944D01*
X42635Y84944D01*
X42798Y85053D01*
X42798Y85053D01*
X42804Y85056D01*
X42807Y85058D01*
X42807Y85058D01*
X42989Y85133D01*
X42999Y85136D01*
X43192Y85174D01*
X43202Y85175D01*
X43300D01*
X43310Y85174D01*
D02*
G37*
G36*
X76808Y82949D02*
X77001Y82911D01*
X77011Y82908D01*
X77193Y82833D01*
X77193Y82833D01*
X77202Y82828D01*
X77365Y82719D01*
X77365Y82719D01*
X77373Y82712D01*
X77512Y82573D01*
X77519Y82565D01*
X77519Y82565D01*
X77628Y82402D01*
X77628Y82402D01*
X77631Y82396D01*
X77633Y82393D01*
X77633Y82393D01*
X77708Y82211D01*
X77711Y82201D01*
X77749Y82008D01*
X77750Y81998D01*
Y81900D01*
Y81801D01*
X77749Y81792D01*
X77711Y81599D01*
X77708Y81589D01*
X77633Y81407D01*
X77633Y81407D01*
X77628Y81398D01*
X77519Y81235D01*
X77519Y81235D01*
X77512Y81227D01*
X77373Y81088D01*
X77365Y81081D01*
X77365Y81081D01*
X77202Y80972D01*
X77202Y80972D01*
X77196Y80969D01*
X77193Y80967D01*
X77193Y80967D01*
X77011Y80892D01*
X77001Y80889D01*
X76808Y80851D01*
X76798Y80850D01*
X76700D01*
X76690Y80851D01*
X76681Y80854D01*
X76672Y80858D01*
X76664Y80864D01*
X76658Y80872D01*
X76654Y80881D01*
X76651Y80890D01*
X76650Y80900D01*
Y82900D01*
X76651Y82910D01*
X76654Y82919D01*
X76658Y82928D01*
X76664Y82936D01*
X76672Y82942D01*
X76681Y82946D01*
X76690Y82949D01*
X76700Y82950D01*
X76798D01*
X76808Y82949D01*
D02*
G37*
G36*
X76310D02*
X76319Y82946D01*
X76328Y82942D01*
X76336Y82936D01*
X76342Y82928D01*
X76346Y82919D01*
X76349Y82910D01*
X76350Y82900D01*
Y80900D01*
X76349Y80890D01*
X76346Y80881D01*
X76342Y80872D01*
X76336Y80864D01*
X76328Y80858D01*
X76319Y80854D01*
X76310Y80851D01*
X76300Y80850D01*
X76202D01*
X76192Y80851D01*
X75999Y80889D01*
X75989Y80892D01*
X75807Y80967D01*
X75807Y80967D01*
X75804Y80969D01*
X75798Y80972D01*
X75798Y80972D01*
X75635Y81081D01*
X75635Y81081D01*
X75627Y81088D01*
X75488Y81227D01*
X75481Y81235D01*
X75481Y81235D01*
X75372Y81398D01*
X75367Y81407D01*
X75367Y81407D01*
X75292Y81589D01*
X75289Y81599D01*
X75251Y81792D01*
X75250Y81801D01*
Y81900D01*
Y81998D01*
X75251Y82008D01*
X75289Y82201D01*
X75292Y82211D01*
X75367Y82393D01*
X75367Y82393D01*
X75369Y82396D01*
X75372Y82402D01*
X75372Y82402D01*
X75481Y82565D01*
X75481Y82565D01*
X75488Y82573D01*
X75627Y82712D01*
X75635Y82719D01*
X75635Y82719D01*
X75798Y82828D01*
X75807Y82833D01*
X75807Y82833D01*
X75989Y82908D01*
X75999Y82911D01*
X76192Y82949D01*
X76202Y82950D01*
X76300D01*
X76310Y82949D01*
D02*
G37*
G36*
X64408D02*
X64601Y82911D01*
X64611Y82908D01*
X64793Y82833D01*
X64793Y82833D01*
X64802Y82828D01*
X64965Y82719D01*
X64965Y82719D01*
X64973Y82712D01*
X65112Y82573D01*
X65119Y82565D01*
X65119Y82565D01*
X65228Y82402D01*
X65228Y82402D01*
X65231Y82396D01*
X65233Y82393D01*
X65233Y82393D01*
X65308Y82211D01*
X65311Y82201D01*
X65349Y82008D01*
X65350Y81998D01*
Y81900D01*
Y81801D01*
X65349Y81792D01*
X65311Y81599D01*
X65308Y81589D01*
X65233Y81407D01*
X65233Y81407D01*
X65228Y81398D01*
X65119Y81235D01*
X65119Y81235D01*
X65112Y81227D01*
X64973Y81088D01*
X64965Y81081D01*
X64965Y81081D01*
X64802Y80972D01*
X64802Y80972D01*
X64796Y80969D01*
X64793Y80967D01*
X64793Y80967D01*
X64611Y80892D01*
X64601Y80889D01*
X64408Y80851D01*
X64398Y80850D01*
X64300D01*
X64290Y80851D01*
X64281Y80854D01*
X64272Y80858D01*
X64264Y80864D01*
X64258Y80872D01*
X64254Y80881D01*
X64251Y80890D01*
X64250Y80900D01*
Y82900D01*
X64251Y82910D01*
X64254Y82919D01*
X64258Y82928D01*
X64264Y82936D01*
X64272Y82942D01*
X64281Y82946D01*
X64290Y82949D01*
X64300Y82950D01*
X64398D01*
X64408Y82949D01*
D02*
G37*
G36*
X63910D02*
X63919Y82946D01*
X63928Y82942D01*
X63936Y82936D01*
X63942Y82928D01*
X63946Y82919D01*
X63949Y82910D01*
X63950Y82900D01*
Y80900D01*
X63949Y80890D01*
X63946Y80881D01*
X63942Y80872D01*
X63936Y80864D01*
X63928Y80858D01*
X63919Y80854D01*
X63910Y80851D01*
X63900Y80850D01*
X63802D01*
X63792Y80851D01*
X63599Y80889D01*
X63589Y80892D01*
X63407Y80967D01*
X63407Y80967D01*
X63404Y80969D01*
X63398Y80972D01*
X63398Y80972D01*
X63235Y81081D01*
X63235Y81081D01*
X63227Y81088D01*
X63088Y81227D01*
X63081Y81235D01*
X63081Y81235D01*
X62972Y81398D01*
X62967Y81407D01*
X62967Y81407D01*
X62892Y81589D01*
X62889Y81599D01*
X62851Y81792D01*
X62850Y81801D01*
Y81900D01*
Y81998D01*
X62851Y82008D01*
X62889Y82201D01*
X62892Y82211D01*
X62967Y82393D01*
X62967Y82393D01*
X62969Y82396D01*
X62972Y82402D01*
X62972Y82402D01*
X63081Y82565D01*
X63081Y82565D01*
X63088Y82573D01*
X63227Y82712D01*
X63235Y82719D01*
X63235Y82719D01*
X63398Y82828D01*
X63407Y82833D01*
X63407Y82833D01*
X63589Y82908D01*
X63599Y82911D01*
X63792Y82949D01*
X63802Y82950D01*
X63900D01*
X63910Y82949D01*
D02*
G37*
G36*
X76808Y78974D02*
X77001Y78936D01*
X77011Y78933D01*
X77193Y78858D01*
X77193Y78858D01*
X77202Y78853D01*
X77365Y78744D01*
X77365Y78744D01*
X77373Y78737D01*
X77512Y78598D01*
X77519Y78590D01*
X77519Y78590D01*
X77628Y78427D01*
X77628Y78427D01*
X77631Y78421D01*
X77633Y78418D01*
X77633Y78418D01*
X77708Y78236D01*
X77711Y78226D01*
X77749Y78033D01*
X77750Y78023D01*
Y77925D01*
Y77826D01*
X77749Y77817D01*
X77711Y77623D01*
X77708Y77614D01*
X77633Y77432D01*
X77633Y77432D01*
X77628Y77423D01*
X77519Y77260D01*
X77519Y77260D01*
X77512Y77252D01*
X77373Y77113D01*
X77365Y77106D01*
X77365Y77106D01*
X77202Y76997D01*
X77202Y76997D01*
X77196Y76994D01*
X77193Y76992D01*
X77193Y76992D01*
X77011Y76917D01*
X77001Y76914D01*
X76808Y76876D01*
X76798Y76875D01*
X76700D01*
X76690Y76876D01*
X76681Y76879D01*
X76672Y76883D01*
X76664Y76889D01*
X76658Y76897D01*
X76654Y76906D01*
X76651Y76915D01*
X76650Y76925D01*
Y78925D01*
X76651Y78935D01*
X76654Y78944D01*
X76658Y78953D01*
X76664Y78961D01*
X76672Y78967D01*
X76681Y78971D01*
X76690Y78974D01*
X76700Y78975D01*
X76798D01*
X76808Y78974D01*
D02*
G37*
G36*
X76310D02*
X76319Y78971D01*
X76328Y78967D01*
X76336Y78961D01*
X76342Y78953D01*
X76346Y78944D01*
X76349Y78935D01*
X76350Y78925D01*
Y76925D01*
X76349Y76915D01*
X76346Y76906D01*
X76342Y76897D01*
X76336Y76889D01*
X76328Y76883D01*
X76319Y76879D01*
X76310Y76876D01*
X76300Y76875D01*
X76202D01*
X76192Y76876D01*
X75999Y76914D01*
X75989Y76917D01*
X75807Y76992D01*
X75807Y76992D01*
X75804Y76994D01*
X75798Y76997D01*
X75798Y76997D01*
X75635Y77106D01*
X75635Y77106D01*
X75627Y77113D01*
X75488Y77252D01*
X75481Y77260D01*
X75481Y77260D01*
X75372Y77423D01*
X75367Y77432D01*
X75367Y77432D01*
X75292Y77614D01*
X75289Y77623D01*
X75251Y77817D01*
X75250Y77826D01*
Y77925D01*
Y78023D01*
X75251Y78033D01*
X75289Y78226D01*
X75292Y78236D01*
X75367Y78418D01*
X75367Y78418D01*
X75369Y78421D01*
X75372Y78427D01*
X75372Y78427D01*
X75481Y78590D01*
X75481Y78590D01*
X75488Y78598D01*
X75627Y78737D01*
X75635Y78744D01*
X75635Y78744D01*
X75798Y78853D01*
X75807Y78858D01*
X75807Y78858D01*
X75989Y78933D01*
X75999Y78936D01*
X76192Y78974D01*
X76202Y78975D01*
X76300D01*
X76310Y78974D01*
D02*
G37*
G36*
X88808Y77249D02*
X89001Y77211D01*
X89011Y77208D01*
X89193Y77133D01*
X89193Y77133D01*
X89196Y77131D01*
X89202Y77128D01*
X89202Y77128D01*
X89365Y77019D01*
X89365Y77019D01*
X89373Y77012D01*
X89512Y76873D01*
X89519Y76865D01*
X89519Y76865D01*
X89628Y76702D01*
X89633Y76693D01*
X89633Y76693D01*
X89708Y76511D01*
X89711Y76501D01*
X89749Y76308D01*
X89750Y76298D01*
Y76200D01*
Y76102D01*
X89749Y76092D01*
X89711Y75898D01*
X89708Y75889D01*
X89633Y75707D01*
X89633Y75707D01*
X89631Y75704D01*
X89628Y75698D01*
X89628Y75698D01*
X89519Y75535D01*
X89519Y75535D01*
X89512Y75527D01*
X89373Y75388D01*
X89365Y75381D01*
X89365Y75381D01*
X89202Y75272D01*
X89193Y75267D01*
X89193Y75267D01*
X89011Y75192D01*
X89001Y75189D01*
X88808Y75151D01*
X88798Y75150D01*
X88700D01*
X88690Y75151D01*
X88681Y75154D01*
X88672Y75158D01*
X88664Y75164D01*
X88658Y75172D01*
X88654Y75181D01*
X88651Y75190D01*
X88650Y75200D01*
Y77200D01*
X88651Y77210D01*
X88654Y77219D01*
X88658Y77228D01*
X88664Y77236D01*
X88672Y77242D01*
X88681Y77246D01*
X88690Y77249D01*
X88700Y77250D01*
X88798D01*
X88808Y77249D01*
D02*
G37*
G36*
X88310D02*
X88319Y77246D01*
X88328Y77242D01*
X88336Y77236D01*
X88342Y77228D01*
X88346Y77219D01*
X88349Y77210D01*
X88350Y77200D01*
Y75200D01*
X88349Y75190D01*
X88346Y75181D01*
X88342Y75172D01*
X88336Y75164D01*
X88328Y75158D01*
X88319Y75154D01*
X88310Y75151D01*
X88300Y75150D01*
X88202D01*
X88192Y75151D01*
X87999Y75189D01*
X87989Y75192D01*
X87807Y75267D01*
X87807Y75267D01*
X87798Y75272D01*
X87635Y75381D01*
X87635Y75381D01*
X87627Y75388D01*
X87488Y75527D01*
X87481Y75535D01*
X87481Y75535D01*
X87372Y75698D01*
X87372Y75698D01*
X87369Y75704D01*
X87367Y75707D01*
X87367Y75707D01*
X87292Y75889D01*
X87289Y75898D01*
X87251Y76092D01*
X87250Y76102D01*
Y76200D01*
Y76298D01*
X87251Y76308D01*
X87289Y76501D01*
X87292Y76511D01*
X87367Y76693D01*
X87367Y76693D01*
X87372Y76702D01*
X87481Y76865D01*
X87481Y76865D01*
X87488Y76873D01*
X87627Y77012D01*
X87635Y77019D01*
X87635Y77019D01*
X87798Y77128D01*
X87798Y77128D01*
X87804Y77131D01*
X87807Y77133D01*
X87807Y77133D01*
X87989Y77208D01*
X87999Y77211D01*
X88192Y77249D01*
X88202Y77250D01*
X88300D01*
X88310Y77249D01*
D02*
G37*
G36*
X31808Y64849D02*
X32001Y64811D01*
X32011Y64808D01*
X32193Y64733D01*
X32193Y64733D01*
X32202Y64728D01*
X32365Y64619D01*
X32365Y64619D01*
X32373Y64612D01*
X32512Y64473D01*
X32519Y64465D01*
X32519Y64465D01*
X32628Y64302D01*
X32628Y64302D01*
X32631Y64296D01*
X32633Y64293D01*
X32633Y64293D01*
X32708Y64111D01*
X32711Y64102D01*
X32749Y63908D01*
X32750Y63898D01*
Y63800D01*
Y63702D01*
X32749Y63692D01*
X32711Y63499D01*
X32708Y63489D01*
X32633Y63307D01*
X32633Y63307D01*
X32628Y63298D01*
X32519Y63135D01*
X32519Y63135D01*
X32512Y63127D01*
X32373Y62988D01*
X32365Y62981D01*
X32365Y62981D01*
X32202Y62872D01*
X32202Y62872D01*
X32196Y62869D01*
X32193Y62867D01*
X32193Y62867D01*
X32011Y62792D01*
X32001Y62789D01*
X31808Y62751D01*
X31798Y62750D01*
X31700D01*
X31690Y62751D01*
X31681Y62754D01*
X31672Y62758D01*
X31664Y62764D01*
X31658Y62772D01*
X31654Y62781D01*
X31651Y62790D01*
X31650Y62800D01*
Y64800D01*
X31651Y64810D01*
X31654Y64819D01*
X31658Y64828D01*
X31664Y64836D01*
X31672Y64842D01*
X31681Y64846D01*
X31690Y64849D01*
X31700Y64850D01*
X31798D01*
X31808Y64849D01*
D02*
G37*
G36*
X31310D02*
X31319Y64846D01*
X31328Y64842D01*
X31336Y64836D01*
X31342Y64828D01*
X31346Y64819D01*
X31349Y64810D01*
X31350Y64800D01*
Y62800D01*
X31349Y62790D01*
X31346Y62781D01*
X31342Y62772D01*
X31336Y62764D01*
X31328Y62758D01*
X31319Y62754D01*
X31310Y62751D01*
X31300Y62750D01*
X31202D01*
X31192Y62751D01*
X30999Y62789D01*
X30989Y62792D01*
X30807Y62867D01*
X30807Y62867D01*
X30804Y62869D01*
X30798Y62872D01*
X30798Y62872D01*
X30635Y62981D01*
X30635Y62981D01*
X30627Y62988D01*
X30488Y63127D01*
X30481Y63135D01*
X30481Y63135D01*
X30372Y63298D01*
X30367Y63307D01*
X30367Y63307D01*
X30292Y63489D01*
X30289Y63499D01*
X30251Y63692D01*
X30250Y63702D01*
Y63800D01*
Y63898D01*
X30251Y63908D01*
X30289Y64102D01*
X30292Y64111D01*
X30367Y64293D01*
X30367Y64293D01*
X30369Y64296D01*
X30372Y64302D01*
X30372Y64302D01*
X30481Y64465D01*
X30481Y64465D01*
X30488Y64473D01*
X30627Y64612D01*
X30635Y64619D01*
X30635Y64619D01*
X30798Y64728D01*
X30807Y64733D01*
X30807Y64733D01*
X30989Y64808D01*
X30999Y64811D01*
X31192Y64849D01*
X31202Y64850D01*
X31300D01*
X31310Y64849D01*
D02*
G37*
G36*
X43808Y63124D02*
X44001Y63086D01*
X44011Y63083D01*
X44193Y63008D01*
X44193Y63008D01*
X44196Y63006D01*
X44202Y63003D01*
X44202Y63003D01*
X44365Y62894D01*
X44365Y62894D01*
X44373Y62887D01*
X44512Y62748D01*
X44519Y62740D01*
X44519Y62740D01*
X44628Y62577D01*
X44633Y62568D01*
X44633Y62568D01*
X44708Y62386D01*
X44711Y62376D01*
X44749Y62183D01*
X44750Y62174D01*
Y62075D01*
Y61977D01*
X44749Y61967D01*
X44711Y61774D01*
X44708Y61764D01*
X44633Y61582D01*
X44633Y61582D01*
X44631Y61579D01*
X44628Y61573D01*
X44628Y61573D01*
X44519Y61410D01*
X44519Y61410D01*
X44512Y61402D01*
X44373Y61263D01*
X44365Y61256D01*
X44365Y61256D01*
X44202Y61147D01*
X44193Y61142D01*
X44193Y61142D01*
X44011Y61067D01*
X44001Y61064D01*
X43808Y61026D01*
X43798Y61025D01*
X43700D01*
X43690Y61026D01*
X43681Y61029D01*
X43672Y61033D01*
X43664Y61039D01*
X43658Y61047D01*
X43654Y61056D01*
X43651Y61065D01*
X43650Y61075D01*
Y63075D01*
X43651Y63085D01*
X43654Y63094D01*
X43658Y63103D01*
X43664Y63111D01*
X43672Y63117D01*
X43681Y63121D01*
X43690Y63124D01*
X43700Y63125D01*
X43798D01*
X43808Y63124D01*
D02*
G37*
G36*
X43310D02*
X43319Y63121D01*
X43328Y63117D01*
X43336Y63111D01*
X43342Y63103D01*
X43346Y63094D01*
X43349Y63085D01*
X43350Y63075D01*
Y61075D01*
X43349Y61065D01*
X43346Y61056D01*
X43342Y61047D01*
X43336Y61039D01*
X43328Y61033D01*
X43319Y61029D01*
X43310Y61026D01*
X43300Y61025D01*
X43202D01*
X43192Y61026D01*
X42999Y61064D01*
X42989Y61067D01*
X42807Y61142D01*
X42807Y61142D01*
X42798Y61147D01*
X42635Y61256D01*
X42635Y61256D01*
X42627Y61263D01*
X42488Y61402D01*
X42481Y61410D01*
X42481Y61410D01*
X42372Y61573D01*
X42372Y61573D01*
X42369Y61579D01*
X42367Y61582D01*
X42367Y61582D01*
X42292Y61764D01*
X42289Y61774D01*
X42251Y61967D01*
X42250Y61977D01*
Y62075D01*
Y62174D01*
X42251Y62183D01*
X42289Y62376D01*
X42292Y62386D01*
X42367Y62568D01*
X42367Y62568D01*
X42372Y62577D01*
X42481Y62740D01*
X42481Y62740D01*
X42488Y62748D01*
X42627Y62887D01*
X42635Y62894D01*
X42635Y62894D01*
X42798Y63003D01*
X42798Y63003D01*
X42804Y63006D01*
X42807Y63008D01*
X42807Y63008D01*
X42989Y63083D01*
X42999Y63086D01*
X43192Y63124D01*
X43202Y63125D01*
X43300D01*
X43310Y63124D01*
D02*
G37*
G36*
X56208Y59149D02*
X56401Y59111D01*
X56411Y59108D01*
X56593Y59033D01*
X56593Y59033D01*
X56596Y59031D01*
X56602Y59028D01*
X56602Y59028D01*
X56765Y58919D01*
X56765Y58919D01*
X56773Y58912D01*
X56912Y58773D01*
X56919Y58765D01*
X56919Y58765D01*
X57028Y58602D01*
X57033Y58593D01*
X57033Y58593D01*
X57108Y58411D01*
X57111Y58402D01*
X57149Y58208D01*
X57150Y58199D01*
Y58100D01*
Y58002D01*
X57149Y57992D01*
X57111Y57799D01*
X57108Y57789D01*
X57033Y57607D01*
X57033Y57607D01*
X57031Y57604D01*
X57028Y57598D01*
X57028Y57598D01*
X56919Y57435D01*
X56919Y57435D01*
X56912Y57427D01*
X56773Y57288D01*
X56765Y57281D01*
X56765Y57281D01*
X56602Y57172D01*
X56593Y57167D01*
X56593Y57167D01*
X56411Y57092D01*
X56401Y57089D01*
X56208Y57051D01*
X56198Y57050D01*
X56100D01*
X56090Y57051D01*
X56081Y57054D01*
X56072Y57058D01*
X56064Y57064D01*
X56058Y57072D01*
X56054Y57081D01*
X56051Y57090D01*
X56050Y57100D01*
Y59100D01*
X56051Y59110D01*
X56054Y59119D01*
X56058Y59128D01*
X56064Y59136D01*
X56072Y59142D01*
X56081Y59146D01*
X56090Y59149D01*
X56100Y59150D01*
X56198D01*
X56208Y59149D01*
D02*
G37*
G36*
X55710D02*
X55719Y59146D01*
X55728Y59142D01*
X55736Y59136D01*
X55742Y59128D01*
X55746Y59119D01*
X55749Y59110D01*
X55750Y59100D01*
Y57100D01*
X55749Y57090D01*
X55746Y57081D01*
X55742Y57072D01*
X55736Y57064D01*
X55728Y57058D01*
X55719Y57054D01*
X55710Y57051D01*
X55700Y57050D01*
X55602D01*
X55592Y57051D01*
X55399Y57089D01*
X55389Y57092D01*
X55207Y57167D01*
X55207Y57167D01*
X55198Y57172D01*
X55035Y57281D01*
X55035Y57281D01*
X55027Y57288D01*
X54888Y57427D01*
X54881Y57435D01*
X54881Y57435D01*
X54772Y57598D01*
X54772Y57598D01*
X54769Y57604D01*
X54767Y57607D01*
X54767Y57607D01*
X54692Y57789D01*
X54689Y57799D01*
X54651Y57992D01*
X54650Y58002D01*
Y58100D01*
Y58199D01*
X54651Y58208D01*
X54689Y58402D01*
X54692Y58411D01*
X54767Y58593D01*
X54767Y58593D01*
X54772Y58602D01*
X54881Y58765D01*
X54881Y58765D01*
X54888Y58773D01*
X55027Y58912D01*
X55035Y58919D01*
X55035Y58919D01*
X55198Y59028D01*
X55198Y59028D01*
X55204Y59031D01*
X55207Y59033D01*
X55207Y59033D01*
X55389Y59108D01*
X55399Y59111D01*
X55592Y59149D01*
X55602Y59150D01*
X55700D01*
X55710Y59149D01*
D02*
G37*
G36*
X43808D02*
X44001Y59111D01*
X44011Y59108D01*
X44193Y59033D01*
X44193Y59033D01*
X44196Y59031D01*
X44202Y59028D01*
X44202Y59028D01*
X44365Y58919D01*
X44365Y58919D01*
X44373Y58912D01*
X44512Y58773D01*
X44519Y58765D01*
X44519Y58765D01*
X44628Y58602D01*
X44633Y58593D01*
X44633Y58593D01*
X44708Y58411D01*
X44711Y58402D01*
X44749Y58208D01*
X44750Y58199D01*
Y58100D01*
Y58002D01*
X44749Y57992D01*
X44711Y57799D01*
X44708Y57789D01*
X44633Y57607D01*
X44633Y57607D01*
X44631Y57604D01*
X44628Y57598D01*
X44628Y57598D01*
X44519Y57435D01*
X44519Y57435D01*
X44512Y57427D01*
X44373Y57288D01*
X44365Y57281D01*
X44365Y57281D01*
X44202Y57172D01*
X44193Y57167D01*
X44193Y57167D01*
X44011Y57092D01*
X44001Y57089D01*
X43808Y57051D01*
X43798Y57050D01*
X43700D01*
X43690Y57051D01*
X43681Y57054D01*
X43672Y57058D01*
X43664Y57064D01*
X43658Y57072D01*
X43654Y57081D01*
X43651Y57090D01*
X43650Y57100D01*
Y59100D01*
X43651Y59110D01*
X43654Y59119D01*
X43658Y59128D01*
X43664Y59136D01*
X43672Y59142D01*
X43681Y59146D01*
X43690Y59149D01*
X43700Y59150D01*
X43798D01*
X43808Y59149D01*
D02*
G37*
G36*
X43310D02*
X43319Y59146D01*
X43328Y59142D01*
X43336Y59136D01*
X43342Y59128D01*
X43346Y59119D01*
X43349Y59110D01*
X43350Y59100D01*
Y57100D01*
X43349Y57090D01*
X43346Y57081D01*
X43342Y57072D01*
X43336Y57064D01*
X43328Y57058D01*
X43319Y57054D01*
X43310Y57051D01*
X43300Y57050D01*
X43202D01*
X43192Y57051D01*
X42999Y57089D01*
X42989Y57092D01*
X42807Y57167D01*
X42807Y57167D01*
X42798Y57172D01*
X42635Y57281D01*
X42635Y57281D01*
X42627Y57288D01*
X42488Y57427D01*
X42481Y57435D01*
X42481Y57435D01*
X42372Y57598D01*
X42372Y57598D01*
X42369Y57604D01*
X42367Y57607D01*
X42367Y57607D01*
X42292Y57789D01*
X42289Y57799D01*
X42251Y57992D01*
X42250Y58002D01*
Y58100D01*
Y58199D01*
X42251Y58208D01*
X42289Y58402D01*
X42292Y58411D01*
X42367Y58593D01*
X42367Y58593D01*
X42372Y58602D01*
X42481Y58765D01*
X42481Y58765D01*
X42488Y58773D01*
X42627Y58912D01*
X42635Y58919D01*
X42635Y58919D01*
X42798Y59028D01*
X42798Y59028D01*
X42804Y59031D01*
X42807Y59033D01*
X42807Y59033D01*
X42989Y59108D01*
X42999Y59111D01*
X43192Y59149D01*
X43202Y59150D01*
X43300D01*
X43310Y59149D01*
D02*
G37*
G36*
X76808Y56924D02*
X77001Y56886D01*
X77011Y56883D01*
X77193Y56808D01*
X77193Y56808D01*
X77202Y56803D01*
X77365Y56694D01*
X77365Y56694D01*
X77373Y56687D01*
X77512Y56548D01*
X77519Y56540D01*
X77519Y56540D01*
X77628Y56377D01*
X77628Y56377D01*
X77631Y56371D01*
X77633Y56368D01*
X77633Y56368D01*
X77708Y56186D01*
X77711Y56176D01*
X77749Y55983D01*
X77750Y55973D01*
Y55875D01*
Y55777D01*
X77749Y55767D01*
X77711Y55574D01*
X77708Y55564D01*
X77633Y55382D01*
X77633Y55382D01*
X77628Y55373D01*
X77519Y55210D01*
X77519Y55210D01*
X77512Y55202D01*
X77373Y55063D01*
X77365Y55056D01*
X77365Y55056D01*
X77202Y54947D01*
X77202Y54947D01*
X77196Y54944D01*
X77193Y54942D01*
X77193Y54942D01*
X77011Y54867D01*
X77001Y54864D01*
X76808Y54826D01*
X76798Y54825D01*
X76700D01*
X76690Y54826D01*
X76681Y54829D01*
X76672Y54833D01*
X76664Y54839D01*
X76658Y54847D01*
X76654Y54856D01*
X76651Y54865D01*
X76650Y54875D01*
Y56875D01*
X76651Y56885D01*
X76654Y56894D01*
X76658Y56903D01*
X76664Y56911D01*
X76672Y56917D01*
X76681Y56921D01*
X76690Y56924D01*
X76700Y56925D01*
X76798D01*
X76808Y56924D01*
D02*
G37*
G36*
X76310D02*
X76319Y56921D01*
X76328Y56917D01*
X76336Y56911D01*
X76342Y56903D01*
X76346Y56894D01*
X76349Y56885D01*
X76350Y56875D01*
Y54875D01*
X76349Y54865D01*
X76346Y54856D01*
X76342Y54847D01*
X76336Y54839D01*
X76328Y54833D01*
X76319Y54829D01*
X76310Y54826D01*
X76300Y54825D01*
X76202D01*
X76192Y54826D01*
X75999Y54864D01*
X75989Y54867D01*
X75807Y54942D01*
X75807Y54942D01*
X75804Y54944D01*
X75798Y54947D01*
X75798Y54947D01*
X75635Y55056D01*
X75635Y55056D01*
X75627Y55063D01*
X75488Y55202D01*
X75481Y55210D01*
X75481Y55210D01*
X75372Y55373D01*
X75367Y55382D01*
X75367Y55382D01*
X75292Y55564D01*
X75289Y55574D01*
X75251Y55767D01*
X75250Y55777D01*
Y55875D01*
Y55973D01*
X75251Y55983D01*
X75289Y56176D01*
X75292Y56186D01*
X75367Y56368D01*
X75367Y56368D01*
X75369Y56371D01*
X75372Y56377D01*
X75372Y56377D01*
X75481Y56540D01*
X75481Y56540D01*
X75488Y56548D01*
X75627Y56687D01*
X75635Y56694D01*
X75635Y56694D01*
X75798Y56803D01*
X75807Y56808D01*
X75807Y56808D01*
X75989Y56883D01*
X75999Y56886D01*
X76192Y56924D01*
X76202Y56925D01*
X76300D01*
X76310Y56924D01*
D02*
G37*
G36*
X64408D02*
X64601Y56886D01*
X64611Y56883D01*
X64793Y56808D01*
X64793Y56808D01*
X64802Y56803D01*
X64965Y56694D01*
X64965Y56694D01*
X64973Y56687D01*
X65112Y56548D01*
X65119Y56540D01*
X65119Y56540D01*
X65228Y56377D01*
X65228Y56377D01*
X65231Y56371D01*
X65233Y56368D01*
X65233Y56368D01*
X65308Y56186D01*
X65311Y56176D01*
X65349Y55983D01*
X65350Y55973D01*
Y55875D01*
Y55777D01*
X65349Y55767D01*
X65311Y55574D01*
X65308Y55564D01*
X65233Y55382D01*
X65233Y55382D01*
X65228Y55373D01*
X65119Y55210D01*
X65119Y55210D01*
X65112Y55202D01*
X64973Y55063D01*
X64965Y55056D01*
X64965Y55056D01*
X64802Y54947D01*
X64802Y54947D01*
X64796Y54944D01*
X64793Y54942D01*
X64793Y54942D01*
X64611Y54867D01*
X64601Y54864D01*
X64408Y54826D01*
X64398Y54825D01*
X64300D01*
X64290Y54826D01*
X64281Y54829D01*
X64272Y54833D01*
X64264Y54839D01*
X64258Y54847D01*
X64254Y54856D01*
X64251Y54865D01*
X64250Y54875D01*
Y56875D01*
X64251Y56885D01*
X64254Y56894D01*
X64258Y56903D01*
X64264Y56911D01*
X64272Y56917D01*
X64281Y56921D01*
X64290Y56924D01*
X64300Y56925D01*
X64398D01*
X64408Y56924D01*
D02*
G37*
G36*
X63910D02*
X63919Y56921D01*
X63928Y56917D01*
X63936Y56911D01*
X63942Y56903D01*
X63946Y56894D01*
X63949Y56885D01*
X63950Y56875D01*
Y54875D01*
X63949Y54865D01*
X63946Y54856D01*
X63942Y54847D01*
X63936Y54839D01*
X63928Y54833D01*
X63919Y54829D01*
X63910Y54826D01*
X63900Y54825D01*
X63802D01*
X63792Y54826D01*
X63599Y54864D01*
X63589Y54867D01*
X63407Y54942D01*
X63407Y54942D01*
X63404Y54944D01*
X63398Y54947D01*
X63398Y54947D01*
X63235Y55056D01*
X63235Y55056D01*
X63227Y55063D01*
X63088Y55202D01*
X63081Y55210D01*
X63081Y55210D01*
X62972Y55373D01*
X62967Y55382D01*
X62967Y55382D01*
X62892Y55564D01*
X62889Y55574D01*
X62851Y55767D01*
X62850Y55777D01*
Y55875D01*
Y55973D01*
X62851Y55983D01*
X62889Y56176D01*
X62892Y56186D01*
X62967Y56368D01*
X62967Y56368D01*
X62969Y56371D01*
X62972Y56377D01*
X62972Y56377D01*
X63081Y56540D01*
X63081Y56540D01*
X63088Y56548D01*
X63227Y56687D01*
X63235Y56694D01*
X63235Y56694D01*
X63398Y56803D01*
X63407Y56808D01*
X63407Y56808D01*
X63589Y56883D01*
X63599Y56886D01*
X63792Y56924D01*
X63802Y56925D01*
X63900D01*
X63910Y56924D01*
D02*
G37*
G36*
X56208Y55174D02*
X56401Y55136D01*
X56411Y55133D01*
X56593Y55058D01*
X56593Y55058D01*
X56596Y55056D01*
X56602Y55053D01*
X56602Y55053D01*
X56765Y54944D01*
X56765Y54944D01*
X56773Y54937D01*
X56912Y54798D01*
X56919Y54790D01*
X56919Y54790D01*
X57028Y54627D01*
X57033Y54618D01*
X57033Y54618D01*
X57108Y54436D01*
X57111Y54426D01*
X57149Y54233D01*
X57150Y54223D01*
Y54125D01*
Y54027D01*
X57149Y54017D01*
X57111Y53824D01*
X57108Y53814D01*
X57033Y53632D01*
X57033Y53632D01*
X57031Y53629D01*
X57028Y53623D01*
X57028Y53623D01*
X56919Y53460D01*
X56919Y53460D01*
X56912Y53452D01*
X56773Y53313D01*
X56765Y53306D01*
X56765Y53306D01*
X56602Y53197D01*
X56593Y53192D01*
X56593Y53192D01*
X56411Y53117D01*
X56401Y53114D01*
X56208Y53076D01*
X56198Y53075D01*
X56100D01*
X56090Y53076D01*
X56081Y53079D01*
X56072Y53083D01*
X56064Y53089D01*
X56058Y53097D01*
X56054Y53106D01*
X56051Y53115D01*
X56050Y53125D01*
Y55125D01*
X56051Y55135D01*
X56054Y55144D01*
X56058Y55153D01*
X56064Y55161D01*
X56072Y55167D01*
X56081Y55171D01*
X56090Y55174D01*
X56100Y55175D01*
X56198D01*
X56208Y55174D01*
D02*
G37*
G36*
X55710D02*
X55719Y55171D01*
X55728Y55167D01*
X55736Y55161D01*
X55742Y55153D01*
X55746Y55144D01*
X55749Y55135D01*
X55750Y55125D01*
Y53125D01*
X55749Y53115D01*
X55746Y53106D01*
X55742Y53097D01*
X55736Y53089D01*
X55728Y53083D01*
X55719Y53079D01*
X55710Y53076D01*
X55700Y53075D01*
X55602D01*
X55592Y53076D01*
X55399Y53114D01*
X55389Y53117D01*
X55207Y53192D01*
X55207Y53192D01*
X55198Y53197D01*
X55035Y53306D01*
X55035Y53306D01*
X55027Y53313D01*
X54888Y53452D01*
X54881Y53460D01*
X54881Y53460D01*
X54772Y53623D01*
X54772Y53623D01*
X54769Y53629D01*
X54767Y53632D01*
X54767Y53632D01*
X54692Y53814D01*
X54689Y53824D01*
X54651Y54017D01*
X54650Y54027D01*
Y54125D01*
Y54223D01*
X54651Y54233D01*
X54689Y54426D01*
X54692Y54436D01*
X54767Y54618D01*
X54767Y54618D01*
X54772Y54627D01*
X54881Y54790D01*
X54881Y54790D01*
X54888Y54798D01*
X55027Y54937D01*
X55035Y54944D01*
X55035Y54944D01*
X55198Y55053D01*
X55198Y55053D01*
X55204Y55056D01*
X55207Y55058D01*
X55207Y55058D01*
X55389Y55133D01*
X55399Y55136D01*
X55592Y55174D01*
X55602Y55175D01*
X55700D01*
X55710Y55174D01*
D02*
G37*
G36*
X43808D02*
X44001Y55136D01*
X44011Y55133D01*
X44193Y55058D01*
X44193Y55058D01*
X44196Y55056D01*
X44202Y55053D01*
X44202Y55053D01*
X44365Y54944D01*
X44365Y54944D01*
X44373Y54937D01*
X44512Y54798D01*
X44519Y54790D01*
X44519Y54790D01*
X44628Y54627D01*
X44633Y54618D01*
X44633Y54618D01*
X44708Y54436D01*
X44711Y54426D01*
X44749Y54233D01*
X44750Y54223D01*
Y54125D01*
Y54027D01*
X44749Y54017D01*
X44711Y53824D01*
X44708Y53814D01*
X44633Y53632D01*
X44633Y53632D01*
X44631Y53629D01*
X44628Y53623D01*
X44628Y53623D01*
X44519Y53460D01*
X44519Y53460D01*
X44512Y53452D01*
X44373Y53313D01*
X44365Y53306D01*
X44365Y53306D01*
X44202Y53197D01*
X44193Y53192D01*
X44193Y53192D01*
X44011Y53117D01*
X44001Y53114D01*
X43808Y53076D01*
X43798Y53075D01*
X43700D01*
X43690Y53076D01*
X43681Y53079D01*
X43672Y53083D01*
X43664Y53089D01*
X43658Y53097D01*
X43654Y53106D01*
X43651Y53115D01*
X43650Y53125D01*
Y55125D01*
X43651Y55135D01*
X43654Y55144D01*
X43658Y55153D01*
X43664Y55161D01*
X43672Y55167D01*
X43681Y55171D01*
X43690Y55174D01*
X43700Y55175D01*
X43798D01*
X43808Y55174D01*
D02*
G37*
G36*
X43310D02*
X43319Y55171D01*
X43328Y55167D01*
X43336Y55161D01*
X43342Y55153D01*
X43346Y55144D01*
X43349Y55135D01*
X43350Y55125D01*
Y53125D01*
X43349Y53115D01*
X43346Y53106D01*
X43342Y53097D01*
X43336Y53089D01*
X43328Y53083D01*
X43319Y53079D01*
X43310Y53076D01*
X43300Y53075D01*
X43202D01*
X43192Y53076D01*
X42999Y53114D01*
X42989Y53117D01*
X42807Y53192D01*
X42807Y53192D01*
X42798Y53197D01*
X42635Y53306D01*
X42635Y53306D01*
X42627Y53313D01*
X42488Y53452D01*
X42481Y53460D01*
X42481Y53460D01*
X42372Y53623D01*
X42372Y53623D01*
X42369Y53629D01*
X42367Y53632D01*
X42367Y53632D01*
X42292Y53814D01*
X42289Y53824D01*
X42251Y54017D01*
X42250Y54027D01*
Y54125D01*
Y54223D01*
X42251Y54233D01*
X42289Y54426D01*
X42292Y54436D01*
X42367Y54618D01*
X42367Y54618D01*
X42372Y54627D01*
X42481Y54790D01*
X42481Y54790D01*
X42488Y54798D01*
X42627Y54937D01*
X42635Y54944D01*
X42635Y54944D01*
X42798Y55053D01*
X42798Y55053D01*
X42804Y55056D01*
X42807Y55058D01*
X42807Y55058D01*
X42989Y55133D01*
X42999Y55136D01*
X43192Y55174D01*
X43202Y55175D01*
X43300D01*
X43310Y55174D01*
D02*
G37*
G36*
X76808Y52949D02*
X77001Y52911D01*
X77011Y52908D01*
X77193Y52833D01*
X77193Y52833D01*
X77202Y52828D01*
X77365Y52719D01*
X77365Y52719D01*
X77373Y52712D01*
X77512Y52573D01*
X77519Y52565D01*
X77519Y52565D01*
X77628Y52402D01*
X77628Y52402D01*
X77631Y52396D01*
X77633Y52393D01*
X77633Y52393D01*
X77708Y52211D01*
X77711Y52201D01*
X77749Y52008D01*
X77750Y51998D01*
Y51900D01*
Y51801D01*
X77749Y51792D01*
X77711Y51598D01*
X77708Y51589D01*
X77633Y51407D01*
X77633Y51407D01*
X77628Y51398D01*
X77519Y51235D01*
X77519Y51235D01*
X77512Y51227D01*
X77373Y51088D01*
X77365Y51081D01*
X77365Y51081D01*
X77202Y50972D01*
X77202Y50972D01*
X77196Y50969D01*
X77193Y50967D01*
X77193Y50967D01*
X77011Y50892D01*
X77001Y50889D01*
X76808Y50851D01*
X76798Y50850D01*
X76700D01*
X76690Y50851D01*
X76681Y50854D01*
X76672Y50858D01*
X76664Y50864D01*
X76658Y50872D01*
X76654Y50881D01*
X76651Y50890D01*
X76650Y50900D01*
Y52900D01*
X76651Y52910D01*
X76654Y52919D01*
X76658Y52928D01*
X76664Y52936D01*
X76672Y52942D01*
X76681Y52946D01*
X76690Y52949D01*
X76700Y52950D01*
X76798D01*
X76808Y52949D01*
D02*
G37*
G36*
X76310D02*
X76319Y52946D01*
X76328Y52942D01*
X76336Y52936D01*
X76342Y52928D01*
X76346Y52919D01*
X76349Y52910D01*
X76350Y52900D01*
Y50900D01*
X76349Y50890D01*
X76346Y50881D01*
X76342Y50872D01*
X76336Y50864D01*
X76328Y50858D01*
X76319Y50854D01*
X76310Y50851D01*
X76300Y50850D01*
X76202D01*
X76192Y50851D01*
X75999Y50889D01*
X75989Y50892D01*
X75807Y50967D01*
X75807Y50967D01*
X75804Y50969D01*
X75798Y50972D01*
X75798Y50972D01*
X75635Y51081D01*
X75635Y51081D01*
X75627Y51088D01*
X75488Y51227D01*
X75481Y51235D01*
X75481Y51235D01*
X75372Y51398D01*
X75367Y51407D01*
X75367Y51407D01*
X75292Y51589D01*
X75289Y51598D01*
X75251Y51792D01*
X75250Y51801D01*
Y51900D01*
Y51998D01*
X75251Y52008D01*
X75289Y52201D01*
X75292Y52211D01*
X75367Y52393D01*
X75367Y52393D01*
X75369Y52396D01*
X75372Y52402D01*
X75372Y52402D01*
X75481Y52565D01*
X75481Y52565D01*
X75488Y52573D01*
X75627Y52712D01*
X75635Y52719D01*
X75635Y52719D01*
X75798Y52828D01*
X75807Y52833D01*
X75807Y52833D01*
X75989Y52908D01*
X75999Y52911D01*
X76192Y52949D01*
X76202Y52950D01*
X76300D01*
X76310Y52949D01*
D02*
G37*
G36*
X64408D02*
X64601Y52911D01*
X64611Y52908D01*
X64793Y52833D01*
X64793Y52833D01*
X64802Y52828D01*
X64965Y52719D01*
X64965Y52719D01*
X64973Y52712D01*
X65112Y52573D01*
X65119Y52565D01*
X65119Y52565D01*
X65228Y52402D01*
X65228Y52402D01*
X65231Y52396D01*
X65233Y52393D01*
X65233Y52393D01*
X65308Y52211D01*
X65311Y52201D01*
X65349Y52008D01*
X65350Y51998D01*
Y51900D01*
Y51801D01*
X65349Y51792D01*
X65311Y51598D01*
X65308Y51589D01*
X65233Y51407D01*
X65233Y51407D01*
X65228Y51398D01*
X65119Y51235D01*
X65119Y51235D01*
X65112Y51227D01*
X64973Y51088D01*
X64965Y51081D01*
X64965Y51081D01*
X64802Y50972D01*
X64802Y50972D01*
X64796Y50969D01*
X64793Y50967D01*
X64793Y50967D01*
X64611Y50892D01*
X64601Y50889D01*
X64408Y50851D01*
X64398Y50850D01*
X64300D01*
X64290Y50851D01*
X64281Y50854D01*
X64272Y50858D01*
X64264Y50864D01*
X64258Y50872D01*
X64254Y50881D01*
X64251Y50890D01*
X64250Y50900D01*
Y52900D01*
X64251Y52910D01*
X64254Y52919D01*
X64258Y52928D01*
X64264Y52936D01*
X64272Y52942D01*
X64281Y52946D01*
X64290Y52949D01*
X64300Y52950D01*
X64398D01*
X64408Y52949D01*
D02*
G37*
G36*
X63910D02*
X63919Y52946D01*
X63928Y52942D01*
X63936Y52936D01*
X63942Y52928D01*
X63946Y52919D01*
X63949Y52910D01*
X63950Y52900D01*
Y50900D01*
X63949Y50890D01*
X63946Y50881D01*
X63942Y50872D01*
X63936Y50864D01*
X63928Y50858D01*
X63919Y50854D01*
X63910Y50851D01*
X63900Y50850D01*
X63802D01*
X63792Y50851D01*
X63599Y50889D01*
X63589Y50892D01*
X63407Y50967D01*
X63407Y50967D01*
X63404Y50969D01*
X63398Y50972D01*
X63398Y50972D01*
X63235Y51081D01*
X63235Y51081D01*
X63227Y51088D01*
X63088Y51227D01*
X63081Y51235D01*
X63081Y51235D01*
X62972Y51398D01*
X62967Y51407D01*
X62967Y51407D01*
X62892Y51589D01*
X62889Y51598D01*
X62851Y51792D01*
X62850Y51801D01*
Y51900D01*
Y51998D01*
X62851Y52008D01*
X62889Y52201D01*
X62892Y52211D01*
X62967Y52393D01*
X62967Y52393D01*
X62969Y52396D01*
X62972Y52402D01*
X62972Y52402D01*
X63081Y52565D01*
X63081Y52565D01*
X63088Y52573D01*
X63227Y52712D01*
X63235Y52719D01*
X63235Y52719D01*
X63398Y52828D01*
X63407Y52833D01*
X63407Y52833D01*
X63589Y52908D01*
X63599Y52911D01*
X63792Y52949D01*
X63802Y52950D01*
X63900D01*
X63910Y52949D01*
D02*
G37*
G36*
X76808Y48974D02*
X77001Y48936D01*
X77011Y48933D01*
X77193Y48858D01*
X77193Y48858D01*
X77202Y48853D01*
X77365Y48744D01*
X77365Y48744D01*
X77373Y48737D01*
X77512Y48598D01*
X77519Y48590D01*
X77519Y48590D01*
X77628Y48427D01*
X77628Y48427D01*
X77631Y48421D01*
X77633Y48418D01*
X77633Y48418D01*
X77708Y48236D01*
X77711Y48226D01*
X77749Y48033D01*
X77750Y48023D01*
Y47925D01*
Y47826D01*
X77749Y47817D01*
X77711Y47624D01*
X77708Y47614D01*
X77633Y47432D01*
X77633Y47432D01*
X77628Y47423D01*
X77519Y47260D01*
X77519Y47260D01*
X77512Y47252D01*
X77373Y47113D01*
X77365Y47106D01*
X77365Y47106D01*
X77202Y46997D01*
X77202Y46997D01*
X77196Y46994D01*
X77193Y46992D01*
X77193Y46992D01*
X77011Y46917D01*
X77001Y46914D01*
X76808Y46876D01*
X76798Y46875D01*
X76700D01*
X76690Y46876D01*
X76681Y46879D01*
X76672Y46883D01*
X76664Y46889D01*
X76658Y46897D01*
X76654Y46906D01*
X76651Y46915D01*
X76650Y46925D01*
Y48925D01*
X76651Y48935D01*
X76654Y48944D01*
X76658Y48953D01*
X76664Y48961D01*
X76672Y48967D01*
X76681Y48971D01*
X76690Y48974D01*
X76700Y48975D01*
X76798D01*
X76808Y48974D01*
D02*
G37*
G36*
X76310D02*
X76319Y48971D01*
X76328Y48967D01*
X76336Y48961D01*
X76342Y48953D01*
X76346Y48944D01*
X76349Y48935D01*
X76350Y48925D01*
Y46925D01*
X76349Y46915D01*
X76346Y46906D01*
X76342Y46897D01*
X76336Y46889D01*
X76328Y46883D01*
X76319Y46879D01*
X76310Y46876D01*
X76300Y46875D01*
X76202D01*
X76192Y46876D01*
X75999Y46914D01*
X75989Y46917D01*
X75807Y46992D01*
X75807Y46992D01*
X75804Y46994D01*
X75798Y46997D01*
X75798Y46997D01*
X75635Y47106D01*
X75635Y47106D01*
X75627Y47113D01*
X75488Y47252D01*
X75481Y47260D01*
X75481Y47260D01*
X75372Y47423D01*
X75367Y47432D01*
X75367Y47432D01*
X75292Y47614D01*
X75289Y47624D01*
X75251Y47817D01*
X75250Y47826D01*
Y47925D01*
Y48023D01*
X75251Y48033D01*
X75289Y48226D01*
X75292Y48236D01*
X75367Y48418D01*
X75367Y48418D01*
X75369Y48421D01*
X75372Y48427D01*
X75372Y48427D01*
X75481Y48590D01*
X75481Y48590D01*
X75488Y48598D01*
X75627Y48737D01*
X75635Y48744D01*
X75635Y48744D01*
X75798Y48853D01*
X75807Y48858D01*
X75807Y48858D01*
X75989Y48933D01*
X75999Y48936D01*
X76192Y48974D01*
X76202Y48975D01*
X76300D01*
X76310Y48974D01*
D02*
G37*
G36*
X88808Y47249D02*
X89001Y47211D01*
X89011Y47208D01*
X89193Y47133D01*
X89193Y47133D01*
X89196Y47131D01*
X89202Y47128D01*
X89202Y47128D01*
X89365Y47019D01*
X89365Y47019D01*
X89373Y47012D01*
X89512Y46873D01*
X89519Y46865D01*
X89519Y46865D01*
X89628Y46702D01*
X89633Y46693D01*
X89633Y46693D01*
X89708Y46511D01*
X89711Y46501D01*
X89749Y46308D01*
X89750Y46298D01*
Y46200D01*
Y46102D01*
X89749Y46092D01*
X89711Y45898D01*
X89708Y45889D01*
X89633Y45707D01*
X89633Y45707D01*
X89631Y45704D01*
X89628Y45698D01*
X89628Y45698D01*
X89519Y45535D01*
X89519Y45535D01*
X89512Y45527D01*
X89373Y45388D01*
X89365Y45381D01*
X89365Y45381D01*
X89202Y45272D01*
X89193Y45267D01*
X89193Y45267D01*
X89011Y45192D01*
X89001Y45189D01*
X88808Y45151D01*
X88798Y45150D01*
X88700D01*
X88690Y45151D01*
X88681Y45154D01*
X88672Y45158D01*
X88664Y45164D01*
X88658Y45172D01*
X88654Y45181D01*
X88651Y45190D01*
X88650Y45200D01*
Y47200D01*
X88651Y47210D01*
X88654Y47219D01*
X88658Y47228D01*
X88664Y47236D01*
X88672Y47242D01*
X88681Y47246D01*
X88690Y47249D01*
X88700Y47250D01*
X88798D01*
X88808Y47249D01*
D02*
G37*
G36*
X88310D02*
X88319Y47246D01*
X88328Y47242D01*
X88336Y47236D01*
X88342Y47228D01*
X88346Y47219D01*
X88349Y47210D01*
X88350Y47200D01*
Y45200D01*
X88349Y45190D01*
X88346Y45181D01*
X88342Y45172D01*
X88336Y45164D01*
X88328Y45158D01*
X88319Y45154D01*
X88310Y45151D01*
X88300Y45150D01*
X88202D01*
X88192Y45151D01*
X87999Y45189D01*
X87989Y45192D01*
X87807Y45267D01*
X87807Y45267D01*
X87798Y45272D01*
X87635Y45381D01*
X87635Y45381D01*
X87627Y45388D01*
X87488Y45527D01*
X87481Y45535D01*
X87481Y45535D01*
X87372Y45698D01*
X87372Y45698D01*
X87369Y45704D01*
X87367Y45707D01*
X87367Y45707D01*
X87292Y45889D01*
X87289Y45898D01*
X87251Y46092D01*
X87250Y46102D01*
Y46200D01*
Y46298D01*
X87251Y46308D01*
X87289Y46501D01*
X87292Y46511D01*
X87367Y46693D01*
X87367Y46693D01*
X87372Y46702D01*
X87481Y46865D01*
X87481Y46865D01*
X87488Y46873D01*
X87627Y47012D01*
X87635Y47019D01*
X87635Y47019D01*
X87798Y47128D01*
X87798Y47128D01*
X87804Y47131D01*
X87807Y47133D01*
X87807Y47133D01*
X87989Y47208D01*
X87999Y47211D01*
X88192Y47249D01*
X88202Y47250D01*
X88300D01*
X88310Y47249D01*
D02*
G37*
G36*
X31808Y34849D02*
X32001Y34811D01*
X32011Y34808D01*
X32193Y34733D01*
X32193Y34733D01*
X32202Y34728D01*
X32365Y34619D01*
X32365Y34619D01*
X32373Y34612D01*
X32512Y34473D01*
X32519Y34465D01*
X32519Y34465D01*
X32628Y34302D01*
X32628Y34302D01*
X32631Y34296D01*
X32633Y34293D01*
X32633Y34293D01*
X32708Y34111D01*
X32711Y34102D01*
X32749Y33908D01*
X32750Y33898D01*
Y33800D01*
Y33702D01*
X32749Y33692D01*
X32711Y33499D01*
X32708Y33489D01*
X32633Y33307D01*
X32633Y33307D01*
X32628Y33298D01*
X32519Y33135D01*
X32519Y33135D01*
X32512Y33127D01*
X32373Y32988D01*
X32365Y32981D01*
X32365Y32981D01*
X32202Y32872D01*
X32202Y32872D01*
X32196Y32869D01*
X32193Y32867D01*
X32193Y32867D01*
X32011Y32792D01*
X32001Y32789D01*
X31808Y32751D01*
X31798Y32750D01*
X31700D01*
X31690Y32751D01*
X31681Y32754D01*
X31672Y32758D01*
X31664Y32764D01*
X31658Y32772D01*
X31654Y32781D01*
X31651Y32790D01*
X31650Y32800D01*
Y34800D01*
X31651Y34810D01*
X31654Y34819D01*
X31658Y34828D01*
X31664Y34836D01*
X31672Y34842D01*
X31681Y34846D01*
X31690Y34849D01*
X31700Y34850D01*
X31798D01*
X31808Y34849D01*
D02*
G37*
G36*
X31310D02*
X31319Y34846D01*
X31328Y34842D01*
X31336Y34836D01*
X31342Y34828D01*
X31346Y34819D01*
X31349Y34810D01*
X31350Y34800D01*
Y32800D01*
X31349Y32790D01*
X31346Y32781D01*
X31342Y32772D01*
X31336Y32764D01*
X31328Y32758D01*
X31319Y32754D01*
X31310Y32751D01*
X31300Y32750D01*
X31202D01*
X31192Y32751D01*
X30999Y32789D01*
X30989Y32792D01*
X30807Y32867D01*
X30807Y32867D01*
X30804Y32869D01*
X30798Y32872D01*
X30798Y32872D01*
X30635Y32981D01*
X30635Y32981D01*
X30627Y32988D01*
X30488Y33127D01*
X30481Y33135D01*
X30481Y33135D01*
X30372Y33298D01*
X30367Y33307D01*
X30367Y33307D01*
X30292Y33489D01*
X30289Y33499D01*
X30251Y33692D01*
X30250Y33702D01*
Y33800D01*
Y33898D01*
X30251Y33908D01*
X30289Y34102D01*
X30292Y34111D01*
X30367Y34293D01*
X30367Y34293D01*
X30369Y34296D01*
X30372Y34302D01*
X30372Y34302D01*
X30481Y34465D01*
X30481Y34465D01*
X30488Y34473D01*
X30627Y34612D01*
X30635Y34619D01*
X30635Y34619D01*
X30798Y34728D01*
X30807Y34733D01*
X30807Y34733D01*
X30989Y34808D01*
X30999Y34811D01*
X31192Y34849D01*
X31202Y34850D01*
X31300D01*
X31310Y34849D01*
D02*
G37*
G36*
X43808Y33124D02*
X44001Y33086D01*
X44011Y33083D01*
X44193Y33008D01*
X44193Y33008D01*
X44196Y33006D01*
X44202Y33003D01*
X44202Y33003D01*
X44365Y32894D01*
X44365Y32894D01*
X44373Y32887D01*
X44512Y32748D01*
X44519Y32740D01*
X44519Y32740D01*
X44628Y32577D01*
X44633Y32568D01*
X44633Y32568D01*
X44708Y32386D01*
X44711Y32376D01*
X44749Y32183D01*
X44750Y32174D01*
Y32075D01*
Y31977D01*
X44749Y31967D01*
X44711Y31774D01*
X44708Y31764D01*
X44633Y31582D01*
X44633Y31582D01*
X44631Y31579D01*
X44628Y31573D01*
X44628Y31573D01*
X44519Y31410D01*
X44519Y31410D01*
X44512Y31402D01*
X44373Y31263D01*
X44365Y31256D01*
X44365Y31256D01*
X44202Y31147D01*
X44193Y31142D01*
X44193Y31142D01*
X44011Y31067D01*
X44001Y31064D01*
X43808Y31026D01*
X43798Y31025D01*
X43700D01*
X43690Y31026D01*
X43681Y31029D01*
X43672Y31033D01*
X43664Y31039D01*
X43658Y31047D01*
X43654Y31056D01*
X43651Y31065D01*
X43650Y31075D01*
Y33075D01*
X43651Y33085D01*
X43654Y33094D01*
X43658Y33103D01*
X43664Y33111D01*
X43672Y33117D01*
X43681Y33121D01*
X43690Y33124D01*
X43700Y33125D01*
X43798D01*
X43808Y33124D01*
D02*
G37*
G36*
X43310D02*
X43319Y33121D01*
X43328Y33117D01*
X43336Y33111D01*
X43342Y33103D01*
X43346Y33094D01*
X43349Y33085D01*
X43350Y33075D01*
Y31075D01*
X43349Y31065D01*
X43346Y31056D01*
X43342Y31047D01*
X43336Y31039D01*
X43328Y31033D01*
X43319Y31029D01*
X43310Y31026D01*
X43300Y31025D01*
X43202D01*
X43192Y31026D01*
X42999Y31064D01*
X42989Y31067D01*
X42807Y31142D01*
X42807Y31142D01*
X42798Y31147D01*
X42635Y31256D01*
X42635Y31256D01*
X42627Y31263D01*
X42488Y31402D01*
X42481Y31410D01*
X42481Y31410D01*
X42372Y31573D01*
X42372Y31573D01*
X42369Y31579D01*
X42367Y31582D01*
X42367Y31582D01*
X42292Y31764D01*
X42289Y31774D01*
X42251Y31967D01*
X42250Y31977D01*
Y32075D01*
Y32174D01*
X42251Y32183D01*
X42289Y32376D01*
X42292Y32386D01*
X42367Y32568D01*
X42367Y32568D01*
X42372Y32577D01*
X42481Y32740D01*
X42481Y32740D01*
X42488Y32748D01*
X42627Y32887D01*
X42635Y32894D01*
X42635Y32894D01*
X42798Y33003D01*
X42798Y33003D01*
X42804Y33006D01*
X42807Y33008D01*
X42807Y33008D01*
X42989Y33083D01*
X42999Y33086D01*
X43192Y33124D01*
X43202Y33125D01*
X43300D01*
X43310Y33124D01*
D02*
G37*
G36*
X56208Y29149D02*
X56401Y29111D01*
X56411Y29108D01*
X56593Y29033D01*
X56593Y29033D01*
X56596Y29031D01*
X56602Y29028D01*
X56602Y29028D01*
X56765Y28919D01*
X56765Y28919D01*
X56773Y28912D01*
X56912Y28773D01*
X56919Y28765D01*
X56919Y28765D01*
X57028Y28602D01*
X57033Y28593D01*
X57033Y28593D01*
X57108Y28411D01*
X57111Y28402D01*
X57149Y28208D01*
X57150Y28198D01*
Y28100D01*
Y28002D01*
X57149Y27992D01*
X57111Y27799D01*
X57108Y27789D01*
X57033Y27607D01*
X57033Y27607D01*
X57031Y27604D01*
X57028Y27598D01*
X57028Y27598D01*
X56919Y27435D01*
X56919Y27435D01*
X56912Y27427D01*
X56773Y27288D01*
X56765Y27281D01*
X56765Y27281D01*
X56602Y27172D01*
X56593Y27167D01*
X56593Y27167D01*
X56411Y27092D01*
X56401Y27089D01*
X56208Y27051D01*
X56198Y27050D01*
X56100D01*
X56090Y27051D01*
X56081Y27054D01*
X56072Y27058D01*
X56064Y27064D01*
X56058Y27072D01*
X56054Y27081D01*
X56051Y27090D01*
X56050Y27100D01*
Y29100D01*
X56051Y29110D01*
X56054Y29119D01*
X56058Y29128D01*
X56064Y29136D01*
X56072Y29142D01*
X56081Y29146D01*
X56090Y29149D01*
X56100Y29150D01*
X56198D01*
X56208Y29149D01*
D02*
G37*
G36*
X55710D02*
X55719Y29146D01*
X55728Y29142D01*
X55736Y29136D01*
X55742Y29128D01*
X55746Y29119D01*
X55749Y29110D01*
X55750Y29100D01*
Y27100D01*
X55749Y27090D01*
X55746Y27081D01*
X55742Y27072D01*
X55736Y27064D01*
X55728Y27058D01*
X55719Y27054D01*
X55710Y27051D01*
X55700Y27050D01*
X55602D01*
X55592Y27051D01*
X55399Y27089D01*
X55389Y27092D01*
X55207Y27167D01*
X55207Y27167D01*
X55198Y27172D01*
X55035Y27281D01*
X55035Y27281D01*
X55027Y27288D01*
X54888Y27427D01*
X54881Y27435D01*
X54881Y27435D01*
X54772Y27598D01*
X54772Y27598D01*
X54769Y27604D01*
X54767Y27607D01*
X54767Y27607D01*
X54692Y27789D01*
X54689Y27799D01*
X54651Y27992D01*
X54650Y28002D01*
Y28100D01*
Y28198D01*
X54651Y28208D01*
X54689Y28402D01*
X54692Y28411D01*
X54767Y28593D01*
X54767Y28593D01*
X54772Y28602D01*
X54881Y28765D01*
X54881Y28765D01*
X54888Y28773D01*
X55027Y28912D01*
X55035Y28919D01*
X55035Y28919D01*
X55198Y29028D01*
X55198Y29028D01*
X55204Y29031D01*
X55207Y29033D01*
X55207Y29033D01*
X55389Y29108D01*
X55399Y29111D01*
X55592Y29149D01*
X55602Y29150D01*
X55700D01*
X55710Y29149D01*
D02*
G37*
G36*
X43808D02*
X44001Y29111D01*
X44011Y29108D01*
X44193Y29033D01*
X44193Y29033D01*
X44196Y29031D01*
X44202Y29028D01*
X44202Y29028D01*
X44365Y28919D01*
X44365Y28919D01*
X44373Y28912D01*
X44512Y28773D01*
X44519Y28765D01*
X44519Y28765D01*
X44628Y28602D01*
X44633Y28593D01*
X44633Y28593D01*
X44708Y28411D01*
X44711Y28402D01*
X44749Y28208D01*
X44750Y28198D01*
Y28100D01*
Y28002D01*
X44749Y27992D01*
X44711Y27799D01*
X44708Y27789D01*
X44633Y27607D01*
X44633Y27607D01*
X44631Y27604D01*
X44628Y27598D01*
X44628Y27598D01*
X44519Y27435D01*
X44519Y27435D01*
X44512Y27427D01*
X44373Y27288D01*
X44365Y27281D01*
X44365Y27281D01*
X44202Y27172D01*
X44193Y27167D01*
X44193Y27167D01*
X44011Y27092D01*
X44001Y27089D01*
X43808Y27051D01*
X43798Y27050D01*
X43700D01*
X43690Y27051D01*
X43681Y27054D01*
X43672Y27058D01*
X43664Y27064D01*
X43658Y27072D01*
X43654Y27081D01*
X43651Y27090D01*
X43650Y27100D01*
Y29100D01*
X43651Y29110D01*
X43654Y29119D01*
X43658Y29128D01*
X43664Y29136D01*
X43672Y29142D01*
X43681Y29146D01*
X43690Y29149D01*
X43700Y29150D01*
X43798D01*
X43808Y29149D01*
D02*
G37*
G36*
X43310D02*
X43319Y29146D01*
X43328Y29142D01*
X43336Y29136D01*
X43342Y29128D01*
X43346Y29119D01*
X43349Y29110D01*
X43350Y29100D01*
Y27100D01*
X43349Y27090D01*
X43346Y27081D01*
X43342Y27072D01*
X43336Y27064D01*
X43328Y27058D01*
X43319Y27054D01*
X43310Y27051D01*
X43300Y27050D01*
X43202D01*
X43192Y27051D01*
X42999Y27089D01*
X42989Y27092D01*
X42807Y27167D01*
X42807Y27167D01*
X42798Y27172D01*
X42635Y27281D01*
X42635Y27281D01*
X42627Y27288D01*
X42488Y27427D01*
X42481Y27435D01*
X42481Y27435D01*
X42372Y27598D01*
X42372Y27598D01*
X42369Y27604D01*
X42367Y27607D01*
X42367Y27607D01*
X42292Y27789D01*
X42289Y27799D01*
X42251Y27992D01*
X42250Y28002D01*
Y28100D01*
Y28198D01*
X42251Y28208D01*
X42289Y28402D01*
X42292Y28411D01*
X42367Y28593D01*
X42367Y28593D01*
X42372Y28602D01*
X42481Y28765D01*
X42481Y28765D01*
X42488Y28773D01*
X42627Y28912D01*
X42635Y28919D01*
X42635Y28919D01*
X42798Y29028D01*
X42798Y29028D01*
X42804Y29031D01*
X42807Y29033D01*
X42807Y29033D01*
X42989Y29108D01*
X42999Y29111D01*
X43192Y29149D01*
X43202Y29150D01*
X43300D01*
X43310Y29149D01*
D02*
G37*
G36*
X76808Y26924D02*
X77001Y26886D01*
X77011Y26883D01*
X77193Y26808D01*
X77193Y26808D01*
X77202Y26803D01*
X77365Y26694D01*
X77365Y26694D01*
X77373Y26687D01*
X77512Y26548D01*
X77519Y26540D01*
X77519Y26540D01*
X77628Y26377D01*
X77628Y26377D01*
X77631Y26371D01*
X77633Y26368D01*
X77633Y26368D01*
X77708Y26186D01*
X77711Y26176D01*
X77749Y25983D01*
X77750Y25973D01*
Y25875D01*
Y25777D01*
X77749Y25767D01*
X77711Y25573D01*
X77708Y25564D01*
X77633Y25382D01*
X77633Y25382D01*
X77628Y25373D01*
X77519Y25210D01*
X77519Y25210D01*
X77512Y25202D01*
X77373Y25063D01*
X77365Y25056D01*
X77365Y25056D01*
X77202Y24947D01*
X77202Y24947D01*
X77196Y24944D01*
X77193Y24942D01*
X77193Y24942D01*
X77011Y24867D01*
X77001Y24864D01*
X76808Y24826D01*
X76798Y24825D01*
X76700D01*
X76690Y24826D01*
X76681Y24829D01*
X76672Y24833D01*
X76664Y24839D01*
X76658Y24847D01*
X76654Y24856D01*
X76651Y24865D01*
X76650Y24875D01*
Y26875D01*
X76651Y26885D01*
X76654Y26894D01*
X76658Y26903D01*
X76664Y26911D01*
X76672Y26917D01*
X76681Y26921D01*
X76690Y26924D01*
X76700Y26925D01*
X76798D01*
X76808Y26924D01*
D02*
G37*
G36*
X76310D02*
X76319Y26921D01*
X76328Y26917D01*
X76336Y26911D01*
X76342Y26903D01*
X76346Y26894D01*
X76349Y26885D01*
X76350Y26875D01*
Y24875D01*
X76349Y24865D01*
X76346Y24856D01*
X76342Y24847D01*
X76336Y24839D01*
X76328Y24833D01*
X76319Y24829D01*
X76310Y24826D01*
X76300Y24825D01*
X76202D01*
X76192Y24826D01*
X75999Y24864D01*
X75989Y24867D01*
X75807Y24942D01*
X75807Y24942D01*
X75804Y24944D01*
X75798Y24947D01*
X75798Y24947D01*
X75635Y25056D01*
X75635Y25056D01*
X75627Y25063D01*
X75488Y25202D01*
X75481Y25210D01*
X75481Y25210D01*
X75372Y25373D01*
X75367Y25382D01*
X75367Y25382D01*
X75292Y25564D01*
X75289Y25573D01*
X75251Y25767D01*
X75250Y25777D01*
Y25875D01*
Y25973D01*
X75251Y25983D01*
X75289Y26176D01*
X75292Y26186D01*
X75367Y26368D01*
X75367Y26368D01*
X75369Y26371D01*
X75372Y26377D01*
X75372Y26377D01*
X75481Y26540D01*
X75481Y26540D01*
X75488Y26548D01*
X75627Y26687D01*
X75635Y26694D01*
X75635Y26694D01*
X75798Y26803D01*
X75807Y26808D01*
X75807Y26808D01*
X75989Y26883D01*
X75999Y26886D01*
X76192Y26924D01*
X76202Y26925D01*
X76300D01*
X76310Y26924D01*
D02*
G37*
G36*
X64408D02*
X64601Y26886D01*
X64611Y26883D01*
X64793Y26808D01*
X64793Y26808D01*
X64802Y26803D01*
X64965Y26694D01*
X64965Y26694D01*
X64973Y26687D01*
X65112Y26548D01*
X65119Y26540D01*
X65119Y26540D01*
X65228Y26377D01*
X65228Y26377D01*
X65231Y26371D01*
X65233Y26368D01*
X65233Y26368D01*
X65308Y26186D01*
X65311Y26176D01*
X65349Y25983D01*
X65350Y25973D01*
Y25875D01*
Y25777D01*
X65349Y25767D01*
X65311Y25573D01*
X65308Y25564D01*
X65233Y25382D01*
X65233Y25382D01*
X65228Y25373D01*
X65119Y25210D01*
X65119Y25210D01*
X65112Y25202D01*
X64973Y25063D01*
X64965Y25056D01*
X64965Y25056D01*
X64802Y24947D01*
X64802Y24947D01*
X64796Y24944D01*
X64793Y24942D01*
X64793Y24942D01*
X64611Y24867D01*
X64601Y24864D01*
X64408Y24826D01*
X64398Y24825D01*
X64300D01*
X64290Y24826D01*
X64281Y24829D01*
X64272Y24833D01*
X64264Y24839D01*
X64258Y24847D01*
X64254Y24856D01*
X64251Y24865D01*
X64250Y24875D01*
Y26875D01*
X64251Y26885D01*
X64254Y26894D01*
X64258Y26903D01*
X64264Y26911D01*
X64272Y26917D01*
X64281Y26921D01*
X64290Y26924D01*
X64300Y26925D01*
X64398D01*
X64408Y26924D01*
D02*
G37*
G36*
X63910D02*
X63919Y26921D01*
X63928Y26917D01*
X63936Y26911D01*
X63942Y26903D01*
X63946Y26894D01*
X63949Y26885D01*
X63950Y26875D01*
Y24875D01*
X63949Y24865D01*
X63946Y24856D01*
X63942Y24847D01*
X63936Y24839D01*
X63928Y24833D01*
X63919Y24829D01*
X63910Y24826D01*
X63900Y24825D01*
X63802D01*
X63792Y24826D01*
X63599Y24864D01*
X63589Y24867D01*
X63407Y24942D01*
X63407Y24942D01*
X63404Y24944D01*
X63398Y24947D01*
X63398Y24947D01*
X63235Y25056D01*
X63235Y25056D01*
X63227Y25063D01*
X63088Y25202D01*
X63081Y25210D01*
X63081Y25210D01*
X62972Y25373D01*
X62967Y25382D01*
X62967Y25382D01*
X62892Y25564D01*
X62889Y25573D01*
X62851Y25767D01*
X62850Y25777D01*
Y25875D01*
Y25973D01*
X62851Y25983D01*
X62889Y26176D01*
X62892Y26186D01*
X62967Y26368D01*
X62967Y26368D01*
X62969Y26371D01*
X62972Y26377D01*
X62972Y26377D01*
X63081Y26540D01*
X63081Y26540D01*
X63088Y26548D01*
X63227Y26687D01*
X63235Y26694D01*
X63235Y26694D01*
X63398Y26803D01*
X63407Y26808D01*
X63407Y26808D01*
X63589Y26883D01*
X63599Y26886D01*
X63792Y26924D01*
X63802Y26925D01*
X63900D01*
X63910Y26924D01*
D02*
G37*
G36*
X56208Y25174D02*
X56401Y25136D01*
X56411Y25133D01*
X56593Y25058D01*
X56593Y25058D01*
X56596Y25056D01*
X56602Y25053D01*
X56602Y25053D01*
X56765Y24944D01*
X56765Y24944D01*
X56773Y24937D01*
X56912Y24798D01*
X56919Y24790D01*
X56919Y24790D01*
X57028Y24627D01*
X57033Y24618D01*
X57033Y24618D01*
X57108Y24436D01*
X57111Y24427D01*
X57149Y24233D01*
X57150Y24223D01*
Y24125D01*
Y24027D01*
X57149Y24017D01*
X57111Y23824D01*
X57108Y23814D01*
X57033Y23632D01*
X57033Y23632D01*
X57031Y23629D01*
X57028Y23623D01*
X57028Y23623D01*
X56919Y23460D01*
X56919Y23460D01*
X56912Y23452D01*
X56773Y23313D01*
X56765Y23306D01*
X56765Y23306D01*
X56602Y23197D01*
X56593Y23192D01*
X56593Y23192D01*
X56411Y23117D01*
X56401Y23114D01*
X56208Y23076D01*
X56198Y23075D01*
X56100D01*
X56090Y23076D01*
X56081Y23079D01*
X56072Y23083D01*
X56064Y23089D01*
X56058Y23097D01*
X56054Y23106D01*
X56051Y23115D01*
X56050Y23125D01*
Y25125D01*
X56051Y25135D01*
X56054Y25144D01*
X56058Y25153D01*
X56064Y25161D01*
X56072Y25167D01*
X56081Y25171D01*
X56090Y25174D01*
X56100Y25175D01*
X56198D01*
X56208Y25174D01*
D02*
G37*
G36*
X55710D02*
X55719Y25171D01*
X55728Y25167D01*
X55736Y25161D01*
X55742Y25153D01*
X55746Y25144D01*
X55749Y25135D01*
X55750Y25125D01*
Y23125D01*
X55749Y23115D01*
X55746Y23106D01*
X55742Y23097D01*
X55736Y23089D01*
X55728Y23083D01*
X55719Y23079D01*
X55710Y23076D01*
X55700Y23075D01*
X55602D01*
X55592Y23076D01*
X55399Y23114D01*
X55389Y23117D01*
X55207Y23192D01*
X55207Y23192D01*
X55198Y23197D01*
X55035Y23306D01*
X55035Y23306D01*
X55027Y23313D01*
X54888Y23452D01*
X54881Y23460D01*
X54881Y23460D01*
X54772Y23623D01*
X54772Y23623D01*
X54769Y23629D01*
X54767Y23632D01*
X54767Y23632D01*
X54692Y23814D01*
X54689Y23824D01*
X54651Y24017D01*
X54650Y24027D01*
Y24125D01*
Y24223D01*
X54651Y24233D01*
X54689Y24427D01*
X54692Y24436D01*
X54767Y24618D01*
X54767Y24618D01*
X54772Y24627D01*
X54881Y24790D01*
X54881Y24790D01*
X54888Y24798D01*
X55027Y24937D01*
X55035Y24944D01*
X55035Y24944D01*
X55198Y25053D01*
X55198Y25053D01*
X55204Y25056D01*
X55207Y25058D01*
X55207Y25058D01*
X55389Y25133D01*
X55399Y25136D01*
X55592Y25174D01*
X55602Y25175D01*
X55700D01*
X55710Y25174D01*
D02*
G37*
G36*
X43808D02*
X44001Y25136D01*
X44011Y25133D01*
X44193Y25058D01*
X44193Y25058D01*
X44196Y25056D01*
X44202Y25053D01*
X44202Y25053D01*
X44365Y24944D01*
X44365Y24944D01*
X44373Y24937D01*
X44512Y24798D01*
X44519Y24790D01*
X44519Y24790D01*
X44628Y24627D01*
X44633Y24618D01*
X44633Y24618D01*
X44708Y24436D01*
X44711Y24427D01*
X44749Y24233D01*
X44750Y24223D01*
Y24125D01*
Y24027D01*
X44749Y24017D01*
X44711Y23824D01*
X44708Y23814D01*
X44633Y23632D01*
X44633Y23632D01*
X44631Y23629D01*
X44628Y23623D01*
X44628Y23623D01*
X44519Y23460D01*
X44519Y23460D01*
X44512Y23452D01*
X44373Y23313D01*
X44365Y23306D01*
X44365Y23306D01*
X44202Y23197D01*
X44193Y23192D01*
X44193Y23192D01*
X44011Y23117D01*
X44001Y23114D01*
X43808Y23076D01*
X43798Y23075D01*
X43700D01*
X43690Y23076D01*
X43681Y23079D01*
X43672Y23083D01*
X43664Y23089D01*
X43658Y23097D01*
X43654Y23106D01*
X43651Y23115D01*
X43650Y23125D01*
Y25125D01*
X43651Y25135D01*
X43654Y25144D01*
X43658Y25153D01*
X43664Y25161D01*
X43672Y25167D01*
X43681Y25171D01*
X43690Y25174D01*
X43700Y25175D01*
X43798D01*
X43808Y25174D01*
D02*
G37*
G36*
X43310D02*
X43319Y25171D01*
X43328Y25167D01*
X43336Y25161D01*
X43342Y25153D01*
X43346Y25144D01*
X43349Y25135D01*
X43350Y25125D01*
Y23125D01*
X43349Y23115D01*
X43346Y23106D01*
X43342Y23097D01*
X43336Y23089D01*
X43328Y23083D01*
X43319Y23079D01*
X43310Y23076D01*
X43300Y23075D01*
X43202D01*
X43192Y23076D01*
X42999Y23114D01*
X42989Y23117D01*
X42807Y23192D01*
X42807Y23192D01*
X42798Y23197D01*
X42635Y23306D01*
X42635Y23306D01*
X42627Y23313D01*
X42488Y23452D01*
X42481Y23460D01*
X42481Y23460D01*
X42372Y23623D01*
X42372Y23623D01*
X42369Y23629D01*
X42367Y23632D01*
X42367Y23632D01*
X42292Y23814D01*
X42289Y23824D01*
X42251Y24017D01*
X42250Y24027D01*
Y24125D01*
Y24223D01*
X42251Y24233D01*
X42289Y24427D01*
X42292Y24436D01*
X42367Y24618D01*
X42367Y24618D01*
X42372Y24627D01*
X42481Y24790D01*
X42481Y24790D01*
X42488Y24798D01*
X42627Y24937D01*
X42635Y24944D01*
X42635Y24944D01*
X42798Y25053D01*
X42798Y25053D01*
X42804Y25056D01*
X42807Y25058D01*
X42807Y25058D01*
X42989Y25133D01*
X42999Y25136D01*
X43192Y25174D01*
X43202Y25175D01*
X43300D01*
X43310Y25174D01*
D02*
G37*
G36*
X76808Y22949D02*
X77001Y22911D01*
X77011Y22908D01*
X77193Y22833D01*
X77193Y22833D01*
X77202Y22828D01*
X77365Y22719D01*
X77365Y22719D01*
X77373Y22712D01*
X77512Y22573D01*
X77519Y22565D01*
X77519Y22565D01*
X77628Y22402D01*
X77628Y22402D01*
X77631Y22396D01*
X77633Y22393D01*
X77633Y22393D01*
X77708Y22211D01*
X77711Y22201D01*
X77749Y22008D01*
X77750Y21998D01*
Y21900D01*
Y21802D01*
X77749Y21792D01*
X77711Y21598D01*
X77708Y21589D01*
X77633Y21407D01*
X77633Y21407D01*
X77628Y21398D01*
X77519Y21235D01*
X77519Y21235D01*
X77512Y21227D01*
X77373Y21088D01*
X77365Y21081D01*
X77365Y21081D01*
X77202Y20972D01*
X77202Y20972D01*
X77196Y20969D01*
X77193Y20967D01*
X77193Y20967D01*
X77011Y20892D01*
X77001Y20889D01*
X76808Y20851D01*
X76798Y20850D01*
X76700D01*
X76690Y20851D01*
X76681Y20854D01*
X76672Y20858D01*
X76664Y20864D01*
X76658Y20872D01*
X76654Y20881D01*
X76651Y20890D01*
X76650Y20900D01*
Y22900D01*
X76651Y22910D01*
X76654Y22919D01*
X76658Y22928D01*
X76664Y22936D01*
X76672Y22942D01*
X76681Y22946D01*
X76690Y22949D01*
X76700Y22950D01*
X76798D01*
X76808Y22949D01*
D02*
G37*
G36*
X76310D02*
X76319Y22946D01*
X76328Y22942D01*
X76336Y22936D01*
X76342Y22928D01*
X76346Y22919D01*
X76349Y22910D01*
X76350Y22900D01*
Y20900D01*
X76349Y20890D01*
X76346Y20881D01*
X76342Y20872D01*
X76336Y20864D01*
X76328Y20858D01*
X76319Y20854D01*
X76310Y20851D01*
X76300Y20850D01*
X76202D01*
X76192Y20851D01*
X75999Y20889D01*
X75989Y20892D01*
X75807Y20967D01*
X75807Y20967D01*
X75804Y20969D01*
X75798Y20972D01*
X75798Y20972D01*
X75635Y21081D01*
X75635Y21081D01*
X75627Y21088D01*
X75488Y21227D01*
X75481Y21235D01*
X75481Y21235D01*
X75372Y21398D01*
X75367Y21407D01*
X75367Y21407D01*
X75292Y21589D01*
X75289Y21598D01*
X75251Y21792D01*
X75250Y21802D01*
Y21900D01*
Y21998D01*
X75251Y22008D01*
X75289Y22201D01*
X75292Y22211D01*
X75367Y22393D01*
X75367Y22393D01*
X75369Y22396D01*
X75372Y22402D01*
X75372Y22402D01*
X75481Y22565D01*
X75481Y22565D01*
X75488Y22573D01*
X75627Y22712D01*
X75635Y22719D01*
X75635Y22719D01*
X75798Y22828D01*
X75807Y22833D01*
X75807Y22833D01*
X75989Y22908D01*
X75999Y22911D01*
X76192Y22949D01*
X76202Y22950D01*
X76300D01*
X76310Y22949D01*
D02*
G37*
G36*
X64408D02*
X64601Y22911D01*
X64611Y22908D01*
X64793Y22833D01*
X64793Y22833D01*
X64802Y22828D01*
X64965Y22719D01*
X64965Y22719D01*
X64973Y22712D01*
X65112Y22573D01*
X65119Y22565D01*
X65119Y22565D01*
X65228Y22402D01*
X65228Y22402D01*
X65231Y22396D01*
X65233Y22393D01*
X65233Y22393D01*
X65308Y22211D01*
X65311Y22201D01*
X65349Y22008D01*
X65350Y21998D01*
Y21900D01*
Y21802D01*
X65349Y21792D01*
X65311Y21598D01*
X65308Y21589D01*
X65233Y21407D01*
X65233Y21407D01*
X65228Y21398D01*
X65119Y21235D01*
X65119Y21235D01*
X65112Y21227D01*
X64973Y21088D01*
X64965Y21081D01*
X64965Y21081D01*
X64802Y20972D01*
X64802Y20972D01*
X64796Y20969D01*
X64793Y20967D01*
X64793Y20967D01*
X64611Y20892D01*
X64601Y20889D01*
X64408Y20851D01*
X64398Y20850D01*
X64300D01*
X64290Y20851D01*
X64281Y20854D01*
X64272Y20858D01*
X64264Y20864D01*
X64258Y20872D01*
X64254Y20881D01*
X64251Y20890D01*
X64250Y20900D01*
Y22900D01*
X64251Y22910D01*
X64254Y22919D01*
X64258Y22928D01*
X64264Y22936D01*
X64272Y22942D01*
X64281Y22946D01*
X64290Y22949D01*
X64300Y22950D01*
X64398D01*
X64408Y22949D01*
D02*
G37*
G36*
X63910D02*
X63919Y22946D01*
X63928Y22942D01*
X63936Y22936D01*
X63942Y22928D01*
X63946Y22919D01*
X63949Y22910D01*
X63950Y22900D01*
Y20900D01*
X63949Y20890D01*
X63946Y20881D01*
X63942Y20872D01*
X63936Y20864D01*
X63928Y20858D01*
X63919Y20854D01*
X63910Y20851D01*
X63900Y20850D01*
X63802D01*
X63792Y20851D01*
X63599Y20889D01*
X63589Y20892D01*
X63407Y20967D01*
X63407Y20967D01*
X63404Y20969D01*
X63398Y20972D01*
X63398Y20972D01*
X63235Y21081D01*
X63235Y21081D01*
X63227Y21088D01*
X63088Y21227D01*
X63081Y21235D01*
X63081Y21235D01*
X62972Y21398D01*
X62967Y21407D01*
X62967Y21407D01*
X62892Y21589D01*
X62889Y21598D01*
X62851Y21792D01*
X62850Y21802D01*
Y21900D01*
Y21998D01*
X62851Y22008D01*
X62889Y22201D01*
X62892Y22211D01*
X62967Y22393D01*
X62967Y22393D01*
X62969Y22396D01*
X62972Y22402D01*
X62972Y22402D01*
X63081Y22565D01*
X63081Y22565D01*
X63088Y22573D01*
X63227Y22712D01*
X63235Y22719D01*
X63235Y22719D01*
X63398Y22828D01*
X63407Y22833D01*
X63407Y22833D01*
X63589Y22908D01*
X63599Y22911D01*
X63792Y22949D01*
X63802Y22950D01*
X63900D01*
X63910Y22949D01*
D02*
G37*
G36*
X76808Y18974D02*
X77001Y18936D01*
X77011Y18933D01*
X77193Y18858D01*
X77193Y18858D01*
X77202Y18853D01*
X77365Y18744D01*
X77365Y18744D01*
X77373Y18737D01*
X77512Y18598D01*
X77519Y18590D01*
X77519Y18590D01*
X77628Y18427D01*
X77628Y18427D01*
X77631Y18421D01*
X77633Y18418D01*
X77633Y18418D01*
X77708Y18236D01*
X77711Y18226D01*
X77749Y18033D01*
X77750Y18023D01*
Y17925D01*
Y17826D01*
X77749Y17817D01*
X77711Y17624D01*
X77708Y17614D01*
X77633Y17432D01*
X77633Y17432D01*
X77628Y17423D01*
X77519Y17260D01*
X77519Y17260D01*
X77512Y17252D01*
X77373Y17113D01*
X77365Y17106D01*
X77365Y17106D01*
X77202Y16997D01*
X77202Y16997D01*
X77196Y16994D01*
X77193Y16992D01*
X77193Y16992D01*
X77011Y16917D01*
X77001Y16914D01*
X76808Y16876D01*
X76798Y16875D01*
X76700D01*
X76690Y16876D01*
X76681Y16879D01*
X76672Y16883D01*
X76664Y16889D01*
X76658Y16897D01*
X76654Y16906D01*
X76651Y16915D01*
X76650Y16925D01*
Y18925D01*
X76651Y18935D01*
X76654Y18944D01*
X76658Y18953D01*
X76664Y18961D01*
X76672Y18967D01*
X76681Y18971D01*
X76690Y18974D01*
X76700Y18975D01*
X76798D01*
X76808Y18974D01*
D02*
G37*
G36*
X76310D02*
X76319Y18971D01*
X76328Y18967D01*
X76336Y18961D01*
X76342Y18953D01*
X76346Y18944D01*
X76349Y18935D01*
X76350Y18925D01*
Y16925D01*
X76349Y16915D01*
X76346Y16906D01*
X76342Y16897D01*
X76336Y16889D01*
X76328Y16883D01*
X76319Y16879D01*
X76310Y16876D01*
X76300Y16875D01*
X76202D01*
X76192Y16876D01*
X75999Y16914D01*
X75989Y16917D01*
X75807Y16992D01*
X75807Y16992D01*
X75804Y16994D01*
X75798Y16997D01*
X75798Y16997D01*
X75635Y17106D01*
X75635Y17106D01*
X75627Y17113D01*
X75488Y17252D01*
X75481Y17260D01*
X75481Y17260D01*
X75372Y17423D01*
X75367Y17432D01*
X75367Y17432D01*
X75292Y17614D01*
X75289Y17624D01*
X75251Y17817D01*
X75250Y17826D01*
Y17925D01*
Y18023D01*
X75251Y18033D01*
X75289Y18226D01*
X75292Y18236D01*
X75367Y18418D01*
X75367Y18418D01*
X75369Y18421D01*
X75372Y18427D01*
X75372Y18427D01*
X75481Y18590D01*
X75481Y18590D01*
X75488Y18598D01*
X75627Y18737D01*
X75635Y18744D01*
X75635Y18744D01*
X75798Y18853D01*
X75807Y18858D01*
X75807Y18858D01*
X75989Y18933D01*
X75999Y18936D01*
X76192Y18974D01*
X76202Y18975D01*
X76300D01*
X76310Y18974D01*
D02*
G37*
G36*
X88808Y17249D02*
X89001Y17211D01*
X89011Y17208D01*
X89193Y17133D01*
X89193Y17133D01*
X89196Y17131D01*
X89202Y17128D01*
X89202Y17128D01*
X89365Y17019D01*
X89365Y17019D01*
X89373Y17012D01*
X89512Y16873D01*
X89519Y16865D01*
X89519Y16865D01*
X89628Y16702D01*
X89633Y16693D01*
X89633Y16693D01*
X89708Y16511D01*
X89711Y16501D01*
X89749Y16308D01*
X89750Y16298D01*
Y16200D01*
Y16101D01*
X89749Y16092D01*
X89711Y15899D01*
X89708Y15889D01*
X89633Y15707D01*
X89633Y15707D01*
X89631Y15704D01*
X89628Y15698D01*
X89628Y15698D01*
X89519Y15535D01*
X89519Y15535D01*
X89512Y15527D01*
X89373Y15388D01*
X89365Y15381D01*
X89365Y15381D01*
X89202Y15272D01*
X89193Y15267D01*
X89193Y15267D01*
X89011Y15192D01*
X89001Y15189D01*
X88808Y15151D01*
X88798Y15150D01*
X88700D01*
X88690Y15151D01*
X88681Y15154D01*
X88672Y15158D01*
X88664Y15164D01*
X88658Y15172D01*
X88654Y15181D01*
X88651Y15190D01*
X88650Y15200D01*
Y17200D01*
X88651Y17210D01*
X88654Y17219D01*
X88658Y17228D01*
X88664Y17236D01*
X88672Y17242D01*
X88681Y17246D01*
X88690Y17249D01*
X88700Y17250D01*
X88798D01*
X88808Y17249D01*
D02*
G37*
G36*
X88310D02*
X88319Y17246D01*
X88328Y17242D01*
X88336Y17236D01*
X88342Y17228D01*
X88346Y17219D01*
X88349Y17210D01*
X88350Y17200D01*
Y15200D01*
X88349Y15190D01*
X88346Y15181D01*
X88342Y15172D01*
X88336Y15164D01*
X88328Y15158D01*
X88319Y15154D01*
X88310Y15151D01*
X88300Y15150D01*
X88202D01*
X88192Y15151D01*
X87999Y15189D01*
X87989Y15192D01*
X87807Y15267D01*
X87807Y15267D01*
X87798Y15272D01*
X87635Y15381D01*
X87635Y15381D01*
X87627Y15388D01*
X87488Y15527D01*
X87481Y15535D01*
X87481Y15535D01*
X87372Y15698D01*
X87372Y15698D01*
X87369Y15704D01*
X87367Y15707D01*
X87367Y15707D01*
X87292Y15889D01*
X87289Y15899D01*
X87251Y16092D01*
X87250Y16101D01*
Y16200D01*
Y16298D01*
X87251Y16308D01*
X87289Y16501D01*
X87292Y16511D01*
X87367Y16693D01*
X87367Y16693D01*
X87372Y16702D01*
X87481Y16865D01*
X87481Y16865D01*
X87488Y16873D01*
X87627Y17012D01*
X87635Y17019D01*
X87635Y17019D01*
X87798Y17128D01*
X87798Y17128D01*
X87804Y17131D01*
X87807Y17133D01*
X87807Y17133D01*
X87989Y17208D01*
X87999Y17211D01*
X88192Y17249D01*
X88202Y17250D01*
X88300D01*
X88310Y17249D01*
D02*
G37*
D34*
X18000Y23000D02*
D03*
Y21000D02*
D03*
Y53000D02*
D03*
Y51000D02*
D03*
X102000Y147000D02*
D03*
Y149000D02*
D03*
Y117000D02*
D03*
Y119000D02*
D03*
Y87000D02*
D03*
Y89000D02*
D03*
Y57000D02*
D03*
Y59000D02*
D03*
Y27000D02*
D03*
Y29000D02*
D03*
X18000Y143000D02*
D03*
Y141000D02*
D03*
Y113000D02*
D03*
Y111000D02*
D03*
Y83000D02*
D03*
Y81000D02*
D03*
D37*
X45000Y13000D02*
D03*
X12500Y17300D02*
D03*
X16000D02*
D03*
X16600Y34100D02*
D03*
X26200Y19400D02*
D03*
X20000Y19000D02*
D03*
X45000Y43000D02*
D03*
X12500Y47300D02*
D03*
X16000D02*
D03*
X16600Y64100D02*
D03*
X26200Y49400D02*
D03*
X20000Y49000D02*
D03*
X75000Y157000D02*
D03*
X107500Y152700D02*
D03*
X104000D02*
D03*
X103400Y135900D02*
D03*
X93800Y150600D02*
D03*
X100000Y151000D02*
D03*
X75000Y127000D02*
D03*
X107500Y122700D02*
D03*
X104000D02*
D03*
X103400Y105900D02*
D03*
X93800Y120600D02*
D03*
X100000Y121000D02*
D03*
X75000Y97000D02*
D03*
X107500Y92700D02*
D03*
X104000D02*
D03*
X103400Y75900D02*
D03*
X93800Y90600D02*
D03*
X100000Y91000D02*
D03*
X75000Y67000D02*
D03*
X107500Y62700D02*
D03*
X104000D02*
D03*
X103400Y45900D02*
D03*
X93800Y60600D02*
D03*
X100000Y61000D02*
D03*
X75000Y37000D02*
D03*
X107500Y32700D02*
D03*
X104000D02*
D03*
X103400Y15900D02*
D03*
X93800Y30600D02*
D03*
X100000Y31000D02*
D03*
X45000Y133000D02*
D03*
X12500Y137300D02*
D03*
X16000D02*
D03*
X16600Y154100D02*
D03*
X26200Y139400D02*
D03*
X20000Y139000D02*
D03*
X45000Y103000D02*
D03*
X12500Y107300D02*
D03*
X16000D02*
D03*
X16600Y124100D02*
D03*
X26200Y109400D02*
D03*
X20000Y109000D02*
D03*
X45000Y73000D02*
D03*
X12500Y77300D02*
D03*
X16000D02*
D03*
X16600Y94100D02*
D03*
X26200Y79400D02*
D03*
X20000Y79000D02*
D03*
D52*
X34730Y37000D02*
D03*
X37270D02*
D03*
X34730Y67000D02*
D03*
X37270D02*
D03*
X85270Y133000D02*
D03*
X82730D02*
D03*
X85270Y103000D02*
D03*
X82730D02*
D03*
X85270Y73000D02*
D03*
X82730D02*
D03*
X85270Y43000D02*
D03*
X82730D02*
D03*
X85270Y13000D02*
D03*
X82730D02*
D03*
X34730Y157000D02*
D03*
X37270D02*
D03*
X34730Y127000D02*
D03*
X37270D02*
D03*
X34730Y97000D02*
D03*
X37270D02*
D03*
D81*
X5000Y165000D02*
D03*
X115000Y5000D02*
D03*
D82*
Y166000D02*
D03*
X5000Y5000D02*
D03*
D83*
X55200Y24125D02*
D03*
X56600D02*
D03*
Y28100D02*
D03*
X55200D02*
D03*
X44200D02*
D03*
X42800D02*
D03*
X44200Y32075D02*
D03*
X42800D02*
D03*
X30800Y33800D02*
D03*
X32200D02*
D03*
X44200Y24125D02*
D03*
X42800D02*
D03*
X55200Y54125D02*
D03*
X56600D02*
D03*
Y58100D02*
D03*
X55200D02*
D03*
X44200D02*
D03*
X42800D02*
D03*
X44200Y62075D02*
D03*
X42800D02*
D03*
X30800Y63800D02*
D03*
X32200D02*
D03*
X44200Y54125D02*
D03*
X42800D02*
D03*
X64800Y145875D02*
D03*
X63400D02*
D03*
Y141900D02*
D03*
X64800D02*
D03*
X75800D02*
D03*
X77200D02*
D03*
X75800Y137925D02*
D03*
X77200D02*
D03*
X89200Y136200D02*
D03*
X87800D02*
D03*
X75800Y145875D02*
D03*
X77200D02*
D03*
X64800Y115875D02*
D03*
X63400D02*
D03*
Y111900D02*
D03*
X64800D02*
D03*
X75800D02*
D03*
X77200D02*
D03*
X75800Y107925D02*
D03*
X77200D02*
D03*
X89200Y106200D02*
D03*
X87800D02*
D03*
X75800Y115875D02*
D03*
X77200D02*
D03*
X64800Y85875D02*
D03*
X63400D02*
D03*
Y81900D02*
D03*
X64800D02*
D03*
X75800D02*
D03*
X77200D02*
D03*
X75800Y77925D02*
D03*
X77200D02*
D03*
X89200Y76200D02*
D03*
X87800D02*
D03*
X75800Y85875D02*
D03*
X77200D02*
D03*
X64800Y55875D02*
D03*
X63400D02*
D03*
Y51900D02*
D03*
X64800D02*
D03*
X75800D02*
D03*
X77200D02*
D03*
X75800Y47925D02*
D03*
X77200D02*
D03*
X89200Y46200D02*
D03*
X87800D02*
D03*
X75800Y55875D02*
D03*
X77200D02*
D03*
X64800Y25875D02*
D03*
X63400D02*
D03*
Y21900D02*
D03*
X64800D02*
D03*
X75800D02*
D03*
X77200D02*
D03*
X75800Y17925D02*
D03*
X77200D02*
D03*
X89200Y16200D02*
D03*
X87800D02*
D03*
X75800Y25875D02*
D03*
X77200D02*
D03*
X55200Y144125D02*
D03*
X56600D02*
D03*
Y148100D02*
D03*
X55200D02*
D03*
X44200D02*
D03*
X42800D02*
D03*
X44200Y152075D02*
D03*
X42800D02*
D03*
X30800Y153800D02*
D03*
X32200D02*
D03*
X44200Y144125D02*
D03*
X42800D02*
D03*
X55200Y114125D02*
D03*
X56600D02*
D03*
Y118100D02*
D03*
X55200D02*
D03*
X44200D02*
D03*
X42800D02*
D03*
X44200Y122075D02*
D03*
X42800D02*
D03*
X30800Y123800D02*
D03*
X32200D02*
D03*
X44200Y114125D02*
D03*
X42800D02*
D03*
X55200Y84125D02*
D03*
X56600D02*
D03*
Y88100D02*
D03*
X55200D02*
D03*
X44200D02*
D03*
X42800D02*
D03*
X44200Y92075D02*
D03*
X42800D02*
D03*
X30800Y93800D02*
D03*
X32200D02*
D03*
X44200Y84125D02*
D03*
X42800D02*
D03*
X30500Y26300D02*
D03*
X40500D02*
D03*
X41000Y21300D02*
D03*
X30000D02*
D03*
X30500Y56300D02*
D03*
X40500D02*
D03*
X41000Y51300D02*
D03*
X30000D02*
D03*
X89500Y143700D02*
D03*
X79500D02*
D03*
X79000Y148700D02*
D03*
X90000D02*
D03*
X89500Y113700D02*
D03*
X79500D02*
D03*
X79000Y118700D02*
D03*
X90000D02*
D03*
X89500Y83700D02*
D03*
X79500D02*
D03*
X79000Y88700D02*
D03*
X90000D02*
D03*
X89500Y53700D02*
D03*
X79500D02*
D03*
X79000Y58700D02*
D03*
X90000D02*
D03*
X89500Y23700D02*
D03*
X79500D02*
D03*
X79000Y28700D02*
D03*
X90000D02*
D03*
X30500Y146300D02*
D03*
X40500D02*
D03*
X41000Y141300D02*
D03*
X30000D02*
D03*
X30500Y116300D02*
D03*
X40500D02*
D03*
X41000Y111300D02*
D03*
X30000D02*
D03*
X30500Y86300D02*
D03*
X40500D02*
D03*
X41000Y81300D02*
D03*
X30000D02*
D03*
D84*
X36925Y33700D02*
D03*
Y63700D02*
D03*
X83075Y136300D02*
D03*
Y106300D02*
D03*
Y76300D02*
D03*
Y46300D02*
D03*
Y16300D02*
D03*
X36925Y153700D02*
D03*
Y123700D02*
D03*
Y93700D02*
D03*
D85*
X40075Y33700D02*
D03*
Y63700D02*
D03*
X79925Y136300D02*
D03*
Y106300D02*
D03*
Y76300D02*
D03*
Y46300D02*
D03*
Y16300D02*
D03*
X40075Y153700D02*
D03*
Y123700D02*
D03*
Y93700D02*
D03*
D86*
X38200Y30585D02*
D03*
X35800D02*
D03*
Y29635D02*
D03*
Y28685D02*
D03*
X38200D02*
D03*
Y29635D02*
D03*
Y60585D02*
D03*
X35800D02*
D03*
Y59635D02*
D03*
Y58685D02*
D03*
X38200D02*
D03*
Y59635D02*
D03*
X81800Y139415D02*
D03*
X84200D02*
D03*
Y140365D02*
D03*
Y141315D02*
D03*
X81800D02*
D03*
Y140365D02*
D03*
Y109415D02*
D03*
X84200D02*
D03*
Y110365D02*
D03*
Y111315D02*
D03*
X81800D02*
D03*
Y110365D02*
D03*
Y79415D02*
D03*
X84200D02*
D03*
Y80365D02*
D03*
Y81315D02*
D03*
X81800D02*
D03*
Y80365D02*
D03*
Y49415D02*
D03*
X84200D02*
D03*
Y50365D02*
D03*
Y51315D02*
D03*
X81800D02*
D03*
Y50365D02*
D03*
Y19415D02*
D03*
X84200D02*
D03*
Y20365D02*
D03*
Y21315D02*
D03*
X81800D02*
D03*
Y20365D02*
D03*
X38200Y150585D02*
D03*
X35800D02*
D03*
Y149635D02*
D03*
Y148685D02*
D03*
X38200D02*
D03*
Y149635D02*
D03*
Y120585D02*
D03*
X35800D02*
D03*
Y119635D02*
D03*
Y118685D02*
D03*
X38200D02*
D03*
Y119635D02*
D03*
Y90585D02*
D03*
X35800D02*
D03*
Y89635D02*
D03*
Y88685D02*
D03*
X38200D02*
D03*
Y89635D02*
D03*
D87*
X42750Y17870D02*
D03*
X41480D02*
D03*
X40210D02*
D03*
X38940D02*
D03*
X37670D02*
D03*
X36400D02*
D03*
X35130D02*
D03*
X33860D02*
D03*
X32590D02*
D03*
X31320D02*
D03*
X42750Y13800D02*
D03*
X41480D02*
D03*
X40210D02*
D03*
X38940D02*
D03*
X37670D02*
D03*
X36400D02*
D03*
X35130D02*
D03*
X33860D02*
D03*
X32590D02*
D03*
X31320D02*
D03*
X42750Y47870D02*
D03*
X41480D02*
D03*
X40210D02*
D03*
X38940D02*
D03*
X37670D02*
D03*
X36400D02*
D03*
X35130D02*
D03*
X33860D02*
D03*
X32590D02*
D03*
X31320D02*
D03*
X42750Y43800D02*
D03*
X41480D02*
D03*
X40210D02*
D03*
X38940D02*
D03*
X37670D02*
D03*
X36400D02*
D03*
X35130D02*
D03*
X33860D02*
D03*
X32590D02*
D03*
X31320D02*
D03*
X77250Y152130D02*
D03*
X78520D02*
D03*
X79790D02*
D03*
X81060D02*
D03*
X82330D02*
D03*
X83600D02*
D03*
X84870D02*
D03*
X86140D02*
D03*
X87410D02*
D03*
X88680D02*
D03*
X77250Y156200D02*
D03*
X78520D02*
D03*
X79790D02*
D03*
X81060D02*
D03*
X82330D02*
D03*
X83600D02*
D03*
X84870D02*
D03*
X86140D02*
D03*
X87410D02*
D03*
X88680D02*
D03*
X77250Y122130D02*
D03*
X78520D02*
D03*
X79790D02*
D03*
X81060D02*
D03*
X82330D02*
D03*
X83600D02*
D03*
X84870D02*
D03*
X86140D02*
D03*
X87410D02*
D03*
X88680D02*
D03*
X77250Y126200D02*
D03*
X78520D02*
D03*
X79790D02*
D03*
X81060D02*
D03*
X82330D02*
D03*
X83600D02*
D03*
X84870D02*
D03*
X86140D02*
D03*
X87410D02*
D03*
X88680D02*
D03*
X77250Y92130D02*
D03*
X78520D02*
D03*
X79790D02*
D03*
X81060D02*
D03*
X82330D02*
D03*
X83600D02*
D03*
X84870D02*
D03*
X86140D02*
D03*
X87410D02*
D03*
X88680D02*
D03*
X77250Y96200D02*
D03*
X78520D02*
D03*
X79790D02*
D03*
X81060D02*
D03*
X82330D02*
D03*
X83600D02*
D03*
X84870D02*
D03*
X86140D02*
D03*
X87410D02*
D03*
X88680D02*
D03*
X77250Y62130D02*
D03*
X78520D02*
D03*
X79790D02*
D03*
X81060D02*
D03*
X82330D02*
D03*
X83600D02*
D03*
X84870D02*
D03*
X86140D02*
D03*
X87410D02*
D03*
X88680D02*
D03*
X77250Y66200D02*
D03*
X78520D02*
D03*
X79790D02*
D03*
X81060D02*
D03*
X82330D02*
D03*
X83600D02*
D03*
X84870D02*
D03*
X86140D02*
D03*
X87410D02*
D03*
X88680D02*
D03*
X77250Y32130D02*
D03*
X78520D02*
D03*
X79790D02*
D03*
X81060D02*
D03*
X82330D02*
D03*
X83600D02*
D03*
X84870D02*
D03*
X86140D02*
D03*
X87410D02*
D03*
X88680D02*
D03*
X77250Y36200D02*
D03*
X78520D02*
D03*
X79790D02*
D03*
X81060D02*
D03*
X82330D02*
D03*
X83600D02*
D03*
X84870D02*
D03*
X86140D02*
D03*
X87410D02*
D03*
X88680D02*
D03*
X42750Y137870D02*
D03*
X41480D02*
D03*
X40210D02*
D03*
X38940D02*
D03*
X37670D02*
D03*
X36400D02*
D03*
X35130D02*
D03*
X33860D02*
D03*
X32590D02*
D03*
X31320D02*
D03*
X42750Y133800D02*
D03*
X41480D02*
D03*
X40210D02*
D03*
X38940D02*
D03*
X37670D02*
D03*
X36400D02*
D03*
X35130D02*
D03*
X33860D02*
D03*
X32590D02*
D03*
X31320D02*
D03*
X42750Y107870D02*
D03*
X41480D02*
D03*
X40210D02*
D03*
X38940D02*
D03*
X37670D02*
D03*
X36400D02*
D03*
X35130D02*
D03*
X33860D02*
D03*
X32590D02*
D03*
X31320D02*
D03*
X42750Y103800D02*
D03*
X41480D02*
D03*
X40210D02*
D03*
X38940D02*
D03*
X37670D02*
D03*
X36400D02*
D03*
X35130D02*
D03*
X33860D02*
D03*
X32590D02*
D03*
X31320D02*
D03*
X42750Y77870D02*
D03*
X41480D02*
D03*
X40210D02*
D03*
X38940D02*
D03*
X37670D02*
D03*
X36400D02*
D03*
X35130D02*
D03*
X33860D02*
D03*
X32590D02*
D03*
X31320D02*
D03*
X42750Y73800D02*
D03*
X41480D02*
D03*
X40210D02*
D03*
X38940D02*
D03*
X37670D02*
D03*
X36400D02*
D03*
X35130D02*
D03*
X33860D02*
D03*
X32590D02*
D03*
X31320D02*
D03*
D88*
X41000Y24700D02*
D03*
Y23300D02*
D03*
X39600Y24700D02*
D03*
Y23300D02*
D03*
X38200Y24700D02*
D03*
Y23300D02*
D03*
X41000Y54700D02*
D03*
Y53300D02*
D03*
X39600Y54700D02*
D03*
Y53300D02*
D03*
X38200Y54700D02*
D03*
Y53300D02*
D03*
X79000Y145300D02*
D03*
Y146700D02*
D03*
X80400Y145300D02*
D03*
Y146700D02*
D03*
X81800Y145300D02*
D03*
Y146700D02*
D03*
X79000Y115300D02*
D03*
Y116700D02*
D03*
X80400Y115300D02*
D03*
Y116700D02*
D03*
X81800Y115300D02*
D03*
Y116700D02*
D03*
X79000Y85300D02*
D03*
Y86700D02*
D03*
X80400Y85300D02*
D03*
Y86700D02*
D03*
X81800Y85300D02*
D03*
Y86700D02*
D03*
X79000Y55300D02*
D03*
Y56700D02*
D03*
X80400Y55300D02*
D03*
Y56700D02*
D03*
X81800Y55300D02*
D03*
Y56700D02*
D03*
X79000Y25300D02*
D03*
Y26700D02*
D03*
X80400Y25300D02*
D03*
Y26700D02*
D03*
X81800Y25300D02*
D03*
Y26700D02*
D03*
X41000Y144700D02*
D03*
Y143300D02*
D03*
X39600Y144700D02*
D03*
Y143300D02*
D03*
X38200Y144700D02*
D03*
Y143300D02*
D03*
X41000Y114700D02*
D03*
Y113300D02*
D03*
X39600Y114700D02*
D03*
Y113300D02*
D03*
X38200Y114700D02*
D03*
Y113300D02*
D03*
X41000Y84700D02*
D03*
Y83300D02*
D03*
X39600Y84700D02*
D03*
Y83300D02*
D03*
X38200Y84700D02*
D03*
Y83300D02*
D03*
D89*
X36800Y24700D02*
D03*
Y23300D02*
D03*
Y54700D02*
D03*
Y53300D02*
D03*
X83200Y145300D02*
D03*
Y146700D02*
D03*
Y115300D02*
D03*
Y116700D02*
D03*
Y85300D02*
D03*
Y86700D02*
D03*
Y55300D02*
D03*
Y56700D02*
D03*
Y25300D02*
D03*
Y26700D02*
D03*
X36800Y144700D02*
D03*
Y143300D02*
D03*
Y114700D02*
D03*
Y113300D02*
D03*
Y84700D02*
D03*
Y83300D02*
D03*
D90*
X46000Y27575D02*
D03*
Y28425D02*
D03*
X14700Y25675D02*
D03*
Y26525D02*
D03*
X46000Y57575D02*
D03*
Y58425D02*
D03*
X14700Y55675D02*
D03*
Y56525D02*
D03*
X74000Y142425D02*
D03*
Y141575D02*
D03*
X105300Y144325D02*
D03*
Y143475D02*
D03*
X74000Y112425D02*
D03*
Y111575D02*
D03*
X105300Y114325D02*
D03*
Y113475D02*
D03*
X74000Y82425D02*
D03*
Y81575D02*
D03*
X105300Y84325D02*
D03*
Y83475D02*
D03*
X74000Y52425D02*
D03*
Y51575D02*
D03*
X105300Y54325D02*
D03*
Y53475D02*
D03*
X74000Y22425D02*
D03*
Y21575D02*
D03*
X105300Y24325D02*
D03*
Y23475D02*
D03*
X46000Y147575D02*
D03*
Y148425D02*
D03*
X14700Y145675D02*
D03*
Y146525D02*
D03*
X46000Y117575D02*
D03*
Y118425D02*
D03*
X14700Y115675D02*
D03*
Y116525D02*
D03*
X46000Y87575D02*
D03*
Y88425D02*
D03*
X14700Y85675D02*
D03*
Y86525D02*
D03*
D91*
X52700Y32075D02*
D03*
X48200D02*
D03*
Y24125D02*
D03*
X52700D02*
D03*
X48200Y20175D02*
D03*
X52700D02*
D03*
Y12225D02*
D03*
X48200D02*
D03*
X52700Y62075D02*
D03*
X48200D02*
D03*
Y54125D02*
D03*
X52700D02*
D03*
X48200Y50175D02*
D03*
X52700D02*
D03*
Y42225D02*
D03*
X48200D02*
D03*
X67300Y137925D02*
D03*
X71800D02*
D03*
Y145875D02*
D03*
X67300D02*
D03*
X71800Y149825D02*
D03*
X67300D02*
D03*
Y157775D02*
D03*
X71800D02*
D03*
X67300Y107925D02*
D03*
X71800D02*
D03*
Y115875D02*
D03*
X67300D02*
D03*
X71800Y119825D02*
D03*
X67300D02*
D03*
Y127775D02*
D03*
X71800D02*
D03*
X67300Y77925D02*
D03*
X71800D02*
D03*
Y85875D02*
D03*
X67300D02*
D03*
X71800Y89825D02*
D03*
X67300D02*
D03*
Y97775D02*
D03*
X71800D02*
D03*
X67300Y47925D02*
D03*
X71800D02*
D03*
Y55875D02*
D03*
X67300D02*
D03*
X71800Y59825D02*
D03*
X67300D02*
D03*
Y67775D02*
D03*
X71800D02*
D03*
X67300Y17925D02*
D03*
X71800D02*
D03*
Y25875D02*
D03*
X67300D02*
D03*
X71800Y29825D02*
D03*
X67300D02*
D03*
Y37775D02*
D03*
X71800D02*
D03*
X52700Y152075D02*
D03*
X48200D02*
D03*
Y144125D02*
D03*
X52700D02*
D03*
X48200Y140175D02*
D03*
X52700D02*
D03*
Y132225D02*
D03*
X48200D02*
D03*
X52700Y122075D02*
D03*
X48200D02*
D03*
Y114125D02*
D03*
X52700D02*
D03*
X48200Y110175D02*
D03*
X52700D02*
D03*
Y102225D02*
D03*
X48200D02*
D03*
X52700Y92075D02*
D03*
X48200D02*
D03*
Y84125D02*
D03*
X52700D02*
D03*
X48200Y80175D02*
D03*
X52700D02*
D03*
Y72225D02*
D03*
X48200D02*
D03*
D92*
X34900Y25560D02*
D03*
X32100D02*
D03*
X34900Y55560D02*
D03*
X32100D02*
D03*
X85100Y144440D02*
D03*
X87900D02*
D03*
X85100Y114440D02*
D03*
X87900D02*
D03*
X85100Y84440D02*
D03*
X87900D02*
D03*
X85100Y54440D02*
D03*
X87900D02*
D03*
X85100Y24440D02*
D03*
X87900D02*
D03*
X34900Y145560D02*
D03*
X32100D02*
D03*
X34900Y115560D02*
D03*
X32100D02*
D03*
X34900Y85560D02*
D03*
X32100D02*
D03*
D93*
X33500Y22440D02*
D03*
Y52440D02*
D03*
X86500Y147560D02*
D03*
Y117560D02*
D03*
Y87560D02*
D03*
Y57560D02*
D03*
Y27560D02*
D03*
X33500Y142440D02*
D03*
Y112440D02*
D03*
Y82440D02*
D03*
D94*
X33700Y29675D02*
D03*
Y30525D02*
D03*
X17100Y15060D02*
D03*
Y14210D02*
D03*
X17100Y36210D02*
D03*
Y37060D02*
D03*
X33700Y59675D02*
D03*
Y60525D02*
D03*
X17100Y45060D02*
D03*
Y44210D02*
D03*
X17100Y66210D02*
D03*
Y67060D02*
D03*
X86300Y140325D02*
D03*
Y139475D02*
D03*
X102900Y154940D02*
D03*
Y155790D02*
D03*
X102900Y133790D02*
D03*
Y132940D02*
D03*
X86300Y110325D02*
D03*
Y109475D02*
D03*
X102900Y124940D02*
D03*
Y125790D02*
D03*
X102900Y103790D02*
D03*
Y102940D02*
D03*
X86300Y80325D02*
D03*
Y79475D02*
D03*
X102900Y94940D02*
D03*
Y95790D02*
D03*
X102900Y73790D02*
D03*
Y72940D02*
D03*
X86300Y50325D02*
D03*
Y49475D02*
D03*
X102900Y64940D02*
D03*
Y65790D02*
D03*
X102900Y43790D02*
D03*
Y42940D02*
D03*
X86300Y20325D02*
D03*
Y19475D02*
D03*
X102900Y34940D02*
D03*
Y35790D02*
D03*
X102900Y13790D02*
D03*
Y12940D02*
D03*
X33700Y149675D02*
D03*
Y150525D02*
D03*
X17100Y135060D02*
D03*
Y134210D02*
D03*
X17100Y156210D02*
D03*
Y157060D02*
D03*
X33700Y119675D02*
D03*
Y120525D02*
D03*
X17100Y105060D02*
D03*
Y104210D02*
D03*
X17100Y126210D02*
D03*
Y127060D02*
D03*
X33700Y89675D02*
D03*
Y90525D02*
D03*
X17100Y75060D02*
D03*
Y74210D02*
D03*
X17100Y96210D02*
D03*
Y97060D02*
D03*
D95*
X29800Y29635D02*
D03*
X31200D02*
D03*
X29800Y28365D02*
D03*
X31200D02*
D03*
X22600Y17700D02*
D03*
X24000D02*
D03*
X29800Y59635D02*
D03*
X31200D02*
D03*
X29800Y58365D02*
D03*
X31200D02*
D03*
X22600Y47700D02*
D03*
X24000D02*
D03*
X90200Y140365D02*
D03*
X88800D02*
D03*
X90200Y141635D02*
D03*
X88800D02*
D03*
X97400Y152300D02*
D03*
X96000D02*
D03*
X90200Y110365D02*
D03*
X88800D02*
D03*
X90200Y111635D02*
D03*
X88800D02*
D03*
X97400Y122300D02*
D03*
X96000D02*
D03*
X90200Y80365D02*
D03*
X88800D02*
D03*
X90200Y81635D02*
D03*
X88800D02*
D03*
X97400Y92300D02*
D03*
X96000D02*
D03*
X90200Y50365D02*
D03*
X88800D02*
D03*
X90200Y51635D02*
D03*
X88800D02*
D03*
X97400Y62300D02*
D03*
X96000D02*
D03*
X90200Y20365D02*
D03*
X88800D02*
D03*
X90200Y21635D02*
D03*
X88800D02*
D03*
X97400Y32300D02*
D03*
X96000D02*
D03*
X29800Y149635D02*
D03*
X31200D02*
D03*
X29800Y148365D02*
D03*
X31200D02*
D03*
X22600Y137700D02*
D03*
X24000D02*
D03*
X29800Y119635D02*
D03*
X31200D02*
D03*
X29800Y118365D02*
D03*
X31200D02*
D03*
X22600Y107700D02*
D03*
X24000D02*
D03*
X29800Y89635D02*
D03*
X31200D02*
D03*
X29800Y88365D02*
D03*
X31200D02*
D03*
X22600Y77700D02*
D03*
X24000D02*
D03*
D96*
X24550Y22350D02*
D03*
X26450D02*
D03*
X25500Y24650D02*
D03*
X21100D02*
D03*
X22050Y22350D02*
D03*
X20150D02*
D03*
X56100Y20750D02*
D03*
X57050Y18450D02*
D03*
X55150D02*
D03*
X24550Y52350D02*
D03*
X26450D02*
D03*
X25500Y54650D02*
D03*
X21100D02*
D03*
X22050Y52350D02*
D03*
X20150D02*
D03*
X56100Y50750D02*
D03*
X57050Y48450D02*
D03*
X55150D02*
D03*
X95450Y147650D02*
D03*
X93550D02*
D03*
X94500Y145350D02*
D03*
X98900D02*
D03*
X97950Y147650D02*
D03*
X99850D02*
D03*
X63900Y149250D02*
D03*
X62950Y151550D02*
D03*
X64850D02*
D03*
X95450Y117650D02*
D03*
X93550D02*
D03*
X94500Y115350D02*
D03*
X98900D02*
D03*
X97950Y117650D02*
D03*
X99850D02*
D03*
X63900Y119250D02*
D03*
X62950Y121550D02*
D03*
X64850D02*
D03*
X95450Y87650D02*
D03*
X93550D02*
D03*
X94500Y85350D02*
D03*
X98900D02*
D03*
X97950Y87650D02*
D03*
X99850D02*
D03*
X63900Y89250D02*
D03*
X62950Y91550D02*
D03*
X64850D02*
D03*
X95450Y57650D02*
D03*
X93550D02*
D03*
X94500Y55350D02*
D03*
X98900D02*
D03*
X97950Y57650D02*
D03*
X99850D02*
D03*
X63900Y59250D02*
D03*
X62950Y61550D02*
D03*
X64850D02*
D03*
X95450Y27650D02*
D03*
X93550D02*
D03*
X94500Y25350D02*
D03*
X98900D02*
D03*
X97950Y27650D02*
D03*
X99850D02*
D03*
X63900Y29250D02*
D03*
X62950Y31550D02*
D03*
X64850D02*
D03*
X24550Y142350D02*
D03*
X26450D02*
D03*
X25500Y144650D02*
D03*
X21100D02*
D03*
X22050Y142350D02*
D03*
X20150D02*
D03*
X56100Y140750D02*
D03*
X57050Y138450D02*
D03*
X55150D02*
D03*
X24550Y112350D02*
D03*
X26450D02*
D03*
X25500Y114650D02*
D03*
X21100D02*
D03*
X22050Y112350D02*
D03*
X20150D02*
D03*
X56100Y110750D02*
D03*
X57050Y108450D02*
D03*
X55150D02*
D03*
X24550Y82350D02*
D03*
X26450D02*
D03*
X25500Y84650D02*
D03*
X21100D02*
D03*
X22050Y82350D02*
D03*
X20150D02*
D03*
X56100Y80750D02*
D03*
X57050Y78450D02*
D03*
X55150D02*
D03*
D97*
X24000Y19000D02*
D03*
X22600D02*
D03*
X24000Y49000D02*
D03*
X22600D02*
D03*
X96000Y151000D02*
D03*
X97400D02*
D03*
X96000Y121000D02*
D03*
X97400D02*
D03*
X96000Y91000D02*
D03*
X97400D02*
D03*
X96000Y61000D02*
D03*
X97400D02*
D03*
X96000Y31000D02*
D03*
X97400D02*
D03*
X24000Y139000D02*
D03*
X22600D02*
D03*
X24000Y109000D02*
D03*
X22600D02*
D03*
X24000Y79000D02*
D03*
X22600D02*
D03*
D98*
X20600Y15905D02*
D03*
Y14635D02*
D03*
Y13365D02*
D03*
Y12095D02*
D03*
X26000Y15905D02*
D03*
Y14635D02*
D03*
Y13365D02*
D03*
Y12095D02*
D03*
Y27095D02*
D03*
Y28365D02*
D03*
Y29635D02*
D03*
Y30905D02*
D03*
X20600Y27095D02*
D03*
Y28365D02*
D03*
Y29635D02*
D03*
Y30905D02*
D03*
X26000Y34095D02*
D03*
Y35365D02*
D03*
Y36635D02*
D03*
Y37905D02*
D03*
X20600Y34095D02*
D03*
Y35365D02*
D03*
Y36635D02*
D03*
Y37905D02*
D03*
Y45905D02*
D03*
Y44635D02*
D03*
Y43365D02*
D03*
Y42095D02*
D03*
X26000Y45905D02*
D03*
Y44635D02*
D03*
Y43365D02*
D03*
Y42095D02*
D03*
Y57095D02*
D03*
Y58365D02*
D03*
Y59635D02*
D03*
Y60905D02*
D03*
X20600Y57095D02*
D03*
Y58365D02*
D03*
Y59635D02*
D03*
Y60905D02*
D03*
X26000Y64095D02*
D03*
Y65365D02*
D03*
Y66635D02*
D03*
Y67905D02*
D03*
X20600Y64095D02*
D03*
Y65365D02*
D03*
Y66635D02*
D03*
Y67905D02*
D03*
X99400Y154095D02*
D03*
Y155365D02*
D03*
Y156635D02*
D03*
Y157905D02*
D03*
X94000Y154095D02*
D03*
Y155365D02*
D03*
Y156635D02*
D03*
Y157905D02*
D03*
Y142905D02*
D03*
Y141635D02*
D03*
Y140365D02*
D03*
Y139095D02*
D03*
X99400Y142905D02*
D03*
Y141635D02*
D03*
Y140365D02*
D03*
Y139095D02*
D03*
X94000Y135905D02*
D03*
Y134635D02*
D03*
Y133365D02*
D03*
Y132095D02*
D03*
X99400Y135905D02*
D03*
Y134635D02*
D03*
Y133365D02*
D03*
Y132095D02*
D03*
Y124095D02*
D03*
Y125365D02*
D03*
Y126635D02*
D03*
Y127905D02*
D03*
X94000Y124095D02*
D03*
Y125365D02*
D03*
Y126635D02*
D03*
Y127905D02*
D03*
Y112905D02*
D03*
Y111635D02*
D03*
Y110365D02*
D03*
Y109095D02*
D03*
X99400Y112905D02*
D03*
Y111635D02*
D03*
Y110365D02*
D03*
Y109095D02*
D03*
X94000Y105905D02*
D03*
Y104635D02*
D03*
Y103365D02*
D03*
Y102095D02*
D03*
X99400Y105905D02*
D03*
Y104635D02*
D03*
Y103365D02*
D03*
Y102095D02*
D03*
Y94095D02*
D03*
Y95365D02*
D03*
Y96635D02*
D03*
Y97905D02*
D03*
X94000Y94095D02*
D03*
Y95365D02*
D03*
Y96635D02*
D03*
Y97905D02*
D03*
Y82905D02*
D03*
Y81635D02*
D03*
Y80365D02*
D03*
Y79095D02*
D03*
X99400Y82905D02*
D03*
Y81635D02*
D03*
Y80365D02*
D03*
Y79095D02*
D03*
X94000Y75905D02*
D03*
Y74635D02*
D03*
Y73365D02*
D03*
Y72095D02*
D03*
X99400Y75905D02*
D03*
Y74635D02*
D03*
Y73365D02*
D03*
Y72095D02*
D03*
Y64095D02*
D03*
Y65365D02*
D03*
Y66635D02*
D03*
Y67905D02*
D03*
X94000Y64095D02*
D03*
Y65365D02*
D03*
Y66635D02*
D03*
Y67905D02*
D03*
Y52905D02*
D03*
Y51635D02*
D03*
Y50365D02*
D03*
Y49095D02*
D03*
X99400Y52905D02*
D03*
Y51635D02*
D03*
Y50365D02*
D03*
Y49095D02*
D03*
X94000Y45905D02*
D03*
Y44635D02*
D03*
Y43365D02*
D03*
Y42095D02*
D03*
X99400Y45905D02*
D03*
Y44635D02*
D03*
Y43365D02*
D03*
Y42095D02*
D03*
Y34095D02*
D03*
Y35365D02*
D03*
Y36635D02*
D03*
Y37905D02*
D03*
X94000Y34095D02*
D03*
Y35365D02*
D03*
Y36635D02*
D03*
Y37905D02*
D03*
Y22905D02*
D03*
Y21635D02*
D03*
Y20365D02*
D03*
Y19095D02*
D03*
X99400Y22905D02*
D03*
Y21635D02*
D03*
Y20365D02*
D03*
Y19095D02*
D03*
X94000Y15905D02*
D03*
Y14635D02*
D03*
Y13365D02*
D03*
Y12095D02*
D03*
X99400Y15905D02*
D03*
Y14635D02*
D03*
Y13365D02*
D03*
Y12095D02*
D03*
X20600Y135905D02*
D03*
Y134635D02*
D03*
Y133365D02*
D03*
Y132095D02*
D03*
X26000Y135905D02*
D03*
Y134635D02*
D03*
Y133365D02*
D03*
Y132095D02*
D03*
Y147095D02*
D03*
Y148365D02*
D03*
Y149635D02*
D03*
Y150905D02*
D03*
X20600Y147095D02*
D03*
Y148365D02*
D03*
Y149635D02*
D03*
Y150905D02*
D03*
X26000Y154095D02*
D03*
Y155365D02*
D03*
Y156635D02*
D03*
Y157905D02*
D03*
X20600Y154095D02*
D03*
Y155365D02*
D03*
Y156635D02*
D03*
Y157905D02*
D03*
Y105905D02*
D03*
Y104635D02*
D03*
Y103365D02*
D03*
Y102095D02*
D03*
X26000Y105905D02*
D03*
Y104635D02*
D03*
Y103365D02*
D03*
Y102095D02*
D03*
Y117095D02*
D03*
Y118365D02*
D03*
Y119635D02*
D03*
Y120905D02*
D03*
X20600Y117095D02*
D03*
Y118365D02*
D03*
Y119635D02*
D03*
Y120905D02*
D03*
X26000Y124095D02*
D03*
Y125365D02*
D03*
Y126635D02*
D03*
Y127905D02*
D03*
X20600Y124095D02*
D03*
Y125365D02*
D03*
Y126635D02*
D03*
Y127905D02*
D03*
Y75905D02*
D03*
Y74635D02*
D03*
Y73365D02*
D03*
Y72095D02*
D03*
X26000Y75905D02*
D03*
Y74635D02*
D03*
Y73365D02*
D03*
Y72095D02*
D03*
Y87095D02*
D03*
Y88365D02*
D03*
Y89635D02*
D03*
Y90905D02*
D03*
X20600Y87095D02*
D03*
Y88365D02*
D03*
Y89635D02*
D03*
Y90905D02*
D03*
X26000Y94095D02*
D03*
Y95365D02*
D03*
Y96635D02*
D03*
Y97905D02*
D03*
X20600Y94095D02*
D03*
Y95365D02*
D03*
Y96635D02*
D03*
Y97905D02*
D03*
D99*
X16600Y29600D02*
D03*
Y26800D02*
D03*
Y59600D02*
D03*
Y56800D02*
D03*
X103400Y140400D02*
D03*
Y143200D02*
D03*
Y110400D02*
D03*
Y113200D02*
D03*
Y80400D02*
D03*
Y83200D02*
D03*
Y50400D02*
D03*
Y53200D02*
D03*
Y20400D02*
D03*
Y23200D02*
D03*
X16600Y149600D02*
D03*
Y146800D02*
D03*
Y119600D02*
D03*
Y116800D02*
D03*
Y89600D02*
D03*
Y86800D02*
D03*
D100*
X11525Y20054D02*
D03*
Y29954D02*
D03*
Y50054D02*
D03*
Y59954D02*
D03*
X108475Y149946D02*
D03*
Y140046D02*
D03*
Y119946D02*
D03*
Y110046D02*
D03*
Y89946D02*
D03*
Y80046D02*
D03*
Y59946D02*
D03*
Y50046D02*
D03*
Y29946D02*
D03*
Y20046D02*
D03*
X11525Y140054D02*
D03*
Y149954D02*
D03*
Y110054D02*
D03*
Y119954D02*
D03*
Y80054D02*
D03*
Y89954D02*
D03*
D101*
X11855Y21004D02*
D03*
Y29004D02*
D03*
Y51004D02*
D03*
Y59004D02*
D03*
X108145Y148996D02*
D03*
Y140996D02*
D03*
Y118996D02*
D03*
Y110996D02*
D03*
Y88996D02*
D03*
Y80996D02*
D03*
Y58996D02*
D03*
Y50996D02*
D03*
Y28996D02*
D03*
Y20996D02*
D03*
X11855Y141004D02*
D03*
Y149004D02*
D03*
Y111004D02*
D03*
Y119004D02*
D03*
Y81004D02*
D03*
Y89004D02*
D03*
D102*
X16300Y19500D02*
D03*
Y49500D02*
D03*
X103700Y150500D02*
D03*
Y120500D02*
D03*
Y90500D02*
D03*
Y60500D02*
D03*
Y30500D02*
D03*
X16300Y139500D02*
D03*
Y109500D02*
D03*
Y79500D02*
D03*
D103*
X40460Y37000D02*
D03*
X43000D02*
D03*
X45540D02*
D03*
X40460Y67000D02*
D03*
X43000D02*
D03*
X45540D02*
D03*
X79540Y133000D02*
D03*
X77000D02*
D03*
X74460D02*
D03*
X79540Y103000D02*
D03*
X77000D02*
D03*
X74460D02*
D03*
X79540Y73000D02*
D03*
X77000D02*
D03*
X74460D02*
D03*
X79540Y43000D02*
D03*
X77000D02*
D03*
X74460D02*
D03*
X79540Y13000D02*
D03*
X77000D02*
D03*
X74460D02*
D03*
X40460Y157000D02*
D03*
X43000D02*
D03*
X45540D02*
D03*
X40460Y127000D02*
D03*
X43000D02*
D03*
X45540D02*
D03*
X40460Y97000D02*
D03*
X43000D02*
D03*
X45540D02*
D03*
D104*
X56000Y14000D02*
D03*
X14000D02*
D03*
Y36000D02*
D03*
X56000Y44000D02*
D03*
X14000D02*
D03*
Y66000D02*
D03*
X64000Y156000D02*
D03*
X106000D02*
D03*
Y134000D02*
D03*
X64000Y126000D02*
D03*
X106000D02*
D03*
Y104000D02*
D03*
X64000Y96000D02*
D03*
X106000D02*
D03*
Y74000D02*
D03*
X64000Y66000D02*
D03*
X106000D02*
D03*
Y44000D02*
D03*
X64000Y36000D02*
D03*
X106000D02*
D03*
Y14000D02*
D03*
X56000Y134000D02*
D03*
X14000D02*
D03*
Y156000D02*
D03*
X56000Y104000D02*
D03*
X14000D02*
D03*
Y126000D02*
D03*
X56000Y74000D02*
D03*
X14000D02*
D03*
Y96000D02*
D03*
D105*
X30300Y30900D02*
D03*
X56000Y34100D02*
D03*
X50100Y34000D02*
D03*
X52000Y35200D02*
D03*
X54000D02*
D03*
X50050Y25150D02*
D03*
X51300Y27800D02*
D03*
X58500Y28800D02*
D03*
X58325Y27075D02*
D03*
X50500Y21100D02*
D03*
X58325Y25075D02*
D03*
X52000Y22750D02*
D03*
X58325Y31075D02*
D03*
X51000Y35200D02*
D03*
X55000D02*
D03*
X54500Y32600D02*
D03*
X51300Y30200D02*
D03*
X30300Y60900D02*
D03*
X56000Y64100D02*
D03*
X50100Y64000D02*
D03*
X52000Y65200D02*
D03*
X54000D02*
D03*
X50050Y55150D02*
D03*
X51300Y57800D02*
D03*
X58500Y58800D02*
D03*
X58325Y57075D02*
D03*
X50500Y51100D02*
D03*
X58325Y55075D02*
D03*
X52000Y52750D02*
D03*
X58325Y61075D02*
D03*
X51000Y65200D02*
D03*
X55000D02*
D03*
X54500Y62600D02*
D03*
X51300Y60200D02*
D03*
X89700Y139100D02*
D03*
X64000Y135900D02*
D03*
X69900Y136000D02*
D03*
X68000Y134800D02*
D03*
X66000D02*
D03*
X69950Y144850D02*
D03*
X68700Y142200D02*
D03*
X61500Y141200D02*
D03*
X61675Y142925D02*
D03*
X69500Y148900D02*
D03*
X61675Y144925D02*
D03*
X68000Y147250D02*
D03*
X61675Y138925D02*
D03*
X69000Y134800D02*
D03*
X65000D02*
D03*
X65500Y137400D02*
D03*
X68700Y139800D02*
D03*
X89700Y109100D02*
D03*
X64000Y105900D02*
D03*
X69900Y106000D02*
D03*
X68000Y104800D02*
D03*
X66000D02*
D03*
X69950Y114850D02*
D03*
X68700Y112200D02*
D03*
X61500Y111200D02*
D03*
X61675Y112925D02*
D03*
X69500Y118900D02*
D03*
X61675Y114925D02*
D03*
X68000Y117250D02*
D03*
X61675Y108925D02*
D03*
X69000Y104800D02*
D03*
X65000D02*
D03*
X65500Y107400D02*
D03*
X68700Y109800D02*
D03*
X89700Y79100D02*
D03*
X64000Y75900D02*
D03*
X69900Y76000D02*
D03*
X68000Y74800D02*
D03*
X66000D02*
D03*
X69950Y84850D02*
D03*
X68700Y82200D02*
D03*
X61500Y81200D02*
D03*
X61675Y82925D02*
D03*
X69500Y88900D02*
D03*
X61675Y84925D02*
D03*
X68000Y87250D02*
D03*
X61675Y78925D02*
D03*
X69000Y74800D02*
D03*
X65000D02*
D03*
X65500Y77400D02*
D03*
X68700Y79800D02*
D03*
X89700Y49100D02*
D03*
X64000Y45900D02*
D03*
X69900Y46000D02*
D03*
X68000Y44800D02*
D03*
X66000D02*
D03*
X69950Y54850D02*
D03*
X68700Y52200D02*
D03*
X61500Y51200D02*
D03*
X61675Y52925D02*
D03*
X69500Y58900D02*
D03*
X61675Y54925D02*
D03*
X68000Y57250D02*
D03*
X61675Y48925D02*
D03*
X69000Y44800D02*
D03*
X65000D02*
D03*
X65500Y47400D02*
D03*
X68700Y49800D02*
D03*
X89700Y19100D02*
D03*
X64000Y15900D02*
D03*
X69900Y16000D02*
D03*
X68000Y14800D02*
D03*
X66000D02*
D03*
X69950Y24850D02*
D03*
X68700Y22200D02*
D03*
X61500Y21200D02*
D03*
X61675Y22925D02*
D03*
X69500Y28900D02*
D03*
X61675Y24925D02*
D03*
X68000Y27250D02*
D03*
X61675Y18925D02*
D03*
X69000Y14800D02*
D03*
X65000D02*
D03*
X65500Y17400D02*
D03*
X68700Y19800D02*
D03*
X30300Y150900D02*
D03*
X56000Y154100D02*
D03*
X50100Y154000D02*
D03*
X52000Y155200D02*
D03*
X54000D02*
D03*
X50050Y145150D02*
D03*
X51300Y147800D02*
D03*
X58500Y148800D02*
D03*
X58325Y147075D02*
D03*
X50500Y141100D02*
D03*
X58325Y145075D02*
D03*
X52000Y142750D02*
D03*
X58325Y151075D02*
D03*
X51000Y155200D02*
D03*
X55000D02*
D03*
X54500Y152600D02*
D03*
X51300Y150200D02*
D03*
X30300Y120900D02*
D03*
X56000Y124100D02*
D03*
X50100Y124000D02*
D03*
X52000Y125200D02*
D03*
X54000D02*
D03*
X50050Y115150D02*
D03*
X51300Y117800D02*
D03*
X58500Y118800D02*
D03*
X58325Y117075D02*
D03*
X50500Y111100D02*
D03*
X58325Y115075D02*
D03*
X52000Y112750D02*
D03*
X58325Y121075D02*
D03*
X51000Y125200D02*
D03*
X55000D02*
D03*
X54500Y122600D02*
D03*
X51300Y120200D02*
D03*
X30300Y90900D02*
D03*
X56000Y94100D02*
D03*
X50100Y94000D02*
D03*
X52000Y95200D02*
D03*
X54000D02*
D03*
X50050Y85150D02*
D03*
X51300Y87800D02*
D03*
X58500Y88800D02*
D03*
X58325Y87075D02*
D03*
X50500Y81100D02*
D03*
X58325Y85075D02*
D03*
X52000Y82750D02*
D03*
X58325Y91075D02*
D03*
X51000Y95200D02*
D03*
X55000D02*
D03*
X54500Y92600D02*
D03*
X51300Y90200D02*
D03*
D106*
X22500Y37600D02*
D03*
X24019Y37369D02*
D03*
X24000Y13000D02*
D03*
Y15200D02*
D03*
X35400Y33700D02*
D03*
X33800Y33000D02*
D03*
X34100Y28685D02*
D03*
X39000Y27735D02*
D03*
X32400Y31800D02*
D03*
X50000Y18800D02*
D03*
X29100Y17900D02*
D03*
X29700Y37000D02*
D03*
X35900Y21800D02*
D03*
X47200Y37200D02*
D03*
X54600Y22200D02*
D03*
X50050Y14200D02*
D03*
X50287Y12900D02*
D03*
X58500Y19600D02*
D03*
X22800Y31600D02*
D03*
X23800Y25425D02*
D03*
X16600Y31100D02*
D03*
X14800Y32000D02*
D03*
X16600Y25200D02*
D03*
X14700Y24379D02*
D03*
Y27879D02*
D03*
Y22379D02*
D03*
X18550Y29000D02*
D03*
X56100Y22000D02*
D03*
X54600Y20300D02*
D03*
X35500Y23300D02*
D03*
X34900Y27250D02*
D03*
X27700Y34095D02*
D03*
X24000Y36000D02*
D03*
X46300Y25150D02*
D03*
X57050Y16750D02*
D03*
X55150D02*
D03*
X35130Y20170D02*
D03*
X31320D02*
D03*
X41500Y33100D02*
D03*
X46275Y33125D02*
D03*
X45290Y19000D02*
D03*
X44020D02*
D03*
X38940Y20170D02*
D03*
X42750D02*
D03*
X45700Y30075D02*
D03*
X47175Y34075D02*
D03*
X39900Y28685D02*
D03*
X40800Y29635D02*
D03*
X41700Y30585D02*
D03*
X27700Y13365D02*
D03*
X36800Y26400D02*
D03*
X48200Y16200D02*
D03*
X18900Y27095D02*
D03*
X29275Y12695D02*
D03*
X24200Y27730D02*
D03*
X24300Y30905D02*
D03*
X31320Y11500D02*
D03*
X33860D02*
D03*
X36400D02*
D03*
X40210D02*
D03*
X42750D02*
D03*
X52700Y16200D02*
D03*
X32900Y28365D02*
D03*
X24250Y20900D02*
D03*
X18625Y30905D02*
D03*
X24000Y14000D02*
D03*
X18900Y14635D02*
D03*
Y12095D02*
D03*
X27700D02*
D03*
Y14635D02*
D03*
X18900Y34095D02*
D03*
Y36635D02*
D03*
X27700D02*
D03*
X22500Y67600D02*
D03*
X24019Y67369D02*
D03*
X24000Y43000D02*
D03*
Y45200D02*
D03*
X35400Y63700D02*
D03*
X33800Y63000D02*
D03*
X34100Y58685D02*
D03*
X39000Y57735D02*
D03*
X32400Y61800D02*
D03*
X50000Y48800D02*
D03*
X29100Y47900D02*
D03*
X29700Y67000D02*
D03*
X35900Y51800D02*
D03*
X47200Y67200D02*
D03*
X54600Y52200D02*
D03*
X50050Y44200D02*
D03*
X50287Y42900D02*
D03*
X58500Y49600D02*
D03*
X22800Y61600D02*
D03*
X23800Y55425D02*
D03*
X16600Y61100D02*
D03*
X14800Y62000D02*
D03*
X16600Y55200D02*
D03*
X14700Y54379D02*
D03*
Y57879D02*
D03*
Y52379D02*
D03*
X18550Y59000D02*
D03*
X56100Y52000D02*
D03*
X54600Y50300D02*
D03*
X35500Y53300D02*
D03*
X34900Y57250D02*
D03*
X27700Y64095D02*
D03*
X24000Y66000D02*
D03*
X46300Y55150D02*
D03*
X57050Y46750D02*
D03*
X55150D02*
D03*
X35130Y50170D02*
D03*
X31320D02*
D03*
X41500Y63100D02*
D03*
X46275Y63125D02*
D03*
X45290Y49000D02*
D03*
X44020D02*
D03*
X38940Y50170D02*
D03*
X42750D02*
D03*
X45700Y60075D02*
D03*
X47175Y64075D02*
D03*
X39900Y58685D02*
D03*
X40800Y59635D02*
D03*
X41700Y60585D02*
D03*
X27700Y43365D02*
D03*
X36800Y56400D02*
D03*
X48200Y46200D02*
D03*
X18900Y57095D02*
D03*
X29275Y42695D02*
D03*
X24200Y57730D02*
D03*
X24300Y60905D02*
D03*
X31320Y41500D02*
D03*
X33860D02*
D03*
X36400D02*
D03*
X40210D02*
D03*
X42750D02*
D03*
X52700Y46200D02*
D03*
X32900Y58365D02*
D03*
X24250Y50900D02*
D03*
X18625Y60905D02*
D03*
X24000Y44000D02*
D03*
X18900Y44635D02*
D03*
Y42095D02*
D03*
X27700D02*
D03*
Y44635D02*
D03*
X18900Y64095D02*
D03*
Y66635D02*
D03*
X27700D02*
D03*
X97500Y132400D02*
D03*
X95981Y132631D02*
D03*
X96000Y157000D02*
D03*
Y154800D02*
D03*
X84600Y136300D02*
D03*
X86200Y137000D02*
D03*
X85900Y141315D02*
D03*
X81000Y142265D02*
D03*
X87600Y138200D02*
D03*
X70000Y151200D02*
D03*
X90900Y152100D02*
D03*
X90300Y133000D02*
D03*
X84100Y148200D02*
D03*
X72800Y132800D02*
D03*
X65400Y147800D02*
D03*
X69950Y155800D02*
D03*
X69713Y157100D02*
D03*
X61500Y150400D02*
D03*
X97200Y138400D02*
D03*
X96200Y144575D02*
D03*
X103400Y138900D02*
D03*
X105200Y138000D02*
D03*
X103400Y144800D02*
D03*
X105300Y145621D02*
D03*
Y142121D02*
D03*
Y147621D02*
D03*
X101450Y141000D02*
D03*
X63900Y148000D02*
D03*
X65400Y149700D02*
D03*
X84500Y146700D02*
D03*
X85100Y142750D02*
D03*
X92300Y135905D02*
D03*
X96000Y134000D02*
D03*
X73700Y144850D02*
D03*
X62950Y153250D02*
D03*
X64850D02*
D03*
X84870Y149830D02*
D03*
X88680D02*
D03*
X78500Y136900D02*
D03*
X73725Y136875D02*
D03*
X74710Y151000D02*
D03*
X75980D02*
D03*
X81060Y149830D02*
D03*
X77250D02*
D03*
X74300Y139925D02*
D03*
X72825Y135925D02*
D03*
X80100Y141315D02*
D03*
X79200Y140365D02*
D03*
X78300Y139415D02*
D03*
X92300Y156635D02*
D03*
X83200Y143600D02*
D03*
X71800Y153800D02*
D03*
X101100Y142905D02*
D03*
X90725Y157305D02*
D03*
X95800Y142270D02*
D03*
X95700Y139095D02*
D03*
X88680Y158500D02*
D03*
X86140D02*
D03*
X83600D02*
D03*
X79790D02*
D03*
X77250D02*
D03*
X67300Y153800D02*
D03*
X87100Y141635D02*
D03*
X95750Y149100D02*
D03*
X101375Y139095D02*
D03*
X96000Y156000D02*
D03*
X101100Y155365D02*
D03*
Y157905D02*
D03*
X92300D02*
D03*
Y155365D02*
D03*
X101100Y135905D02*
D03*
Y133365D02*
D03*
X92300D02*
D03*
X97500Y102400D02*
D03*
X95981Y102631D02*
D03*
X96000Y127000D02*
D03*
Y124800D02*
D03*
X84600Y106300D02*
D03*
X86200Y107000D02*
D03*
X85900Y111315D02*
D03*
X81000Y112265D02*
D03*
X87600Y108200D02*
D03*
X70000Y121200D02*
D03*
X90900Y122100D02*
D03*
X90300Y103000D02*
D03*
X84100Y118200D02*
D03*
X72800Y102800D02*
D03*
X65400Y117800D02*
D03*
X69950Y125800D02*
D03*
X69713Y127100D02*
D03*
X61500Y120400D02*
D03*
X97200Y108400D02*
D03*
X96200Y114575D02*
D03*
X103400Y108900D02*
D03*
X105200Y108000D02*
D03*
X103400Y114800D02*
D03*
X105300Y115621D02*
D03*
Y112121D02*
D03*
Y117621D02*
D03*
X101450Y111000D02*
D03*
X63900Y118000D02*
D03*
X65400Y119700D02*
D03*
X84500Y116700D02*
D03*
X85100Y112750D02*
D03*
X92300Y105905D02*
D03*
X96000Y104000D02*
D03*
X73700Y114850D02*
D03*
X62950Y123250D02*
D03*
X64850D02*
D03*
X84870Y119830D02*
D03*
X88680D02*
D03*
X78500Y106900D02*
D03*
X73725Y106875D02*
D03*
X74710Y121000D02*
D03*
X75980D02*
D03*
X81060Y119830D02*
D03*
X77250D02*
D03*
X74300Y109925D02*
D03*
X72825Y105925D02*
D03*
X80100Y111315D02*
D03*
X79200Y110365D02*
D03*
X78300Y109415D02*
D03*
X92300Y126635D02*
D03*
X83200Y113600D02*
D03*
X71800Y123800D02*
D03*
X101100Y112905D02*
D03*
X90725Y127305D02*
D03*
X95800Y112270D02*
D03*
X95700Y109095D02*
D03*
X88680Y128500D02*
D03*
X86140D02*
D03*
X83600D02*
D03*
X79790D02*
D03*
X77250D02*
D03*
X67300Y123800D02*
D03*
X87100Y111635D02*
D03*
X95750Y119100D02*
D03*
X101375Y109095D02*
D03*
X96000Y126000D02*
D03*
X101100Y125365D02*
D03*
Y127905D02*
D03*
X92300D02*
D03*
Y125365D02*
D03*
X101100Y105905D02*
D03*
Y103365D02*
D03*
X92300D02*
D03*
X97500Y72400D02*
D03*
X95981Y72631D02*
D03*
X96000Y97000D02*
D03*
Y94800D02*
D03*
X84600Y76300D02*
D03*
X86200Y77000D02*
D03*
X85900Y81315D02*
D03*
X81000Y82265D02*
D03*
X87600Y78200D02*
D03*
X70000Y91200D02*
D03*
X90900Y92100D02*
D03*
X90300Y73000D02*
D03*
X84100Y88200D02*
D03*
X72800Y72800D02*
D03*
X65400Y87800D02*
D03*
X69950Y95800D02*
D03*
X69713Y97100D02*
D03*
X61500Y90400D02*
D03*
X97200Y78400D02*
D03*
X96200Y84575D02*
D03*
X103400Y78900D02*
D03*
X105200Y78000D02*
D03*
X103400Y84800D02*
D03*
X105300Y85621D02*
D03*
Y82121D02*
D03*
Y87621D02*
D03*
X101450Y81000D02*
D03*
X63900Y88000D02*
D03*
X65400Y89700D02*
D03*
X84500Y86700D02*
D03*
X85100Y82750D02*
D03*
X92300Y75905D02*
D03*
X96000Y74000D02*
D03*
X73700Y84850D02*
D03*
X62950Y93250D02*
D03*
X64850D02*
D03*
X84870Y89830D02*
D03*
X88680D02*
D03*
X78500Y76900D02*
D03*
X73725Y76875D02*
D03*
X74710Y91000D02*
D03*
X75980D02*
D03*
X81060Y89830D02*
D03*
X77250D02*
D03*
X74300Y79925D02*
D03*
X72825Y75925D02*
D03*
X80100Y81315D02*
D03*
X79200Y80365D02*
D03*
X78300Y79415D02*
D03*
X92300Y96635D02*
D03*
X83200Y83600D02*
D03*
X71800Y93800D02*
D03*
X101100Y82905D02*
D03*
X90725Y97305D02*
D03*
X95800Y82270D02*
D03*
X95700Y79095D02*
D03*
X88680Y98500D02*
D03*
X86140D02*
D03*
X83600D02*
D03*
X79790D02*
D03*
X77250D02*
D03*
X67300Y93800D02*
D03*
X87100Y81635D02*
D03*
X95750Y89100D02*
D03*
X101375Y79095D02*
D03*
X96000Y96000D02*
D03*
X101100Y95365D02*
D03*
Y97905D02*
D03*
X92300D02*
D03*
Y95365D02*
D03*
X101100Y75905D02*
D03*
Y73365D02*
D03*
X92300D02*
D03*
X97500Y42400D02*
D03*
X95981Y42631D02*
D03*
X96000Y67000D02*
D03*
Y64800D02*
D03*
X84600Y46300D02*
D03*
X86200Y47000D02*
D03*
X85900Y51315D02*
D03*
X81000Y52265D02*
D03*
X87600Y48200D02*
D03*
X70000Y61200D02*
D03*
X90900Y62100D02*
D03*
X90300Y43000D02*
D03*
X84100Y58200D02*
D03*
X72800Y42800D02*
D03*
X65400Y57800D02*
D03*
X69950Y65800D02*
D03*
X69713Y67100D02*
D03*
X61500Y60400D02*
D03*
X97200Y48400D02*
D03*
X96200Y54575D02*
D03*
X103400Y48900D02*
D03*
X105200Y48000D02*
D03*
X103400Y54800D02*
D03*
X105300Y55621D02*
D03*
Y52121D02*
D03*
Y57621D02*
D03*
X101450Y51000D02*
D03*
X63900Y58000D02*
D03*
X65400Y59700D02*
D03*
X84500Y56700D02*
D03*
X85100Y52750D02*
D03*
X92300Y45905D02*
D03*
X96000Y44000D02*
D03*
X73700Y54850D02*
D03*
X62950Y63250D02*
D03*
X64850D02*
D03*
X84870Y59830D02*
D03*
X88680D02*
D03*
X78500Y46900D02*
D03*
X73725Y46875D02*
D03*
X74710Y61000D02*
D03*
X75980D02*
D03*
X81060Y59830D02*
D03*
X77250D02*
D03*
X74300Y49925D02*
D03*
X72825Y45925D02*
D03*
X80100Y51315D02*
D03*
X79200Y50365D02*
D03*
X78300Y49415D02*
D03*
X92300Y66635D02*
D03*
X83200Y53600D02*
D03*
X71800Y63800D02*
D03*
X101100Y52905D02*
D03*
X90725Y67305D02*
D03*
X95800Y52270D02*
D03*
X95700Y49095D02*
D03*
X88680Y68500D02*
D03*
X86140D02*
D03*
X83600D02*
D03*
X79790D02*
D03*
X77250D02*
D03*
X67300Y63800D02*
D03*
X87100Y51635D02*
D03*
X95750Y59100D02*
D03*
X101375Y49095D02*
D03*
X96000Y66000D02*
D03*
X101100Y65365D02*
D03*
Y67905D02*
D03*
X92300D02*
D03*
Y65365D02*
D03*
X101100Y45905D02*
D03*
Y43365D02*
D03*
X92300D02*
D03*
X97500Y12400D02*
D03*
X95981Y12631D02*
D03*
X96000Y37000D02*
D03*
Y34800D02*
D03*
X84600Y16300D02*
D03*
X86200Y17000D02*
D03*
X85900Y21315D02*
D03*
X81000Y22265D02*
D03*
X87600Y18200D02*
D03*
X70000Y31200D02*
D03*
X90900Y32100D02*
D03*
X90300Y13000D02*
D03*
X84100Y28200D02*
D03*
X72800Y12800D02*
D03*
X65400Y27800D02*
D03*
X69950Y35800D02*
D03*
X69713Y37100D02*
D03*
X61500Y30400D02*
D03*
X97200Y18400D02*
D03*
X96200Y24575D02*
D03*
X103400Y18900D02*
D03*
X105200Y18000D02*
D03*
X103400Y24800D02*
D03*
X105300Y25621D02*
D03*
Y22121D02*
D03*
Y27621D02*
D03*
X101450Y21000D02*
D03*
X63900Y28000D02*
D03*
X65400Y29700D02*
D03*
X84500Y26700D02*
D03*
X85100Y22750D02*
D03*
X92300Y15905D02*
D03*
X96000Y14000D02*
D03*
X73700Y24850D02*
D03*
X62950Y33250D02*
D03*
X64850D02*
D03*
X84870Y29830D02*
D03*
X88680D02*
D03*
X78500Y16900D02*
D03*
X73725Y16875D02*
D03*
X74710Y31000D02*
D03*
X75980D02*
D03*
X81060Y29830D02*
D03*
X77250D02*
D03*
X74300Y19925D02*
D03*
X72825Y15925D02*
D03*
X80100Y21315D02*
D03*
X79200Y20365D02*
D03*
X78300Y19415D02*
D03*
X92300Y36635D02*
D03*
X83200Y23600D02*
D03*
X71800Y33800D02*
D03*
X101100Y22905D02*
D03*
X90725Y37305D02*
D03*
X95800Y22270D02*
D03*
X95700Y19095D02*
D03*
X88680Y38500D02*
D03*
X86140D02*
D03*
X83600D02*
D03*
X79790D02*
D03*
X77250D02*
D03*
X67300Y33800D02*
D03*
X87100Y21635D02*
D03*
X95750Y29100D02*
D03*
X101375Y19095D02*
D03*
X96000Y36000D02*
D03*
X101100Y35365D02*
D03*
Y37905D02*
D03*
X92300D02*
D03*
Y35365D02*
D03*
X101100Y15905D02*
D03*
Y13365D02*
D03*
X92300D02*
D03*
X22500Y157600D02*
D03*
X24019Y157369D02*
D03*
X24000Y133000D02*
D03*
Y135200D02*
D03*
X35400Y153700D02*
D03*
X33800Y153000D02*
D03*
X34100Y148685D02*
D03*
X39000Y147735D02*
D03*
X32400Y151800D02*
D03*
X50000Y138800D02*
D03*
X29100Y137900D02*
D03*
X29700Y157000D02*
D03*
X35900Y141800D02*
D03*
X47200Y157200D02*
D03*
X54600Y142200D02*
D03*
X50050Y134200D02*
D03*
X50287Y132900D02*
D03*
X58500Y139600D02*
D03*
X22800Y151600D02*
D03*
X23800Y145425D02*
D03*
X16600Y151100D02*
D03*
X14800Y152000D02*
D03*
X16600Y145200D02*
D03*
X14700Y144379D02*
D03*
Y147879D02*
D03*
Y142379D02*
D03*
X18550Y149000D02*
D03*
X56100Y142000D02*
D03*
X54600Y140300D02*
D03*
X35500Y143300D02*
D03*
X34900Y147250D02*
D03*
X27700Y154095D02*
D03*
X24000Y156000D02*
D03*
X46300Y145150D02*
D03*
X57050Y136750D02*
D03*
X55150D02*
D03*
X35130Y140170D02*
D03*
X31320D02*
D03*
X41500Y153100D02*
D03*
X46275Y153125D02*
D03*
X45290Y139000D02*
D03*
X44020D02*
D03*
X38940Y140170D02*
D03*
X42750D02*
D03*
X45700Y150075D02*
D03*
X47175Y154075D02*
D03*
X39900Y148685D02*
D03*
X40800Y149635D02*
D03*
X41700Y150585D02*
D03*
X27700Y133365D02*
D03*
X36800Y146400D02*
D03*
X48200Y136200D02*
D03*
X18900Y147095D02*
D03*
X29275Y132695D02*
D03*
X24200Y147730D02*
D03*
X24300Y150905D02*
D03*
X31320Y131500D02*
D03*
X33860D02*
D03*
X36400D02*
D03*
X40210D02*
D03*
X42750D02*
D03*
X52700Y136200D02*
D03*
X32900Y148365D02*
D03*
X24250Y140900D02*
D03*
X18625Y150905D02*
D03*
X24000Y134000D02*
D03*
X18900Y134635D02*
D03*
Y132095D02*
D03*
X27700D02*
D03*
Y134635D02*
D03*
X18900Y154095D02*
D03*
Y156635D02*
D03*
X27700D02*
D03*
X22500Y127600D02*
D03*
X24019Y127369D02*
D03*
X24000Y103000D02*
D03*
Y105200D02*
D03*
X35400Y123700D02*
D03*
X33800Y123000D02*
D03*
X34100Y118685D02*
D03*
X39000Y117735D02*
D03*
X32400Y121800D02*
D03*
X50000Y108800D02*
D03*
X29100Y107900D02*
D03*
X29700Y127000D02*
D03*
X35900Y111800D02*
D03*
X47200Y127200D02*
D03*
X54600Y112200D02*
D03*
X50050Y104200D02*
D03*
X50287Y102900D02*
D03*
X58500Y109600D02*
D03*
X22800Y121600D02*
D03*
X23800Y115425D02*
D03*
X16600Y121100D02*
D03*
X14800Y122000D02*
D03*
X16600Y115200D02*
D03*
X14700Y114379D02*
D03*
Y117879D02*
D03*
Y112379D02*
D03*
X18550Y119000D02*
D03*
X56100Y112000D02*
D03*
X54600Y110300D02*
D03*
X35500Y113300D02*
D03*
X34900Y117250D02*
D03*
X27700Y124095D02*
D03*
X24000Y126000D02*
D03*
X46300Y115150D02*
D03*
X57050Y106750D02*
D03*
X55150D02*
D03*
X35130Y110170D02*
D03*
X31320D02*
D03*
X41500Y123100D02*
D03*
X46275Y123125D02*
D03*
X45290Y109000D02*
D03*
X44020D02*
D03*
X38940Y110170D02*
D03*
X42750D02*
D03*
X45700Y120075D02*
D03*
X47175Y124075D02*
D03*
X39900Y118685D02*
D03*
X40800Y119635D02*
D03*
X41700Y120585D02*
D03*
X27700Y103365D02*
D03*
X36800Y116400D02*
D03*
X48200Y106200D02*
D03*
X18900Y117095D02*
D03*
X29275Y102695D02*
D03*
X24200Y117730D02*
D03*
X24300Y120905D02*
D03*
X31320Y101500D02*
D03*
X33860D02*
D03*
X36400D02*
D03*
X40210D02*
D03*
X42750D02*
D03*
X52700Y106200D02*
D03*
X32900Y118365D02*
D03*
X24250Y110900D02*
D03*
X18625Y120905D02*
D03*
X24000Y104000D02*
D03*
X18900Y104635D02*
D03*
Y102095D02*
D03*
X27700D02*
D03*
Y104635D02*
D03*
X18900Y124095D02*
D03*
Y126635D02*
D03*
X27700D02*
D03*
X22500Y97600D02*
D03*
X24019Y97369D02*
D03*
X24000Y73000D02*
D03*
Y75200D02*
D03*
X35400Y93700D02*
D03*
X33800Y93000D02*
D03*
X34100Y88685D02*
D03*
X39000Y87735D02*
D03*
X32400Y91800D02*
D03*
X50000Y78800D02*
D03*
X29100Y77900D02*
D03*
X29700Y97000D02*
D03*
X35900Y81800D02*
D03*
X47200Y97200D02*
D03*
X54600Y82200D02*
D03*
X50050Y74200D02*
D03*
X50287Y72900D02*
D03*
X58500Y79600D02*
D03*
X22800Y91600D02*
D03*
X23800Y85425D02*
D03*
X16600Y91100D02*
D03*
X14800Y92000D02*
D03*
X16600Y85200D02*
D03*
X14700Y84379D02*
D03*
Y87879D02*
D03*
Y82379D02*
D03*
X18550Y89000D02*
D03*
X56100Y82000D02*
D03*
X54600Y80300D02*
D03*
X35500Y83300D02*
D03*
X34900Y87250D02*
D03*
X27700Y94095D02*
D03*
X24000Y96000D02*
D03*
X46300Y85150D02*
D03*
X57050Y76750D02*
D03*
X55150D02*
D03*
X35130Y80170D02*
D03*
X31320D02*
D03*
X41500Y93100D02*
D03*
X46275Y93125D02*
D03*
X45290Y79000D02*
D03*
X44020D02*
D03*
X38940Y80170D02*
D03*
X42750D02*
D03*
X45700Y90075D02*
D03*
X47175Y94075D02*
D03*
X39900Y88685D02*
D03*
X40800Y89635D02*
D03*
X41700Y90585D02*
D03*
X27700Y73365D02*
D03*
X36800Y86400D02*
D03*
X48200Y76200D02*
D03*
X18900Y87095D02*
D03*
X29275Y72695D02*
D03*
X24200Y87730D02*
D03*
X24300Y90905D02*
D03*
X31320Y71500D02*
D03*
X33860D02*
D03*
X36400D02*
D03*
X40210D02*
D03*
X42750D02*
D03*
X52700Y76200D02*
D03*
X32900Y88365D02*
D03*
X24250Y80900D02*
D03*
X18625Y90905D02*
D03*
X24000Y74000D02*
D03*
X18900Y74635D02*
D03*
Y72095D02*
D03*
X27700D02*
D03*
Y74635D02*
D03*
X18900Y94095D02*
D03*
Y96635D02*
D03*
X27700D02*
D03*
M02*
