M48
;Layer_Color=9474304
;FILE_FORMAT=4:3
METRIC,TZ
;TYPE=PLATED
T1F00S00C0.250
T2F00S00C0.300
T5F00S00C0.600
T6F00S00C0.700
T7F00S00C0.800
T8F00S00C1.000
%
T01
X89700Y19100
X68700Y19800
Y22200
X69950Y24850
X61675Y24925
Y22925
X61500Y21200
X61675Y18925
X64000Y15900
X65000Y14800
X66000
X68000
X69000
X69900Y16000
X65500Y17400
X58325Y25075
X50050Y25150
X52000Y22750
X50500Y21100
X30300Y30900
Y60900
X51300Y60200
Y57800
X50050Y55150
X52000Y52750
X50500Y51100
X61500Y51200
X61675Y52925
Y54925
X58325Y55075
Y57075
X58500Y58800
X58325Y61075
X56000Y64100
X55000Y65200
X54000
X52000
X51000
X50100Y64000
X54500Y62600
X69500Y58900
X68000Y57250
X69950Y54850
X68700Y52200
Y49800
X69900Y46000
X69000Y44800
X68000
X66000
X65000
X64000Y45900
X65500Y47400
X61675Y48925
X55000Y35200
X54000
X52000
X51000
X50100Y34000
X51300Y30200
Y27800
X58325Y27075
X58500Y28800
X58325Y31075
X56000Y34100
X54500Y32600
X69500Y28900
X68000Y27250
X89700Y49100
Y79100
X68700Y79800
Y82200
X69950Y84850
X68000Y87250
X69500Y88900
X58500Y88800
X58325Y87075
Y85075
X61675Y84925
Y82925
X61500Y81200
X61675Y78925
X64000Y75900
X65000Y74800
X66000
X68000
X69000
X69900Y76000
X65500Y77400
X50500Y81100
X52000Y82750
X50050Y85150
X51300Y87800
Y90200
X50100Y94000
X51000Y95200
X52000
X54000
X55000
X56000Y94100
X54500Y92600
X58325Y91075
X65000Y104800
X66000
X68000
X69000
X30300Y90900
Y120900
X51300Y120200
Y117800
X50050Y115150
X52000Y112750
X50500Y111100
X61500Y111200
X61675Y112925
Y114925
X58325Y115075
Y117075
X58500Y118800
X58325Y121075
X56000Y124100
X55000Y125200
X54000
X52000
X51000
X50100Y124000
X54500Y122600
X69500Y118900
X68000Y117250
X69950Y114850
X68700Y112200
Y109800
X69900Y106000
X65500Y107400
X64000Y105900
X61675Y108925
X65000Y134800
X66000
X68000
X69000
X69900Y136000
X68700Y139800
Y142200
X69950Y144850
X61675Y144925
Y142925
X61500Y141200
X61675Y138925
X64000Y135900
X65500Y137400
X58325Y145075
X50050Y145150
X52000Y142750
X50500Y141100
X89700Y139100
Y109100
X68000Y147250
X69500Y148900
X58500Y148800
X58325Y147075
Y151075
X56000Y154100
X55000Y155200
X54000
X52000
X51000
X50100Y154000
X51300Y150200
Y147800
X54500Y152600
X30300Y150900
T02
X84600Y16300
X86200Y17000
X87600Y18200
X87100Y21635
X85900Y21315
X85100Y22750
X95800Y22270
X96200Y24575
X95700Y19095
X97200Y18400
X101375Y19095
X101450Y21000
X101100Y22905
X103400Y24800
X105300Y25621
Y22121
X105200Y18000
X103400Y18900
X101100Y15905
Y13365
X97500Y12400
X95981Y12631
X96000Y14000
X92300Y13365
X90300Y13000
X92300Y15905
X78500Y16900
X78300Y19415
X79200Y20365
X80100Y21315
X81000Y22265
X83200Y23600
X73700Y24850
X74300Y19925
X73725Y16875
X72825Y15925
X72800Y12800
X57050Y16750
X55150
X52700Y16200
X48200
X50050Y14200
X50287Y12900
X50000Y18800
X45290Y19000
X44020
X46300Y25150
X54600Y22200
X56100Y22000
X54600Y20300
X58500Y19600
X42750Y20170
X38940
X35130
X35900Y21800
X35500Y23300
X31320Y20170
X29100Y17900
X27700Y14635
Y13365
Y12095
X29275Y12695
X31320Y11500
X33860
X36400
X40210
X42750
X24000Y13000
Y14000
Y15200
X18900Y14635
Y12095
X24250Y20900
X23800Y25425
X16600Y25200
X14700Y24379
Y22379
Y27879
X14800Y32000
X16600Y31100
X18625Y30905
X18550Y29000
X18900Y27095
X24200Y27730
X24300Y30905
X22800Y31600
X24000Y36000
X24019Y37369
X22500Y37600
X18900Y36635
Y34095
Y42095
Y44635
X24000Y45200
Y44000
Y43000
X27700Y43365
Y42095
X29275Y42695
X31320Y41500
X33860
X36400
X40210
X42750
Y50170
X38940
X35130
X35900Y51800
X35500Y53300
X36800Y56400
X34900Y57250
X34100Y58685
X32900Y58365
X32400Y61800
X33800Y63000
X35400Y63700
X41500Y63100
X41700Y60585
X40800Y59635
X39900Y58685
X39000Y57735
X24200Y57730
X23800Y55425
X24250Y50900
X31320Y50170
X29100Y47900
X27700Y44635
Y36635
X29700Y37000
X27700Y34095
X32400Y31800
X33800Y33000
X35400Y33700
X34100Y28685
X32900Y28365
X34900Y27250
X36800Y26400
X39000Y27735
X39900Y28685
X40800Y29635
X41700Y30585
X41500Y33100
X27700Y64095
X24300Y60905
X22800Y61600
X18625Y60905
X18550Y59000
X18900Y57095
X16600Y55200
X14700Y54379
Y52379
Y57879
X14800Y62000
X16600Y61100
X18900Y64095
X47175Y64075
X46275Y63125
X45700Y60075
X46300Y55150
X45290Y49000
X44020
X50000Y48800
X48200Y46200
X50050Y44200
X50287Y42900
X52700Y46200
X55150Y46750
X57050
X58500Y49600
X54600Y50300
Y52200
X56100Y52000
X61500Y60400
X62950Y63250
X64850
X67300Y63800
X71800
X69950Y65800
X70000Y61200
X74710Y61000
X75980
X77250Y59830
X81060
X81000Y52265
X80100Y51315
X79200Y50365
X78300Y49415
X78500Y46900
X73725Y46875
X72825Y45925
X72800Y42800
X74300Y49925
X73700Y54850
X83200Y53600
X79790Y38500
X77250
Y29830
X75980Y31000
X74710
X70000Y31200
X71800Y33800
X69950Y35800
X69713Y37100
X67300Y33800
X64850Y33250
X62950
X61500Y30400
X65400Y29700
Y27800
X63900Y28000
X81060Y29830
X45700Y30075
X46275Y33125
X47175Y34075
X47200Y37200
X63900Y58000
X65400Y57800
Y59700
X84870Y59830
X84100Y58200
X84500Y56700
X85100Y52750
X85900Y51315
X87100Y51635
X87600Y48200
X86200Y47000
X84600Y46300
X92300Y45905
Y43365
X90300Y43000
X95981Y42631
X96000Y44000
X97500Y42400
X101100Y43365
Y45905
X101375Y49095
X101450Y51000
X101100Y52905
X103400Y54800
X105300Y55621
Y57621
Y52121
X105200Y48000
X103400Y48900
X97200Y48400
X95700Y49095
X95800Y52270
X96200Y54575
X95750Y59100
X96000Y64800
X92300Y65365
X90900Y62100
X88680Y59830
X101100Y65365
Y37905
Y35365
X96000Y34800
Y36000
Y37000
X92300Y36635
Y37905
X90725Y37305
X88680Y38500
X86140
X83600
X84870Y29830
X84100Y28200
X84500Y26700
X88680Y29830
X90900Y32100
X92300Y35365
X95750Y29100
X105300Y27621
X101100Y67905
Y73365
Y75905
X101375Y79095
X101450Y81000
X101100Y82905
X103400Y84800
X105300Y85621
Y87621
Y82121
X105200Y78000
X103400Y78900
X97200Y78400
X95700Y79095
X95800Y82270
X96200Y84575
X95750Y89100
X96000Y94800
Y96000
Y97000
X92300Y96635
Y97905
X90725Y97305
X88680Y98500
X86140
X83600
X84870Y89830
X84100Y88200
X84500Y86700
X85100Y82750
X85900Y81315
X87100Y81635
X87600Y78200
X86200Y77000
X84600Y76300
X92300Y75905
Y73365
X90300Y73000
X95981Y72631
X96000Y74000
X97500Y72400
X96000Y67000
Y66000
X92300Y66635
Y67905
X90725Y67305
X88680Y68500
X86140
X83600
X88680Y89830
X90900Y92100
X92300Y95365
Y103365
X90300Y103000
X95981Y102631
X96000Y104000
X97500Y102400
X101100Y103365
Y97905
Y95365
X79790Y98500
X77250
Y89830
X75980Y91000
X74710
X70000Y91200
X71800Y93800
X69950Y95800
X69713Y97100
X67300Y93800
X64850Y93250
X62950
X61500Y90400
X65400Y89700
Y87800
X63900Y88000
X73700Y84850
X74300Y79925
X73725Y76875
X72825Y75925
X72800Y72800
X77250Y68500
X79790
X78500Y76900
X78300Y79415
X79200Y80365
X80100Y81315
X81000Y82265
X83200Y83600
X81060Y89830
X72800Y102800
X50287Y102900
X50050Y104200
X47200Y97200
X47175Y94075
X46275Y93125
X45700Y90075
X46300Y85150
X45290Y79000
X44020
X50000Y78800
X48200Y76200
X50050Y74200
X50287Y72900
X52700Y76200
X55150Y76750
X57050
X58500Y79600
X54600Y80300
Y82200
X56100Y82000
X47200Y67200
X69713Y67100
X42750Y71500
X40210
X36400
X33860
X31320
X29275Y72695
X27700Y72095
Y73365
Y74635
X24000Y75200
Y74000
Y73000
X24019Y67369
X24000Y66000
X22500Y67600
X18900Y66635
Y72095
Y74635
X24250Y80900
X23800Y85425
X24200Y87730
X24300Y90905
X22800Y91600
X18625Y90905
X18550Y89000
X18900Y87095
X16600Y85200
X14700Y84379
Y82379
Y87879
X14800Y92000
X16600Y91100
X18900Y94095
Y96635
X22500Y97600
X24019Y97369
X24000Y96000
X27700Y96635
X29700Y97000
X27700Y94095
X32400Y91800
X33800Y93000
X35400Y93700
X34100Y88685
X32900Y88365
X34900Y87250
X36800Y86400
X39000Y87735
X39900Y88685
X40800Y89635
X41700Y90585
X41500Y93100
X42750Y101500
X40210
X36400
X33860
X31320
X29275Y102695
X27700Y102095
Y103365
Y104635
X24000Y105200
Y104000
Y103000
X18900Y102095
Y104635
X31320Y80170
X35130
X35900Y81800
X35500Y83300
X38940Y80170
X42750
X29100Y77900
X29700Y67000
X27700Y66635
X29100Y107900
X31320Y110170
X35130
X35900Y111800
X35500Y113300
X36800Y116400
X34900Y117250
X34100Y118685
X32900Y118365
X32400Y121800
X33800Y123000
X35400Y123700
X41500Y123100
X41700Y120585
X40800Y119635
X39900Y118685
X39000Y117735
X38940Y110170
X42750
X24250Y110900
X23800Y115425
X24200Y117730
X24300Y120905
X22800Y121600
X18625Y120905
X18550Y119000
X18900Y117095
X16600Y115200
X14700Y114379
Y112379
Y117879
X14800Y122000
X16600Y121100
X18900Y124095
Y126635
X22500Y127600
X24019Y127369
X24000Y126000
X27700Y126635
X29700Y127000
X27700Y124095
Y132095
Y133365
Y134635
X29275Y132695
X31320Y131500
X33860
X36400
X40210
X42750
Y140170
X38940
X35130
X35900Y141800
X35500Y143300
X31320Y140170
X29100Y137900
X24000Y135200
Y134000
Y133000
X18900Y132095
Y134635
X24250Y140900
X14700Y142379
Y144379
X16600Y145200
X46300Y145150
X45290Y139000
X44020
X50000Y138800
X48200Y136200
X50050Y134200
X50287Y132900
X52700Y136200
X55150Y136750
X57050
X58500Y139600
X54600Y140300
Y142200
X56100Y142000
X74300Y139925
X73725Y136875
X72825Y135925
X72800Y132800
X77250Y128500
X79790
X78500Y136900
X78300Y139415
X79200Y140365
X80100Y141315
X81000Y142265
X83200Y143600
X73700Y144850
X69713Y127100
X69950Y125800
X71800Y123800
X70000Y121200
X74710Y121000
X75980
X77250Y119830
X81060
X81000Y112265
X80100Y111315
X79200Y110365
X78300Y109415
X78500Y106900
X73725Y106875
X72825Y105925
X74300Y109925
X73700Y114850
X83200Y113600
X65400Y117800
X63900Y118000
X65400Y119700
X64850Y123250
X62950
X61500Y120400
X67300Y123800
X47175Y124075
X46275Y123125
X45700Y120075
X46300Y115150
X45290Y109000
X44020
X50000Y108800
X48200Y106200
X52700
X55150Y106750
X57050
X58500Y109600
X54600Y110300
Y112200
X56100Y112000
X47200Y127200
X83600Y128500
X86140
X88680
X90725Y127305
X92300Y127905
Y126635
Y125365
X96000Y124800
Y126000
Y127000
X95981Y132631
X96000Y134000
X97500Y132400
X101100Y133365
Y135905
X101375Y139095
X101450Y141000
X101100Y142905
X103400Y144800
X105300Y142121
X105200Y138000
X103400Y138900
X97200Y138400
X95700Y139095
X95800Y142270
X96200Y144575
X87100Y141635
X85900Y141315
X85100Y142750
X86200Y137000
X84600Y136300
X87600Y138200
X92300Y135905
Y133365
X90300Y133000
X90900Y122100
X88680Y119830
X84870
X84100Y118200
X84500Y116700
X85100Y112750
X85900Y111315
X87100Y111635
X87600Y108200
X86200Y107000
X84600Y106300
X92300Y105905
X95700Y109095
X97200Y108400
X101375Y109095
X101450Y111000
X101100Y112905
X103400Y114800
X105300Y115621
Y117621
Y112121
X105200Y108000
X103400Y108900
X101100Y105905
X95800Y112270
X96200Y114575
X95750Y119100
X101100Y125365
Y127905
X105300Y145621
Y147621
X95750Y149100
X96000Y154800
Y156000
Y157000
X92300Y156635
Y157905
X90725Y157305
X88680Y158500
X86140
X83600
X84870Y149830
X84100Y148200
X84500Y146700
X88680Y149830
X90900Y152100
X92300Y155365
X101100
Y157905
X79790Y158500
X77250
Y149830
X75980Y151000
X74710
X70000Y151200
X71800Y153800
X69950Y155800
X69713Y157100
X67300Y153800
X64850Y153250
X62950
X61500Y150400
X65400Y149700
Y147800
X63900Y148000
X81060Y149830
X45700Y150075
X46275Y153125
X47175Y154075
X47200Y157200
X41500Y153100
X41700Y150585
X40800Y149635
X39900Y148685
X39000Y147735
X36800Y146400
X34900Y147250
X34100Y148685
X32900Y148365
X32400Y151800
X33800Y153000
X35400Y153700
X27700Y154095
Y156635
X29700Y157000
X24019Y157369
X24000Y156000
X22500Y157600
X18900Y156635
Y154095
X18625Y150905
X18550Y149000
X18900Y147095
X14700Y147879
X14800Y152000
X16600Y151100
X22800Y151600
X24300Y150905
X24200Y147730
X23800Y145425
T05
X89500Y23700
X79500
X41000Y21300
X30000
X30500Y26300
X40500
X41000Y51300
X40500Y56300
X30500
X30000Y51300
X79500Y53700
X79000Y58700
Y28700
X90000
X89500Y53700
X90000Y58700
X89500Y83700
X90000Y88700
X79000
X79500Y83700
X41000Y81300
X40500Y86300
X30500
X30000Y81300
Y111300
X30500Y116300
X40500
X41000Y111300
Y141300
X30000
X79500Y143700
X79000Y118700
X79500Y113700
X89500
X90000Y118700
X89500Y143700
X90000Y148700
X79000
X40500Y146300
X30500
T06
X74460Y13000
X77000
X79540
X18000Y21000
Y23000
Y51000
Y53000
X40460Y37000
X43000
X45540
X74460Y43000
X77000
X79540
X102000Y57000
Y59000
Y29000
Y27000
Y87000
Y89000
X79540Y103000
X77000
X74460
Y73000
X77000
X79540
X45540Y67000
Y97000
X43000
X40460
Y67000
X43000
X18000Y81000
Y83000
Y111000
Y113000
Y141000
Y143000
X40460Y127000
X43000
X45540
X74460Y133000
X77000
X79540
X102000Y119000
Y117000
Y147000
Y149000
X45540Y157000
X43000
X40460
T07
X85270Y13000
X82730
X37270Y37000
X34730
X82730Y43000
X85270
Y73000
Y103000
X82730
Y73000
X37270Y67000
X34730
Y97000
X37270
Y127000
X34730
X82730Y133000
X85270
X37270Y157000
X34730
T08
X103400Y15900
X45000Y13000
X26200Y19400
X20000Y19000
X16000Y17300
X12500
X16600Y34100
X16000Y47300
X12500
X20000Y49000
X26200Y49400
X16600Y64100
X45000Y43000
X75000Y37000
X93800Y30600
X100000Y31000
X104000Y32700
X107500
X103400Y45900
X104000Y62700
X107500
X100000Y61000
X93800Y60600
X103400Y75900
X104000Y92700
X107500
X100000Y91000
X93800Y90600
X75000Y97000
Y67000
X45000Y73000
Y103000
X16600Y94100
X16000Y77300
X12500
X20000Y79000
X26200Y79400
Y109400
X20000Y109000
X16000Y107300
X12500
X16600Y124100
X16000Y137300
X12500
X20000Y139000
X26200Y139400
X45000Y133000
X75000Y127000
X93800Y120600
X100000Y121000
X104000Y122700
X107500
X103400Y135900
Y105900
X104000Y152700
X107500
X100000Y151000
X93800Y150600
X75000Y157000
X16600Y154100
M30
