M48
;Layer_Color=9474304
;FILE_FORMAT=4:3
METRIC,TZ
;TYPE=PLATED
T3F00S00C0.300
T4F00S00C0.550
%
G90
G05
T03
X108145Y20796G85Y21196
X11855Y21204G85Y20804
X11855Y29204G85Y28804
X11855Y51204G85Y50804
X11855Y59204G85Y58804
X108145Y58796G85Y59196
X108145Y50796G85Y51196
X108145Y28796G85Y29196
X108145Y80796G85Y81196
X108145Y88796G85Y89196
X11855Y89204G85Y88804
X11855Y81204G85Y80804
X11855Y111204G85Y110804
X11855Y119204G85Y118804
X11855Y141204G85Y140804
X108145Y140796G85Y141196
X108145Y118796G85Y119196
X108145Y110796G85Y111196
X108145Y148796G85Y149196
X11855Y149204G85Y148804
T04
X108775Y20046G85X108175
X11225Y20054G85X11825
X11225Y29954G85X11825
X11225Y50054G85X11825
X11225Y59954G85X11825
X108775Y59946G85X108175
X108775Y50046G85X108175
X108775Y29946G85X108175
X108775Y80046G85X108175
X108775Y89946G85X108175
X11225Y89954G85X11825
X11225Y80054G85X11825
X11225Y110054G85X11825
X11225Y119954G85X11825
X11225Y140054G85X11825
X108775Y140046G85X108175
X108775Y119946G85X108175
X108775Y110046G85X108175
X108775Y149946G85X108175
X11225Y149954G85X11825
M30
