M48
;Layer_Color=9474304
;FILE_FORMAT=4:3
METRIC,TZ
;TYPE=NON_PLATED
T9F00S00C1.100
T10F00S00C3.000
%
T09
X16300Y19500
Y49500
X103700Y60500
Y30500
Y90500
X16300Y79500
Y109500
Y139500
X103700Y120500
Y150500
T10
X106000Y14000
X56000Y14000
X14000
Y36000
Y44000
X56000
X64000Y36000
X106000
Y44000
Y66000
Y74000
Y96000
Y104000
X64000Y96000
X56000Y104000
Y74000
X64000Y66000
X14000Y66000
Y74000
Y96000
Y104000
Y126000
Y134000
X56000
X64000Y126000
X106000
Y134000
Y156000
X64000
X14000Y156000
M30
